<?xml version="1.0" encoding="UTF-8"?>
<svg width="78px" height="77px" viewBox="0 0 78 77" version="1.1" xmlns="http://www.w3.org/2000/svg" xmlns:xlink="http://www.w3.org/1999/xlink">
    <!-- Generator: Sketch 41.2 (35397) - http://www.bohemiancoding.com/sketch -->
    <title>bottle</title>
    <desc>Created with Sketch.</desc>
    <defs></defs>
    <g id="Page-1" stroke="none" stroke-width="1" fill="none" fill-rule="evenodd">
        <g id="Desktop-HD" transform="translate(-869.000000, -2572.000000)">
            <g id="ギリシャ02" transform="translate(777.000000, 2458.000000)">
                <g id="cheers-people02" transform="translate(44.000000, 0.000000)">
                    <g id="bottle" transform="translate(88.027057, 151.465578) rotate(-40.000000) translate(-88.027057, -151.465578) translate(57.027057, 109.465578)">
                        <path d="M21,4 L20.9237694,4 L23.602654,27 C12.8871156,24 0.385654168,36 2.17157724,46 C3.75518412,54.8671618 13.7639901,75.5742405 16.0113389,80.1520002 C16.0460351,80.3841711 16.1598819,80.6112816 16.3463299,80.8316944 C16.4200258,80.9805269 16.4588856,81.0584194 16.4588856,81.0584194 L16.5661148,81.0584194 C18.4222321,82.7539272 24.6290442,84 32,84 C39.3709558,84 45.5777679,82.7539272 47.4338852,81.0584194 L47.5411144,81.0584194 C47.5411144,81.0584194 47.5799742,80.9805269 47.6536701,80.8316944 C47.8401181,80.6112816 47.9539649,80.3841711 47.9886611,80.1520002 C50.2360099,75.5742405 60.2448159,54.8671618 61.8284228,46 C63.6143458,36 51.1128844,24 40.397346,27 L43.0762306,4 L43,4 C43,1.790861 38.0751322,-2.84217094e-14 32,-2.84217094e-14 C25.9248678,-2.84217094e-14 21,1.790861 21,4 Z" id="Combined-Shape" fill="#8B572A"></path>
                        <ellipse id="Oval-13" fill="#633D1D" cx="32" cy="5" rx="9" ry="3"></ellipse>
                        <path d="M28,18 C28,18 17,9 8,13 C-1,17 -5,35 15.0869651,42" id="Path-13" stroke="#8B572A" stroke-width="5"></path>
                    </g>
                </g>
            </g>
        </g>
    </g>
</svg>