<?xml version="1.0" encoding="UTF-8"?>
<svg width="85px" height="72px" viewBox="0 0 85 72" version="1.1" xmlns="http://www.w3.org/2000/svg" xmlns:xlink="http://www.w3.org/1999/xlink">
    <!-- Generator: Sketch 41.2 (35397) - http://www.bohemiancoding.com/sketch -->
    <title>cheers-hand01</title>
    <desc>Created with Sketch.</desc>
    <defs>
        <polygon id="path-1" points="35.0415946 0 0 0 8.80586798 30.6083477 26.2357266 30.6083477"></polygon>
    </defs>
    <g id="Page-1" stroke="none" stroke-width="1" fill="none" fill-rule="evenodd">
        <g id="Desktop-HD" transform="translate(-682.000000, -2540.000000)">
            <g id="ギリシャ01" transform="translate(612.000000, 2462.000000)">
                <g id="cheers-hand01" transform="translate(115.500000, 114.500000) scale(-1, 1) translate(-115.500000, -114.500000) translate(75.000000, 78.000000)">
                    <g id="Group-20" transform="translate(12.000000, 14.000000)">
                        <path d="M32.3353247,8.38263521 C32.3353247,8.38263521 11.7584194,28.0368285 21.5268288,41.9500661 C31.2952381,55.8633036 60.0772267,48.7401223 60.0772267,48.7401223" id="Path-6" stroke="#FFD9B0" stroke-width="13" transform="translate(39.486489, 29.472968) rotate(315.000000) translate(-39.486489, -29.472968) "></path>
                        <ellipse id="Oval-3" fill="#FFD9B0" transform="translate(16.157616, 15.044048) rotate(165.000000) translate(-16.157616, -15.044048) " cx="16.1576162" cy="15.0440478" rx="13.8242962" ry="10.8352592"></ellipse>
                    </g>
                    <g id="cap" transform="translate(18.000000, 15.500000) scale(-1, 1) translate(-18.000000, -15.500000) ">
                        <mask id="mask-2" fill="white">
                            <use xlink:href="#path-1"></use>
                        </mask>
                        <use id="Mask" fill="#F5A623" xlink:href="#path-1"></use>
                        <polygon id="Path-14" fill="#CF870F" mask="url(#mask-2)" points="24 -8 16 36 36 35 43 -6"></polygon>
                    </g>
                </g>
            </g>
        </g>
    </g>
</svg>