<?xml version="1.0" encoding="UTF-8"?>
<svg width="110px" height="264px" viewBox="0 0 110 264" version="1.1" xmlns="http://www.w3.org/2000/svg" xmlns:xlink="http://www.w3.org/1999/xlink">
    <!-- Generator: Sketch 41.2 (35397) - http://www.bohemiancoding.com/sketch -->
    <title>cheers-people01</title>
    <desc>Created with Sketch.</desc>
    <defs>
        <path d="M38.426508,0.00518304735 C47.3716278,0.367680935 58.0695396,2.11745195 64.0165068,11.6742079 C71.6630178,23.9621248 61.5880794,58.6588716 58.7346771,66.5810427 L58.7346771,74.0630128 L68,139 L0.513227573,139 L11.0915214,74.0630128 L11.0915214,66.5810427 C8.23811917,58.6588716 -1.83681924,23.9621248 5.80969171,11.6742079 C11.7566589,2.11745195 22.4545707,0.367680935 31.3709865,0.061974719 C32.4970316,0.00518304735 33.675371,-0.00312804118 34.9130993,0.0012984329 C36.1508275,-0.00312804118 37.3291669,0.00518304735 38.426508,0.00518304735 Z" id="path-1"></path>
        <path d="M38.276473,95.826087 C71,95.826087 74.4709543,74.3746867 76.4037409,47.9130435 C78.3365276,21.4514002 61.2663683,0 38.276473,0 C15.2865778,0 -1.7835815,21.4514002 0.149205136,47.9130435 C2.08199177,74.3746867 5.55294606,95.826087 38.276473,95.826087 Z" id="path-3"></path>
        <path d="M38.426508,0.00518304735 C47.3716278,0.367680935 58.0695396,2.11745195 64.0165068,11.6742079 C71.6630178,23.9621248 61.5880794,58.6588716 58.7346771,66.5810427 L58.7346771,74.0630128 L68,139 L0.513227573,139 L11.0915214,74.0630128 L11.0915214,66.5810427 C8.23811917,58.6588716 -1.83681924,23.9621248 5.80969171,11.6742079 C11.7566589,2.11745195 22.4545707,0.367680935 31.3709865,0.061974719 C32.4970316,0.00518304735 33.675371,-0.00312804118 34.9130993,0.0012984329 C36.1508275,-0.00312804118 37.3291669,0.00518304735 38.426508,0.00518304735 Z" id="path-5"></path>
        <path d="M38.276473,95.826087 C71,95.826087 74.4709543,74.3746867 76.4037409,47.9130435 C78.3365276,21.4514002 61.2663683,0 38.276473,0 C15.2865778,0 -1.7835815,21.4514002 0.149205136,47.9130435 C2.08199177,74.3746867 5.55294606,95.826087 38.276473,95.826087 Z" id="path-7"></path>
        <path d="M38.426508,0.00518304735 C47.3716278,0.367680935 58.0695396,2.11745195 64.0165068,11.6742079 C71.6630178,23.9621248 61.5880794,58.6588716 58.7346771,66.5810427 L58.7346771,74.0630128 L68,139 L0.513227573,139 L11.0915214,74.0630128 L11.0915214,66.5810427 C8.23811917,58.6588716 -1.83681924,23.9621248 5.80969171,11.6742079 C11.7566589,2.11745195 22.4545707,0.367680935 31.3709865,0.061974719 C32.4970316,0.00518304735 33.675371,-0.00312804118 34.9130993,0.0012984329 C36.1508275,-0.00312804118 37.3291669,0.00518304735 38.426508,0.00518304735 Z" id="path-9"></path>
        <path d="M38.276473,95.826087 C71,95.826087 74.4709543,74.3746867 76.4037409,47.9130435 C78.3365276,21.4514002 61.2663683,0 38.276473,0 C15.2865778,0 -1.7835815,21.4514002 0.149205136,47.9130435 C2.08199177,74.3746867 5.55294606,95.826087 38.276473,95.826087 Z" id="path-11"></path>
        <path d="M38.426508,0.00518304735 C47.3716278,0.367680935 58.0695396,2.11745195 64.0165068,11.6742079 C71.6630178,23.9621248 61.5880794,58.6588716 58.7346771,66.5810427 L58.7346771,74.0630128 L68,139 L0.513227573,139 L11.0915214,74.0630128 L11.0915214,66.5810427 C8.23811917,58.6588716 -1.83681924,23.9621248 5.80969171,11.6742079 C11.7566589,2.11745195 22.4545707,0.367680935 31.3709865,0.061974719 C32.4970316,0.00518304735 33.675371,-0.00312804118 34.9130993,0.0012984329 C36.1508275,-0.00312804118 37.3291669,0.00518304735 38.426508,0.00518304735 Z" id="path-13"></path>
        <path d="M38.276473,95.826087 C71,95.826087 74.4709543,74.3746867 76.4037409,47.9130435 C78.3365276,21.4514002 61.2663683,0 38.276473,0 C15.2865778,0 -1.7835815,21.4514002 0.149205136,47.9130435 C2.08199177,74.3746867 5.55294606,95.826087 38.276473,95.826087 Z" id="path-15"></path>
        <path d="M38.426508,0.00518304735 C47.3716278,0.367680935 58.0695396,2.11745195 64.0165068,11.6742079 C71.6630178,23.9621248 61.5880794,58.6588716 58.7346771,66.5810427 L58.7346771,74.0630128 L68,139 L0.513227573,139 L11.0915214,74.0630128 L11.0915214,66.5810427 C8.23811917,58.6588716 -1.83681924,23.9621248 5.80969171,11.6742079 C11.7566589,2.11745195 22.4545707,0.367680935 31.3709865,0.061974719 C32.4970316,0.00518304735 33.675371,-0.00312804118 34.9130993,0.0012984329 C36.1508275,-0.00312804118 37.3291669,0.00518304735 38.426508,0.00518304735 Z" id="path-17"></path>
        <path d="M38.276473,95.826087 C71,95.826087 74.4709543,74.3746867 76.4037409,47.9130435 C78.3365276,21.4514002 61.2663683,0 38.276473,0 C15.2865778,0 -1.7835815,21.4514002 0.149205136,47.9130435 C2.08199177,74.3746867 5.55294606,95.826087 38.276473,95.826087 Z" id="path-19"></path>
        <path d="M38.426508,0.00518304735 C47.3716278,0.367680935 58.0695396,2.11745195 64.0165068,11.6742079 C71.6630178,23.9621248 61.5880794,58.6588716 58.7346771,66.5810427 L58.7346771,74.0630128 L68,139 L0.513227573,139 L11.0915214,74.0630128 L11.0915214,66.5810427 C8.23811917,58.6588716 -1.83681924,23.9621248 5.80969171,11.6742079 C11.7566589,2.11745195 22.4545707,0.367680935 31.3709865,0.061974719 C32.4970316,0.00518304735 33.675371,-0.00312804118 34.9130993,0.0012984329 C36.1508275,-0.00312804118 37.3291669,0.00518304735 38.426508,0.00518304735 Z" id="path-21"></path>
        <path d="M38.276473,95.826087 C71,95.826087 74.4709543,74.3746867 76.4037409,47.9130435 C78.3365276,21.4514002 61.2663683,0 38.276473,0 C15.2865778,0 -1.7835815,21.4514002 0.149205136,47.9130435 C2.08199177,74.3746867 5.55294606,95.826087 38.276473,95.826087 Z" id="path-23"></path>
    </defs>
    <g id="Page-1" stroke="none" stroke-width="1" fill="none" fill-rule="evenodd">
        <g id="Desktop-HD" transform="translate(-612.000000, -2462.000000)">
            <g id="ギリシャ01" transform="translate(612.000000, 2462.000000)">
                <g id="cheers-people01">
                    <g id="身体">
                        <path d="M12.2231222,24.9165068 C13.9855367,10.8679367 25.973597,0 40.5,0 C56.2401154,0 69,12.7598846 69,28.5 C69,44.2401154 56.2401154,57 40.5,57 C39.5234046,57 38.5582819,56.9508798 37.6069676,56.8549752 C33.7655575,61.8103591 27.755269,65 21,65 C9.40202025,65 0,55.5979797 0,44 C0,35.5352765 5.00820436,28.2402818 12.2231222,24.9165068 Z" id="Combined-Shape" fill="#E2B565"></path>
                        <path d="M53.2231222,24.9165068 C54.9855367,10.8679367 66.973597,0 81.5,0 C97.2401154,0 110,12.7598846 110,28.5 C110,44.2401154 97.2401154,57 81.5,57 C80.5234046,57 79.5582819,56.9508798 78.6069676,56.8549752 C74.7655575,61.8103591 68.755269,65 62,65 C50.4020203,65 41,55.5979797 41,44 C41,35.5352765 46.0082044,28.2402818 53.2231222,24.9165068 Z" id="Combined-Shape" fill="#E2B565" transform="translate(75.500000, 32.500000) scale(-1, 1) translate(-75.500000, -32.500000) "></path>
                        <path d="M24.9036796,122.075037 C24.9036796,122.075037 4.32677425,141.72923 14.0951836,155.642468 C23.863593,169.555706 52.6455816,162.432524 52.6455816,162.432524" id="Path-6" stroke="#FFD9B0" stroke-width="13" transform="translate(32.054843, 143.165370) scale(-1, 1) rotate(216.000000) translate(-32.054843, -143.165370) "></path>
                        <g id="Group-18" transform="translate(79.500000, 224.000000) scale(-1, 1) translate(-79.500000, -224.000000) translate(61.000000, 184.000000)">
                            <path d="M27.9903616,0 C39.3787408,29 34.2252361,78.7829838 34.2252361,78.7829838" id="Path-6" stroke="#FFD9B0" stroke-width="14" transform="translate(31.689370, 39.391492) scale(-1, 1) translate(-31.689370, -39.391492) "></path>
                            <path d="M0,78.3417863 C0,69.8687517 8.19509408,63 18.3042549,63 C28.4134158,63 36.0964192,69.8718658 36.6085099,78.3417863 C18.2985924,81.9240039 0,78.3417863 0,78.3417863 Z" id="Combined-Shape" fill="#FFD9B0"></path>
                        </g>
                        <g id="Group-18" transform="translate(13.000000, 184.000000)">
                            <path d="M27.9903616,0 C39.3787408,29 34.2252361,78.7829838 34.2252361,78.7829838" id="Path-6" stroke="#FFD9B0" stroke-width="14" transform="translate(31.689370, 39.391492) scale(-1, 1) translate(-31.689370, -39.391492) "></path>
                            <path d="M0,78.3417863 C0,69.8687517 8.19509408,63 18.3042549,63 C28.4134158,63 36.0964192,69.8718658 36.6085099,78.3417863 C18.2985924,81.9240039 0,78.3417863 0,78.3417863 Z" id="Combined-Shape" fill="#FFD9B0"></path>
                        </g>
                        <g id="body" transform="translate(17.000000, 8.000000)">
                            <g id="Path-5" transform="translate(5.000000, 90.000000)">
                                <mask id="mask-2" fill="white">
                                    <use xlink:href="#path-1"></use>
                                </mask>
                                <use id="Mask" fill="#FFF5E2" xlink:href="#path-1"></use>
                                <ellipse id="Oval-14" fill="#FFD9B0" mask="url(#mask-2)" cx="35" cy="-9" rx="32" ry="25"></ellipse>
                                <polygon id="Rectangle-3" fill="#7484C6" mask="url(#mask-2)" points="3 66.3841808 67 66.3841808 67 74.3502825 39.2451158 74.3502825 3 74.3502825"></polygon>
                                <ellipse id="Oval-4" fill="#FFB490" mask="url(#mask-2)" cx="34.2928273" cy="-19.1503211" rx="20.3584918" ry="30.8857143"></ellipse>
                            </g>
                            <mask id="mask-4" fill="white">
                                <use xlink:href="#path-3"></use>
                            </mask>
                            <use id="Oval-5" fill="#FFD6B5" transform="translate(38.276473, 47.913043) scale(-1, 1) translate(-38.276473, -47.913043) " xlink:href="#path-3"></use>
                        </g>
                        <g id="body" transform="translate(17.000000, 8.000000)">
                            <g id="Path-5" transform="translate(5.000000, 90.000000)">
                                <mask id="mask-6" fill="white">
                                    <use xlink:href="#path-5"></use>
                                </mask>
                                <use id="Mask" fill="#FFF5E2" xlink:href="#path-5"></use>
                                <ellipse id="Oval-14" fill="#FFD9B0" mask="url(#mask-6)" cx="35" cy="-9" rx="32" ry="25"></ellipse>
                                <polygon id="Rectangle-3" fill="#7484C6" mask="url(#mask-6)" points="3 66.3841808 67 66.3841808 67 74.3502825 39.2451158 74.3502825 3 74.3502825"></polygon>
                                <ellipse id="Oval-4" fill="#FFB490" mask="url(#mask-6)" cx="34.2928273" cy="-19.1503211" rx="20.3584918" ry="30.8857143"></ellipse>
                            </g>
                            <mask id="mask-8" fill="white">
                                <use xlink:href="#path-7"></use>
                            </mask>
                            <use id="Oval-5" fill="#FFD6B5" transform="translate(38.276473, 47.913043) scale(-1, 1) translate(-38.276473, -47.913043) " xlink:href="#path-7"></use>
                        </g>
                        <g id="body" transform="translate(17.000000, 8.000000)">
                            <g id="Path-5" transform="translate(5.000000, 90.000000)">
                                <mask id="mask-10" fill="white">
                                    <use xlink:href="#path-9"></use>
                                </mask>
                                <use id="Mask" fill="#FFF5E2" xlink:href="#path-9"></use>
                                <ellipse id="Oval-14" fill="#FFD9B0" mask="url(#mask-10)" cx="35" cy="-9" rx="32" ry="25"></ellipse>
                                <polygon id="Rectangle-3" fill="#AB7749" mask="url(#mask-10)" points="3 66.3841808 67 66.3841808 67 74.3502825 39.2451158 74.3502825 3 74.3502825"></polygon>
                                <ellipse id="Oval-4" fill="#FFB490" mask="url(#mask-10)" cx="34.2928273" cy="-19.1503211" rx="20.3584918" ry="30.8857143"></ellipse>
                            </g>
                            <mask id="mask-12" fill="white">
                                <use xlink:href="#path-11"></use>
                            </mask>
                            <use id="Oval-5" fill="#FFD6B5" transform="translate(38.276473, 47.913043) scale(-1, 1) translate(-38.276473, -47.913043) " xlink:href="#path-11"></use>
                        </g>
                        <g id="Group-8" transform="translate(34.000000, 60.000000)" fill="#3C7E6A">
                            <ellipse id="Oval" cx="4.42105263" cy="5.04347826" rx="4.42105263" ry="5.04347826"></ellipse>
                            <ellipse id="Oval" cx="39.5789474" cy="5.04347826" rx="4.42105263" ry="5.04347826"></ellipse>
                        </g>
                        <ellipse id="Oval-6" fill="#FFB490" cx="55.9473684" cy="75.5217391" rx="5.05263158" ry="2.52173913"></ellipse>
                        <path d="M55.5560286,91.6430659 C55.2884967,91.6558398 55.0176772,91.6624884 54.7436361,91.6626773 L54.7436361,91.6626773 L54.7436361,91.5848247 C45.1955339,90.6699517 40.1468394,82 42.8268801,82 L55.5560286,82 L68.2851771,82 C70.9652177,82 65.9165232,90.6699517 56.3684211,91.5848247 L56.3684211,91.6626773 L56.3684211,91.6626773 C56.0943799,91.6624884 55.8235605,91.6558398 55.5560286,91.6430659 Z" id="Combined-Shape" fill="#EE7857"></path>
                        <ellipse id="Oval-3" fill="#FFD9B0" transform="translate(32.186376, 163.554796) scale(-1, 1) rotate(230.000000) translate(-32.186376, -163.554796) " cx="32.1863764" cy="163.554796" rx="13.8242962" ry="10.8352592"></ellipse>
                        <path d="M16,56 L54.5,36 L96,56 L96,25 C96,25 63.6324407,4.75317728 54.5,5 C45.3675593,5.24682272 21,22 21,22 L13,47 L16,56 Z" id="Path-15" fill="#E2B665"></path>
                    </g>
                    <g id="身体">
                        <path d="M12.2231222,24.9165068 C13.9855367,10.8679367 25.973597,0 40.5,0 C56.2401154,0 69,12.7598846 69,28.5 C69,44.2401154 56.2401154,57 40.5,57 C39.5234046,57 38.5582819,56.9508798 37.6069676,56.8549752 C33.7655575,61.8103591 27.755269,65 21,65 C9.40202025,65 0,55.5979797 0,44 C0,35.5352765 5.00820436,28.2402818 12.2231222,24.9165068 Z" id="Combined-Shape" fill="#E2B565"></path>
                        <path d="M53.2231222,24.9165068 C54.9855367,10.8679367 66.973597,0 81.5,0 C97.2401154,0 110,12.7598846 110,28.5 C110,44.2401154 97.2401154,57 81.5,57 C80.5234046,57 79.5582819,56.9508798 78.6069676,56.8549752 C74.7655575,61.8103591 68.755269,65 62,65 C50.4020203,65 41,55.5979797 41,44 C41,35.5352765 46.0082044,28.2402818 53.2231222,24.9165068 Z" id="Combined-Shape" fill="#E2B565" transform="translate(75.500000, 32.500000) scale(-1, 1) translate(-75.500000, -32.500000) "></path>
                        <path d="M24.9036796,122.075037 C24.9036796,122.075037 4.32677425,141.72923 14.0951836,155.642468 C23.863593,169.555706 52.6455816,162.432524 52.6455816,162.432524" id="Path-6" stroke="#FFD9B0" stroke-width="13" transform="translate(32.054843, 143.165370) scale(-1, 1) rotate(216.000000) translate(-32.054843, -143.165370) "></path>
                        <g id="Group-18" transform="translate(79.500000, 224.000000) scale(-1, 1) translate(-79.500000, -224.000000) translate(61.000000, 184.000000)">
                            <path d="M27.9903616,0 C39.3787408,29 34.2252361,78.7829838 34.2252361,78.7829838" id="Path-6" stroke="#FFD9B0" stroke-width="14" transform="translate(31.689370, 39.391492) scale(-1, 1) translate(-31.689370, -39.391492) "></path>
                            <path d="M0,78.3417863 C0,69.8687517 8.19509408,63 18.3042549,63 C28.4134158,63 36.0964192,69.8718658 36.6085099,78.3417863 C18.2985924,81.9240039 0,78.3417863 0,78.3417863 Z" id="Combined-Shape" fill="#FFD9B0"></path>
                        </g>
                        <g id="Group-18" transform="translate(13.000000, 184.000000)">
                            <path d="M27.9903616,0 C39.3787408,29 34.2252361,78.7829838 34.2252361,78.7829838" id="Path-6" stroke="#FFD9B0" stroke-width="14" transform="translate(31.689370, 39.391492) scale(-1, 1) translate(-31.689370, -39.391492) "></path>
                            <path d="M0,78.3417863 C0,69.8687517 8.19509408,63 18.3042549,63 C28.4134158,63 36.0964192,69.8718658 36.6085099,78.3417863 C18.2985924,81.9240039 0,78.3417863 0,78.3417863 Z" id="Combined-Shape" fill="#FFD9B0"></path>
                        </g>
                        <g id="body" transform="translate(17.000000, 8.000000)">
                            <g id="Path-5" transform="translate(5.000000, 90.000000)">
                                <mask id="mask-14" fill="white">
                                    <use xlink:href="#path-13"></use>
                                </mask>
                                <use id="Mask" fill="#FFF5E2" xlink:href="#path-13"></use>
                                <ellipse id="Oval-14" fill="#FFD9B0" mask="url(#mask-14)" cx="35" cy="-9" rx="32" ry="25"></ellipse>
                                <polygon id="Rectangle-3" fill="#7484C6" mask="url(#mask-14)" points="3 66.3841808 67 66.3841808 67 74.3502825 39.2451158 74.3502825 3 74.3502825"></polygon>
                                <ellipse id="Oval-4" fill="#FFB490" mask="url(#mask-14)" cx="34.2928273" cy="-19.1503211" rx="20.3584918" ry="30.8857143"></ellipse>
                            </g>
                            <mask id="mask-16" fill="white">
                                <use xlink:href="#path-15"></use>
                            </mask>
                            <use id="Oval-5" fill="#FFD6B5" transform="translate(38.276473, 47.913043) scale(-1, 1) translate(-38.276473, -47.913043) " xlink:href="#path-15"></use>
                        </g>
                        <g id="body" transform="translate(17.000000, 8.000000)">
                            <g id="Path-5" transform="translate(5.000000, 90.000000)">
                                <mask id="mask-18" fill="white">
                                    <use xlink:href="#path-17"></use>
                                </mask>
                                <use id="Mask" fill="#FFF5E2" xlink:href="#path-17"></use>
                                <ellipse id="Oval-14" fill="#FFD9B0" mask="url(#mask-18)" cx="35" cy="-9" rx="32" ry="25"></ellipse>
                                <polygon id="Rectangle-3" fill="#7484C6" mask="url(#mask-18)" points="3 66.3841808 67 66.3841808 67 74.3502825 39.2451158 74.3502825 3 74.3502825"></polygon>
                                <ellipse id="Oval-4" fill="#FFB490" mask="url(#mask-18)" cx="34.2928273" cy="-19.1503211" rx="20.3584918" ry="30.8857143"></ellipse>
                            </g>
                            <mask id="mask-20" fill="white">
                                <use xlink:href="#path-19"></use>
                            </mask>
                            <use id="Oval-5" fill="#FFD6B5" transform="translate(38.276473, 47.913043) scale(-1, 1) translate(-38.276473, -47.913043) " xlink:href="#path-19"></use>
                        </g>
                        <g id="body" transform="translate(17.000000, 8.000000)">
                            <g id="Path-5" transform="translate(5.000000, 90.000000)">
                                <mask id="mask-22" fill="white">
                                    <use xlink:href="#path-21"></use>
                                </mask>
                                <use id="Mask" fill="#FFF5E2" xlink:href="#path-21"></use>
                                <ellipse id="Oval-14" fill="#FFD9B0" mask="url(#mask-22)" cx="35" cy="-9" rx="32" ry="25"></ellipse>
                                <polygon id="Rectangle-3" fill="#AB7749" mask="url(#mask-22)" points="3 66.3841808 67 66.3841808 67 74.3502825 39.2451158 74.3502825 3 74.3502825"></polygon>
                                <ellipse id="Oval-4" fill="#FFB490" mask="url(#mask-22)" cx="34.2928273" cy="-19.1503211" rx="20.3584918" ry="30.8857143"></ellipse>
                            </g>
                            <mask id="mask-24" fill="white">
                                <use xlink:href="#path-23"></use>
                            </mask>
                            <use id="Oval-5" fill="#FFD6B5" transform="translate(38.276473, 47.913043) scale(-1, 1) translate(-38.276473, -47.913043) " xlink:href="#path-23"></use>
                        </g>
                        <g id="Group-8" transform="translate(34.000000, 60.000000)" fill="#3C7E6A">
                            <ellipse id="Oval" cx="4.42105263" cy="5.04347826" rx="4.42105263" ry="5.04347826"></ellipse>
                            <ellipse id="Oval" cx="39.5789474" cy="5.04347826" rx="4.42105263" ry="5.04347826"></ellipse>
                        </g>
                        <ellipse id="Oval-6" fill="#FFB490" cx="55.9473684" cy="75.5217391" rx="5.05263158" ry="2.52173913"></ellipse>
                        <path d="M55.5560286,91.6430659 C55.2884967,91.6558398 55.0176772,91.6624884 54.7436361,91.6626773 L54.7436361,91.6626773 L54.7436361,91.5848247 C45.1955339,90.6699517 40.1468394,82 42.8268801,82 L55.5560286,82 L68.2851771,82 C70.9652177,82 65.9165232,90.6699517 56.3684211,91.5848247 L56.3684211,91.6626773 L56.3684211,91.6626773 C56.0943799,91.6624884 55.8235605,91.6558398 55.5560286,91.6430659 Z" id="Combined-Shape" fill="#EE7857"></path>
                        <ellipse id="Oval-3" fill="#FFD9B0" transform="translate(32.186376, 163.554796) scale(-1, 1) rotate(230.000000) translate(-32.186376, -163.554796) " cx="32.1863764" cy="163.554796" rx="13.8242962" ry="10.8352592"></ellipse>
                        <path d="M16,56 L54.5,36 L96,56 L96,25 C96,25 63.6324407,4.75317728 54.5,5 C45.3675593,5.24682272 21,22 21,22 L13,47 L16,56 Z" id="Path-15" fill="#E2B665"></path>
                        <ellipse id="Oval-3" fill="#FFD9B0" transform="translate(32.186376, 163.554796) scale(-1, 1) rotate(230.000000) translate(-32.186376, -163.554796) " cx="32.1863764" cy="163.554796" rx="13.8242962" ry="10.8352592"></ellipse>
                    </g>
                </g>
            </g>
        </g>
    </g>
</svg>