<?xml version="1.0" encoding="UTF-8"?>
<svg width="127px" height="268px" viewBox="0 0 127 268" version="1.1" xmlns="http://www.w3.org/2000/svg" xmlns:xlink="http://www.w3.org/1999/xlink">
    <!-- Generator: Sketch 41.2 (35397) - http://www.bohemiancoding.com/sketch -->
    <title>cheers-people02</title>
    <desc>Created with Sketch.</desc>
    <defs>
        <path d="M37.426508,0.00518304735 C46.3716278,0.367680935 57.0695396,2.11745195 63.0165068,11.6742079 C70.6630178,23.9621248 60.5880794,58.6588716 57.7346771,66.5810427 L57.7346771,74.0630128 L68.4289344,104.623629 L0.942161929,104.623629 L10.0915214,74.0630128 L10.0915214,66.5810427 C7.23811917,58.6588716 -2.83681924,23.9621248 4.80969171,11.6742079 C10.7566589,2.11745195 21.4545707,0.367680935 30.3709865,0.061974719 C31.4970316,0.00518304735 32.675371,-0.00312804118 33.9130993,0.0012984329 C35.1508275,-0.00312804118 36.3291669,0.00518304735 37.426508,0.00518304735 Z" id="path-1"></path>
        <path d="M38.276473,95.826087 C71,95.826087 74.4709543,74.3746867 76.4037409,47.9130435 C78.3365276,21.4514002 61.2663683,0 38.276473,0 C15.2865778,0 -1.7835815,21.4514002 0.149205136,47.9130435 C2.08199177,74.3746867 5.55294606,95.826087 38.276473,95.826087 Z" id="path-3"></path>
    </defs>
    <g id="Page-1" stroke="none" stroke-width="1" fill="none" fill-rule="evenodd">
        <g id="Desktop-HD" transform="translate(-821.000000, -2458.000000)">
            <g id="ギリシャ02" transform="translate(777.000000, 2458.000000)">
                <g id="cheers-people02" transform="translate(44.000000, 0.000000)">
                    <g id="Group-18" transform="translate(14.000000, 188.000000)">
                        <path d="M27.9903616,0 C39.3787408,29 34.2252361,78.7829838 34.2252361,78.7829838" id="Path-6" stroke="#FFD9B0" stroke-width="14" transform="translate(31.689370, 39.391492) scale(-1, 1) translate(-31.689370, -39.391492) "></path>
                        <path d="M0,78.3417863 C0,69.8687517 8.19509408,63 18.3042549,63 C28.4134158,63 36.0964192,69.8718658 36.6085099,78.3417863 C18.2985924,81.9240039 0,78.3417863 0,78.3417863 Z" id="Combined-Shape" fill="#FFD9B0"></path>
                    </g>
                    <g id="Group-18" transform="translate(80.500000, 228.000000) scale(-1, 1) translate(-80.500000, -228.000000) translate(62.000000, 188.000000)">
                        <path d="M27.9903616,0 C39.3787408,29 34.2252361,78.7829838 34.2252361,78.7829838" id="Path-6" stroke="#FFD9B0" stroke-width="14" transform="translate(31.689370, 39.391492) scale(-1, 1) translate(-31.689370, -39.391492) "></path>
                        <path d="M0,78.3417863 C0,69.8687517 8.19509408,63 18.3042549,63 C28.4134158,63 36.0964192,69.8718658 36.6085099,78.3417863 C18.2985924,81.9240039 0,78.3417863 0,78.3417863 Z" id="Combined-Shape" fill="#FFD9B0"></path>
                    </g>
                    <path d="M8.99546544,67.0013737 C3.6421687,64.1389503 0,58.4948122 0,52 C0,45.8177781 3.30001599,40.4063162 8.23462175,37.4310406 C6.81272299,34.9462135 6,32.0680176 6,29 C6,19.6111593 13.6111593,12 23,12 C23.8772359,12 24.7389529,12.0664446 25.5803927,12.1945756 C28.6214163,5.02719872 35.7236255,0 44,0 C48.9630895,0 53.503945,1.80779839 57,4.80082862 C60.496055,1.80779839 65.0369105,0 70,0 C78.2763745,0 85.3785837,5.02719872 88.4196073,12.1945756 C89.2610471,12.0664446 90.1227641,12 91,12 C100.388841,12 108,19.6111593 108,29 C108,32.0680176 107.187277,34.9462135 105.765378,37.4310406 C110.699984,40.4063162 114,45.8177781 114,52 C114,58.4948122 110.357831,64.1389503 105.004535,67.0013737 C106.278037,69.3853456 107,72.1083611 107,75 C107,84.3888407 99.3888407,92 90,92 C80.6111593,92 73,84.3888407 73,75 C73,68.5051868 76.6421699,62.8610479 81.995468,59.998625 C80.7219631,57.6146544 80,54.8916389 80,52 C80,48.9319824 80.812723,46.0537865 82.2346218,43.5689594 C80.1854401,42.333424 78.4181388,40.6777753 77.0519819,38.7212772 C74.8588631,39.547797 72.4822404,40 70,40 C65.0369105,40 60.496055,38.1922016 57,35.1991714 C53.503945,38.1922016 48.9630895,40 44,40 C41.5177596,40 39.1411369,39.547797 36.9480181,38.7212772 C35.5818612,40.6777753 33.8145599,42.333424 31.7653782,43.5689594 C33.187277,46.0537865 34,48.9319824 34,52 C34,54.8916389 33.2780369,57.6146544 32.004532,59.998625 C37.3578301,62.8610479 41,68.5051868 41,75 C41,84.3888407 33.3888407,92 24,92 C14.6111593,92 7,84.3888407 7,75 C7,72.1083611 7.72196308,69.3853456 8.99546797,67.001375 Z" id="Combined-Shape" fill="#755D49"></path>
                    <g id="body" transform="translate(18.000000, 12.000000)">
                        <g id="Path-5" transform="translate(6.000000, 90.000000)">
                            <mask id="mask-2" fill="white">
                                <use xlink:href="#path-1"></use>
                            </mask>
                            <use id="Mask" fill="#FFF5E2" xlink:href="#path-1"></use>
                            <path d="M19.3607685,-5.52334722 C19.3607685,-5.52334722 26.3438122,23.4331774 35.2198896,37.4212377 C44.095967,51.4092979 60.6749043,61.4469062 66.9852923,65.1868597 C73.2956803,68.9268131 87.9418699,30.506505 87.9418699,29.2781162 C87.9418699,28.0497275 77.1959253,-2.76091437 76.0508385,-4.14213079 C74.9057517,-5.52334722 60.9818604,-11.1654769 58.7967634,-11.1654769 C56.6116664,-11.1654769 19.3607685,-5.52334722 19.3607685,-5.52334722 Z" fill="#FFD9B0" mask="url(#mask-2)"></path>
                            <polygon id="Rectangle-3" fill="#607547" mask="url(#mask-2)" points="2 66.3841808 66 66.3841808 66 74.3502825 38.2451158 74.3502825 2 74.3502825"></polygon>
                            <ellipse id="Oval-4" fill="#FFB490" mask="url(#mask-2)" cx="33.2928273" cy="-19.1503211" rx="20.3584918" ry="30.8857143"></ellipse>
                        </g>
                        <mask id="mask-4" fill="white">
                            <use xlink:href="#path-3"></use>
                        </mask>
                        <use id="Oval-5" fill="#FFD6B5" transform="translate(38.276473, 47.913043) scale(-1, 1) translate(-38.276473, -47.913043) " xlink:href="#path-3"></use>
                    </g>
                    <g id="bottle" transform="translate(88.027057, 151.465578) rotate(-40.000000) translate(-88.027057, -151.465578) translate(57.027057, 109.465578)">
                        <path d="M21,4 L20.9237694,4 L23.602654,27 C12.8871156,24 0.385654168,36 2.17157724,46 C3.75518412,54.8671618 13.7639901,75.5742405 16.0113389,80.1520002 C16.0460351,80.3841711 16.1598819,80.6112816 16.3463299,80.8316944 C16.4200258,80.9805269 16.4588856,81.0584194 16.4588856,81.0584194 L16.5661148,81.0584194 C18.4222321,82.7539272 24.6290442,84 32,84 C39.3709558,84 45.5777679,82.7539272 47.4338852,81.0584194 L47.5411144,81.0584194 C47.5411144,81.0584194 47.5799742,80.9805269 47.6536701,80.8316944 C47.8401181,80.6112816 47.9539649,80.3841711 47.9886611,80.1520002 C50.2360099,75.5742405 60.2448159,54.8671618 61.8284228,46 C63.6143458,36 51.1128844,24 40.397346,27 L43.0762306,4 L43,4 C43,1.790861 38.0751322,-2.84217094e-14 32,-2.84217094e-14 C25.9248678,-2.84217094e-14 21,1.790861 21,4 Z" id="Combined-Shape" fill="#8B572A"></path>
                        <ellipse id="Oval-13" fill="#633D1D" cx="32" cy="5" rx="9" ry="3"></ellipse>
                        <path d="M28,18 C28,18 17,9 8,13 C-1,17 -5,35 15.0869651,42" id="Path-13" stroke="#8B572A" stroke-width="5"></path>
                    </g>
                    <g id="Group-8" transform="translate(56.000000, 69.500000) scale(-1, 1) translate(-56.000000, -69.500000) translate(34.000000, 64.000000)" fill="#A6774E">
                        <ellipse id="Oval" cx="4.42105263" cy="5.04347826" rx="4.42105263" ry="5.04347826"></ellipse>
                        <ellipse id="Oval" cx="39.5789474" cy="5.04347826" rx="4.42105263" ry="5.04347826"></ellipse>
                    </g>
                    <ellipse id="Oval-6" fill="#FFB490" transform="translate(56.052632, 79.521739) scale(-1, 1) translate(-56.052632, -79.521739) " cx="56.0526316" cy="79.5217391" rx="5.05263158" ry="2.52173913"></ellipse>
                    <path d="M56.4439714,95.6430659 C56.1764395,95.6558398 55.9056201,95.6624884 55.6315789,95.6626773 L55.6315789,95.6626773 L55.6315789,95.5848247 C46.0834768,94.6699517 41.0347823,86 43.7148229,86 L56.4439714,86 L69.1731199,86 C71.8531606,86 66.8044661,94.6699517 57.2563639,95.5848247 L57.2563639,95.6626773 L57.2563639,95.6626773 C56.9823228,95.6624884 56.7115033,95.6558398 56.4439714,95.6430659 Z" id="Combined-Shape" fill="#EE7857" transform="translate(56.443971, 90.831339) scale(-1, 1) translate(-56.443971, -90.831339) "></path>
                    <path d="M91.5024691,120.105032 C91.5024691,120.105032 70.9255638,139.759225 80.6939731,153.672462 C90.4623825,167.5857 119.244371,160.462519 119.244371,160.462519" id="Path-6" stroke="#FFD9B0" stroke-width="13" transform="translate(98.653633, 141.195364) rotate(187.000000) translate(-98.653633, -141.195364) "></path>
                    <ellipse id="Oval-3" fill="#FFD9B0" transform="translate(97.430306, 167.407669) rotate(211.000000) translate(-97.430306, -167.407669) " cx="97.4303057" cy="167.407669" rx="13.8242962" ry="10.8352592"></ellipse>
                    <path d="M26.0115711,33.8576237 C26.3495766,24.4902254 34.0500704,17 43.5,17 C48.6592663,17 53.2970776,19.2326139 56.5,22.7844076 C59.7029189,19.2326155 64.3407318,17 69.5,17 C78.9499296,17 86.6504234,24.4902254 86.9884289,33.8576237 C88.5555923,33.3022568 90.2424982,33 92,33 C100.284271,33 107,39.7157288 107,48 C107,56.2842712 100.284271,63 92,63 C84.4756523,63 78.2452781,57.4598409 77.1655566,50.2362019 C74.8506047,51.3659909 72.2493427,52 69.5,52 C64.3407318,52 59.7029189,49.7673845 56.4999964,46.2155884 C53.2970776,49.7673861 48.6592663,52 43.5,52 C40.7506573,52 38.1493953,51.3659909 35.8344434,50.2362019 C34.7547219,57.4598409 28.5243477,63 21,63 C12.7157288,63 6,56.2842712 6,48 C6,39.7157288 12.7157288,33 21,33 C22.7575018,33 24.4444077,33.3022568 26.0115711,33.8576237 Z" id="Combined-Shape" fill="#755D49"></path>
                    <polygon id="Path-10" fill="#765C4C" points="17 42 22 26 32 14 50 9 72 12 91 24 96 41 97 44 73 40 44 36"></polygon>
                </g>
            </g>
        </g>
    </g>
</svg>