<?xml version="1.0" encoding="UTF-8"?>
<svg width="178px" height="84px" viewBox="0 0 178 84" version="1.1" xmlns="http://www.w3.org/2000/svg" xmlns:xlink="http://www.w3.org/1999/xlink">
    <!-- Generator: Sketch 41.2 (35397) - http://www.bohemiancoding.com/sketch -->
    <title>clowd</title>
    <desc>Created with Sketch.</desc>
    <defs></defs>
    <g id="Page-1" stroke="none" stroke-width="1" fill="none" fill-rule="evenodd">
        <g id="Desktop-HD" transform="translate(-369.000000, -1710.000000)" fill="#FFFFFF">
            <path d="M399.910392,1793 C399.06769,1793.07458 398.214372,1793.11268 397.352062,1793.11268 C381.693651,1793.11268 369,1780.55143 369,1765.05634 C369,1750.33574 380.45643,1738.26303 395.027535,1737.09294 C395.009245,1736.69569 395,1736.29609 395,1735.89437 C395,1721.5933 406.7155,1710 421.167302,1710 C427.895861,1710 434.031271,1712.51309 438.667302,1716.64248 C443.303334,1712.51309 449.438743,1710 456.167302,1710 C470.619104,1710 482.334605,1721.5933 482.334605,1735.89437 C482.334605,1736.22686 482.328272,1736.55789 482.315719,1736.88735 C482.327832,1736.88733 482.339946,1736.88732 482.352062,1736.88732 C498.010474,1736.88732 510.704124,1749.44857 510.704124,1764.94366 C510.704124,1771.16771 508.656058,1776.91839 505.190447,1781.57177 L546.053682,1788.14477 L546.053682,1793 L399.910392,1793 Z" id="clowd"></path>
        </g>
    </g>
</svg>