<?xml version="1.0" encoding="UTF-8"?>
<svg width="1031px" height="120px" viewBox="0 0 1031 120" version="1.1" xmlns="http://www.w3.org/2000/svg" xmlns:xlink="http://www.w3.org/1999/xlink">
    <!-- Generator: Sketch 41.2 (35397) - http://www.bohemiancoding.com/sketch -->
    <title>clowds</title>
    <desc>Created with Sketch.</desc>
    <defs></defs>
    <g id="Page-1" stroke="none" stroke-width="1" fill="none" fill-rule="evenodd">
        <g id="Desktop-HD" transform="translate(-382.000000, -1719.000000)" fill="#FFFFFF">
            <g id="clowds" transform="translate(382.000000, 1719.000000)">
                <path d="M30.9103925,108 C30.0676902,108.074581 29.2143718,108.112676 28.3520621,108.112676 C12.6936506,108.112676 0,95.5514257 0,80.056338 C0,65.3357413 11.4564298,53.2630274 26.0275348,52.0929431 C26.0092446,51.6956854 26,51.2960942 26,50.8943662 C26,36.5933026 37.7155003,25 52.1673023,25 C58.8958613,25 65.0312708,27.5130856 69.6673023,31.6424807 C74.3033339,27.5130856 80.4387434,25 87.1673023,25 C101.619104,25 113.334605,36.5933026 113.334605,50.8943662 C113.334605,51.2268605 113.328272,51.5578912 113.315719,51.8873465 C113.327832,51.8873315 113.339946,51.8873239 113.352062,51.8873239 C129.010474,51.8873239 141.704124,64.4485743 141.704124,79.943662 C141.704124,86.1677074 139.656058,91.9183909 136.190447,96.571768 L177.053682,103.144771 L177.053682,108 L30.9103925,108 Z" id="Combined-Shape"></path>
                <path d="M950.033422,119.737822 C949.569044,119.778921 949.098816,119.799914 948.623634,119.799914 C939.994939,119.799914 933,112.877935 933,104.339241 C933,96.227337 939.313158,89.5745702 947.342684,88.9297858 C947.332605,88.7108738 947.327511,88.4906757 947.327511,88.2693003 C947.327511,80.3885833 953.783432,74 961.747215,74 C965.455042,74 968.836009,75.3848562 971.390731,77.6603928 C973.945454,75.3848562 977.326421,74 981.034248,74 C988.998031,74 995.453952,80.3885833 995.453952,88.2693003 C995.453952,88.452524 995.450462,88.6349411 995.443545,88.8164901 C995.45022,88.8164818 995.456896,88.8164777 995.463572,88.8164777 C1004.09227,88.8164777 1011.08721,95.7384565 1011.08721,104.27715 C1011.08721,107.706961 1009.9586,110.875921 1008.04885,113.440203 L1030.56687,117.062309 L1030.56687,119.737822 L950.033422,119.737822 Z" id="Combined-Shape"></path>
                <path d="M178.204024,51.5662816 C177.68047,51.6126176 177.15032,51.636285 176.614583,51.636285 C166.886318,51.636285 159,43.8322251 159,34.2054293 C159,25.0598095 166.117656,17.5592678 175.1704,16.8323173 C175.159037,16.5855088 175.153293,16.3372505 175.153293,16.0876648 C175.153293,7.20269287 182.431905,0 191.410528,0 C195.59085,0 199.40266,1.5613311 202.282936,4.12684371 C205.163213,1.5613311 208.975023,0 213.155345,0 C222.133968,0 229.41258,7.20269287 229.41258,16.0876648 C229.41258,16.294237 229.408646,16.4998999 229.400847,16.7045841 C229.408372,16.7045748 229.415898,16.7045701 229.423426,16.7045701 C239.151692,16.7045701 247.038009,24.50863 247.038009,34.1354258 C247.038009,38.0023039 245.765586,41.5750914 243.612469,44.4661439 L269,48.5498226 L269,51.5662816 L178.204024,51.5662816 Z" id="Combined-Shape"></path>
            </g>
        </g>
    </g>
</svg>