<?xml version="1.0" encoding="UTF-8"?>
<svg width="2207px" height="1934px" viewBox="0 0 2207 1934" version="1.1" xmlns="http://www.w3.org/2000/svg" xmlns:xlink="http://www.w3.org/1999/xlink">
    <!-- Generator: Sketch 41.2 (35397) - http://www.bohemiancoding.com/sketch -->
    <title>continent</title>
    <desc>Created with Sketch.</desc>
    <defs>
        <rect id="path-1" x="0" y="0" width="2207" height="1934"></rect>
    </defs>
    <g id="Page-1" stroke="none" stroke-width="1" fill="none" fill-rule="evenodd">
        <g id="continent">
            <mask id="mask-2" fill="white">
                <use xlink:href="#path-1"></use>
            </mask>
            <g id="Mask"></g>
            <path d="M488.745719,426.17846 L424.891099,408.585446 L345.905268,492.93141 L447.402644,757.324053 L495.425582,769.201622 L499.207116,683.271982 L531.708001,663.303455 L533.59623,630.675673 L567.112292,567.694105 L543.717542,520.290424 L488.745719,426.17846 Z M1516.31782,983.464836 L1505.15595,912.392309 L1482.015,878.008271 L1509.7344,866.475862 L1509.7344,832.173038 L1438.47914,871.1406 L1463.63522,935.431746 L1452.37691,978.972678 L1516.31782,983.464836 Z M1390.28362,905.712445 L1271.02065,843.786661 L1234.43368,907.991517 L1250.42779,937.639755 L1319.56641,926.290079 L1369.96993,940.005117 L1390.28362,905.712445 Z M2680.5784,618.442792 L2683.29907,683.703432 L2609.51095,774.480541 L2606.69383,672.363908 L2703.08995,556.085558 L2643.63612,564.887141 L2567.03088,627.066719 L2473.35036,621.52893 L2402.63822,689.606686 L2453.56964,726.366237 L2394.19195,890.667525 L2343.18439,899.377742 L2311.96263,944.664779 L2326.02283,1004.20997 L2289.26328,1023.83842 L2277.82731,970.003591 L2246.61063,927.340787 L2204.03411,972.465395 L2237.99685,1068.77522 L2189.96884,1156.8215 L2084.95387,1162.45066 L2062.43218,1199.39294 L2110.45511,1270.1 L2059.4374,1312.75773 L2007.19641,1258.40517 L2005.43507,1309.59038 L2050.99621,1360.78067 L2070.78708,1451.38012 L2127.6116,1471.42986 L2204.21177,1502.57549 L2062.43218,1477.14531 L2002.80069,1420.50352 L1949.1486,1343.80184 L2022.58141,1380.7492 L1988.64405,1318.66098 L1981.69009,1233.94956 L1949.1486,1242.13188 L1909.57193,1157.25295 L1798.91766,1233.94956 L1798.91766,1282.50546 L1759.16841,1321.90955 L1708.32836,1194.37289 L1651.75763,1126.29513 L1515.61735,1100.79389 L1475.95439,1067.00881 L1456.07723,1078.27727 L1484.39051,1146.35503 L1529.59126,1123.66075 L1589.22274,1168.95794 L1413.67837,1273.79525 L1322.72868,1095.33732 L1303.73472,1098.6874 L1396.3493,1310.64616 L1487.02997,1268.08488 L1458.88419,1367.36917 L1368.12231,1449.34469 L1382.18759,1571.33849 L1331.17495,1610.83394 L1237.85483,1786.56612 L1144.17431,1803.64139 L1062.03636,1605.20986 L1081.91352,1514.61041 L1030.94149,1355.67941 L858.021353,1366.94279 L761.488192,1273.43486 L778.598997,1120.4934 L872.183069,1007.03216 L1053.45811,975.891617 L1064.89408,1023.91963 L1138.55531,1072.02886 L1166.87874,1032.45219 L1279.45677,1061.29844 L1308.65326,1043.7105 L1321.40895,1001.40809 L1243.57027,988.297077 L1218.41419,944.933801 L1200.20699,935.523112 L1184.11137,990.586301 L1149.45831,946.867712 L1151.82874,910.372107 L1105.66358,873.693769 L1078.2132,859.882289 L1080.50242,896.651992 L1137.93605,935.614478 L1108.02894,970.267537 L1066.95489,915.112982 L1037.09854,880.551288 L968.188339,915.112982 L919.982669,990.845171 L846.590463,979.41428 L842.012015,887.677829 L935.946324,894.185113 L906.308237,846.334755 L887.837096,807.113399 L958.990837,784.068886 L997.993929,731.467501 L1030.15473,729.005697 L1023.19569,699.271169 L1043.82409,671.668512 L1059.9654,717.48344 L1149.45831,719.772664 L1174.5281,655.385076 L1209.18116,666.998698 L1197.56246,623.457766 L1250.95568,606.48401 L1234.33216,586.784504 L1186.05035,600.326963 L1169.16289,559.166619 L1161.25466,538.75649 L1180.59378,524.950086 L1197.56246,481.774617 L1179.53292,479.130081 L1149.80854,515.803343 L1124.65754,570.688876 L1152.36679,600.423404 L1124.65754,673.952659 L1083.31954,690.043212 L1060.40192,616.691612 L1012.12011,644.309497 L989.248181,630.584307 L991.405432,559.42549 L1032.8348,527.589545 L1067.3102,442.6294 L1154.55957,394.601386 L1372.3353,434.619655 C1623.53572,408.23521 2079.40086,359.85696 2079.40086,359.85696 L2831.49458,466.024149 L2859.7368,545.355139 L2757.53388,602.174584 L2680.5784,618.442792 Z M1406.28281,1580.14007 L1403.91237,1672.14554 L1440.85465,1688.14981 L1477.52284,1577.94729 L1468.11723,1531.85826 L1406.28281,1580.14007 Z M887.74573,607.71745 L887.74573,690.307158 L945.143826,665.151077 L961.325744,639.994996 L899.273062,520.55437 L862.640408,545.974397 L864.883948,577.896631 L830.403469,619.503652 L828.027955,662.953219 L869.452244,662.953219 L887.74573,607.71745 Z M2782.43109,1800.55018 L2790.87228,1879.72382 L2703.08995,1962.0445 L2759.73681,1967.58737 L2810.56671,1890.88061 L2850.32611,1837.22852 L2824.82487,1834.4114 L2782.43109,1800.55018 Z M2476.24869,771.749716 L2456.47812,771.749716 L2453.56964,873.693769 L2402.55193,981.525848 L2337.37758,1029.54879 L2334.55539,1072.11515 L2453.56964,1001.31672 L2459.28509,927.523519 L2498.67395,890.845181 L2467.54863,865.60281 L2484.52238,805.874884 L2476.24869,771.749716 Z M2337.28622,1414.95558 L2413.80517,1494.29165 L2457.69126,1497.29149 L2476.16748,1480.30759 L2538.61608,1519.80304 L2513.10976,1465.97329 L2396.84156,1409.50916 L2337.28622,1414.95558 Z M2110.63277,1443.45667 L2184.3346,1457.45088 L2218.36841,1352.76585 L2198.41511,1335.61951 L2099.36938,1398.06811 L2110.63277,1443.45667 Z M2454.52898,1514.52412 L2445.20459,1587.78435 L2383.03008,1565.10023 L2394.46605,1525.60477 L2326.38322,1519.98577 L2238.15928,1602.13895 L2144.59043,1636.06616 L2167.27963,1763.26274 L2158.74707,1788.76398 L2192.95346,1808.47871 L2331.74335,1774.17081 L2385.57818,1805.47886 L2411.08957,1791.40344 L2428.05825,1842.77646 L2498.78054,1862.64855 L2550.04697,1831.33542 L2578.19275,1678.64775 L2501.32356,1602.13895 L2454.52898,1514.52412 Z M406.069721,1553.05008 L557.391974,1626.49304 L470.934442,1803.72261 L384.385545,1816.81331 L371.233929,1886.22095 L193.963758,2037.67518 L111.856259,2193.18503 L172.279582,2258.17665 L73.1120367,2232.14244 L38.2407139,2145.59862 L137.672205,1743.46679 L55.4378087,1669.95276 L16.8204835,1514.43275 L63.3054289,1438.35033 L20.8710389,1444.86776 L-39.4710696,1367.1103 L-91.4531973,1341.16238 L-212.472423,1297.89554 L-312.08157,1142.21818 L-372.555651,1029.81273 L-372.555651,878.348355 L-471.987142,709.747793 L-597.544208,631.812671 L-675.337205,675.094733 L-818,744.395777 L-727.319333,670.952812 L-783.60581,657.84688 L-804.939751,584.403915 L-740.201927,532.426863 L-804.939751,523.894302 L-792.143447,476.30789 L-744.516428,476.30789 L-787.742656,411.402561 L-671.022704,342 L-459.099473,458.897608 L-380.996846,385.459718 L-212.472423,484.840451 L111.856259,450.009735 L111.856259,614.493755 L-17.8731833,640.345232 L-43.8667851,709.747793 L81.5583076,843.695295 L111.856259,839.385869 L133.276489,670.780232 L215.779907,666.557096 L250.077655,761.460899 L293.400325,735.604346 L388.517314,947.750916 L254.519054,1007.99658 L150.73753,1064.3795 L68.6300311,1176.87632 L68.6300311,1233.15772 L38.2407139,1237.39101 L16.8204835,1176.87632 L-99.9806823,1194.01758 L-125.923525,1267.4707 L-95.7626228,1310.73245 L-52.6176091,1275.98803 L-9.30001534,1280.21624 L-30.9385087,1341.95929 L20.8710389,1345.56317 L38.2407139,1410.29084 L73.2034026,1421.90446 L98.9685896,1379.87107 L271.980094,1397.18999 L388.517314,1483.73888 L406.069721,1553.05008 Z" id="Fill-1" fill="#1A8F59" mask="url(#mask-2)"></path>
        </g>
    </g>
</svg>