<?xml version="1.0" encoding="UTF-8"?>
<svg width="256px" height="227px" viewBox="0 0 256 227" version="1.1" xmlns="http://www.w3.org/2000/svg" xmlns:xlink="http://www.w3.org/1999/xlink">
    <!-- Generator: Sketch 41.2 (35397) - http://www.bohemiancoding.com/sketch -->
    <title>couple</title>
    <desc>Created with Sketch.</desc>
    <defs>
        <path d="M91.0387549,141.996791 C94.3956963,144.437147 97.9272234,147.076589 101.414489,149.801139 C116.058212,161.24207 128.788007,176.373208 128.788007,176.373208 L145.07618,155.51834 C145.07618,155.51834 128.763863,146.283513 113.045565,135.117119 C102.066682,127.31764 92.2168521,119.172012 87.2751198,114.968932 C82.2863165,108.590253 74.9363714,107.274411 68.6529042,106.969455 C67.7629931,106.969455 66.8073948,106.961383 65.8036339,106.965682 C64.799873,106.961383 63.8442747,106.969455 62.9310856,107.024613 C55.7001369,107.321525 47.0244479,109.020962 42.2016339,118.302807 C36.0005404,130.237248 44.1710165,163.935903 46.4850411,171.630184 L46.4850411,178.896926 L45.0236984,187.595358 L88.8751315,197.894859 L85.1222267,178.896926 L85.1222267,171.630184 C86.4403765,167.247251 89.6588522,154.42631 91.0387549,141.996791 Z" id="path-1"></path>
        <path d="M64.0968419,113.73913 C86.2870124,113.73913 106.093714,92.2877302 108.336349,65.826087 C110.578983,39.3644437 90.7722815,17.9130435 64.0968419,17.9130435 C37.4214023,17.9130435 17.6147004,39.3644437 19.857335,65.826087 C22.0999695,92.2877302 41.9066714,113.73913 64.0968419,113.73913 Z" id="path-3"></path>
        <path d="M37.426508,0.00518304735 C46.3716278,0.367680935 57.0695396,2.11745195 63.0165068,11.6742079 C70.6630178,23.9621248 60.5880794,58.6588716 57.7346771,66.5810427 L57.7346771,74.0630128 L68.4289344,104.623629 L0.942161929,104.623629 L10.0915214,74.0630128 L10.0915214,66.5810427 C7.23811917,58.6588716 -2.83681924,23.9621248 4.80969171,11.6742079 C10.7566589,2.11745195 21.4545707,0.367680935 30.3709865,0.061974719 C31.4970316,0.00518304735 32.675371,-0.00312804118 33.9130993,0.0012984329 C35.1508275,-0.00312804118 36.3291669,0.00518304735 37.426508,0.00518304735 Z" id="path-5"></path>
        <path d="M38.276473,95.826087 C70.6070265,93.5732397 74.4709543,74.3746867 76.4037409,47.9130435 C78.3365276,21.4514002 61.2663683,0 38.276473,0 C15.2865778,0 -1.7835815,21.4514002 0.149205136,47.9130435 C2.08199177,74.3746867 5.94591957,98.0789342 38.276473,95.826087 Z" id="path-7"></path>
    </defs>
    <g id="Page-1" stroke="none" stroke-width="1" fill="none" fill-rule="evenodd">
        <g id="Desktop-HD" transform="translate(-759.000000, -35.000000)">
            <g id="couple" transform="translate(754.000000, 25.000000)">
                <g id="嫁" transform="translate(0.000000, 6.000000)">
                    <ellipse id="Oval-3" fill="#FFD9B0" transform="translate(140.876624, 170.224950) rotate(-22.000000) translate(-140.876624, -170.224950) " cx="140.876624" cy="170.22495" rx="13.8242962" ry="10.8352592"></ellipse>
                    <g id="Group-9">
                        <path d="M80.1163837,9.76501855 C77.0303247,8.25421423 46.4578807,-5.5953655 19.9638706,24.7224431 C-7.97237914,56.6906453 30.8804743,119.828877 16.8469956,142.843781 C16.8469956,142.843781 46.598071,128.850983 55.0186609,109.648043 C57.5330385,103.91407 60.8062743,92.710125 64.1609951,79.8141103 C67.0404899,91.8161271 70.074741,102.733314 72.7708127,108.881637 C81.1914027,128.084576 110.942478,142.077374 110.942478,142.077374 C96.9089994,119.06247 135.761853,55.9242384 107.825603,23.9560361 C98.1382607,12.8705496 88.5324009,9.47320334 80.1163837,9.76501855 Z" id="Combined-Shape" fill="#F38E3F"></path>
                        <mask id="mask-2" fill="white">
                            <use xlink:href="#path-1"></use>
                        </mask>
                        <use id="Combined-Shape" fill="#FFC6C6" xlink:href="#path-1"></use>
                        <path d="M66.7339605,119.73913 C80.9327934,119.73913 94.3489642,99.3836585 95.7839596,74.2739114 C97.2189551,49.1641643 84.5452332,28.8086924 67.4764095,28.8086924 C50.4075858,28.8086924 37.7338639,49.1641643 39.1688593,74.2739114 C40.6038547,99.3836585 52.5351277,119.73913 66.7339605,119.73913 Z" id="Oval-5" fill="#FCB0B0" mask="url(#mask-2)"></path>
                        <mask id="mask-4" fill="white">
                            <use xlink:href="#path-3"></use>
                        </mask>
                        <use id="Oval-5" fill="#FFD6B5" xlink:href="#path-3"></use>
                        <path d="M39.9230573,61.096729 C68.6709327,61.096729 91.9756903,44.195396 91.9756903,23.3465452 C91.9756903,2.49769443 68.6709327,-14.4036385 39.9230573,-14.4036385 C11.1751819,-14.4036385 -12.1295756,2.49769443 -12.1295756,23.3465452 C-12.1295756,44.195396 11.1751819,61.096729 39.9230573,61.096729 Z" id="Oval-2" fill="#F38E3F" mask="url(#mask-4)" transform="translate(39.923057, 23.346545) rotate(-45.000000) translate(-39.923057, -23.346545) "></path>
                        <path d="M103.471683,65.6531991 C121.934945,65.6531991 136.902376,54.798354 136.902376,41.408224 C136.902376,28.018094 121.934945,17.1632489 103.471683,17.1632489 C85.0084217,17.1632489 70.0409907,28.018094 70.0409907,41.408224 C70.0409907,54.798354 85.0084217,65.6531991 103.471683,65.6531991 Z" id="Oval-2" fill="#F38E3F" mask="url(#mask-4)" transform="translate(103.471683, 41.408224) scale(-1, 1) rotate(-58.000000) translate(-103.471683, -41.408224) "></path>
                        <g id="Group-8" mask="url(#mask-4)" fill="#8B572A">
                            <g transform="translate(39.894737, 69.608696)" id="Oval">
                                <ellipse cx="4.42105263" cy="5.04347826" rx="4.42105263" ry="5.04347826"></ellipse>
                                <ellipse cx="42.5789474" cy="5.04347826" rx="4.42105263" ry="5.04347826"></ellipse>
                            </g>
                        </g>
                        <ellipse id="Oval-6" fill="#FFB490" mask="url(#mask-4)" cx="63.8947368" cy="86" rx="5.05263158" ry="2.52173913"></ellipse>
                        <g id="Group-7" transform="translate(68.500570, 36.276692) rotate(12.000000) translate(-68.500570, -36.276692) translate(4.000570, 13.276692)" fill="#0D590F">
                            <g id="Group-6" transform="translate(-0.000000, 7.069565)">
                                <g id="Group-5" transform="translate(10.665114, 0.000000)">
                                    <path d="M5.899273,31.6226087 C2.77334943,31.6226087 0.215280455,29.2028765 0.0129015349,26.1427599 C0.00382265231,25.9971751 1.03028697e-13,25.8747029 1.03028697e-13,25.7513422 C1.03028697e-13,23.8051968 1.34360452,21.8187851 2.37636392,19.8945225 C3.40912333,17.9702599 5.899273,13.6173913 5.899273,13.6173913 L5.899273,13.8620144 L5.899273,31.6226087 Z M5.899273,31.6226087 C9.02519657,31.6226087 11.5832655,29.2028765 11.7856445,26.1427599 C11.7947233,25.9971751 11.798546,25.8747029 11.798546,25.7513422 C11.798546,23.8051968 10.4549415,21.8187851 9.42218207,19.8945225 C8.38942267,17.9702599 5.899273,13.6173913 5.899273,13.6173913 L5.899273,13.8620144 L5.899273,31.6226087 Z" id="Combined-Shape"></path>
                                    <path d="M5.899273,18.0052174 C2.77334943,18.0052174 0.215280455,15.5854852 0.0129015349,12.5253686 C0.00382265231,12.3797838 3.21520588e-13,12.2573116 3.21520588e-13,12.1339509 C3.21520588e-13,10.1878055 1.34360452,8.2013938 2.37636392,6.27713122 C3.40912333,4.35286863 5.899273,-3.64153152e-14 5.899273,-3.64153152e-14 L5.899273,0.244623135 L5.899273,18.0052174 Z M5.899273,18.0052174 C9.02519657,18.0052174 11.5832655,15.5854852 11.7856445,12.5253686 C11.7947233,12.3797838 11.798546,12.2573116 11.798546,12.1339509 C11.798546,10.1878055 10.4549415,8.2013938 9.42218207,6.27713122 C8.38942267,4.35286863 5.899273,-6.48370246e-14 5.899273,-6.48370246e-14 L5.899273,0.244623135 L5.899273,18.0052174 Z" id="Combined-Shape" transform="translate(5.899273, 9.002609) rotate(-180.000000) translate(-5.899273, -9.002609) "></path>
                                </g>
                                <g id="Group-5" transform="translate(16.972635, 15.596299) rotate(-240.000000) translate(-16.972635, -15.596299) translate(10.972635, -0.403701)">
                                    <path d="M5.899273,31.6226087 C2.77334943,31.6226087 0.215280455,29.2028765 0.0129015349,26.1427599 C0.00382265231,25.9971751 -4.35207426e-14,25.8747029 -4.35207426e-14,25.7513422 C-4.35207426e-14,23.8051968 1.34360452,21.8187851 2.37636392,19.8945225 C3.40912333,17.9702599 5.899273,13.6173913 5.899273,13.6173913 L5.899273,13.8620144 L5.899273,31.6226087 Z M5.899273,31.6226087 C9.02519657,31.6226087 11.5832655,29.2028765 11.7856445,26.1427599 C11.7947233,25.9971751 11.798546,25.8747029 11.798546,25.7513422 C11.798546,23.8051968 10.4549415,21.8187851 9.42218207,19.8945225 C8.38942267,17.9702599 5.899273,13.6173913 5.899273,13.6173913 L5.899273,13.8620144 L5.899273,31.6226087 Z" id="Combined-Shape"></path>
                                    <path d="M5.899273,18.0052174 C2.77334943,18.0052174 0.215280455,15.5854852 0.0129015349,12.5253686 C0.00382265231,12.3797838 -3.37507799e-14,12.2573116 -3.37507799e-14,12.1339509 C-3.37507799e-14,10.1878055 1.34360452,8.2013938 2.37636392,6.27713122 C3.40912333,4.35286863 5.899273,1.63424829e-13 5.899273,1.63424829e-13 L5.899273,0.244623135 L5.899273,18.0052174 Z M5.899273,18.0052174 C9.02519657,18.0052174 11.5832655,15.5854852 11.7856445,12.5253686 C11.7947233,12.3797838 11.798546,12.2573116 11.798546,12.1339509 C11.798546,10.1878055 10.4549415,8.2013938 9.42218207,6.27713122 C8.38942267,4.35286863 5.899273,1.98951966e-13 5.899273,1.98951966e-13 L5.899273,0.244623135 L5.899273,18.0052174 Z" id="Combined-Shape" transform="translate(5.899273, 9.002609) rotate(-180.000000) translate(-5.899273, -9.002609) "></path>
                                </g>
                                <g id="Group-5" transform="translate(17.170821, 16.064571) rotate(-120.000000) translate(-17.170821, -16.064571) translate(11.170821, 0.064571)">
                                    <path d="M5.899273,31.6226087 C2.77334943,31.6226087 0.215280455,29.2028765 0.0129015349,26.1427599 C0.00382265231,25.9971751 2.30926389e-13,25.8747029 2.30926389e-13,25.7513422 C2.30926389e-13,23.8051968 1.34360452,21.8187851 2.37636392,19.8945225 C3.40912333,17.9702599 5.899273,13.6173913 5.899273,13.6173913 L5.899273,13.8620144 L5.899273,31.6226087 Z M5.899273,31.6226087 C9.02519657,31.6226087 11.5832655,29.2028765 11.7856445,26.1427599 C11.7947233,25.9971751 11.798546,25.8747029 11.798546,25.7513422 C11.798546,23.8051968 10.4549415,21.8187851 9.42218207,19.8945225 C8.38942267,17.9702599 5.899273,13.6173913 5.899273,13.6173913 L5.899273,13.8620144 L5.899273,31.6226087 Z" id="Combined-Shape"></path>
                                    <path d="M5.899273,18.0052174 C2.77334943,18.0052174 0.215280455,15.5854852 0.0129015349,12.5253686 C0.00382265231,12.3797838 9.59232693e-14,12.2573116 9.59232693e-14,12.1339509 C9.59232693e-14,10.1878055 1.34360452,8.2013938 2.37636392,6.27713122 C3.40912333,4.35286863 5.899273,-5.7909233e-13 5.899273,-5.7909233e-13 L5.899273,0.244623135 L5.899273,18.0052174 Z M5.899273,18.0052174 C9.02519657,18.0052174 11.5832655,15.5854852 11.7856445,12.5253686 C11.7947233,12.3797838 11.798546,12.2573116 11.798546,12.1339509 C11.798546,10.1878055 10.4549415,8.2013938 9.42218207,6.27713122 C8.38942267,4.35286863 5.899273,-2.4158453e-13 5.899273,-2.4158453e-13 L5.899273,0.244623135 L5.899273,18.0052174 Z" id="Combined-Shape" transform="translate(5.899273, 9.002609) rotate(-180.000000) translate(-5.899273, -9.002609) "></path>
                                </g>
                            </g>
                            <g id="Group-6" transform="translate(93.496041, 7.069565)">
                                <g id="Group-5" transform="translate(10.665114, -0.000000)">
                                    <path d="M5.899273,31.6226087 C2.77334943,31.6226087 0.215280455,29.2028765 0.0129015349,26.1427599 C0.00382265231,25.9971751 -2.34479103e-13,25.8747029 -2.34479103e-13,25.7513422 C-2.34479103e-13,23.8051968 1.34360452,21.8187851 2.37636392,19.8945225 C3.40912333,17.9702599 5.899273,13.6173913 5.899273,13.6173913 L5.899273,13.8620144 L5.899273,31.6226087 Z M5.899273,31.6226087 C9.02519657,31.6226087 11.5832655,29.2028765 11.7856445,26.1427599 C11.7947233,25.9971751 11.798546,25.8747029 11.798546,25.7513422 C11.798546,23.8051968 10.4549415,21.8187851 9.42218207,19.8945225 C8.38942267,17.9702599 5.899273,13.6173913 5.899273,13.6173913 L5.899273,13.8620144 L5.899273,31.6226087 Z" id="Combined-Shape"></path>
                                    <path d="M5.899273,18.0052174 C2.77334943,18.0052174 0.215280455,15.5854852 0.0129015349,12.5253686 C0.0038226523,12.3797838 -7.88702437e-13,12.2573116 -7.88702437e-13,12.1339509 C-7.88702437e-13,10.1878055 1.34360452,8.2013938 2.37636392,6.27713122 C3.40912333,4.35286863 5.899273,4.52970994e-14 5.899273,4.52970994e-14 L5.899273,0.244623135 L5.899273,18.0052174 Z M5.899273,18.0052174 C9.02519657,18.0052174 11.5832655,15.5854852 11.7856445,12.5253686 C11.7947233,12.3797838 11.798546,12.2573116 11.798546,12.1339509 C11.798546,10.1878055 10.4549415,8.2013938 9.42218207,6.27713122 C8.38942267,4.35286863 5.899273,9.76996262e-15 5.899273,9.76996262e-15 L5.899273,0.244623135 L5.899273,18.0052174 Z" id="Combined-Shape" transform="translate(5.899273, 9.002609) rotate(-180.000000) translate(-5.899273, -9.002609) "></path>
                                </g>
                                <g id="Group-5" transform="translate(16.972635, 15.596299) rotate(-240.000000) translate(-16.972635, -15.596299) translate(10.972635, -0.403701)">
                                    <path d="M5.899273,31.6226087 C2.77334943,31.6226087 0.215280455,29.2028765 0.0129015349,26.1427599 C0.00382265231,25.9971751 2.18491891e-13,25.8747029 2.18491891e-13,25.7513422 C2.18491891e-13,23.8051968 1.34360452,21.8187851 2.37636392,19.8945225 C3.40912333,17.9702599 5.899273,13.6173913 5.899273,13.6173913 L5.899273,13.8620144 L5.899273,31.6226087 Z M5.899273,31.6226087 C9.02519657,31.6226087 11.5832655,29.2028765 11.7856445,26.1427599 C11.7947233,25.9971751 11.798546,25.8747029 11.798546,25.7513422 C11.798546,23.8051968 10.4549415,21.8187851 9.42218207,19.8945225 C8.38942267,17.9702599 5.899273,13.6173913 5.899273,13.6173913 L5.899273,13.8620144 L5.899273,31.6226087 Z" id="Combined-Shape"></path>
                                    <path d="M5.899273,18.0052174 C2.77334943,18.0052174 0.215280455,15.5854852 0.0129015349,12.5253686 C0.00382265231,12.3797838 -1.75859327e-13,12.2573116 -1.75859327e-13,12.1339509 C-1.75859327e-13,10.1878055 1.34360452,8.2013938 2.37636392,6.27713122 C3.40912333,4.35286863 5.899273,1.91846539e-13 5.899273,1.91846539e-13 L5.899273,0.244623135 L5.899273,18.0052174 Z M5.899273,18.0052174 C9.02519657,18.0052174 11.5832655,15.5854852 11.7856445,12.5253686 C11.7947233,12.3797838 11.798546,12.2573116 11.798546,12.1339509 C11.798546,10.1878055 10.4549415,8.2013938 9.42218207,6.27713122 C8.38942267,4.35286863 5.899273,1.77635684e-13 5.899273,1.77635684e-13 L5.899273,0.244623135 L5.899273,18.0052174 Z" id="Combined-Shape" transform="translate(5.899273, 9.002609) rotate(-180.000000) translate(-5.899273, -9.002609) "></path>
                                </g>
                                <g id="Group-5" transform="translate(17.170821, 16.064571) rotate(-120.000000) translate(-17.170821, -16.064571) translate(11.170821, 0.064571)">
                                    <path d="M5.899273,31.6226087 C2.77334943,31.6226087 0.215280455,29.2028765 0.0129015349,26.1427599 C0.00382265231,25.9971751 1.43884904e-13,25.8747029 1.43884904e-13,25.7513422 C1.43884904e-13,23.8051968 1.34360452,21.8187851 2.37636392,19.8945225 C3.40912333,17.9702599 5.899273,13.6173913 5.899273,13.6173913 L5.899273,13.8620144 L5.899273,31.6226087 Z M5.899273,31.6226087 C9.02519657,31.6226087 11.5832655,29.2028765 11.7856445,26.1427599 C11.7947233,25.9971751 11.798546,25.8747029 11.798546,25.7513422 C11.798546,23.8051968 10.4549415,21.8187851 9.42218207,19.8945225 C8.38942267,17.9702599 5.899273,13.6173913 5.899273,13.6173913 L5.899273,13.8620144 L5.899273,31.6226087 Z" id="Combined-Shape"></path>
                                    <path d="M5.899273,18.0052174 C2.77334943,18.0052174 0.215280455,15.5854852 0.0129015349,12.5253686 C0.00382265231,12.3797838 1.49213975e-13,12.2573116 1.49213975e-13,12.1339509 C1.49213975e-13,10.1878055 1.34360452,8.2013938 2.37636392,6.27713122 C3.40912333,4.35286863 5.899273,-6.03961325e-13 5.899273,-6.03961325e-13 L5.899273,0.244623135 L5.899273,18.0052174 Z M5.899273,18.0052174 C9.02519657,18.0052174 11.5832655,15.5854852 11.7856445,12.5253686 C11.7947233,12.3797838 11.798546,12.2573116 11.798546,12.1339509 C11.798546,10.1878055 10.4549415,8.2013938 9.42218207,6.27713122 C8.38942267,4.35286863 5.899273,1.7408297e-13 5.899273,1.7408297e-13 L5.899273,0.244623135 L5.899273,18.0052174 Z" id="Combined-Shape" transform="translate(5.899273, 9.002609) rotate(-180.000000) translate(-5.899273, -9.002609) "></path>
                                </g>
                            </g>
                            <g id="Group-6" transform="translate(31.049600, 23.336705) rotate(-330.000000) translate(-31.049600, -23.336705) translate(13.549600, 7.336705)">
                                <g id="Group-5" transform="translate(10.665114, 0.000000)">
                                    <path d="M5.899273,31.6226087 C2.77334943,31.6226087 0.215280455,29.2028765 0.0129015349,26.1427599 C0.00382265231,25.9971751 -5.97744076e-13,25.8747029 -5.97744076e-13,25.7513422 C-5.97744076e-13,23.8051968 1.34360452,21.8187851 2.37636392,19.8945225 C3.40912333,17.9702599 5.899273,13.6173913 5.899273,13.6173913 L5.899273,13.8620144 L5.899273,31.6226087 Z M5.899273,31.6226087 C9.02519657,31.6226087 11.5832655,29.2028765 11.7856445,26.1427599 C11.7947233,25.9971751 11.798546,25.8747029 11.798546,25.7513422 C11.798546,23.8051968 10.4549415,21.8187851 9.42218207,19.8945225 C8.38942267,17.9702599 5.899273,13.6173913 5.899273,13.6173913 L5.899273,13.8620144 L5.899273,31.6226087 Z" id="Combined-Shape"></path>
                                    <path d="M5.899273,18.0052174 C2.77334943,18.0052174 0.215280455,15.5854852 0.0129015349,12.5253686 C0.0038226523,12.3797838 -6.37712105e-13,12.2573116 -6.37712105e-13,12.1339509 C-6.37712105e-13,10.1878055 1.34360452,8.2013938 2.37636392,6.27713122 C3.40912333,4.35286863 5.899273,5.87974114e-13 5.899273,5.87974114e-13 L5.899273,0.244623135 L5.899273,18.0052174 Z M5.899273,18.0052174 C9.02519657,18.0052174 11.5832655,15.5854852 11.7856445,12.5253686 C11.7947233,12.3797838 11.798546,12.2573116 11.798546,12.1339509 C11.798546,10.1878055 10.4549415,8.2013938 9.42218207,6.27713122 C8.38942267,4.35286863 5.899273,4.38760139e-13 5.899273,4.38760139e-13 L5.899273,0.244623135 L5.899273,18.0052174 Z" id="Combined-Shape" transform="translate(5.899273, 9.002609) rotate(-180.000000) translate(-5.899273, -9.002609) "></path>
                                </g>
                                <g id="Group-5" transform="translate(16.972635, 15.596299) rotate(-240.000000) translate(-16.972635, -15.596299) translate(10.972635, -0.403701)">
                                    <path d="M5.899273,31.6226087 C2.77334943,31.6226087 0.215280455,29.2028765 0.0129015349,26.1427599 C0.00382265231,25.9971751 9.37916411e-13,25.8747029 9.37916411e-13,25.7513422 C9.37916411e-13,23.8051968 1.34360452,21.8187851 2.37636392,19.8945225 C3.40912333,17.9702599 5.899273,13.6173913 5.899273,13.6173913 L5.899273,13.8620144 L5.899273,31.6226087 Z M5.899273,31.6226087 C9.02519657,31.6226087 11.5832655,29.2028765 11.7856445,26.1427599 C11.7947233,25.9971751 11.798546,25.8747029 11.798546,25.7513422 C11.798546,23.8051968 10.4549415,21.8187851 9.42218207,19.8945225 C8.38942267,17.9702599 5.899273,13.6173913 5.899273,13.6173913 L5.899273,13.8620144 L5.899273,31.6226087 Z" id="Combined-Shape"></path>
                                    <path d="M5.899273,18.0052174 C2.77334943,18.0052174 0.215280455,15.5854852 0.0129015349,12.5253686 C0.00382265231,12.3797838 1.59872116e-14,12.2573116 1.59872116e-14,12.1339509 C1.59872116e-14,10.1878055 1.34360452,8.2013938 2.37636392,6.27713122 C3.40912333,4.35286863 5.899273,2.0250468e-13 5.899273,2.0250468e-13 L5.899273,0.244623135 L5.899273,18.0052174 Z M5.899273,18.0052174 C9.02519657,18.0052174 11.5832655,15.5854852 11.7856445,12.5253686 C11.7947233,12.3797838 11.798546,12.2573116 11.798546,12.1339509 C11.798546,10.1878055 10.4549415,8.2013938 9.42218207,6.27713122 C8.38942267,4.35286863 5.899273,2.13162821e-13 5.899273,2.13162821e-13 L5.899273,0.244623135 L5.899273,18.0052174 Z" id="Combined-Shape" transform="translate(5.899273, 9.002609) rotate(-180.000000) translate(-5.899273, -9.002609) "></path>
                                </g>
                                <g id="Group-5" transform="translate(17.170821, 16.064571) rotate(-120.000000) translate(-17.170821, -16.064571) translate(11.170821, 0.064571)">
                                    <path d="M5.899273,31.6226087 C2.77334943,31.6226087 0.215280455,29.2028765 0.0129015349,26.1427599 C0.00382265231,25.9971751 9.85878046e-14,25.8747029 9.85878046e-14,25.7513422 C9.85878046e-14,23.8051968 1.34360452,21.8187851 2.37636392,19.8945225 C3.40912333,17.9702599 5.899273,13.6173913 5.899273,13.6173913 L5.899273,13.8620144 L5.899273,31.6226087 Z M5.899273,31.6226087 C9.02519657,31.6226087 11.5832655,29.2028765 11.7856445,26.1427599 C11.7947233,25.9971751 11.798546,25.8747029 11.798546,25.7513422 C11.798546,23.8051968 10.4549415,21.8187851 9.42218207,19.8945225 C8.38942267,17.9702599 5.899273,13.6173913 5.899273,13.6173913 L5.899273,13.8620144 L5.899273,31.6226087 Z" id="Combined-Shape"></path>
                                    <path d="M5.899273,18.0052174 C2.77334943,18.0052174 0.215280455,15.5854852 0.0129015349,12.5253686 C0.00382265231,12.3797838 -1.77635684e-13,12.2573116 -1.77635684e-13,12.1339509 C-1.77635684e-13,10.1878055 1.34360452,8.2013938 2.37636392,6.27713122 C3.40912333,4.35286863 5.899273,-4.12114787e-13 5.899273,-4.12114787e-13 L5.899273,0.244623135 L5.899273,18.0052174 Z M5.899273,18.0052174 C9.02519657,18.0052174 11.5832655,15.5854852 11.7856445,12.5253686 C11.7947233,12.3797838 11.798546,12.2573116 11.798546,12.1339509 C11.798546,10.1878055 10.4549415,8.2013938 9.42218207,6.27713122 C8.38942267,4.35286863 5.899273,-1.81188398e-13 5.899273,-1.81188398e-13 L5.899273,0.244623135 L5.899273,18.0052174 Z" id="Combined-Shape" transform="translate(5.899273, 9.002609) rotate(-180.000000) translate(-5.899273, -9.002609) "></path>
                                </g>
                            </g>
                            <g id="Group-6" transform="translate(63.850955, 7.069565)">
                                <g id="Group-5" transform="translate(10.665114, 0.000000)">
                                    <path d="M5.899273,31.6226087 C2.77334943,31.6226087 0.215280455,29.2028765 0.0129015349,26.1427599 C0.00382265231,25.9971751 2.62900812e-13,25.8747029 2.62900812e-13,25.7513422 C2.62900812e-13,23.8051968 1.34360452,21.8187851 2.37636392,19.8945225 C3.40912333,17.9702599 5.899273,13.6173913 5.899273,13.6173913 L5.899273,13.8620144 L5.899273,31.6226087 Z M5.899273,31.6226087 C9.02519657,31.6226087 11.5832655,29.2028765 11.7856445,26.1427599 C11.7947233,25.9971751 11.798546,25.8747029 11.798546,25.7513422 C11.798546,23.8051968 10.4549415,21.8187851 9.42218207,19.8945225 C8.38942267,17.9702599 5.899273,13.6173913 5.899273,13.6173913 L5.899273,13.8620144 L5.899273,31.6226087 Z" id="Combined-Shape"></path>
                                    <path d="M5.899273,18.0052174 C2.77334943,18.0052174 0.215280455,15.5854852 0.0129015349,12.5253686 C0.00382265231,12.3797838 -3.17967874e-13,12.2573116 -3.17967874e-13,12.1339509 C-3.17967874e-13,10.1878055 1.34360452,8.2013938 2.37636392,6.27713122 C3.40912333,4.35286863 5.899273,3.10862447e-14 5.899273,3.10862447e-14 L5.899273,0.244623135 L5.899273,18.0052174 Z M5.899273,18.0052174 C9.02519657,18.0052174 11.5832655,15.5854852 11.7856445,12.5253686 C11.7947233,12.3797838 11.798546,12.2573116 11.798546,12.1339509 C11.798546,10.1878055 10.4549415,8.2013938 9.42218207,6.27713122 C8.38942267,4.35286863 5.899273,-4.4408921e-15 5.899273,-4.4408921e-15 L5.899273,0.244623135 L5.899273,18.0052174 Z" id="Combined-Shape" transform="translate(5.899273, 9.002609) rotate(-180.000000) translate(-5.899273, -9.002609) "></path>
                                </g>
                                <g id="Group-5" transform="translate(16.972635, 15.596299) rotate(-240.000000) translate(-16.972635, -15.596299) translate(10.972635, -0.403701)">
                                    <path d="M5.899273,31.6226087 C2.77334943,31.6226087 0.215280455,29.2028765 0.0129015349,26.1427599 C0.00382265231,25.9971751 5.72875081e-13,25.8747029 5.72875081e-13,25.7513422 C5.72875081e-13,23.8051968 1.34360452,21.8187851 2.37636392,19.8945225 C3.40912333,17.9702599 5.899273,13.6173913 5.899273,13.6173913 L5.899273,13.8620144 L5.899273,31.6226087 Z M5.899273,31.6226087 C9.02519657,31.6226087 11.5832655,29.2028765 11.7856445,26.1427599 C11.7947233,25.9971751 11.798546,25.8747029 11.798546,25.7513422 C11.798546,23.8051968 10.4549415,21.8187851 9.42218207,19.8945225 C8.38942267,17.9702599 5.899273,13.6173913 5.899273,13.6173913 L5.899273,13.8620144 L5.899273,31.6226087 Z" id="Combined-Shape"></path>
                                    <path d="M5.899273,18.0052174 C2.77334943,18.0052174 0.215280455,15.5854852 0.0129015349,12.5253686 C0.00382265231,12.3797838 -6.21724894e-14,12.2573116 -6.21724894e-14,12.1339509 C-6.21724894e-14,10.1878055 1.34360452,8.2013938 2.37636392,6.27713122 C3.40912333,4.35286863 5.899273,6.39488462e-14 5.899273,6.39488462e-14 L5.899273,0.244623135 L5.899273,18.0052174 Z M5.899273,18.0052174 C9.02519657,18.0052174 11.5832655,15.5854852 11.7856445,12.5253686 C11.7947233,12.3797838 11.798546,12.2573116 11.798546,12.1339509 C11.798546,10.1878055 10.4549415,8.2013938 9.42218207,6.27713122 C8.38942267,4.35286863 5.899273,8.52651283e-14 5.899273,8.52651283e-14 L5.899273,0.244623135 L5.899273,18.0052174 Z" id="Combined-Shape" transform="translate(5.899273, 9.002609) rotate(-180.000000) translate(-5.899273, -9.002609) "></path>
                                </g>
                                <g id="Group-5" transform="translate(17.170821, 16.064571) rotate(-120.000000) translate(-17.170821, -16.064571) translate(11.170821, 0.064571)">
                                    <path d="M5.899273,31.6226087 C2.77334943,31.6226087 0.215280455,29.2028765 0.0129015349,26.1427599 C0.00382265231,25.9971751 2.38919995e-13,25.8747029 2.38919995e-13,25.7513422 C2.38919995e-13,23.8051968 1.34360452,21.8187851 2.37636392,19.8945225 C3.40912333,17.9702599 5.899273,13.6173913 5.899273,13.6173913 L5.899273,13.8620144 L5.899273,31.6226087 Z M5.899273,31.6226087 C9.02519657,31.6226087 11.5832655,29.2028765 11.7856445,26.1427599 C11.7947233,25.9971751 11.798546,25.8747029 11.798546,25.7513422 C11.798546,23.8051968 10.4549415,21.8187851 9.42218207,19.8945225 C8.38942267,17.9702599 5.899273,13.6173913 5.899273,13.6173913 L5.899273,13.8620144 L5.899273,31.6226087 Z" id="Combined-Shape"></path>
                                    <path d="M5.899273,18.0052174 C2.77334943,18.0052174 0.215280455,15.5854852 0.0129015349,12.5253686 C0.00382265231,12.3797838 3.55271368e-15,12.2573116 3.55271368e-15,12.1339509 C3.55271368e-15,10.1878055 1.34360452,8.2013938 2.37636392,6.27713122 C3.40912333,4.35286863 5.899273,-1.43884904e-13 5.899273,-1.43884904e-13 L5.899273,0.244623135 L5.899273,18.0052174 Z M5.899273,18.0052174 C9.02519657,18.0052174 11.5832655,15.5854852 11.7856445,12.5253686 C11.7947233,12.3797838 11.798546,12.2573116 11.798546,12.1339509 C11.798546,10.1878055 10.4549415,8.2013938 9.42218207,6.27713122 C8.38942267,4.35286863 5.899273,-2.22044605e-13 5.899273,-2.22044605e-13 L5.899273,0.244623135 L5.899273,18.0052174 Z" id="Combined-Shape" transform="translate(5.899273, 9.002609) rotate(-180.000000) translate(-5.899273, -9.002609) "></path>
                                </g>
                            </g>
                            <g id="Group-6" transform="translate(96.040750, 23.336705) rotate(-330.000000) translate(-96.040750, -23.336705) translate(78.540750, 7.336705)">
                                <g id="Group-5" transform="translate(10.665114, -0.000000)">
                                    <path d="M5.899273,31.6226087 C2.77334943,31.6226087 0.215280455,29.2028765 0.0129015349,26.1427599 C0.0038226523,25.9971751 -9.13935594e-13,25.8747029 -9.13935594e-13,25.7513422 C-9.13935594e-13,23.8051968 1.34360452,21.8187851 2.37636392,19.8945225 C3.40912333,17.9702599 5.899273,13.6173913 5.899273,13.6173913 L5.899273,13.8620144 L5.899273,31.6226087 Z M5.899273,31.6226087 C9.02519657,31.6226087 11.5832655,29.2028765 11.7856445,26.1427599 C11.7947233,25.9971751 11.798546,25.8747029 11.798546,25.7513422 C11.798546,23.8051968 10.4549415,21.8187851 9.42218207,19.8945225 C8.38942267,17.9702599 5.899273,13.6173913 5.899273,13.6173913 L5.899273,13.8620144 L5.899273,31.6226087 Z" id="Combined-Shape"></path>
                                    <path d="M5.899273,18.0052174 C2.77334943,18.0052174 0.215280455,15.5854852 0.0129015349,12.5253686 C0.00382265231,12.3797838 -3.87245791e-13,12.2573116 -3.87245791e-13,12.1339509 C-3.87245791e-13,10.1878055 1.34360452,8.2013938 2.37636392,6.27713122 C3.40912333,4.35286863 5.899273,8.17124146e-14 5.899273,8.17124146e-14 L5.899273,0.244623135 L5.899273,18.0052174 Z M5.899273,18.0052174 C9.02519657,18.0052174 11.5832655,15.5854852 11.7856445,12.5253686 C11.7947233,12.3797838 11.798546,12.2573116 11.798546,12.1339509 C11.798546,10.1878055 10.4549415,8.2013938 9.42218207,6.27713122 C8.38942267,4.35286863 5.899273,2.38031816e-13 5.899273,2.38031816e-13 L5.899273,0.244623135 L5.899273,18.0052174 Z" id="Combined-Shape" transform="translate(5.899273, 9.002609) rotate(-180.000000) translate(-5.899273, -9.002609) "></path>
                                </g>
                                <g id="Group-5" transform="translate(16.972635, 15.596299) rotate(-240.000000) translate(-16.972635, -15.596299) translate(10.972635, -0.403701)">
                                    <path d="M5.899273,31.6226087 C2.77334943,31.6226087 0.215280455,29.2028765 0.0129015349,26.1427599 C0.00382265231,25.9971751 -2.66453526e-15,25.8747029 -2.66453526e-15,25.7513422 C-2.66453526e-15,23.8051968 1.34360452,21.8187851 2.37636392,19.8945225 C3.40912333,17.9702599 5.899273,13.6173913 5.899273,13.6173913 L5.899273,13.8620144 L5.899273,31.6226087 Z M5.899273,31.6226087 C9.02519657,31.6226087 11.5832655,29.2028765 11.7856445,26.1427599 C11.7947233,25.9971751 11.798546,25.8747029 11.798546,25.7513422 C11.798546,23.8051968 10.4549415,21.8187851 9.42218207,19.8945225 C8.38942267,17.9702599 5.899273,13.6173913 5.899273,13.6173913 L5.899273,13.8620144 L5.899273,31.6226087 Z" id="Combined-Shape"></path>
                                    <path d="M5.899273,18.0052174 C2.77334943,18.0052174 0.215280455,15.5854852 0.0129015349,12.5253686 C0.00382265231,12.3797838 1.11910481e-13,12.2573116 1.11910481e-13,12.1339509 C1.11910481e-13,10.1878055 1.34360452,8.2013938 2.37636392,6.27713122 C3.40912333,4.35286863 5.899273,0 5.899273,0 L5.899273,0.244623135 L5.899273,18.0052174 Z M5.899273,18.0052174 C9.02519657,18.0052174 11.5832655,15.5854852 11.7856445,12.5253686 C11.7947233,12.3797838 11.798546,12.2573116 11.798546,12.1339509 C11.798546,10.1878055 10.4549415,8.2013938 9.42218207,6.27713122 C8.38942267,4.35286863 5.899273,1.84741111e-13 5.899273,1.84741111e-13 L5.899273,0.244623135 L5.899273,18.0052174 Z" id="Combined-Shape" transform="translate(5.899273, 9.002609) rotate(-180.000000) translate(-5.899273, -9.002609) "></path>
                                </g>
                                <g id="Group-5" transform="translate(17.170821, 16.064571) rotate(-120.000000) translate(-17.170821, -16.064571) translate(11.170821, 0.064571)">
                                    <path d="M5.899273,31.6226087 C2.77334943,31.6226087 0.215280455,29.2028765 0.0129015349,26.1427599 C0.00382265231,25.9971751 8.2600593e-14,25.8747029 8.2600593e-14,25.7513422 C8.2600593e-14,23.8051968 1.34360452,21.8187851 2.37636392,19.8945225 C3.40912333,17.9702599 5.899273,13.6173913 5.899273,13.6173913 L5.899273,13.8620144 L5.899273,31.6226087 Z M5.899273,31.6226087 C9.02519657,31.6226087 11.5832655,29.2028765 11.7856445,26.1427599 C11.7947233,25.9971751 11.798546,25.8747029 11.798546,25.7513422 C11.798546,23.8051968 10.4549415,21.8187851 9.42218207,19.8945225 C8.38942267,17.9702599 5.899273,13.6173913 5.899273,13.6173913 L5.899273,13.8620144 L5.899273,31.6226087 Z" id="Combined-Shape"></path>
                                    <path d="M5.899273,18.0052174 C2.77334943,18.0052174 0.215280455,15.5854852 0.0129015349,12.5253686 C0.00382265231,12.3797838 -1.31450406e-13,12.2573116 -1.31450406e-13,12.1339509 C-1.31450406e-13,10.1878055 1.34360452,8.2013938 2.37636392,6.27713122 C3.40912333,4.35286863 5.899273,-7.99360578e-14 5.899273,-7.99360578e-14 L5.899273,0.244623135 L5.899273,18.0052174 Z M5.899273,18.0052174 C9.02519657,18.0052174 11.5832655,15.5854852 11.7856445,12.5253686 C11.7947233,12.3797838 11.798546,12.2573116 11.798546,12.1339509 C11.798546,10.1878055 10.4549415,8.2013938 9.42218207,6.27713122 C8.38942267,4.35286863 5.899273,-2.50466314e-13 5.899273,-2.50466314e-13 L5.899273,0.244623135 L5.899273,18.0052174 Z" id="Combined-Shape" transform="translate(5.899273, 9.002609) rotate(-180.000000) translate(-5.899273, -9.002609) "></path>
                                </g>
                            </g>
                            <g id="Group-6" transform="translate(31.925477, 7.069565)">
                                <g id="Group-5" transform="translate(10.665114, -0.000000)">
                                    <path d="M5.899273,31.6226087 C2.77334943,31.6226087 0.215280455,29.2028765 0.0129015349,26.1427599 C0.00382265231,25.9971751 -2.06057393e-13,25.8747029 -2.06057393e-13,25.7513422 C-2.06057393e-13,23.8051968 1.34360452,21.8187851 2.37636392,19.8945225 C3.40912333,17.9702599 5.899273,13.6173913 5.899273,13.6173913 L5.899273,13.8620144 L5.899273,31.6226087 Z M5.899273,31.6226087 C9.02519657,31.6226087 11.5832655,29.2028765 11.7856445,26.1427599 C11.7947233,25.9971751 11.798546,25.8747029 11.798546,25.7513422 C11.798546,23.8051968 10.4549415,21.8187851 9.42218207,19.8945225 C8.38942267,17.9702599 5.899273,13.6173913 5.899273,13.6173913 L5.899273,13.8620144 L5.899273,31.6226087 Z" id="Combined-Shape"></path>
                                    <path d="M5.899273,18.0052174 C2.77334943,18.0052174 0.215280455,15.5854852 0.0129015349,12.5253686 C0.00382265231,12.3797838 -3.19744231e-13,12.2573116 -3.19744231e-13,12.1339509 C-3.19744231e-13,10.1878055 1.34360452,8.2013938 2.37636392,6.27713122 C3.40912333,4.35286863 5.899273,6.1284311e-14 5.899273,6.1284311e-14 L5.899273,0.244623135 L5.899273,18.0052174 Z M5.899273,18.0052174 C9.02519657,18.0052174 11.5832655,15.5854852 11.7856445,12.5253686 C11.7947233,12.3797838 11.798546,12.2573116 11.798546,12.1339509 C11.798546,10.1878055 10.4549415,8.2013938 9.42218207,6.27713122 C8.38942267,4.35286863 5.899273,8.97060204e-14 5.899273,8.97060204e-14 L5.899273,0.244623135 L5.899273,18.0052174 Z" id="Combined-Shape" transform="translate(5.899273, 9.002609) rotate(-180.000000) translate(-5.899273, -9.002609) "></path>
                                </g>
                                <g id="Group-5" transform="translate(16.972635, 15.596299) rotate(-240.000000) translate(-16.972635, -15.596299) translate(10.972635, -0.403701)">
                                    <path d="M5.899273,31.6226087 C2.77334943,31.6226087 0.215280455,29.2028765 0.0129015349,26.1427599 C0.00382265231,25.9971751 2.39808173e-13,25.8747029 2.39808173e-13,25.7513422 C2.39808173e-13,23.8051968 1.34360452,21.8187851 2.37636392,19.8945225 C3.40912333,17.9702599 5.899273,13.6173913 5.899273,13.6173913 L5.899273,13.8620144 L5.899273,31.6226087 Z M5.899273,31.6226087 C9.02519657,31.6226087 11.5832655,29.2028765 11.7856445,26.1427599 C11.7947233,25.9971751 11.798546,25.8747029 11.798546,25.7513422 C11.798546,23.8051968 10.4549415,21.8187851 9.42218207,19.8945225 C8.38942267,17.9702599 5.899273,13.6173913 5.899273,13.6173913 L5.899273,13.8620144 L5.899273,31.6226087 Z" id="Combined-Shape"></path>
                                    <path d="M5.899273,18.0052174 C2.77334943,18.0052174 0.215280455,15.5854852 0.0129015349,12.5253686 C0.00382265231,12.3797838 2.4158453e-13,12.2573116 2.4158453e-13,12.1339509 C2.4158453e-13,10.1878055 1.34360452,8.2013938 2.37636392,6.27713122 C3.40912333,4.35286863 5.899273,7.49622586e-13 5.899273,7.49622586e-13 L5.899273,0.244623135 L5.899273,18.0052174 Z M5.899273,18.0052174 C9.02519657,18.0052174 11.5832655,15.5854852 11.7856445,12.5253686 C11.7947233,12.3797838 11.798546,12.2573116 11.798546,12.1339509 C11.798546,10.1878055 10.4549415,8.2013938 9.42218207,6.27713122 C8.38942267,4.35286863 5.899273,4.26325641e-13 5.899273,4.26325641e-13 L5.899273,0.244623135 L5.899273,18.0052174 Z" id="Combined-Shape" transform="translate(5.899273, 9.002609) rotate(-180.000000) translate(-5.899273, -9.002609) "></path>
                                </g>
                                <g id="Group-5" transform="translate(17.170821, 16.064571) rotate(-120.000000) translate(-17.170821, -16.064571) translate(11.170821, 0.064571)">
                                    <path d="M5.899273,31.6226087 C2.77334943,31.6226087 0.215280455,29.2028765 0.0129015349,26.1427599 C0.00382265231,25.9971751 2.49578136e-13,25.8747029 2.49578136e-13,25.7513422 C2.49578136e-13,23.8051968 1.34360452,21.8187851 2.37636392,19.8945225 C3.40912333,17.9702599 5.899273,13.6173913 5.899273,13.6173913 L5.899273,13.8620144 L5.899273,31.6226087 Z M5.899273,31.6226087 C9.02519657,31.6226087 11.5832655,29.2028765 11.7856445,26.1427599 C11.7947233,25.9971751 11.798546,25.8747029 11.798546,25.7513422 C11.798546,23.8051968 10.4549415,21.8187851 9.42218207,19.8945225 C8.38942267,17.9702599 5.899273,13.6173913 5.899273,13.6173913 L5.899273,13.8620144 L5.899273,31.6226087 Z" id="Combined-Shape"></path>
                                    <path d="M5.899273,18.0052174 C2.77334943,18.0052174 0.215280455,15.5854852 0.0129015349,12.5253686 C0.00382265231,12.3797838 -8.8817842e-14,12.2573116 -8.8817842e-14,12.1339509 C-8.8817842e-14,10.1878055 1.34360452,8.2013938 2.37636392,6.27713122 C3.40912333,4.35286863 5.899273,-9.59232693e-14 5.899273,-9.59232693e-14 L5.899273,0.244623135 L5.899273,18.0052174 Z M5.899273,18.0052174 C9.02519657,18.0052174 11.5832655,15.5854852 11.7856445,12.5253686 C11.7947233,12.3797838 11.798546,12.2573116 11.798546,12.1339509 C11.798546,10.1878055 10.4549415,8.2013938 9.42218207,6.27713122 C8.38942267,4.35286863 5.899273,-1.81188398e-13 5.899273,-1.81188398e-13 L5.899273,0.244623135 L5.899273,18.0052174 Z" id="Combined-Shape" transform="translate(5.899273, 9.002609) rotate(-180.000000) translate(-5.899273, -9.002609) "></path>
                                </g>
                            </g>
                            <g id="Group-6" transform="translate(62.975077, 23.336705) rotate(-330.000000) translate(-62.975077, -23.336705) translate(45.475077, 7.336705)">
                                <g id="Group-5" transform="translate(10.665114, 0.000000)">
                                    <path d="M5.899273,31.6226087 C2.77334943,31.6226087 0.215280455,29.2028765 0.0129015349,26.1427599 C0.00382265231,25.9971751 1.8562929e-13,25.8747029 1.8562929e-13,25.7513422 C1.8562929e-13,23.8051968 1.34360452,21.8187851 2.37636392,19.8945225 C3.40912333,17.9702599 5.899273,13.6173913 5.899273,13.6173913 L5.899273,13.8620144 L5.899273,31.6226087 Z M5.899273,31.6226087 C9.02519657,31.6226087 11.5832655,29.2028765 11.7856445,26.1427599 C11.7947233,25.9971751 11.798546,25.8747029 11.798546,25.7513422 C11.798546,23.8051968 10.4549415,21.8187851 9.42218207,19.8945225 C8.38942267,17.9702599 5.899273,13.6173913 5.899273,13.6173913 L5.899273,13.8620144 L5.899273,31.6226087 Z" id="Combined-Shape"></path>
                                    <path d="M5.899273,18.0052174 C2.77334943,18.0052174 0.215280455,15.5854852 0.0129015349,12.5253686 C0.00382265231,12.3797838 1.0658141e-14,12.2573116 1.0658141e-14,12.1339509 C1.0658141e-14,10.1878055 1.34360452,8.2013938 2.37636392,6.27713122 C3.40912333,4.35286863 5.899273,-2.59348099e-13 5.899273,-2.59348099e-13 L5.899273,0.244623135 L5.899273,18.0052174 Z M5.899273,18.0052174 C9.02519657,18.0052174 11.5832655,15.5854852 11.7856445,12.5253686 C11.7947233,12.3797838 11.798546,12.2573116 11.798546,12.1339509 C11.798546,10.1878055 10.4549415,8.2013938 9.42218207,6.27713122 C8.38942267,4.35286863 5.899273,-1.13686838e-13 5.899273,-1.13686838e-13 L5.899273,0.244623135 L5.899273,18.0052174 Z" id="Combined-Shape" transform="translate(5.899273, 9.002609) rotate(-180.000000) translate(-5.899273, -9.002609) "></path>
                                </g>
                                <g id="Group-5" transform="translate(16.972635, 15.596299) rotate(-240.000000) translate(-16.972635, -15.596299) translate(10.972635, -0.403701)">
                                    <path d="M5.899273,31.6226087 C2.77334943,31.6226087 0.215280455,29.2028765 0.0129015349,26.1427599 C0.00382265231,25.9971751 2.33590924e-13,25.8747029 2.33590924e-13,25.7513422 C2.33590924e-13,23.8051968 1.34360452,21.8187851 2.37636392,19.8945225 C3.40912333,17.9702599 5.899273,13.6173913 5.899273,13.6173913 L5.899273,13.8620144 L5.899273,31.6226087 Z M5.899273,31.6226087 C9.02519657,31.6226087 11.5832655,29.2028765 11.7856445,26.1427599 C11.7947233,25.9971751 11.798546,25.8747029 11.798546,25.7513422 C11.798546,23.8051968 10.4549415,21.8187851 9.42218207,19.8945225 C8.38942267,17.9702599 5.899273,13.6173913 5.899273,13.6173913 L5.899273,13.8620144 L5.899273,31.6226087 Z" id="Combined-Shape"></path>
                                    <path d="M5.899273,18.0052174 C2.77334943,18.0052174 0.215280455,15.5854852 0.0129015349,12.5253686 C0.00382265231,12.3797838 5.68434189e-14,12.2573116 5.68434189e-14,12.1339509 C5.68434189e-14,10.1878055 1.34360452,8.2013938 2.37636392,6.27713122 C3.40912333,4.35286863 5.899273,4.61852778e-14 5.899273,4.61852778e-14 L5.899273,0.244623135 L5.899273,18.0052174 Z M5.899273,18.0052174 C9.02519657,18.0052174 11.5832655,15.5854852 11.7856445,12.5253686 C11.7947233,12.3797838 11.798546,12.2573116 11.798546,12.1339509 C11.798546,10.1878055 10.4549415,8.2013938 9.42218207,6.27713122 C8.38942267,4.35286863 5.899273,3.55271368e-14 5.899273,3.55271368e-14 L5.899273,0.244623135 L5.899273,18.0052174 Z" id="Combined-Shape" transform="translate(5.899273, 9.002609) rotate(-180.000000) translate(-5.899273, -9.002609) "></path>
                                </g>
                                <g id="Group-5" transform="translate(17.170821, 16.064571) rotate(-120.000000) translate(-17.170821, -16.064571) translate(11.170821, 0.064571)">
                                    <path d="M5.899273,31.6226087 C2.77334943,31.6226087 0.215280455,29.2028765 0.0129015349,26.1427599 C0.00382265231,25.9971751 1.16351373e-13,25.8747029 1.16351373e-13,25.7513422 C1.16351373e-13,23.8051968 1.34360452,21.8187851 2.37636392,19.8945225 C3.40912333,17.9702599 5.899273,13.6173913 5.899273,13.6173913 L5.899273,13.8620144 L5.899273,31.6226087 Z M5.899273,31.6226087 C9.02519657,31.6226087 11.5832655,29.2028765 11.7856445,26.1427599 C11.7947233,25.9971751 11.798546,25.8747029 11.798546,25.7513422 C11.798546,23.8051968 10.4549415,21.8187851 9.42218207,19.8945225 C8.38942267,17.9702599 5.899273,13.6173913 5.899273,13.6173913 L5.899273,13.8620144 L5.899273,31.6226087 Z" id="Combined-Shape"></path>
                                    <path d="M5.899273,18.0052174 C2.77334943,18.0052174 0.215280455,15.5854852 0.0129015349,12.5253686 C0.00382265231,12.3797838 1.42108547e-14,12.2573116 1.42108547e-14,12.1339509 C1.42108547e-14,10.1878055 1.34360452,8.2013938 2.37636392,6.27713122 C3.40912333,4.35286863 5.899273,7.67386155e-13 5.899273,7.67386155e-13 L5.899273,0.244623135 L5.899273,18.0052174 Z M5.899273,18.0052174 C9.02519657,18.0052174 11.5832655,15.5854852 11.7856445,12.5253686 C11.7947233,12.3797838 11.798546,12.2573116 11.798546,12.1339509 C11.798546,10.1878055 10.4549415,8.2013938 9.42218207,6.27713122 C8.38942267,4.35286863 5.899273,1.27897692e-13 5.899273,1.27897692e-13 L5.899273,0.244623135 L5.899273,18.0052174 Z" id="Combined-Shape" transform="translate(5.899273, 9.002609) rotate(-180.000000) translate(-5.899273, -9.002609) "></path>
                                </g>
                            </g>
                        </g>
                        <path d="M63.4439714,101.947414 C63.1764395,101.960188 62.9056201,101.966836 62.6315789,101.967025 L62.6315789,101.967025 L62.6315789,101.889173 C53.0834768,100.9743 48.0347823,92.3043478 50.7148229,92.3043478 L63.4439714,92.3043478 L76.1731199,92.3043478 C78.8531606,92.3043478 73.8044661,100.9743 64.2563639,101.889173 L64.2563639,101.967025 L64.2563639,101.967025 C63.9823228,101.966836 63.7115033,101.960188 63.4439714,101.947414 Z" id="Combined-Shape" fill="#EE7857"></path>
                        <path d="M5.78947368,216.602778 C30.4914531,189.391611 40.2809222,139.694469 40.2809222,139.694469 L91.3114649,139.493515 C91.3114649,139.493515 101.087494,189.391611 125.789474,216.602778 C125.789474,216.602778 89.1862071,229.849338 66.5101171,230.40591 C66.2708256,230.423953 66.0309925,230.42241 65.7894737,230.419355 C65.5479549,230.42241 65.3081218,230.423953 65.070038,230.423953 C42.3943642,229.849925 5.78947368,216.602778 5.78947368,216.602778 Z" id="Combined-Shape" fill="#DFDFDF"></path>
                    </g>
                </g>
                <g id="夫" transform="translate(116.000000, 0.000000)">
                    <g id="Group-10" transform="translate(0.000000, 127.000000)">
                        <path d="M16,52.0375609 C16,52.0375609 27.870209,35.0036615 45.9565803,21.4650454 C64.0429515,7.92642921 82.4313105,0 82.4313105,0" id="Path-6" stroke="#FFD9B0" stroke-width="17"></path>
                        <ellipse id="Oval-3" fill="#FFD9B0" transform="translate(15.637770, 52.273985) rotate(11.000000) translate(-15.637770, -52.273985) " cx="15.6377698" cy="52.273985" rx="13.8242962" ry="10.8352592"></ellipse>
                    </g>
                    <g id="body" transform="translate(44.000000, 24.000000)">
                        <g id="Path-5" transform="translate(6.000000, 90.000000)">
                            <mask id="mask-6" fill="white">
                                <use xlink:href="#path-5"></use>
                            </mask>
                            <use id="Mask" fill="#FFF5E2" xlink:href="#path-5"></use>
                            <path d="M19.3607685,-5.52334722 C19.3607685,-5.52334722 26.3438122,23.4331774 35.2198896,37.4212377 C44.095967,51.4092979 60.6749043,61.4469062 66.9852923,65.1868597 C73.2956803,68.9268131 87.9418699,30.506505 87.9418699,29.2781162 C87.9418699,28.0497275 77.1959253,-2.76091437 76.0508385,-4.14213079 C74.9057517,-5.52334722 60.9818604,-11.1654769 58.7967634,-11.1654769 C56.6116664,-11.1654769 19.3607685,-5.52334722 19.3607685,-5.52334722 Z" fill="#FFD9B0" mask="url(#mask-6)"></path>
                            <polygon id="Rectangle-3" fill="#7484C6" mask="url(#mask-6)" points="2 66.3841808 66 66.3841808 66 74.3502825 38.2451158 74.3502825 2 74.3502825"></polygon>
                            <ellipse id="Oval-4" fill="#FFB490" mask="url(#mask-6)" cx="33.2928273" cy="-19.1503211" rx="20.3584918" ry="30.8857143"></ellipse>
                        </g>
                        <mask id="mask-8" fill="white">
                            <use xlink:href="#path-7"></use>
                        </mask>
                        <use id="Oval-5" fill="#FFD6B5" transform="translate(38.276473, 47.987343) scale(-1, 1) translate(-38.276473, -47.987343) " xlink:href="#path-7"></use>
                    </g>
                    <g id="Group-8" transform="translate(84.000000, 81.500000) scale(-1, 1) translate(-84.000000, -81.500000) translate(62.000000, 76.000000)" fill="#8B572A">
                        <ellipse id="Oval" cx="4.42105263" cy="5.04347826" rx="4.42105263" ry="5.04347826"></ellipse>
                        <ellipse id="Oval" cx="39.5789474" cy="5.04347826" rx="4.42105263" ry="5.04347826"></ellipse>
                    </g>
                    <ellipse id="Oval-6" fill="#FFB490" transform="translate(84.052632, 91.521739) scale(-1, 1) translate(-84.052632, -91.521739) " cx="84.0526316" cy="91.5217391" rx="5.05263158" ry="2.52173913"></ellipse>
                    <path d="M84.4439714,107.643066 C84.1764395,107.65584 83.9056201,107.662488 83.6315789,107.662677 L83.6315789,107.662677 L83.6315789,107.584825 C74.0834768,106.669952 69.0347823,98 71.7148229,98 L84.4439714,98 L97.1731199,98 C99.8531606,98 94.8044661,106.669952 85.2563639,107.584825 L85.2563639,107.662677 L85.2563639,107.662677 C84.9823228,107.662488 84.7115033,107.65584 84.4439714,107.643066 Z" id="Combined-Shape" fill="#EE7857" transform="translate(84.443971, 102.831339) scale(-1, 1) translate(-84.443971, -102.831339) "></path>
                    <path d="M42.6589585,72.1367385 L52.1485912,87.8531628 L52.1485912,61.7224395 C52.1485912,61.7224395 124.97536,62.8814191 129.821248,61.7224395 C134.667136,60.5634599 149.706002,30.2923439 138.820754,18.518102 C127.935506,6.7438602 67.2899134,12.3075129 42.6589585,24.1973774 C18.0280036,36.0872419 36.9297347,50.4382176 36.9297347,61.7224395 C36.9297347,73.0066615 42.6589585,72.1367385 42.6589585,72.1367385 Z" id="Path-9" fill="#CB8B51"></path>
                    <g id="Group-7" transform="translate(83.020743, 36.919854) scale(-1, 1) rotate(13.000000) translate(-83.020743, -36.919854) translate(18.520743, 13.919854)" fill="#0D590F">
                        <g id="Group-6" transform="translate(-0.000000, 7.069565)">
                            <g id="Group-5" transform="translate(10.665114, 0.000000)">
                                <path d="M5.899273,31.6226087 C2.77334943,31.6226087 0.215280455,29.2028765 0.0129015349,26.1427599 C0.00382265231,25.9971751 3.44613227e-13,25.8747029 3.44613227e-13,25.7513422 C3.44613227e-13,23.8051968 1.34360452,21.8187851 2.37636392,19.8945225 C3.40912333,17.9702599 5.899273,13.6173913 5.899273,13.6173913 L5.899273,13.8620144 L5.899273,31.6226087 Z M5.899273,31.6226087 C9.02519657,31.6226087 11.5832655,29.2028765 11.7856445,26.1427599 C11.7947233,25.9971751 11.798546,25.8747029 11.798546,25.7513422 C11.798546,23.8051968 10.4549415,21.8187851 9.42218207,19.8945225 C8.38942267,17.9702599 5.899273,13.6173913 5.899273,13.6173913 L5.899273,13.8620144 L5.899273,31.6226087 Z" id="Combined-Shape"></path>
                                <path d="M5.899273,18.0052174 C2.77334943,18.0052174 0.215280455,15.5854852 0.0129015349,12.5253686 C0.00382265231,12.3797838 6.1284311e-13,12.2573116 6.1284311e-13,12.1339509 C6.1284311e-13,10.1878055 1.34360452,8.2013938 2.37636392,6.27713122 C3.40912333,4.35286863 5.899273,7.10542736e-15 5.899273,7.10542736e-15 L5.899273,0.244623135 L5.899273,18.0052174 Z M5.899273,18.0052174 C9.02519657,18.0052174 11.5832655,15.5854852 11.7856445,12.5253686 C11.7947233,12.3797838 11.798546,12.2573116 11.798546,12.1339509 C11.798546,10.1878055 10.4549415,8.2013938 9.42218207,6.27713122 C8.38942267,4.35286863 5.899273,1.42108547e-14 5.899273,1.42108547e-14 L5.899273,0.244623135 L5.899273,18.0052174 Z" id="Combined-Shape" transform="translate(5.899273, 9.002609) rotate(-180.000000) translate(-5.899273, -9.002609) "></path>
                            </g>
                            <g id="Group-5" transform="translate(16.972635, 15.596299) rotate(-240.000000) translate(-16.972635, -15.596299) translate(10.972635, -0.403701)">
                                <path d="M5.899273,31.6226087 C2.77334943,31.6226087 0.215280455,29.2028765 0.0129015349,26.1427599 C0.00382265231,25.9971751 -6.66133815e-14,25.8747029 -6.66133815e-14,25.7513422 C-6.66133815e-14,23.8051968 1.34360452,21.8187851 2.37636392,19.8945225 C3.40912333,17.9702599 5.899273,13.6173913 5.899273,13.6173913 L5.899273,13.8620144 L5.899273,31.6226087 Z M5.899273,31.6226087 C9.02519657,31.6226087 11.5832655,29.2028765 11.7856445,26.1427599 C11.7947233,25.9971751 11.798546,25.8747029 11.798546,25.7513422 C11.798546,23.8051968 10.4549415,21.8187851 9.42218207,19.8945225 C8.38942267,17.9702599 5.899273,13.6173913 5.899273,13.6173913 L5.899273,13.8620144 L5.899273,31.6226087 Z" id="Combined-Shape"></path>
                                <path d="M5.899273,18.0052174 C2.77334943,18.0052174 0.215280455,15.5854852 0.0129015349,12.5253686 C0.00382265231,12.3797838 -7.46069873e-14,12.2573116 -7.46069873e-14,12.1339509 C-7.46069873e-14,10.1878055 1.34360452,8.2013938 2.37636392,6.27713122 C3.40912333,4.35286863 5.899273,1.42108547e-13 5.899273,1.42108547e-13 L5.899273,0.244623135 L5.899273,18.0052174 Z M5.899273,18.0052174 C9.02519657,18.0052174 11.5832655,15.5854852 11.7856445,12.5253686 C11.7947233,12.3797838 11.798546,12.2573116 11.798546,12.1339509 C11.798546,10.1878055 10.4549415,8.2013938 9.42218207,6.27713122 C8.38942267,4.35286863 5.899273,3.01980663e-13 5.899273,3.01980663e-13 L5.899273,0.244623135 L5.899273,18.0052174 Z" id="Combined-Shape" transform="translate(5.899273, 9.002609) rotate(-180.000000) translate(-5.899273, -9.002609) "></path>
                            </g>
                            <g id="Group-5" transform="translate(17.170821, 16.064571) rotate(-120.000000) translate(-17.170821, -16.064571) translate(11.170821, 0.064571)">
                                <path d="M5.899273,31.6226087 C2.77334943,31.6226087 0.215280455,29.2028765 0.0129015349,26.1427599 C0.00382265231,25.9971751 4.40536496e-13,25.8747029 4.40536496e-13,25.7513422 C4.40536496e-13,23.8051968 1.34360452,21.8187851 2.37636392,19.8945225 C3.40912333,17.9702599 5.899273,13.6173913 5.899273,13.6173913 L5.899273,13.8620144 L5.899273,31.6226087 Z M5.899273,31.6226087 C9.02519657,31.6226087 11.5832655,29.2028765 11.7856445,26.1427599 C11.7947233,25.9971751 11.798546,25.8747029 11.798546,25.7513422 C11.798546,23.8051968 10.4549415,21.8187851 9.42218207,19.8945225 C8.38942267,17.9702599 5.899273,13.6173913 5.899273,13.6173913 L5.899273,13.8620144 L5.899273,31.6226087 Z" id="Combined-Shape"></path>
                                <path d="M5.899273,18.0052174 C2.77334943,18.0052174 0.215280455,15.5854852 0.0129015349,12.5253686 C0.00382265231,12.3797838 1.10134124e-13,12.2573116 1.10134124e-13,12.1339509 C1.10134124e-13,10.1878055 1.34360452,8.2013938 2.37636392,6.27713122 C3.40912333,4.35286863 5.899273,-7.531753e-13 5.899273,-7.531753e-13 L5.899273,0.244623135 L5.899273,18.0052174 Z M5.899273,18.0052174 C9.02519657,18.0052174 11.5832655,15.5854852 11.7856445,12.5253686 C11.7947233,12.3797838 11.798546,12.2573116 11.798546,12.1339509 C11.798546,10.1878055 10.4549415,8.2013938 9.42218207,6.27713122 C8.38942267,4.35286863 5.899273,-5.7909233e-13 5.899273,-5.7909233e-13 L5.899273,0.244623135 L5.899273,18.0052174 Z" id="Combined-Shape" transform="translate(5.899273, 9.002609) rotate(-180.000000) translate(-5.899273, -9.002609) "></path>
                            </g>
                        </g>
                        <g id="Group-6" transform="translate(93.496041, 7.069565)">
                            <g id="Group-5" transform="translate(10.665114, -0.000000)">
                                <path d="M5.899273,31.6226087 C2.77334943,31.6226087 0.215280455,29.2028765 0.0129015349,26.1427599 C0.00382265231,25.9971751 -4.33431069e-13,25.8747029 -4.33431069e-13,25.7513422 C-4.33431069e-13,23.8051968 1.34360452,21.8187851 2.37636392,19.8945225 C3.40912333,17.9702599 5.899273,13.6173913 5.899273,13.6173913 L5.899273,13.8620144 L5.899273,31.6226087 Z M5.899273,31.6226087 C9.02519657,31.6226087 11.5832655,29.2028765 11.7856445,26.1427599 C11.7947233,25.9971751 11.798546,25.8747029 11.798546,25.7513422 C11.798546,23.8051968 10.4549415,21.8187851 9.42218207,19.8945225 C8.38942267,17.9702599 5.899273,13.6173913 5.899273,13.6173913 L5.899273,13.8620144 L5.899273,31.6226087 Z" id="Combined-Shape"></path>
                                <path d="M5.899273,18.0052174 C2.77334943,18.0052174 0.215280455,15.5854852 0.0129015349,12.5253686 C0.0038226523,12.3797838 -9.87654403e-13,12.2573116 -9.87654403e-13,12.1339509 C-9.87654403e-13,10.1878055 1.34360452,8.2013938 2.37636392,6.27713122 C3.40912333,4.35286863 5.899273,1.10134124e-13 5.899273,1.10134124e-13 L5.899273,0.244623135 L5.899273,18.0052174 Z M5.899273,18.0052174 C9.02519657,18.0052174 11.5832655,15.5854852 11.7856445,12.5253686 C11.7947233,12.3797838 11.798546,12.2573116 11.798546,12.1339509 C11.798546,10.1878055 10.4549415,8.2013938 9.42218207,6.27713122 C8.38942267,4.35286863 5.899273,6.03961325e-14 5.899273,6.03961325e-14 L5.899273,0.244623135 L5.899273,18.0052174 Z" id="Combined-Shape" transform="translate(5.899273, 9.002609) rotate(-180.000000) translate(-5.899273, -9.002609) "></path>
                            </g>
                            <g id="Group-5" transform="translate(16.972635, 15.596299) rotate(-240.000000) translate(-16.972635, -15.596299) translate(10.972635, -0.403701)">
                                <path d="M5.899273,31.6226087 C2.77334943,31.6226087 0.215280455,29.2028765 0.0129015349,26.1427599 C0.00382265231,25.9971751 2.46913601e-13,25.8747029 2.46913601e-13,25.7513422 C2.46913601e-13,23.8051968 1.34360452,21.8187851 2.37636392,19.8945225 C3.40912333,17.9702599 5.899273,13.6173913 5.899273,13.6173913 L5.899273,13.8620144 L5.899273,31.6226087 Z M5.899273,31.6226087 C9.02519657,31.6226087 11.5832655,29.2028765 11.7856445,26.1427599 C11.7947233,25.9971751 11.798546,25.8747029 11.798546,25.7513422 C11.798546,23.8051968 10.4549415,21.8187851 9.42218207,19.8945225 C8.38942267,17.9702599 5.899273,13.6173913 5.899273,13.6173913 L5.899273,13.8620144 L5.899273,31.6226087 Z" id="Combined-Shape"></path>
                                <path d="M5.899273,18.0052174 C2.77334943,18.0052174 0.215280455,15.5854852 0.0129015349,12.5253686 C0.00382265231,12.3797838 -1.70530257e-13,12.2573116 -1.70530257e-13,12.1339509 C-1.70530257e-13,10.1878055 1.34360452,8.2013938 2.37636392,6.27713122 C3.40912333,4.35286863 5.899273,1.49213975e-13 5.899273,1.49213975e-13 L5.899273,0.244623135 L5.899273,18.0052174 Z M5.899273,18.0052174 C9.02519657,18.0052174 11.5832655,15.5854852 11.7856445,12.5253686 C11.7947233,12.3797838 11.798546,12.2573116 11.798546,12.1339509 C11.798546,10.1878055 10.4549415,8.2013938 9.42218207,6.27713122 C8.38942267,4.35286863 5.899273,3.01980663e-13 5.899273,3.01980663e-13 L5.899273,0.244623135 L5.899273,18.0052174 Z" id="Combined-Shape" transform="translate(5.899273, 9.002609) rotate(-180.000000) translate(-5.899273, -9.002609) "></path>
                            </g>
                            <g id="Group-5" transform="translate(17.170821, 16.064571) rotate(-120.000000) translate(-17.170821, -16.064571) translate(11.170821, 0.064571)">
                                <path d="M5.899273,31.6226087 C2.77334943,31.6226087 0.215280455,29.2028765 0.0129015349,26.1427599 C0.00382265231,25.9971751 5.86197757e-14,25.8747029 5.86197757e-14,25.7513422 C5.86197757e-14,23.8051968 1.34360452,21.8187851 2.37636392,19.8945225 C3.40912333,17.9702599 5.899273,13.6173913 5.899273,13.6173913 L5.899273,13.8620144 L5.899273,31.6226087 Z M5.899273,31.6226087 C9.02519657,31.6226087 11.5832655,29.2028765 11.7856445,26.1427599 C11.7947233,25.9971751 11.798546,25.8747029 11.798546,25.7513422 C11.798546,23.8051968 10.4549415,21.8187851 9.42218207,19.8945225 C8.38942267,17.9702599 5.899273,13.6173913 5.899273,13.6173913 L5.899273,13.8620144 L5.899273,31.6226087 Z" id="Combined-Shape"></path>
                                <path d="M5.899273,18.0052174 C2.77334943,18.0052174 0.215280455,15.5854852 0.0129015349,12.5253686 C0.00382265231,12.3797838 8.8817842e-14,12.2573116 8.8817842e-14,12.1339509 C8.8817842e-14,10.1878055 1.34360452,8.2013938 2.37636392,6.27713122 C3.40912333,4.35286863 5.899273,-5.22248911e-13 5.899273,-5.22248911e-13 L5.899273,0.244623135 L5.899273,18.0052174 Z M5.899273,18.0052174 C9.02519657,18.0052174 11.5832655,15.5854852 11.7856445,12.5253686 C11.7947233,12.3797838 11.798546,12.2573116 11.798546,12.1339509 C11.798546,10.1878055 10.4549415,8.2013938 9.42218207,6.27713122 C8.38942267,4.35286863 5.899273,8.52651283e-14 5.899273,8.52651283e-14 L5.899273,0.244623135 L5.899273,18.0052174 Z" id="Combined-Shape" transform="translate(5.899273, 9.002609) rotate(-180.000000) translate(-5.899273, -9.002609) "></path>
                            </g>
                        </g>
                        <g id="Group-6" transform="translate(31.049600, 23.336705) rotate(-330.000000) translate(-31.049600, -23.336705) translate(13.549600, 7.336705)">
                            <g id="Group-5" transform="translate(10.665114, 0.000000)">
                                <path d="M5.899273,31.6226087 C2.77334943,31.6226087 0.215280455,29.2028765 0.0129015349,26.1427599 C0.00382265231,25.9971751 -1.64313008e-13,25.8747029 -1.64313008e-13,25.7513422 C-1.64313008e-13,23.8051968 1.34360452,21.8187851 2.37636392,19.8945225 C3.40912333,17.9702599 5.899273,13.6173913 5.899273,13.6173913 L5.899273,13.8620144 L5.899273,31.6226087 Z M5.899273,31.6226087 C9.02519657,31.6226087 11.5832655,29.2028765 11.7856445,26.1427599 C11.7947233,25.9971751 11.798546,25.8747029 11.798546,25.7513422 C11.798546,23.8051968 10.4549415,21.8187851 9.42218207,19.8945225 C8.38942267,17.9702599 5.899273,13.6173913 5.899273,13.6173913 L5.899273,13.8620144 L5.899273,31.6226087 Z" id="Combined-Shape"></path>
                                <path d="M5.899273,18.0052174 C2.77334943,18.0052174 0.215280455,15.5854852 0.0129015349,12.5253686 C0.0038226523,12.3797838 -8.33111358e-13,12.2573116 -8.33111358e-13,12.1339509 C-8.33111358e-13,10.1878055 1.34360452,8.2013938 2.37636392,6.27713122 C3.40912333,4.35286863 5.899273,7.67386155e-13 5.899273,7.67386155e-13 L5.899273,0.244623135 L5.899273,18.0052174 Z M5.899273,18.0052174 C9.02519657,18.0052174 11.5832655,15.5854852 11.7856445,12.5253686 C11.7947233,12.3797838 11.798546,12.2573116 11.798546,12.1339509 C11.798546,10.1878055 10.4549415,8.2013938 9.42218207,6.27713122 C8.38942267,4.35286863 5.899273,5.82645043e-13 5.899273,5.82645043e-13 L5.899273,0.244623135 L5.899273,18.0052174 Z" id="Combined-Shape" transform="translate(5.899273, 9.002609) rotate(-180.000000) translate(-5.899273, -9.002609) "></path>
                            </g>
                            <g id="Group-5" transform="translate(16.972635, 15.596299) rotate(-240.000000) translate(-16.972635, -15.596299) translate(10.972635, -0.403701)">
                                <path d="M5.899273,31.6226087 C2.77334943,31.6226087 0.215280455,29.2028765 0.0129015349,26.1427599 C0.00382265231,25.9971751 7.60280727e-13,25.8747029 7.60280727e-13,25.7513422 C7.60280727e-13,23.8051968 1.34360452,21.8187851 2.37636392,19.8945225 C3.40912333,17.9702599 5.899273,13.6173913 5.899273,13.6173913 L5.899273,13.8620144 L5.899273,31.6226087 Z M5.899273,31.6226087 C9.02519657,31.6226087 11.5832655,29.2028765 11.7856445,26.1427599 C11.7947233,25.9971751 11.798546,25.8747029 11.798546,25.7513422 C11.798546,23.8051968 10.4549415,21.8187851 9.42218207,19.8945225 C8.38942267,17.9702599 5.899273,13.6173913 5.899273,13.6173913 L5.899273,13.8620144 L5.899273,31.6226087 Z" id="Combined-Shape"></path>
                                <path d="M5.899273,18.0052174 C2.77334943,18.0052174 0.215280455,15.5854852 0.0129015349,12.5253686 C0.00382265231,12.3797838 2.57571742e-13,12.2573116 2.57571742e-13,12.1339509 C2.57571742e-13,10.1878055 1.34360452,8.2013938 2.37636392,6.27713122 C3.40912333,4.35286863 5.899273,2.66453526e-13 5.899273,2.66453526e-13 L5.899273,0.244623135 L5.899273,18.0052174 Z M5.899273,18.0052174 C9.02519657,18.0052174 11.5832655,15.5854852 11.7856445,12.5253686 C11.7947233,12.3797838 11.798546,12.2573116 11.798546,12.1339509 C11.798546,10.1878055 10.4549415,8.2013938 9.42218207,6.27713122 C8.38942267,4.35286863 5.899273,2.48689958e-13 5.899273,2.48689958e-13 L5.899273,0.244623135 L5.899273,18.0052174 Z" id="Combined-Shape" transform="translate(5.899273, 9.002609) rotate(-180.000000) translate(-5.899273, -9.002609) "></path>
                            </g>
                            <g id="Group-5" transform="translate(17.170821, 16.064571) rotate(-120.000000) translate(-17.170821, -16.064571) translate(11.170821, 0.064571)">
                                <path d="M5.899273,31.6226087 C2.77334943,31.6226087 0.215280455,29.2028765 0.0129015349,26.1427599 C0.00382265231,25.9971751 1.5187851e-13,25.8747029 1.5187851e-13,25.7513422 C1.5187851e-13,23.8051968 1.34360452,21.8187851 2.37636392,19.8945225 C3.40912333,17.9702599 5.899273,13.6173913 5.899273,13.6173913 L5.899273,13.8620144 L5.899273,31.6226087 Z M5.899273,31.6226087 C9.02519657,31.6226087 11.5832655,29.2028765 11.7856445,26.1427599 C11.7947233,25.9971751 11.798546,25.8747029 11.798546,25.7513422 C11.798546,23.8051968 10.4549415,21.8187851 9.42218207,19.8945225 C8.38942267,17.9702599 5.899273,13.6173913 5.899273,13.6173913 L5.899273,13.8620144 L5.899273,31.6226087 Z" id="Combined-Shape"></path>
                                <path d="M5.899273,18.0052174 C2.77334943,18.0052174 0.215280455,15.5854852 0.0129015349,12.5253686 C0.00382265231,12.3797838 -4.97379915e-14,12.2573116 -4.97379915e-14,12.1339509 C-4.97379915e-14,10.1878055 1.34360452,8.2013938 2.37636392,6.27713122 C3.40912333,4.35286863 5.899273,2.13162821e-14 5.899273,2.13162821e-14 L5.899273,0.244623135 L5.899273,18.0052174 Z M5.899273,18.0052174 C9.02519657,18.0052174 11.5832655,15.5854852 11.7856445,12.5253686 C11.7947233,12.3797838 11.798546,12.2573116 11.798546,12.1339509 C11.798546,10.1878055 10.4549415,8.2013938 9.42218207,6.27713122 C8.38942267,4.35286863 5.899273,4.68958206e-13 5.899273,4.68958206e-13 L5.899273,0.244623135 L5.899273,18.0052174 Z" id="Combined-Shape" transform="translate(5.899273, 9.002609) rotate(-180.000000) translate(-5.899273, -9.002609) "></path>
                            </g>
                        </g>
                        <g id="Group-6" transform="translate(63.850955, 7.069565)">
                            <g id="Group-5" transform="translate(10.665114, 0.000000)">
                                <path d="M5.899273,31.6226087 C2.77334943,31.6226087 0.215280455,29.2028765 0.0129015349,26.1427599 C0.00382265231,25.9971751 4.90274488e-13,25.8747029 4.90274488e-13,25.7513422 C4.90274488e-13,23.8051968 1.34360452,21.8187851 2.37636392,19.8945225 C3.40912333,17.9702599 5.899273,13.6173913 5.899273,13.6173913 L5.899273,13.8620144 L5.899273,31.6226087 Z M5.899273,31.6226087 C9.02519657,31.6226087 11.5832655,29.2028765 11.7856445,26.1427599 C11.7947233,25.9971751 11.798546,25.8747029 11.798546,25.7513422 C11.798546,23.8051968 10.4549415,21.8187851 9.42218207,19.8945225 C8.38942267,17.9702599 5.899273,13.6173913 5.899273,13.6173913 L5.899273,13.8620144 L5.899273,31.6226087 Z" id="Combined-Shape"></path>
                                <path d="M5.899273,18.0052174 C2.77334943,18.0052174 0.215280455,15.5854852 0.0129015349,12.5253686 C0.00382265231,12.3797838 -5.02708986e-13,12.2573116 -5.02708986e-13,12.1339509 C-5.02708986e-13,10.1878055 1.34360452,8.2013938 2.37636392,6.27713122 C3.40912333,4.35286863 5.899273,8.17124146e-14 5.899273,8.17124146e-14 L5.899273,0.244623135 L5.899273,18.0052174 Z M5.899273,18.0052174 C9.02519657,18.0052174 11.5832655,15.5854852 11.7856445,12.5253686 C11.7947233,12.3797838 11.798546,12.2573116 11.798546,12.1339509 C11.798546,10.1878055 10.4549415,8.2013938 9.42218207,6.27713122 C8.38942267,4.35286863 5.899273,6.03961325e-14 5.899273,6.03961325e-14 L5.899273,0.244623135 L5.899273,18.0052174 Z" id="Combined-Shape" transform="translate(5.899273, 9.002609) rotate(-180.000000) translate(-5.899273, -9.002609) "></path>
                            </g>
                            <g id="Group-5" transform="translate(16.972635, 15.596299) rotate(-240.000000) translate(-16.972635, -15.596299) translate(10.972635, -0.403701)">
                                <path d="M5.899273,31.6226087 C2.77334943,31.6226087 0.215280455,29.2028765 0.0129015349,26.1427599 C0.00382265231,25.9971751 5.65769653e-13,25.8747029 5.65769653e-13,25.7513422 C5.65769653e-13,23.8051968 1.34360452,21.8187851 2.37636392,19.8945225 C3.40912333,17.9702599 5.899273,13.6173913 5.899273,13.6173913 L5.899273,13.8620144 L5.899273,31.6226087 Z M5.899273,31.6226087 C9.02519657,31.6226087 11.5832655,29.2028765 11.7856445,26.1427599 C11.7947233,25.9971751 11.798546,25.8747029 11.798546,25.7513422 C11.798546,23.8051968 10.4549415,21.8187851 9.42218207,19.8945225 C8.38942267,17.9702599 5.899273,13.6173913 5.899273,13.6173913 L5.899273,13.8620144 L5.899273,31.6226087 Z" id="Combined-Shape"></path>
                                <path d="M5.899273,18.0052174 C2.77334943,18.0052174 0.215280455,15.5854852 0.0129015349,12.5253686 C0.00382265231,12.3797838 -8.17124146e-14,12.2573116 -8.17124146e-14,12.1339509 C-8.17124146e-14,10.1878055 1.34360452,8.2013938 2.37636392,6.27713122 C3.40912333,4.35286863 5.899273,6.03961325e-14 5.899273,6.03961325e-14 L5.899273,0.244623135 L5.899273,18.0052174 Z M5.899273,18.0052174 C9.02519657,18.0052174 11.5832655,15.5854852 11.7856445,12.5253686 C11.7947233,12.3797838 11.798546,12.2573116 11.798546,12.1339509 C11.798546,10.1878055 10.4549415,8.2013938 9.42218207,6.27713122 C8.38942267,4.35286863 5.899273,1.98951966e-13 5.899273,1.98951966e-13 L5.899273,0.244623135 L5.899273,18.0052174 Z" id="Combined-Shape" transform="translate(5.899273, 9.002609) rotate(-180.000000) translate(-5.899273, -9.002609) "></path>
                            </g>
                            <g id="Group-5" transform="translate(17.170821, 16.064571) rotate(-120.000000) translate(-17.170821, -16.064571) translate(11.170821, 0.064571)">
                                <path d="M5.899273,31.6226087 C2.77334943,31.6226087 0.215280455,29.2028765 0.0129015349,26.1427599 C0.00382265231,25.9971751 5.06261699e-14,25.8747029 5.06261699e-14,25.7513422 C5.06261699e-14,23.8051968 1.34360452,21.8187851 2.37636392,19.8945225 C3.40912333,17.9702599 5.899273,13.6173913 5.899273,13.6173913 L5.899273,13.8620144 L5.899273,31.6226087 Z M5.899273,31.6226087 C9.02519657,31.6226087 11.5832655,29.2028765 11.7856445,26.1427599 C11.7947233,25.9971751 11.798546,25.8747029 11.798546,25.7513422 C11.798546,23.8051968 10.4549415,21.8187851 9.42218207,19.8945225 C8.38942267,17.9702599 5.899273,13.6173913 5.899273,13.6173913 L5.899273,13.8620144 L5.899273,31.6226087 Z" id="Combined-Shape"></path>
                                <path d="M5.899273,18.0052174 C2.77334943,18.0052174 0.215280455,15.5854852 0.0129015349,12.5253686 C0.00382265231,12.3797838 2.48689958e-13,12.2573116 2.48689958e-13,12.1339509 C2.48689958e-13,10.1878055 1.34360452,8.2013938 2.37636392,6.27713122 C3.40912333,4.35286863 5.899273,-1.0000889e-12 5.899273,-1.0000889e-12 L5.899273,0.244623135 L5.899273,18.0052174 Z M5.899273,18.0052174 C9.02519657,18.0052174 11.5832655,15.5854852 11.7856445,12.5253686 C11.7947233,12.3797838 11.798546,12.2573116 11.798546,12.1339509 C11.798546,10.1878055 10.4549415,8.2013938 9.42218207,6.27713122 C8.38942267,4.35286863 5.899273,-8.22453217e-13 5.899273,-8.22453217e-13 L5.899273,0.244623135 L5.899273,18.0052174 Z" id="Combined-Shape" transform="translate(5.899273, 9.002609) rotate(-180.000000) translate(-5.899273, -9.002609) "></path>
                            </g>
                        </g>
                        <g id="Group-6" transform="translate(96.040750, 23.336705) rotate(-330.000000) translate(-96.040750, -23.336705) translate(78.540750, 7.336705)">
                            <g id="Group-5" transform="translate(10.665114, -0.000000)">
                                <path d="M5.899273,31.6226087 C2.77334943,31.6226087 0.215280455,29.2028765 0.0129015349,26.1427599 C0.0038226523,25.9971751 -8.28670466e-13,25.8747029 -8.28670466e-13,25.7513422 C-8.28670466e-13,23.8051968 1.34360452,21.8187851 2.37636392,19.8945225 C3.40912333,17.9702599 5.899273,13.6173913 5.899273,13.6173913 L5.899273,13.8620144 L5.899273,31.6226087 Z M5.899273,31.6226087 C9.02519657,31.6226087 11.5832655,29.2028765 11.7856445,26.1427599 C11.7947233,25.9971751 11.798546,25.8747029 11.798546,25.7513422 C11.798546,23.8051968 10.4549415,21.8187851 9.42218207,19.8945225 C8.38942267,17.9702599 5.899273,13.6173913 5.899273,13.6173913 L5.899273,13.8620144 L5.899273,31.6226087 Z" id="Combined-Shape"></path>
                                <path d="M5.899273,18.0052174 C2.77334943,18.0052174 0.215280455,15.5854852 0.0129015349,12.5253686 C0.00382265231,12.3797838 -5.15143483e-13,12.2573116 -5.15143483e-13,12.1339509 C-5.15143483e-13,10.1878055 1.34360452,8.2013938 2.37636392,6.27713122 C3.40912333,4.35286863 5.899273,2.59348099e-13 5.899273,2.59348099e-13 L5.899273,0.244623135 L5.899273,18.0052174 Z M5.899273,18.0052174 C9.02519657,18.0052174 11.5832655,15.5854852 11.7856445,12.5253686 C11.7947233,12.3797838 11.798546,12.2573116 11.798546,12.1339509 C11.798546,10.1878055 10.4549415,8.2013938 9.42218207,6.27713122 C8.38942267,4.35286863 5.899273,3.90798505e-13 5.899273,3.90798505e-13 L5.899273,0.244623135 L5.899273,18.0052174 Z" id="Combined-Shape" transform="translate(5.899273, 9.002609) rotate(-180.000000) translate(-5.899273, -9.002609) "></path>
                            </g>
                            <g id="Group-5" transform="translate(16.972635, 15.596299) rotate(-240.000000) translate(-16.972635, -15.596299) translate(10.972635, -0.403701)">
                                <path d="M5.899273,31.6226087 C2.77334943,31.6226087 0.215280455,29.2028765 0.0129015349,26.1427599 C0.00382265231,25.9971751 -1.67865721e-13,25.8747029 -1.67865721e-13,25.7513422 C-1.67865721e-13,23.8051968 1.34360452,21.8187851 2.37636392,19.8945225 C3.40912333,17.9702599 5.899273,13.6173913 5.899273,13.6173913 L5.899273,13.8620144 L5.899273,31.6226087 Z M5.899273,31.6226087 C9.02519657,31.6226087 11.5832655,29.2028765 11.7856445,26.1427599 C11.7947233,25.9971751 11.798546,25.8747029 11.798546,25.7513422 C11.798546,23.8051968 10.4549415,21.8187851 9.42218207,19.8945225 C8.38942267,17.9702599 5.899273,13.6173913 5.899273,13.6173913 L5.899273,13.8620144 L5.899273,31.6226087 Z" id="Combined-Shape"></path>
                                <path d="M5.899273,18.0052174 C2.77334943,18.0052174 0.215280455,15.5854852 0.0129015349,12.5253686 C0.00382265231,12.3797838 3.8191672e-13,12.2573116 3.8191672e-13,12.1339509 C3.8191672e-13,10.1878055 1.34360452,8.2013938 2.37636392,6.27713122 C3.40912333,4.35286863 5.899273,9.23705556e-14 5.899273,9.23705556e-14 L5.899273,0.244623135 L5.899273,18.0052174 Z M5.899273,18.0052174 C9.02519657,18.0052174 11.5832655,15.5854852 11.7856445,12.5253686 C11.7947233,12.3797838 11.798546,12.2573116 11.798546,12.1339509 C11.798546,10.1878055 10.4549415,8.2013938 9.42218207,6.27713122 C8.38942267,4.35286863 5.899273,2.27373675e-13 5.899273,2.27373675e-13 L5.899273,0.244623135 L5.899273,18.0052174 Z" id="Combined-Shape" transform="translate(5.899273, 9.002609) rotate(-180.000000) translate(-5.899273, -9.002609) "></path>
                            </g>
                            <g id="Group-5" transform="translate(17.170821, 16.064571) rotate(-120.000000) translate(-17.170821, -16.064571) translate(11.170821, 0.064571)">
                                <path d="M5.899273,31.6226087 C2.77334943,31.6226087 0.215280455,29.2028765 0.0129015349,26.1427599 C0.00382265231,25.9971751 3.99680289e-14,25.8747029 3.99680289e-14,25.7513422 C3.99680289e-14,23.8051968 1.34360452,21.8187851 2.37636392,19.8945225 C3.40912333,17.9702599 5.899273,13.6173913 5.899273,13.6173913 L5.899273,13.8620144 L5.899273,31.6226087 Z M5.899273,31.6226087 C9.02519657,31.6226087 11.5832655,29.2028765 11.7856445,26.1427599 C11.7947233,25.9971751 11.798546,25.8747029 11.798546,25.7513422 C11.798546,23.8051968 10.4549415,21.8187851 9.42218207,19.8945225 C8.38942267,17.9702599 5.899273,13.6173913 5.899273,13.6173913 L5.899273,13.8620144 L5.899273,31.6226087 Z" id="Combined-Shape"></path>
                                <path d="M5.899273,18.0052174 C2.77334943,18.0052174 0.215280455,15.5854852 0.0129015349,12.5253686 C0.00382265231,12.3797838 -2.06057393e-13,12.2573116 -2.06057393e-13,12.1339509 C-2.06057393e-13,10.1878055 1.34360452,8.2013938 2.37636392,6.27713122 C3.40912333,4.35286863 5.899273,-4.81392703e-13 5.899273,-4.81392703e-13 L5.899273,0.244623135 L5.899273,18.0052174 Z M5.899273,18.0052174 C9.02519657,18.0052174 11.5832655,15.5854852 11.7856445,12.5253686 C11.7947233,12.3797838 11.798546,12.2573116 11.798546,12.1339509 C11.798546,10.1878055 10.4549415,8.2013938 9.42218207,6.27713122 C8.38942267,4.35286863 5.899273,-9.219292e-13 5.899273,-9.219292e-13 L5.899273,0.244623135 L5.899273,18.0052174 Z" id="Combined-Shape" transform="translate(5.899273, 9.002609) rotate(-180.000000) translate(-5.899273, -9.002609) "></path>
                            </g>
                        </g>
                        <g id="Group-6" transform="translate(31.925477, 7.069565)">
                            <g id="Group-5" transform="translate(10.665114, -0.000000)">
                                <path d="M5.899273,31.6226087 C2.77334943,31.6226087 0.215280455,29.2028765 0.0129015349,26.1427599 C0.00382265231,25.9971751 -4.19220214e-13,25.8747029 -4.19220214e-13,25.7513422 C-4.19220214e-13,23.8051968 1.34360452,21.8187851 2.37636392,19.8945225 C3.40912333,17.9702599 5.899273,13.6173913 5.899273,13.6173913 L5.899273,13.8620144 L5.899273,31.6226087 Z M5.899273,31.6226087 C9.02519657,31.6226087 11.5832655,29.2028765 11.7856445,26.1427599 C11.7947233,25.9971751 11.798546,25.8747029 11.798546,25.7513422 C11.798546,23.8051968 10.4549415,21.8187851 9.42218207,19.8945225 C8.38942267,17.9702599 5.899273,13.6173913 5.899273,13.6173913 L5.899273,13.8620144 L5.899273,31.6226087 Z" id="Combined-Shape"></path>
                                <path d="M5.899273,18.0052174 C2.77334943,18.0052174 0.215280455,15.5854852 0.0129015349,12.5253686 C0.00382265231,12.3797838 -4.97379915e-14,12.2573116 -4.97379915e-14,12.1339509 C-4.97379915e-14,10.1878055 1.34360452,8.2013938 2.37636392,6.27713122 C3.40912333,4.35286863 5.899273,1.77635684e-14 5.899273,1.77635684e-14 L5.899273,0.244623135 L5.899273,18.0052174 Z M5.899273,18.0052174 C9.02519657,18.0052174 11.5832655,15.5854852 11.7856445,12.5253686 C11.7947233,12.3797838 11.798546,12.2573116 11.798546,12.1339509 C11.798546,10.1878055 10.4549415,8.2013938 9.42218207,6.27713122 C8.38942267,4.35286863 5.899273,7.46069873e-14 5.899273,7.46069873e-14 L5.899273,0.244623135 L5.899273,18.0052174 Z" id="Combined-Shape" transform="translate(5.899273, 9.002609) rotate(-180.000000) translate(-5.899273, -9.002609) "></path>
                            </g>
                            <g id="Group-5" transform="translate(16.972635, 15.596299) rotate(-240.000000) translate(-16.972635, -15.596299) translate(10.972635, -0.403701)">
                                <path d="M5.899273,31.6226087 C2.77334943,31.6226087 0.215280455,29.2028765 0.0129015349,26.1427599 C0.00382265231,25.9971751 2.13162821e-13,25.8747029 2.13162821e-13,25.7513422 C2.13162821e-13,23.8051968 1.34360452,21.8187851 2.37636392,19.8945225 C3.40912333,17.9702599 5.899273,13.6173913 5.899273,13.6173913 L5.899273,13.8620144 L5.899273,31.6226087 Z M5.899273,31.6226087 C9.02519657,31.6226087 11.5832655,29.2028765 11.7856445,26.1427599 C11.7947233,25.9971751 11.798546,25.8747029 11.798546,25.7513422 C11.798546,23.8051968 10.4549415,21.8187851 9.42218207,19.8945225 C8.38942267,17.9702599 5.899273,13.6173913 5.899273,13.6173913 L5.899273,13.8620144 L5.899273,31.6226087 Z" id="Combined-Shape"></path>
                                <path d="M5.899273,18.0052174 C2.77334943,18.0052174 0.215280455,15.5854852 0.0129015349,12.5253686 C0.00382265231,12.3797838 2.25597319e-13,12.2573116 2.25597319e-13,12.1339509 C2.25597319e-13,10.1878055 1.34360452,8.2013938 2.37636392,6.27713122 C3.40912333,4.35286863 5.899273,7.06990022e-13 5.899273,7.06990022e-13 L5.899273,0.244623135 L5.899273,18.0052174 Z M5.899273,18.0052174 C9.02519657,18.0052174 11.5832655,15.5854852 11.7856445,12.5253686 C11.7947233,12.3797838 11.798546,12.2573116 11.798546,12.1339509 C11.798546,10.1878055 10.4549415,8.2013938 9.42218207,6.27713122 C8.38942267,4.35286863 5.899273,5.22248911e-13 5.899273,5.22248911e-13 L5.899273,0.244623135 L5.899273,18.0052174 Z" id="Combined-Shape" transform="translate(5.899273, 9.002609) rotate(-180.000000) translate(-5.899273, -9.002609) "></path>
                            </g>
                            <g id="Group-5" transform="translate(17.170821, 16.064571) rotate(-120.000000) translate(-17.170821, -16.064571) translate(11.170821, 0.064571)">
                                <path d="M5.899273,31.6226087 C2.77334943,31.6226087 0.215280455,29.2028765 0.0129015349,26.1427599 C0.00382265231,25.9971751 1.8562929e-13,25.8747029 1.8562929e-13,25.7513422 C1.8562929e-13,23.8051968 1.34360452,21.8187851 2.37636392,19.8945225 C3.40912333,17.9702599 5.899273,13.6173913 5.899273,13.6173913 L5.899273,13.8620144 L5.899273,31.6226087 Z M5.899273,31.6226087 C9.02519657,31.6226087 11.5832655,29.2028765 11.7856445,26.1427599 C11.7947233,25.9971751 11.798546,25.8747029 11.798546,25.7513422 C11.798546,23.8051968 10.4549415,21.8187851 9.42218207,19.8945225 C8.38942267,17.9702599 5.899273,13.6173913 5.899273,13.6173913 L5.899273,13.8620144 L5.899273,31.6226087 Z" id="Combined-Shape"></path>
                                <path d="M5.899273,18.0052174 C2.77334943,18.0052174 0.215280455,15.5854852 0.0129015349,12.5253686 C0.00382265231,12.3797838 3.19744231e-14,12.2573116 3.19744231e-14,12.1339509 C3.19744231e-14,10.1878055 1.34360452,8.2013938 2.37636392,6.27713122 C3.40912333,4.35286863 5.899273,-5.04485342e-13 5.899273,-5.04485342e-13 L5.899273,0.244623135 L5.899273,18.0052174 Z M5.899273,18.0052174 C9.02519657,18.0052174 11.5832655,15.5854852 11.7856445,12.5253686 C11.7947233,12.3797838 11.798546,12.2573116 11.798546,12.1339509 C11.798546,10.1878055 10.4549415,8.2013938 9.42218207,6.27713122 C8.38942267,4.35286863 5.899273,-2.98427949e-13 5.899273,-2.98427949e-13 L5.899273,0.244623135 L5.899273,18.0052174 Z" id="Combined-Shape" transform="translate(5.899273, 9.002609) rotate(-180.000000) translate(-5.899273, -9.002609) "></path>
                            </g>
                        </g>
                        <g id="Group-6" transform="translate(62.975077, 23.336705) rotate(-330.000000) translate(-62.975077, -23.336705) translate(45.475077, 7.336705)">
                            <g id="Group-5" transform="translate(10.665114, 0.000000)">
                                <path d="M5.899273,31.6226087 C2.77334943,31.6226087 0.215280455,29.2028765 0.0129015349,26.1427599 C0.00382265231,25.9971751 -4.3254289e-13,25.8747029 -4.3254289e-13,25.7513422 C-4.3254289e-13,23.8051968 1.34360452,21.8187851 2.37636392,19.8945225 C3.40912333,17.9702599 5.899273,13.6173913 5.899273,13.6173913 L5.899273,13.8620144 L5.899273,31.6226087 Z M5.899273,31.6226087 C9.02519657,31.6226087 11.5832655,29.2028765 11.7856445,26.1427599 C11.7947233,25.9971751 11.798546,25.8747029 11.798546,25.7513422 C11.798546,23.8051968 10.4549415,21.8187851 9.42218207,19.8945225 C8.38942267,17.9702599 5.899273,13.6173913 5.899273,13.6173913 L5.899273,13.8620144 L5.899273,31.6226087 Z" id="Combined-Shape"></path>
                                <path d="M5.899273,18.0052174 C2.77334943,18.0052174 0.215280455,15.5854852 0.0129015349,12.5253686 C0.00382265231,12.3797838 -5.36459765e-13,12.2573116 -5.36459765e-13,12.1339509 C-5.36459765e-13,10.1878055 1.34360452,8.2013938 2.37636392,6.27713122 C3.40912333,4.35286863 5.899273,2.30926389e-13 5.899273,2.30926389e-13 L5.899273,0.244623135 L5.899273,18.0052174 Z M5.899273,18.0052174 C9.02519657,18.0052174 11.5832655,15.5854852 11.7856445,12.5253686 C11.7947233,12.3797838 11.798546,12.2573116 11.798546,12.1339509 C11.798546,10.1878055 10.4549415,8.2013938 9.42218207,6.27713122 C8.38942267,4.35286863 5.899273,3.41060513e-13 5.899273,3.41060513e-13 L5.899273,0.244623135 L5.899273,18.0052174 Z" id="Combined-Shape" transform="translate(5.899273, 9.002609) rotate(-180.000000) translate(-5.899273, -9.002609) "></path>
                            </g>
                            <g id="Group-5" transform="translate(16.972635, 15.596299) rotate(-240.000000) translate(-16.972635, -15.596299) translate(10.972635, -0.403701)">
                                <path d="M5.899273,31.6226087 C2.77334943,31.6226087 0.215280455,29.2028765 0.0129015349,26.1427599 C0.00382265231,25.9971751 4.35207426e-14,25.8747029 4.35207426e-14,25.7513422 C4.35207426e-14,23.8051968 1.34360452,21.8187851 2.37636392,19.8945225 C3.40912333,17.9702599 5.899273,13.6173913 5.899273,13.6173913 L5.899273,13.8620144 L5.899273,31.6226087 Z M5.899273,31.6226087 C9.02519657,31.6226087 11.5832655,29.2028765 11.7856445,26.1427599 C11.7947233,25.9971751 11.798546,25.8747029 11.798546,25.7513422 C11.798546,23.8051968 10.4549415,21.8187851 9.42218207,19.8945225 C8.38942267,17.9702599 5.899273,13.6173913 5.899273,13.6173913 L5.899273,13.8620144 L5.899273,31.6226087 Z" id="Combined-Shape"></path>
                                <path d="M5.899273,18.0052174 C2.77334943,18.0052174 0.215280455,15.5854852 0.0129015349,12.5253686 C0.00382265231,12.3797838 -1.61648472e-13,12.2573116 -1.61648472e-13,12.1339509 C-1.61648472e-13,10.1878055 1.34360452,8.2013938 2.37636392,6.27713122 C3.40912333,4.35286863 5.899273,2.48689958e-14 5.899273,2.48689958e-14 L5.899273,0.244623135 L5.899273,18.0052174 Z M5.899273,18.0052174 C9.02519657,18.0052174 11.5832655,15.5854852 11.7856445,12.5253686 C11.7947233,12.3797838 11.798546,12.2573116 11.798546,12.1339509 C11.798546,10.1878055 10.4549415,8.2013938 9.42218207,6.27713122 C8.38942267,4.35286863 5.899273,-3.55271368e-14 5.899273,-3.55271368e-14 L5.899273,0.244623135 L5.899273,18.0052174 Z" id="Combined-Shape" transform="translate(5.899273, 9.002609) rotate(-180.000000) translate(-5.899273, -9.002609) "></path>
                            </g>
                            <g id="Group-5" transform="translate(17.170821, 16.064571) rotate(-120.000000) translate(-17.170821, -16.064571) translate(11.170821, 0.064571)">
                                <path d="M5.899273,31.6226087 C2.77334943,31.6226087 0.215280455,29.2028765 0.0129015349,26.1427599 C0.00382265231,25.9971751 1.5187851e-13,25.8747029 1.5187851e-13,25.7513422 C1.5187851e-13,23.8051968 1.34360452,21.8187851 2.37636392,19.8945225 C3.40912333,17.9702599 5.899273,13.6173913 5.899273,13.6173913 L5.899273,13.8620144 L5.899273,31.6226087 Z M5.899273,31.6226087 C9.02519657,31.6226087 11.5832655,29.2028765 11.7856445,26.1427599 C11.7947233,25.9971751 11.798546,25.8747029 11.798546,25.7513422 C11.798546,23.8051968 10.4549415,21.8187851 9.42218207,19.8945225 C8.38942267,17.9702599 5.899273,13.6173913 5.899273,13.6173913 L5.899273,13.8620144 L5.899273,31.6226087 Z" id="Combined-Shape"></path>
                                <path d="M5.899273,18.0052174 C2.77334943,18.0052174 0.215280455,15.5854852 0.0129015349,12.5253686 C0.00382265231,12.3797838 7.10542736e-15,12.2573116 7.10542736e-15,12.1339509 C7.10542736e-15,10.1878055 1.34360452,8.2013938 2.37636392,6.27713122 C3.40912333,4.35286863 5.899273,8.06466005e-13 5.899273,8.06466005e-13 L5.899273,0.244623135 L5.899273,18.0052174 Z M5.899273,18.0052174 C9.02519657,18.0052174 11.5832655,15.5854852 11.7856445,12.5253686 C11.7947233,12.3797838 11.798546,12.2573116 11.798546,12.1339509 C11.798546,10.1878055 10.4549415,8.2013938 9.42218207,6.27713122 C8.38942267,4.35286863 5.899273,-5.68434189e-14 5.899273,-5.68434189e-14 L5.899273,0.244623135 L5.899273,18.0052174 Z" id="Combined-Shape" transform="translate(5.899273, 9.002609) rotate(-180.000000) translate(-5.899273, -9.002609) "></path>
                            </g>
                        </g>
                    </g>
                </g>
            </g>
        </g>
    </g>
</svg>