<?xml version="1.0" encoding="UTF-8"?>
<svg width="165px" height="118px" viewBox="0 0 165 118" version="1.1" xmlns="http://www.w3.org/2000/svg" xmlns:xlink="http://www.w3.org/1999/xlink">
    <!-- Generator: Sketch 41.2 (35397) - http://www.bohemiancoding.com/sketch -->
    <title>dog01</title>
    <desc>Created with Sketch.</desc>
    <defs>
        <path d="M25.7137095,29.6048598 C25.7137095,29.6048598 41.066761,11.2780418 44.5211976,6.57885773 C47.9756341,1.87967364 71.4498141,-2.34959205 77.6308015,1.87967364 C83.8117888,6.10893932 82.9038262,13.6276339 82.9038262,13.6276339 C82.9038262,13.6276339 94.3249031,13.6276339 96.2440346,13.6276339 C98.163166,13.6276339 100.643537,15.5073075 99.8758849,18.7967364 C99.1082324,22.0861652 92.4994834,32.8942887 85.5906103,36.6536359 C78.6817371,40.4129832 62.9448593,40.8829016 62.9448593,40.8829016 L50.0095029,64.8487405 L0,57.7999643 L25.7137095,29.6048598 Z" id="path-1"></path>
    </defs>
    <g id="Page-1" stroke="none" stroke-width="1" fill="none" fill-rule="evenodd">
        <g id="Desktop-HD" transform="translate(-580.000000, -2265.000000)">
            <g id="dog01" transform="translate(580.000000, 2265.000000)">
                <g id="Group-32">
                    <g id="Group-31" transform="translate(25.679558, 0.000000)">
                        <g id="Group-29" transform="translate(0.000000, 33.297754)" fill="#515150">
                            <path d="M88.7087165,72.0975731 C88.7087165,72.0975731 101.455581,67.4506139 107.829013,69.7740935 C114.202445,72.0975731 115.940654,80.2297519 115.940654,81.9723616 C115.940654,83.7149713 113.623043,84.2261368 113.623043,84.2261368 L88.7087165,84.2261368 L88.7087165,72.0975731 Z" id="Path-11"></path>
                            <path d="M60.3179728,0 C60.3179728,0 37.7212584,1.74260973 24.9743939,11.6173982 C12.2275294,21.4921866 0.639470734,37.7565441 0.639470734,52.8591617 C0.639470734,67.9617794 9.33051472,74.9322183 14.5451411,78.9983077 C19.7597675,83.064397 27.2920056,84.2261368 27.2920056,84.2261368 L104.352596,84.2261368 L92.2084095,6.86473347 L60.3179728,0 Z" id="Path-17"></path>
                        </g>
                        <g id="Group-28" transform="translate(38.577866, 0.000000)">
                            <g id="Group-30" transform="translate(0.000000, 1.210827)">
                                <g id="Oval-18">
                                    <mask id="mask-2" fill="white">
                                        <use xlink:href="#path-1"></use>
                                    </mask>
                                    <use id="Mask" fill="#515050" xlink:href="#path-1"></use>
                                    <ellipse fill="#CEB6AD" mask="url(#mask-2)" cx="99.6488943" cy="15.2723483" rx="5.67476619" ry="5.87398012"></ellipse>
                                </g>
                            </g>
                            <path d="M51.9781235,0 L23.5714746,7.87037821 C23.5714746,7.87037821 37.774799,15.7407564 50.3999763,15.7407564 C63.0251536,15.7407564 51.9781235,0 51.9781235,0 Z" id="Path-16" fill="#515150"></path>
                        </g>
                    </g>
                    <path d="M43.499426,104.865455 C43.499426,104.865455 13.2342326,94.7617515 6.81434308,88.3321219 C0.394453581,81.9024922 -4.19118178,92.006196 5.89721601,104.865455 C15.9856138,117.724714 44.416553,111.295085 44.416553,111.295085 L43.499426,104.865455 Z" id="Path-19" fill="#515150"></path>
                </g>
                <ellipse id="Oval-19" fill="#CFB7AD" cx="136.19337" cy="15.1555556" rx="3.20994475" ry="3.21481481"></ellipse>
            </g>
        </g>
    </g>
</svg>