<?xml version="1.0" encoding="UTF-8"?>
<svg width="510px" height="592px" viewBox="0 0 510 592" version="1.1" xmlns="http://www.w3.org/2000/svg" xmlns:xlink="http://www.w3.org/1999/xlink">
    <!-- Generator: Sketch 41.2 (35397) - http://www.bohemiancoding.com/sketch -->
    <title>Mask</title>
    <desc>Created with Sketch.</desc>
    <defs>
        <rect id="path-1" x="0" y="0" width="510" height="592"></rect>
    </defs>
    <g id="Page-1" stroke="none" stroke-width="1" fill="none" fill-rule="evenodd">
        <g id="Group-26">
            <mask id="mask-2" fill="white">
                <use xlink:href="#path-1"></use>
            </mask>
            <g id="Mask"></g>
            <g mask="url(#mask-2)">
                <g transform="translate(44.000000, 87.000000)">
                    <g id="Group-57" stroke-width="1" fill="none" transform="translate(29.000000, 198.000000)">
                        <path d="M319.418591,67.2251456 L319.307634,67.0422526 L311.208217,80.8433202 L296,76.3583356 L307.023043,100.52525 L319.418591,100.52525 L319.418591,67.2251456 L319.418591,67.2251456 Z M319.418591,67.182893 L319.529549,67 L327.628966,80.8010676 L342.837183,76.316083 L331.81414,100.482998 L319.418591,100.482998 L319.418591,67.182893 L319.418591,67.182893 Z" id="Combined-Shape" fill="#72AA74"></path>
                        <path d="M254.369705,0.0496164495 L244.858716,16.2559439 L227,10.989313 L239.944146,39.3680548 L254.5,39.3680548 L254.5,0.264384139 L254.369705,0.0496164495 Z M254.630295,0 L264.141284,16.2063275 L282,10.9396966 L269.055854,39.3184384 L254.5,39.3184384 L254.5,0.21476769 L254.630295,0 Z" id="Combined-Shape" fill="#72AA74"></path>
                        <path d="M111.418591,127.225146 L111.307634,127.042253 L103.208217,140.84332 L88,136.358336 L99.0230426,160.52525 L111.418591,160.52525 L111.418591,127.225146 L111.418591,127.225146 Z M111.418591,127.182893 L111.529549,127 L119.628966,140.801068 L134.837183,136.316083 L123.81414,160.482998 L111.418591,160.482998 L111.418591,127.182893 L111.418591,127.182893 Z" id="Combined-Shape" fill="#72AA74"></path>
                        <path d="M27.3697045,187.049616 L17.8587157,203.255944 L0,197.989313 L12.9441463,226.368055 L27.5,226.368055 L27.5,187.264384 L27.3697045,187.049616 Z M27.6302955,187 L37.1412843,203.206327 L55,197.939697 L42.0558537,226.318438 L27.5,226.318438 L27.5,187.214768 L27.6302955,187 Z" id="Combined-Shape" fill="#72AA74"></path>
                    </g>
                    <path d="M92.4185913,67.2251456 L92.3076336,67.0422526 L84.2082168,80.8433202 L69,76.3583356 L80.0230426,100.52525 L92.4185913,100.52525 L92.4185913,67.2251456 L92.4185913,67.2251456 Z M92.4185913,67.182893 L92.529549,67 L100.628966,80.8010676 L115.837183,76.316083 L104.81414,100.482998 L92.4185913,100.482998 L92.4185913,67.182893 L92.4185913,67.182893 Z" id="Combined-Shape" fill="#72AA74"></path>
                    <path d="M27.3697045,0.0496164495 L17.8587157,16.2559439 L0,10.989313 L12.9441463,39.3680548 L27.5,39.3680548 L27.5,0.264384139 L27.3697045,0.0496164495 Z M27.6302955,0 L37.1412843,16.2063275 L55,10.9396966 L42.0558537,39.3184384 L27.5,39.3184384 L27.5,0.21476769 L27.6302955,0 Z" id="Combined-Shape" fill="#72AA74"></path>
                </g>
            </g>
        </g>
    </g>
</svg>