<?xml version="1.0" encoding="UTF-8"?>
<svg width="116px" height="115px" viewBox="0 0 116 115" version="1.1" xmlns="http://www.w3.org/2000/svg" xmlns:xlink="http://www.w3.org/1999/xlink">
    <!-- Generator: Sketch 41.2 (35397) - http://www.bohemiancoding.com/sketch -->
    <title>melos-face</title>
    <desc>Created with Sketch.</desc>
    <defs></defs>
    <g id="Page-1" stroke="none" stroke-width="1" fill="none" fill-rule="evenodd">
        <g id="Desktop-HD" transform="translate(-691.000000, -336.000000)">
            <g id="melos" transform="translate(643.000000, 336.000000)">
                <g id="melos-face" transform="translate(48.000000, 0.000000)">
                    <g id="face_base">
                        <ellipse id="Oval-2" fill="#F38E3F" cx="18.7425" cy="57.4637953" rx="11.6025" ry="11.5707975"></ellipse>
                        <path d="M91.0443937,88.9856653 C83.7693362,105.728865 65.7689465,114.578033 56.68875,114.244833 L56.68875,33 C75.6163004,33 91.2700796,48.1771953 93.836363,67.9053317 C95.9043229,66.3818891 98.8038603,65.3293619 102.52944,66.5018656 C110.868376,69.1262716 108.196132,77.8217304 104.128125,82.4162818 C100.692916,86.2961281 93.2704677,88.4190769 91.0443937,88.9856653 Z M56.68875,33 C35.9690973,33 19.1725,51.1872754 19.1725,73.6224166 C19.1725,100.244734 45.1424076,114.668529 56.68875,114.244833 L56.68875,33 Z" id="face" fill="#FFD9B0"></path>
                        <path d="M75.9146434,5.11447224 C77.8048349,3.78252375 80.1120329,3 82.6025,3 C87.8730663,3 92.3228239,6.50469702 93.7363423,11.3047139 C94.623833,11.1052654 95.5470898,11 96.495,11 C103.395798,11 108.99,16.5789166 108.99,23.4608589 C108.99,25.0329699 108.698067,26.5370826 108.165315,27.9222239 C111.665674,30.130272 113.99,34.0248694 113.99,38.4608589 C113.99,40.8693666 113.304808,43.1182764 112.118216,45.0242988 C114.174034,47.2451906 115.43,50.2134964 115.43,53.4743474 C115.43,57.6775423 113.343227,61.3946771 110.146515,63.6515877 C107.948938,68.9035717 102.750471,72.5948382 96.6875,72.5948382 C88.6365691,72.5948382 82.11,66.0861022 82.11,58.0571695 C82.11,57.5931877 82.1317957,57.1342826 82.1744218,56.681417 C81.117613,56.997361 79.9974341,57.1671082 78.8375,57.1671082 C75.3788033,57.1671082 72.2735763,55.6578592 70.1478905,53.2637218 C67.907631,54.611537 65.2821215,55.3869855 62.475,55.3869855 C57.4573924,55.3869855 53.020035,52.9094269 50.3258901,49.1140945 C47.9592186,52.8816415 43.7592381,55.3869855 38.9725,55.3869855 C34.5219001,55.3869855 30.5785437,53.2211516 28.1443812,49.8886966 C25.482485,54.2525727 20.6687882,57.1671082 15.1725,57.1671082 C6.79295963,57.1671082 0,50.3927095 0,42.0360652 C0,36.0850356 3.44492227,30.9364122 8.45451351,28.4653108 C8.15839637,27.4155715 8,26.3083188 8,25.1641718 C8,18.4460852 13.4610068,13 20.1975,13 C20.8164684,13 21.4246686,13.0459784 22.0188537,13.1346972 C23.6854358,8.0205113 28.5035636,4.32367259 34.1875,4.32367259 C35.7874405,4.32367259 37.3187799,4.61658633 38.7305393,5.15157425 C41.5646216,2.43405912 45.4154278,0.763427188 49.6575,0.763427188 C52.9080239,0.763427188 55.9288151,1.74434221 58.4384737,3.42554129 C60.6586205,2.11135813 63.2509508,1.35680142 66.02,1.35680142 C69.8191395,1.35680142 73.2856253,2.77716986 75.9146434,5.11447224 L75.9146434,5.11447224 Z" id="Combined-Shape" fill="#F1901F"></path>
                    </g>
                    <g id="Group-3" transform="translate(28.000000, 58.000000)">
                        <ellipse id="Oval" fill="#8B572A" cx="9.5" cy="13.5" rx="3.5" ry="5.5"></ellipse>
                        <ellipse id="Oval" fill="#8B572A" cx="40.5" cy="13.5" rx="3.5" ry="5.5"></ellipse>
                        <rect id="Rectangle" fill="#F38E3F" transform="translate(39.219152, 3.827500) rotate(-12.000000) translate(-39.219152, -3.827500) " x="30.2191518" y="1.82750042" width="18" height="4" rx="2"></rect>
                        <rect id="Rectangle" fill="#F38E3F" transform="translate(9.219152, 3.827500) rotate(12.000000) translate(-9.219152, -3.827500) " x="0.219151788" y="1.82750042" width="18" height="4" rx="2"></rect>
                        <path d="M24.783606,16.5088556 C24.783606,16.5088556 13.3454307,24.0676886 13.3454307,29.1832522 C13.3454307,34.2988158 24.783606,33.8360213 24.783606,33.8360213 L24.783606,16.5088556 Z" id="Path-4" fill="#FFB588"></path>
                        <path d="M41.2400889,46.0009068 C41.4097594,45.3616669 41.5,44.6915059 41.5,44.0009068 C41.5,39.5826288 39.3447323,36.067851 33.25,36.0009068 C27.1552677,35.9339625 25,39.5826288 25,44.0009068 C25,44.6915059 25.0902406,45.3616669 25.2599111,46.0009068 L41.2400889,46.0009068 Z" id="Combined-Shape" fill="#EE7549"></path>
                    </g>
                    <path d="M92.5,46.8666667 C89.5856443,46.8666667 87.2007099,44.599945 87.0120283,41.7333333 C87.0035639,41.5969545 87,41.4822268 87,41.3666667 C87,39.5435848 88.252667,37.6827829 89.2155275,35.8802 C90.178388,34.0776172 92.5,30 92.5,30 L92.5,30.2291545 L92.5,46.8666667 Z M92.5,46.8666667 C95.4143557,46.8666667 97.7992901,44.599945 97.9879717,41.7333333 C97.9964361,41.5969545 98,41.4822268 98,41.3666667 C98,39.5435848 96.747333,37.6827829 95.7844725,35.8802 C94.821612,34.0776172 92.5,30 92.5,30 L92.5,30.2291545 L92.5,46.8666667 Z" id="Combined-Shape" fill="#8CD1D5"></path>
                </g>
            </g>
        </g>
    </g>
</svg>