<?xml version="1.0" encoding="UTF-8"?>
<svg width="361px" height="356px" viewBox="0 0 361 356" version="1.1" xmlns="http://www.w3.org/2000/svg" xmlns:xlink="http://www.w3.org/1999/xlink">
    <!-- Generator: Sketch 41.2 (35397) - http://www.bohemiancoding.com/sketch -->
    <title>melos-face-only</title>
    <desc>Created with Sketch.</desc>
    <defs></defs>
    <g id="Page-1" stroke="none" stroke-width="1" fill="none" fill-rule="evenodd">
        <g id="Desktop-HD" transform="translate(-201.000000, -3060.000000)">
            <g id="melos-face-only" transform="translate(221.000000, 3080.000000)">
                <g id="Melos" stroke-width="40" stroke="#FFFFFF">
                    <g id="face">
                        <path d="M157.368118,90.0933593 C123.905956,91.0016286 94.2911453,108.319303 75.4112958,134.741397 C69.508961,129.21492 61.4993831,125.819053 52.6778393,125.819053 C34.5313195,125.819053 19.8206586,140.188769 19.8206586,157.914712 C19.8206586,175.640655 34.5313195,190.010372 52.6778393,190.010372 C53.3133282,190.010372 53.9446033,189.992749 54.5711806,189.957976 L54.5711806,189.957976 C54.1248325,194.151999 53.8955585,198.415756 53.8955585,202.736308 C53.8955585,275.54752 125.392573,315.463795 158.739265,315.441973 C184.346614,315.459068 232.903863,290.966982 252.739474,245.351659 C258.919061,243.780027 279.523796,237.891285 289.059945,227.129173 C300.352745,214.384575 307.7709,190.264675 284.621993,182.984966 C274.279774,179.732616 266.23065,182.652169 260.489988,186.87797 C253.491554,133.119679 211.431725,91.5439037 160.138031,90.0948888 L160.138024,90.0558078 C159.671061,90.0558078 159.204802,90.0590029 158.739265,90.0653738 C158.282918,90.0590029 157.825862,90.0558078 157.368118,90.0558078 L157.368118,90.0933593 Z" id="Combined-Shape" fill="#F38E3F"></path>
                        <path d="M210.739248,12.70553 C215.986424,9.0109044 222.391212,6.84030071 229.304755,6.84030071 C243.935861,6.84030071 256.2884,16.5618054 260.212331,29.8763333 C262.676007,29.323093 265.23897,29.0311026 267.870371,29.0311026 C287.027004,29.0311026 302.556524,44.5061816 302.556524,63.595659 C302.556524,67.9564593 301.746118,72.1286429 300.267197,75.9708173 C309.984201,82.0956121 316.436537,92.8986419 316.436537,105.203413 C316.436537,111.884252 314.534443,118.122391 311.240461,123.409412 C316.947415,129.569833 320.433981,137.803469 320.433981,146.848581 C320.433981,158.507614 314.641094,168.81839 305.767013,175.078721 C299.666533,189.646939 285.235575,199.885959 268.404752,199.885959 C246.055347,199.885959 227.937574,181.8317 227.937574,159.560643 C227.937574,158.273627 227.998079,157.000693 228.116409,155.744512 C225.182705,156.620893 222.073085,157.091746 218.853105,157.091746 C209.251754,157.091746 200.631636,152.905316 194.730727,146.264337 C188.511761,150.002975 181.223339,152.153953 173.430763,152.153953 C159.501871,152.153953 147.183755,145.281576 139.704802,134.753893 C133.134916,145.204504 121.475759,152.153953 108.187762,152.153953 C95.8328845,152.153953 84.886117,146.146254 78.1288756,136.902523 C70.7394448,149.007262 57.3766098,157.091746 42.1188995,157.091746 C18.8572736,157.091746 0,138.300579 0,115.120499 C0,98.6132345 9.5631132,84.3317243 23.4697515,77.477259 C22.6477296,74.5654396 22.2080208,71.4940864 22.2080208,68.3203938 C22.2080208,49.6854278 37.3677898,34.5788031 56.0683126,34.5788031 C57.7865705,34.5788031 59.4749357,34.7063402 61.1243952,34.952433 C65.7508314,20.7664471 79.1259667,10.5119702 94.9045891,10.5119702 C99.3460281,10.5119702 103.59703,11.3244691 107.516078,12.8084454 C115.383498,5.27046547 126.073346,0.636382684 137.849349,0.636382684 C146.872812,0.636382684 155.258536,3.35729405 162.225355,8.02068851 C168.388491,4.37534052 175.584805,2.28231394 183.271692,2.28231394 C193.818113,2.28231394 203.441087,6.22220327 210.739248,12.70553 L210.739248,12.70553 Z" id="Combined-Shape" fill="#F1901F"></path>
                    </g>
                </g>
                <g id="Melos">
                    <g id="face">
                        <g id="face_base">
                            <ellipse id="Oval-2" fill="#F38E3F" cx="52.0292288" cy="157.914712" rx="32.2085702" ry="32.0956595"></ellipse>
                            <path d="M252.739474,245.351659 C232.543895,291.794788 182.574767,316.341053 157.368118,315.416807 L157.368118,90.0558078 C209.911047,90.0558078 253.365979,132.155075 260.489988,186.87797 C266.23065,182.652169 274.279774,179.732616 284.621993,182.984966 C307.7709,190.264675 300.352745,214.384575 289.059945,227.129173 C279.523796,237.891285 258.919061,243.780027 252.739474,245.351659 Z M157.368118,90.0558078 C99.8503077,90.0558078 53.2229099,140.504586 53.2229099,202.736308 C53.2229099,276.58263 125.315441,316.592075 157.368118,315.416807 L157.368118,90.0558078 Z" id="face" fill="#FFD9B0"></path>
                            <ellipse id="Oval-2" fill="#F1901F" cx="42.1188995" cy="115.120499" rx="42.1188995" ry="41.971247"></ellipse>
                            <ellipse id="Oval-2" fill="#F1901F" cx="94.9045891" cy="45.8994922" rx="35.5120133" ry="35.387522"></ellipse>
                            <ellipse id="Oval-2" fill="#F1901F" cx="108.187762" cy="115.120499" rx="37.1637349" ry="37.0334533"></ellipse>
                            <ellipse id="Oval-2" fill="#F1901F" cx="137.849349" cy="44.253561" rx="43.7706211" ry="43.6171783"></ellipse>
                            <ellipse id="Oval-2" fill="#F1901F" cx="56.0683126" cy="68.3203938" rx="33.8602918" ry="33.7415908"></ellipse>
                            <ellipse id="Oval-2" fill="#F1901F" cx="173.430763" cy="111.005671" rx="41.2930388" ry="41.1482814"></ellipse>
                            <ellipse id="Oval-2" fill="#F1901F" cx="268.404752" cy="159.560643" rx="40.467178" ry="40.3253158"></ellipse>
                            <ellipse id="Oval-2" fill="#F1901F" cx="218.853105" cy="124.996087" rx="32.2085702" ry="32.0956595"></ellipse>
                            <ellipse id="Oval-2" fill="#F1901F" cx="229.304755" cy="38.9359602" rx="32.2085702" ry="32.0956595"></ellipse>
                            <ellipse id="Oval-2" fill="#F1901F" cx="267.870371" cy="63.595659" rx="34.6861526" ry="34.5645564"></ellipse>
                            <ellipse id="Oval-2" fill="#F1901F" cx="281.750384" cy="105.203413" rx="34.6861526" ry="34.5645564"></ellipse>
                            <ellipse id="Oval-2" fill="#F1901F" cx="215.126322" cy="85.7864609" rx="34.6861526" ry="34.5645564"></ellipse>
                            <ellipse id="Oval-2" fill="#F1901F" cx="285.747828" cy="146.848581" rx="34.6861526" ry="34.5645564"></ellipse>
                            <ellipse id="Oval-2" fill="#F1901F" cx="249.256134" cy="78.2419286" rx="49.3839469" ry="49.210826"></ellipse>
                            <ellipse id="Oval-2" fill="#F1901F" cx="109.638223" cy="91.3341613" rx="34.6861526" ry="34.5645564"></ellipse>
                            <ellipse id="Oval-2" fill="#F1901F" cx="183.271692" cy="43.4305954" rx="41.2930388" ry="41.1482814"></ellipse>
                        </g>
                        <g id="Group-3" transform="translate(77.728073, 158.503185)">
                            <ellipse id="Oval" fill="#8B572A" cx="26.3720247" cy="38.3458564" rx="9.71600912" ry="15.2561763"></ellipse>
                            <ellipse id="Oval" fill="#8B572A" cx="112.428106" cy="38.3458564" rx="9.71600912" ry="15.2561763"></ellipse>
                            <rect id="Rectangle" fill="#F38E3F" transform="translate(108.872468, 11.515791) rotate(-12.000000) translate(-108.872468, -11.515791) " x="83.8884441" y="5.96809067" width="49.9680469" height="11.0954009" rx="5.54770047"></rect>
                            <rect id="Rectangle" fill="#F38E3F" transform="translate(25.592389, 11.515791) rotate(12.000000) translate(-25.592389, -11.515791) " x="0.608365935" y="5.96809067" width="49.9680469" height="11.0954009" rx="5.54770047"></rect>
                            <path d="M68.799355,46.6919713 C68.799355,46.6919713 37.0469503,67.6590419 37.0469503,81.8488492 C37.0469503,96.0386564 68.799355,94.7549339 68.799355,94.7549339 L68.799355,46.6919713 Z" id="Path-4" fill="#FFB588"></path>
                            <path d="M114.482594,128.498504 C114.9536,126.725349 115.204108,124.866422 115.204108,122.950804 C115.204108,110.695162 109.221079,100.945695 92.3020866,100.760002 C75.3830939,100.574309 69.4000651,110.695162 69.4000651,122.950804 C69.4000651,124.866422 69.6505732,126.725349 70.1215789,128.498504 L114.482594,128.498504 Z" id="Combined-Shape" fill="#EE7549"></path>
                        </g>
                        <path d="M256.780241,128.519864 C248.689982,128.519864 242.069398,122.232318 241.545617,114.280767 C241.52212,113.902472 241.512227,113.584235 241.512227,113.263688 C241.512227,108.206732 244.989634,103.045146 247.662537,98.0450513 C250.33544,93.0449565 256.780241,81.7342571 256.780241,81.7342571 L256.780241,82.3698974 L256.780241,128.519864 Z M256.780241,128.519864 C264.8705,128.519864 271.491084,122.232318 272.014865,114.280767 C272.038362,113.902472 272.048255,113.584235 272.048255,113.263688 C272.048255,108.206732 268.570848,103.045146 265.897945,98.0450513 C263.225042,93.0449565 256.780241,81.7342571 256.780241,81.7342571 L256.780241,82.3698974 L256.780241,128.519864 Z" id="Combined-Shape" fill="#8CD1D5"></path>
                    </g>
                </g>
            </g>
        </g>
    </g>
</svg>