<?xml version="1.0" encoding="UTF-8"?>
<svg width="699px" height="535px" viewBox="0 0 699 535" version="1.1" xmlns="http://www.w3.org/2000/svg" xmlns:xlink="http://www.w3.org/1999/xlink">
    <!-- Generator: Sketch 41.2 (35397) - http://www.bohemiancoding.com/sketch -->
    <title>melos-large</title>
    <desc>Created with Sketch.</desc>
    <defs>
        <rect id="path-1" x="0" y="277" width="813.886365" height="257.321089"></rect>
        <path d="M178.884543,0.0269138828 C224.052519,1.90924777 278.071139,10.9952408 308.10008,60.6203727 C346.71079,124.427537 295.837846,304.596483 281.429721,345.733747 L281.429721,384.585189 L304.796941,486.157119 L31.7588134,431.091115 L40.85777,384.585189 L40.85777,345.733747 C26.4496448,304.596483 -24.4232991,124.427537 14.1874107,60.6203727 C44.2163515,10.9952408 98.2349712,1.90924777 143.258008,0.321814602 C148.943921,0.0269138828 154.893893,-0.0162429027 161.143745,0.00674234066 C167.393598,-0.0162429027 173.343569,0.0269138828 178.884543,0.0269138828 Z" id="path-3"></path>
    </defs>
    <g id="Page-1" stroke="none" stroke-width="1" fill="none" fill-rule="evenodd">
        <g id="Desktop-HD" transform="translate(-637.000000, -692.000000)">
            <g id="melos-large" transform="translate(522.000000, 692.000000)">
                <g id="Group-2" transform="translate(374.000000, 40.000000)" fill="#FF8979">
                    <rect id="Rectangle-6" x="0" y="32.2224882" width="375.340502" height="11"></rect>
                    <rect id="Rectangle-6" x="64.6594982" y="0" width="375.340502" height="11"></rect>
                    <rect id="Rectangle-6" x="0" y="96.6674645" width="375.340502" height="11"></rect>
                    <rect id="Rectangle-6" x="64.6594982" y="64.4449764" width="375.340502" height="11"></rect>
                    <rect id="Rectangle-6" x="0" y="161.112441" width="375.340502" height="11"></rect>
                    <rect id="Rectangle-6" x="64.6594982" y="128.889953" width="375.340502" height="11"></rect>
                    <rect id="Rectangle-6" x="0" y="225.557417" width="375.340502" height="11"></rect>
                    <rect id="Rectangle-6" x="64.6594982" y="193.334929" width="375.340502" height="11"></rect>
                    <rect id="Rectangle-6" x="0" y="290.002394" width="375.340502" height="11"></rect>
                    <rect id="Rectangle-6" x="64.6594982" y="257.779905" width="375.340502" height="11"></rect>
                    <rect id="Rectangle-6" x="0" y="418.892346" width="375.340502" height="11"></rect>
                    <rect id="Rectangle-6" x="64.6594982" y="386.669858" width="375.340502" height="11"></rect>
                    <rect id="Rectangle-6" x="0" y="354.44737" width="375.340502" height="11"></rect>
                    <rect id="Rectangle-6" x="64.6594982" y="322.224882" width="375.340502" height="11"></rect>
                    <rect id="Rectangle-6" x="0" y="483.337323" width="375.340502" height="11"></rect>
                    <rect id="Rectangle-6" x="64.6594982" y="451.114835" width="375.340502" height="11"></rect>
                </g>
                <mask id="mask-2" fill="white">
                    <use xlink:href="#path-1"></use>
                </mask>
                <g id="Rectangle-5"></g>
                <g id="hand" mask="url(#mask-2)">
                    <g transform="translate(265.556719, 458.820691) rotate(139.000000) translate(-265.556719, -458.820691) translate(147.556719, 307.820691)">
                        <path d="M9.9475983e-13,7.68368583 C9.9475983e-13,7.68368583 98.9937746,-10.4571858 147.854033,9.00947264 C196.714291,28.476131 216.815342,66.6531891 206.637491,128.853131 C196.459639,191.053072 177.689349,238.874763 177.689349,238.874763" id="Path-6" stroke="#FFD9B0" stroke-width="61" fill="none"></path>
                        <ellipse id="Oval-3" stroke="none" fill="#FFD9B0" fill-rule="evenodd" transform="translate(163.034522, 234.933313) rotate(11.000000) translate(-163.034522, -234.933313) " cx="163.034522" cy="234.933313" rx="62.9321497" ry="56.0621039"></ellipse>
                    </g>
                </g>
                <g id="body" mask="url(#mask-2)">
                    <g transform="translate(496.816943, 602.519632) rotate(-8.000000) translate(-496.816943, -602.519632) translate(335.316943, 359.019632)" id="Path-5">
                        <g transform="translate(-0.000000, 0.000000)">
                            <mask id="mask-4" fill="white">
                                <use xlink:href="#path-3"></use>
                            </mask>
                            <use id="Mask" fill="#FFF5E2" xlink:href="#path-3"></use>
                            <path d="M87.6624119,-28.6809495 C87.6624119,-28.6809495 122.922974,121.680885 167.742324,194.316343 C212.561674,266.9518 296.276264,319.073842 328.140282,338.494206 C360.004299,357.914571 433.959569,158.41038 433.959569,152.031756 C433.959569,145.653132 379.69841,-14.3365323 373.916346,-21.5087409 C368.134282,-28.6809495 297.826225,-57.978698 286.792677,-57.978698 C275.759129,-57.978698 87.6624119,-28.6809495 87.6624119,-28.6809495 Z" fill="#FFD9B0" mask="url(#mask-4)"></path>
                            <ellipse id="Oval-4" fill="#FFB490" mask="url(#mask-4)" cx="158.01171" cy="-99.4414023" rx="102.79928" ry="160.379491"></ellipse>
                        </g>
                    </g>
                </g>
                <g id="hand" mask="url(#mask-2)" stroke="#FFD9B0" stroke-width="61">
                    <g transform="translate(559.000000, 390.000000)" id="Path-6">
                        <path d="M0,6.76154396 C0,6.76154396 98.9937746,-9.20218795 147.854033,7.92821917 C196.714291,25.0586263 216.815342,58.6539427 206.637491,113.389085 C196.459639,168.124228 177.689349,210.206696 177.689349,210.206696"></path>
                    </g>
                </g>
                <g id="face" transform="translate(223.000000, 0.000000)">
                    <g id="face_base">
                        <ellipse id="Oval-2" fill="#F38E3F" cx="63.7570711" cy="193.448539" rx="39.4686631" ry="39.3677833"></ellipse>
                        <path d="M309.709158,300.696647 C284.961319,357.6627 223.728713,387.770574 192.840265,386.636915 L192.840265,110.214398 C257.226829,110.214398 310.476882,161.852371 319.206705,228.974192 C326.241362,223.790923 336.104829,220.209868 348.778274,224.199124 C377.145148,233.128244 368.054875,262.713148 354.21658,278.345373 C342.530899,291.545928 317.281678,298.768921 309.709158,300.696647 Z M192.840265,110.214398 C122.357439,110.214398 65.2198184,172.093686 65.2198184,248.425657 C65.2198184,339.003824 153.562635,388.078471 192.840265,386.636915 L192.840265,110.214398 Z" id="face" fill="#FFD9B0"></path>
                        <ellipse id="Oval-2" fill="#F1901F" cx="51.6128671" cy="140.958161" rx="51.6128671" ry="51.4809473"></ellipse>
                        <ellipse id="Oval-2" fill="#F1901F" cx="116.296912" cy="56.053297" rx="43.5167311" ry="43.4055046"></ellipse>
                        <ellipse id="Oval-2" fill="#F1901F" cx="132.574227" cy="140.958161" rx="45.5407651" ry="45.4243653"></ellipse>
                        <ellipse id="Oval-2" fill="#F1901F" cx="168.921796" cy="54.0344363" rx="53.6369011" ry="53.499808"></ellipse>
                        <ellipse id="Oval-2" fill="#F1901F" cx="68.7065997" cy="83.5542491" rx="41.4926971" ry="41.3866439"></ellipse>
                        <ellipse id="Oval-2" fill="#F1901F" cx="212.52357" cy="135.911009" rx="50.6008501" ry="50.471517"></ellipse>
                        <ellipse id="Oval-2" fill="#F1901F" cx="328.905526" cy="195.467399" rx="49.5888331" ry="49.4620867"></ellipse>
                        <ellipse id="Oval-2" fill="#F1901F" cx="268.184506" cy="153.071325" rx="39.4686631" ry="39.3677833"></ellipse>
                        <ellipse id="Oval-2" fill="#F1901F" cx="280.992049" cy="47.5119919" rx="39.4686631" ry="39.3677833"></ellipse>
                        <ellipse id="Oval-2" fill="#F1901F" cx="328.250691" cy="77.7590001" rx="42.5047141" ry="42.3960743"></ellipse>
                        <ellipse id="Oval-2" fill="#F1901F" cx="345.25938" cy="128.794095" rx="42.5047141" ry="42.3960743"></ellipse>
                        <ellipse id="Oval-2" fill="#F1901F" cx="263.617673" cy="104.977717" rx="42.5047141" ry="42.3960743"></ellipse>
                        <ellipse id="Oval-2" fill="#F1901F" cx="350.157883" cy="179.875082" rx="42.5047141" ry="42.3960743"></ellipse>
                        <ellipse id="Oval-2" fill="#F1901F" cx="305.440643" cy="95.7237709" rx="60.5155196" ry="60.3608451"></ellipse>
                        <ellipse id="Oval-2" fill="#F1901F" cx="134.351635" cy="111.782397" rx="42.5047141" ry="42.3960743"></ellipse>
                        <ellipse id="Oval-2" fill="#F1901F" cx="224.582731" cy="53.025006" rx="50.6008501" ry="50.471517"></ellipse>
                    </g>
                    <g id="Group-3" transform="translate(95.248659, 195.223254)">
                        <ellipse id="Oval" fill="#8B572A" cx="32.3165093" cy="45.9812204" rx="11.9060824" ry="18.7128681"></ellipse>
                        <ellipse id="Oval" fill="#8B572A" cx="137.770382" cy="45.9812204" rx="11.9060824" ry="18.7128681"></ellipse>
                        <rect id="Rectangle" fill="#F38E3F" transform="translate(133.413272, 13.072092) rotate(-12.000000) translate(-133.413272, -13.072092) " x="102.797632" y="6.2674123" width="61.2312808" height="13.6093586" rx="6.8046793"></rect>
                        <rect id="Rectangle" fill="#F38E3F" transform="translate(31.361137, 13.072092) rotate(12.000000) translate(-31.361137, -13.072092) " x="0.745496927" y="6.2674123" width="61.2312808" height="13.6093586" rx="6.8046793"></rect>
                        <path d="M84.3073301,56.2183692 C84.3073301,56.2183692 45.3976563,81.9360863 45.3976563,99.3409712 C45.3976563,116.745856 84.3073301,115.171272 84.3073301,115.171272 L84.3073301,56.2183692 Z" id="Path-4" fill="#FFB588"></path>
                        <path d="M140.28797,156.560344 C140.865145,154.385433 141.17212,152.105318 141.17212,149.755665 C141.17212,134.723182 133.840464,122.764715 113.107783,122.536948 C92.3751012,122.309181 85.0434456,134.723182 85.0434456,149.755665 C85.0434456,152.105318 85.3504203,154.385433 85.9275949,156.560344 L140.28797,156.560344 Z" id="Combined-Shape" fill="#EE7549"></path>
                    </g>
                    <path d="M314.660749,157.393508 C304.746875,157.393508 296.633953,149.681351 295.992108,139.928164 C295.963314,139.464157 295.951191,139.073815 295.951191,138.68064 C295.951191,132.477896 300.212435,126.146816 303.487834,120.013817 C306.763233,113.880818 314.660749,100.007379 314.660749,100.007379 L314.660749,100.787041 L314.660749,157.393508 Z M314.660749,157.393508 C324.574623,157.393508 332.687544,149.681351 333.329389,139.928164 C333.358183,139.464157 333.370307,139.073815 333.370307,138.68064 C333.370307,132.477896 329.109062,126.146816 325.833663,120.013817 C322.558264,113.880818 314.660749,100.007379 314.660749,100.007379 L314.660749,100.787041 L314.660749,157.393508 Z" id="Combined-Shape" fill="#8CD1D5"></path>
                </g>
            </g>
        </g>
    </g>
</svg>