<?xml version="1.0" encoding="UTF-8"?>
<svg width="116px" height="67px" viewBox="0 0 116 67" version="1.1" xmlns="http://www.w3.org/2000/svg" xmlns:xlink="http://www.w3.org/1999/xlink">
    <!-- Generator: Sketch 41.2 (35397) - http://www.bohemiancoding.com/sketch -->
    <title>melos-leg</title>
    <desc>Created with Sketch.</desc>
    <defs></defs>
    <g id="Page-1" stroke="none" stroke-width="1" fill="none" fill-rule="evenodd">
        <g id="Desktop-HD" transform="translate(-775.000000, -545.000000)" fill="#FFD9B0">
            <g id="melos" transform="translate(643.000000, 336.000000)">
                <g id="melos-leg" transform="translate(190.500892, 245.586470) rotate(258.000000) translate(-190.500892, -245.586470) translate(146.000892, 193.086470)">
                    <path d="M82.2589259,0.770989864 C82.1523034,0.805015659 81.9595277,0.867003486 81.6862845,0.955574271 C81.2395625,1.10037762 80.7238357,1.26897767 80.1447771,1.4600012 C78.4990647,2.00289927 76.6688507,2.61878354 74.6992764,3.29678258 C69.0630945,5.23696112 63.4226748,7.29191423 58.1287975,9.38014341 C54.0494439,10.9892902 50.3315133,12.5582473 47.0463656,14.0754894 C44.7966317,15.1145267 42.7585908,16.1253698 40.9408655,17.1120302 C24.0013454,26.3067932 18.8792299,43.4535032 22.9323269,65.2466691 C23.8662752,70.2684313 25.0762211,75.2293533 26.4968944,80.0707214 C27.7132033,84.2156567 29.0174498,88.051849 30.3276613,91.4981196 C31.1308057,93.6106435 31.7739698,95.1594978 32.176058,96.0608087 L51.3541929,87.5051589 C51.3095221,87.405026 51.1934114,87.1357277 51.0160194,86.7085361 C50.7009074,85.9496902 50.3444988,85.0548537 49.9569274,84.0354182 C48.8328921,81.0788499 47.702892,77.7551702 46.6472373,74.1577121 C45.4186405,69.9709018 44.375907,65.6955705 43.5783041,61.4069264 C41.0159721,47.6294802 43.3919219,39.6757898 50.9589728,35.5683983 C52.3475743,34.8146662 53.9883338,34.0008697 55.8514673,33.1403834 C58.7392609,31.8066589 62.1009166,30.3880488 65.8346358,28.9152415 C70.8086227,26.9531967 76.169486,25.0000933 81.5345871,23.1532306 C83.4154618,22.5057652 85.1606648,21.9184879 86.7236599,21.4028771 C87.267649,21.2234226 87.7489135,21.0660888 88.1616667,20.9322964 C88.4041086,20.8537097 88.5665827,20.8014655 88.6433149,20.7769784 L82.2589259,0.770989864 Z" id="Path-6"></path>
                    <path d="M2.10217212,96.5379348 C2.10217212,85.1762335 13.0911761,75.9657548 26.6467994,75.9657548 C40.2024228,75.9657548 50.5047516,85.1804092 51.1914267,96.5379348 C26.6392063,101.341419 2.10217212,96.5379348 2.10217212,96.5379348 Z" id="Combined-Shape" transform="translate(26.646799, 87.319286) rotate(-15.000000) translate(-26.646799, -87.319286) "></path>
                </g>
            </g>
        </g>
    </g>
</svg>