<?xml version="1.0" encoding="UTF-8"?>
<svg width="236px" height="313px" viewBox="0 0 236 313" version="1.1" xmlns="http://www.w3.org/2000/svg" xmlns:xlink="http://www.w3.org/1999/xlink">
    <!-- Generator: Sketch 41.2 (35397) - http://www.bohemiancoding.com/sketch -->
    <title>melos</title>
    <desc>Created with Sketch.</desc>
    <defs>
        <path d="M52.5862228,0.00771943222 C65.864135,0.547609902 81.7438478,3.15365184 90.5713773,17.3871181 C101.921667,35.6882709 86.9666803,87.3642768 82.7311613,99.1632551 L82.7311613,110.306615 L89.600362,139.439447 L9.33605559,123.645431 L12.0108521,110.306615 L12.0108521,99.1632551 C7.77533314,87.3642768 -7.17965356,35.6882709 4.17063614,17.3871181 C12.9981656,3.15365184 28.8778784,0.547609902 42.1131831,0.0923027729 C43.7846563,0.00771943222 45.5337538,-0.00465878474 47.3710067,0.00193383624 C49.2082596,-0.00465878474 50.9573572,0.00771943222 52.5862228,0.00771943222 Z" id="path-1"></path>
    </defs>
    <g id="Page-1" stroke="none" stroke-width="1" fill="none" fill-rule="evenodd">
        <g id="Desktop-HD" transform="translate(-655.000000, -336.000000)">
            <g id="melos" transform="translate(643.000000, 336.000000)">
                <g id="leg" transform="translate(41.000000, 210.000000)" fill="#FFD9B0">
                    <path d="M82.2589259,0.770989864 C82.1523034,0.805015659 81.9595277,0.867003486 81.6862845,0.955574271 C81.2395625,1.10037762 80.7238357,1.26897767 80.1447771,1.4600012 C78.4990647,2.00289927 76.6688507,2.61878354 74.6992764,3.29678258 C69.0630945,5.23696112 63.4226748,7.29191423 58.1287975,9.38014341 C54.0494439,10.9892902 50.3315133,12.5582473 47.0463656,14.0754894 C44.7966317,15.1145267 42.7585908,16.1253698 40.9408655,17.1120302 C24.0013454,26.3067932 18.8792299,43.4535032 22.9323269,65.2466691 C23.8662752,70.2684313 25.0762211,75.2293533 26.4968944,80.0707214 C27.7132033,84.2156567 29.0174498,88.051849 30.3276613,91.4981196 C31.1308057,93.6106435 31.7739698,95.1594978 32.176058,96.0608087 L51.3541929,87.5051589 C51.3095221,87.405026 51.1934114,87.1357277 51.0160194,86.7085361 C50.7009074,85.9496902 50.3444988,85.0548537 49.9569274,84.0354182 C48.8328921,81.0788499 47.702892,77.7551702 46.6472373,74.1577121 C45.4186405,69.9709018 44.375907,65.6955705 43.5783041,61.4069264 C41.0159721,47.6294802 43.3919219,39.6757898 50.9589728,35.5683983 C52.3475743,34.8146662 53.9883338,34.0008697 55.8514673,33.1403834 C58.7392609,31.8066589 62.1009166,30.3880488 65.8346358,28.9152415 C70.8086227,26.9531967 76.169486,25.0000933 81.5345871,23.1532306 C83.4154618,22.5057652 85.1606648,21.9184879 86.7236599,21.4028771 C87.267649,21.2234226 87.7489135,21.0660888 88.1616667,20.9322964 C88.4041086,20.8537097 88.5665827,20.8014655 88.6433149,20.7769784 L82.2589259,0.770989864 Z" id="Path-6"></path>
                    <path d="M2.10217212,96.5379348 C2.10217212,85.1762335 13.0911761,75.9657548 26.6467994,75.9657548 C40.2024228,75.9657548 50.5047516,85.1804092 51.1914267,96.5379348 C26.6392063,101.341419 2.10217212,96.5379348 2.10217212,96.5379348 Z" id="Combined-Shape" transform="translate(26.646799, 87.319286) rotate(-15.000000) translate(-26.646799, -87.319286) "></path>
                </g>
                <g id="melos-leg" transform="translate(190.500892, 245.586470) rotate(258.000000) translate(-190.500892, -245.586470) translate(146.000892, 193.086470)" fill="#FFD9B0">
                    <path d="M82.2589259,0.770989864 C82.1523034,0.805015659 81.9595277,0.867003486 81.6862845,0.955574271 C81.2395625,1.10037762 80.7238357,1.26897767 80.1447771,1.4600012 C78.4990647,2.00289927 76.6688507,2.61878354 74.6992764,3.29678258 C69.0630945,5.23696112 63.4226748,7.29191423 58.1287975,9.38014341 C54.0494439,10.9892902 50.3315133,12.5582473 47.0463656,14.0754894 C44.7966317,15.1145267 42.7585908,16.1253698 40.9408655,17.1120302 C24.0013454,26.3067932 18.8792299,43.4535032 22.9323269,65.2466691 C23.8662752,70.2684313 25.0762211,75.2293533 26.4968944,80.0707214 C27.7132033,84.2156567 29.0174498,88.051849 30.3276613,91.4981196 C31.1308057,93.6106435 31.7739698,95.1594978 32.176058,96.0608087 L51.3541929,87.5051589 C51.3095221,87.405026 51.1934114,87.1357277 51.0160194,86.7085361 C50.7009074,85.9496902 50.3444988,85.0548537 49.9569274,84.0354182 C48.8328921,81.0788499 47.702892,77.7551702 46.6472373,74.1577121 C45.4186405,69.9709018 44.375907,65.6955705 43.5783041,61.4069264 C41.0159721,47.6294802 43.3919219,39.6757898 50.9589728,35.5683983 C52.3475743,34.8146662 53.9883338,34.0008697 55.8514673,33.1403834 C58.7392609,31.8066589 62.1009166,30.3880488 65.8346358,28.9152415 C70.8086227,26.9531967 76.169486,25.0000933 81.5345871,23.1532306 C83.4154618,22.5057652 85.1606648,21.9184879 86.7236599,21.4028771 C87.267649,21.2234226 87.7489135,21.0660888 88.1616667,20.9322964 C88.4041086,20.8537097 88.5665827,20.8014655 88.6433149,20.7769784 L82.2589259,0.770989864 Z" id="Path-6"></path>
                    <path d="M2.10217212,96.5379348 C2.10217212,85.1762335 13.0911761,75.9657548 26.6467994,75.9657548 C40.2024228,75.9657548 50.5047516,85.1804092 51.1914267,96.5379348 C26.6392063,101.341419 2.10217212,96.5379348 2.10217212,96.5379348 Z" id="Combined-Shape" transform="translate(26.646799, 87.319286) rotate(-15.000000) translate(-26.646799, -87.319286) "></path>
                </g>
                <g id="hand" transform="translate(57.094584, 125.218613) rotate(139.000000) translate(-57.094584, -125.218613) translate(20.594584, 80.718613)" fill="#FFD9B0">
                    <path d="M3.51216985,21.3661993 C3.5755827,21.3559752 3.72887495,21.332072 3.96603914,21.2964295 C4.38038805,21.2341585 4.86680448,21.1639881 5.41924864,21.0878544 C7.01665,20.8677124 8.80742564,20.6466128 10.7426474,20.4399503 C16.5107702,19.8239721 22.2822037,19.4680322 27.5858872,19.5022163 C33.9440992,19.5431973 39.0854038,20.1609517 42.3216391,21.2953751 C52.4196812,24.8351226 55.5084272,30.2789449 53.4048376,41.5897713 C52.6007422,45.9133258 51.5500462,50.2213042 50.3123028,54.4392839 C49.2489979,58.0628124 48.1107004,61.4108975 46.9777996,64.3907849 C46.5865689,65.4198454 46.2264311,66.3240447 45.9075209,67.0920376 C45.726738,67.5273952 45.6071958,67.804652 45.5590517,67.9125708 L62.9106975,75.6533968 C63.3054026,74.7686355 63.9414074,73.2370223 64.7376118,71.1427529 C66.0389577,67.7198014 67.3349068,63.9080145 68.5435654,59.7891496 C69.9550923,54.9789509 71.1570757,50.0506761 72.0845313,45.0638242 C75.8891689,24.6066041 67.6181955,10.0292611 48.6068901,3.36507621 C42.997467,1.39876025 35.9830739,0.555944593 27.7083466,0.502610969 C21.6035619,0.463263413 15.1496627,0.861292912 8.72510776,1.54737153 C6.58947637,1.77543574 4.60772224,2.02011468 2.82532623,2.26575125 C1.73697254,2.41574007 0.942399128,2.5351536 0.487830147,2.6084444 L3.51216985,21.3661993 Z" id="Path-6"></path>
                    <ellipse id="Oval-3" transform="translate(49.926833, 70.763561) rotate(11.000000) translate(-49.926833, -70.763561) " cx="49.9268333" cy="70.7635606" rx="18.5" ry="14.5"></ellipse>
                </g>
                <g id="melos-body" transform="translate(125.078575, 170.763427) rotate(-8.000000) translate(-125.078575, -170.763427) translate(77.578575, 100.763427)">
                    <g id="Path-5" transform="translate(-0.000000, 0.000000)">
                        <mask id="mask-2" fill="white">
                            <use xlink:href="#path-1"></use>
                        </mask>
                        <use id="Mask" fill="#FFF5E2" xlink:href="#path-1"></use>
                        <path d="M25.7698907,-8.22626181 C25.7698907,-8.22626181 36.1353463,34.900477 49.3107737,55.7337583 C62.4862011,76.5670395 87.0955611,91.5166688 96.4625432,97.0868122 C105.829525,102.656956 127.569963,45.4352201 127.569963,43.605705 C127.569963,41.7761899 111.618952,-4.11200013 109.919213,-6.16913097 C108.219475,-8.22626181 87.551199,-16.6294337 84.3076957,-16.6294337 C81.0641923,-16.6294337 25.7698907,-8.22626181 25.7698907,-8.22626181 Z" fill="#FFD9B0" mask="url(#mask-2)"></path>
                        <rect id="Rectangle-3" fill="#594C37" mask="url(#mask-2)" x="1.13686838e-13" y="98.8700565" width="95" height="11.8644068"></rect>
                        <ellipse id="Oval-4" fill="#FFB490" mask="url(#mask-2)" cx="46.4502906" cy="-28.5217548" rx="30.2196363" ry="46"></ellipse>
                    </g>
                </g>
                <g id="melos-hand" transform="translate(145.000000, 102.000000)" fill="#FFD9B0">
                    <path d="M3.51216985,21.3661993 C3.5755827,21.3559752 3.72887495,21.332072 3.96603914,21.2964295 C4.38038805,21.2341585 4.86680448,21.1639881 5.41924864,21.0878544 C7.01665,20.8677124 8.80742564,20.6466128 10.7426474,20.4399503 C16.5107702,19.8239721 22.2822037,19.4680322 27.5858872,19.5022163 C33.9440992,19.5431973 39.0854038,20.1609517 42.3216391,21.2953751 C52.4196812,24.8351226 55.5084272,30.2789449 53.4048376,41.5897713 C52.6007422,45.9133258 51.5500462,50.2213042 50.3123028,54.4392839 C49.2489979,58.0628124 48.1107004,61.4108975 46.9777996,64.3907849 C46.5865689,65.4198454 46.2264311,66.3240447 45.9075209,67.0920376 C45.726738,67.5273952 45.6071958,67.804652 45.5590517,67.9125708 L62.9106975,75.6533968 C63.3054026,74.7686355 63.9414074,73.2370223 64.7376118,71.1427529 C66.0389577,67.7198014 67.3349068,63.9080145 68.5435654,59.7891496 C69.9550923,54.9789509 71.1570757,50.0506761 72.0845313,45.0638242 C75.8891689,24.6066041 67.6181955,10.0292611 48.6068901,3.36507621 C42.997467,1.39876025 35.9830739,0.555944593 27.7083466,0.502610969 C21.6035619,0.463263413 15.1496627,0.861292912 8.72510776,1.54737153 C6.58947637,1.77543574 4.60772224,2.02011468 2.82532623,2.26575125 C1.73697254,2.41574007 0.942399128,2.5351536 0.487830147,2.6084444 L3.51216985,21.3661993 Z" id="Path-6"></path>
                    <ellipse id="Oval-3" transform="translate(49.926833, 70.763561) rotate(11.000000) translate(-49.926833, -70.763561) " cx="49.9268333" cy="70.7635606" rx="18.5" ry="14.5"></ellipse>
                </g>
                <g id="melos-face" transform="translate(48.000000, 0.000000)">
                    <g id="face_base">
                        <ellipse id="Oval-2" fill="#F38E3F" cx="18.7425" cy="57.4637953" rx="11.6025" ry="11.5707975"></ellipse>
                        <path d="M91.0443937,88.9856653 C83.7693362,105.728865 65.7689465,114.578033 56.68875,114.244833 L56.68875,33 C75.6163004,33 91.2700796,48.1771953 93.836363,67.9053317 C95.9043229,66.3818891 98.8038603,65.3293619 102.52944,66.5018656 C110.868376,69.1262716 108.196132,77.8217304 104.128125,82.4162818 C100.692916,86.2961281 93.2704677,88.4190769 91.0443937,88.9856653 Z M56.68875,33 C35.9690973,33 19.1725,51.1872754 19.1725,73.6224166 C19.1725,100.244734 45.1424076,114.668529 56.68875,114.244833 L56.68875,33 Z" id="face" fill="#FFD9B0"></path>
                        <path d="M75.9146434,5.11447224 C77.8048349,3.78252375 80.1120329,3 82.6025,3 C87.8730663,3 92.3228239,6.50469702 93.7363423,11.3047139 C94.623833,11.1052654 95.5470898,11 96.495,11 C103.395798,11 108.99,16.5789166 108.99,23.4608589 C108.99,25.0329699 108.698067,26.5370826 108.165315,27.9222239 C111.665674,30.130272 113.99,34.0248694 113.99,38.4608589 C113.99,40.8693666 113.304808,43.1182764 112.118216,45.0242988 C114.174034,47.2451906 115.43,50.2134964 115.43,53.4743474 C115.43,57.6775423 113.343227,61.3946771 110.146515,63.6515877 C107.948938,68.9035717 102.750471,72.5948382 96.6875,72.5948382 C88.6365691,72.5948382 82.11,66.0861022 82.11,58.0571695 C82.11,57.5931877 82.1317957,57.1342826 82.1744218,56.681417 C81.117613,56.997361 79.9974341,57.1671082 78.8375,57.1671082 C75.3788033,57.1671082 72.2735763,55.6578592 70.1478905,53.2637218 C67.907631,54.611537 65.2821215,55.3869855 62.475,55.3869855 C57.4573924,55.3869855 53.020035,52.9094269 50.3258901,49.1140945 C47.9592186,52.8816415 43.7592381,55.3869855 38.9725,55.3869855 C34.5219001,55.3869855 30.5785437,53.2211516 28.1443812,49.8886966 C25.482485,54.2525727 20.6687882,57.1671082 15.1725,57.1671082 C6.79295963,57.1671082 0,50.3927095 0,42.0360652 C0,36.0850356 3.44492227,30.9364122 8.45451351,28.4653108 C8.15839637,27.4155715 8,26.3083188 8,25.1641718 C8,18.4460852 13.4610068,13 20.1975,13 C20.8164684,13 21.4246686,13.0459784 22.0188537,13.1346972 C23.6854358,8.0205113 28.5035636,4.32367259 34.1875,4.32367259 C35.7874405,4.32367259 37.3187799,4.61658633 38.7305393,5.15157425 C41.5646216,2.43405912 45.4154278,0.763427188 49.6575,0.763427188 C52.9080239,0.763427188 55.9288151,1.74434221 58.4384737,3.42554129 C60.6586205,2.11135813 63.2509508,1.35680142 66.02,1.35680142 C69.8191395,1.35680142 73.2856253,2.77716986 75.9146434,5.11447224 L75.9146434,5.11447224 Z" id="Combined-Shape" fill="#F1901F"></path>
                    </g>
                    <g id="Group-3" transform="translate(28.000000, 58.000000)">
                        <ellipse id="Oval" fill="#8B572A" cx="9.5" cy="13.5" rx="3.5" ry="5.5"></ellipse>
                        <ellipse id="Oval" fill="#8B572A" cx="40.5" cy="13.5" rx="3.5" ry="5.5"></ellipse>
                        <rect id="Rectangle" fill="#F38E3F" transform="translate(39.219152, 3.827500) rotate(-12.000000) translate(-39.219152, -3.827500) " x="30.2191518" y="1.82750042" width="18" height="4" rx="2"></rect>
                        <rect id="Rectangle" fill="#F38E3F" transform="translate(9.219152, 3.827500) rotate(12.000000) translate(-9.219152, -3.827500) " x="0.219151788" y="1.82750042" width="18" height="4" rx="2"></rect>
                        <path d="M24.783606,16.5088556 C24.783606,16.5088556 13.3454307,24.0676886 13.3454307,29.1832522 C13.3454307,34.2988158 24.783606,33.8360213 24.783606,33.8360213 L24.783606,16.5088556 Z" id="Path-4" fill="#FFB588"></path>
                        <path d="M41.2400889,46.0009068 C41.4097594,45.3616669 41.5,44.6915059 41.5,44.0009068 C41.5,39.5826288 39.3447323,36.067851 33.25,36.0009068 C27.1552677,35.9339625 25,39.5826288 25,44.0009068 C25,44.6915059 25.0902406,45.3616669 25.2599111,46.0009068 L41.2400889,46.0009068 Z" id="Combined-Shape" fill="#EE7549"></path>
                    </g>
                    <path d="M92.5,46.8666667 C89.5856443,46.8666667 87.2007099,44.599945 87.0120283,41.7333333 C87.0035639,41.5969545 87,41.4822268 87,41.3666667 C87,39.5435848 88.252667,37.6827829 89.2155275,35.8802 C90.178388,34.0776172 92.5,30 92.5,30 L92.5,30.2291545 L92.5,46.8666667 Z M92.5,46.8666667 C95.4143557,46.8666667 97.7992901,44.599945 97.9879717,41.7333333 C97.9964361,41.5969545 98,41.4822268 98,41.3666667 C98,39.5435848 96.747333,37.6827829 95.7844725,35.8802 C94.821612,34.0776172 92.5,30 92.5,30 L92.5,30.2291545 L92.5,46.8666667 Z" id="Combined-Shape" fill="#8CD1D5"></path>
                </g>
            </g>
        </g>
    </g>
</svg>