<?xml version="1.0" encoding="UTF-8"?>
<svg width="73px" height="86px" viewBox="0 0 73 86" version="1.1" xmlns="http://www.w3.org/2000/svg" xmlns:xlink="http://www.w3.org/1999/xlink">
    <!-- Generator: Sketch 41.2 (35397) - http://www.bohemiancoding.com/sketch -->
    <title>melos-hand</title>
    <desc>Created with Sketch.</desc>
    <defs></defs>
    <g id="Page-1" stroke="none" stroke-width="1" fill="none" fill-rule="evenodd">
        <g id="Desktop-HD" transform="translate(-788.000000, -438.000000)" fill="#FFD9B0">
            <g id="melos" transform="translate(643.000000, 336.000000)">
                <g id="melos-hand" transform="translate(145.000000, 102.000000)">
                    <path d="M3.51216985,21.3661993 C3.5755827,21.3559752 3.72887495,21.332072 3.96603914,21.2964295 C4.38038805,21.2341585 4.86680448,21.1639881 5.41924864,21.0878544 C7.01665,20.8677124 8.80742564,20.6466128 10.7426474,20.4399503 C16.5107702,19.8239721 22.2822037,19.4680322 27.5858872,19.5022163 C33.9440992,19.5431973 39.0854038,20.1609517 42.3216391,21.2953751 C52.4196812,24.8351226 55.5084272,30.2789449 53.4048376,41.5897713 C52.6007422,45.9133258 51.5500462,50.2213042 50.3123028,54.4392839 C49.2489979,58.0628124 48.1107004,61.4108975 46.9777996,64.3907849 C46.5865689,65.4198454 46.2264311,66.3240447 45.9075209,67.0920376 C45.726738,67.5273952 45.6071958,67.804652 45.5590517,67.9125708 L62.9106975,75.6533968 C63.3054026,74.7686355 63.9414074,73.2370223 64.7376118,71.1427529 C66.0389577,67.7198014 67.3349068,63.9080145 68.5435654,59.7891496 C69.9550923,54.9789509 71.1570757,50.0506761 72.0845313,45.0638242 C75.8891689,24.6066041 67.6181955,10.0292611 48.6068901,3.36507621 C42.997467,1.39876025 35.9830739,0.555944593 27.7083466,0.502610969 C21.6035619,0.463263413 15.1496627,0.861292912 8.72510776,1.54737153 C6.58947637,1.77543574 4.60772224,2.02011468 2.82532623,2.26575125 C1.73697254,2.41574007 0.942399128,2.5351536 0.487830147,2.6084444 L3.51216985,21.3661993 Z" id="Path-6"></path>
                    <ellipse id="Oval-3" transform="translate(49.926833, 70.763561) rotate(11.000000) translate(-49.926833, -70.763561) " cx="49.9268333" cy="70.7635606" rx="18.5" ry="14.5"></ellipse>
                </g>
            </g>
        </g>
    </g>
</svg>