<?xml version="1.0" encoding="UTF-8"?>
<svg width="105px" height="134px" viewBox="0 0 105 134" version="1.1" xmlns="http://www.w3.org/2000/svg" xmlns:xlink="http://www.w3.org/1999/xlink">
    <!-- Generator: Sketch 41.2 (35397) - http://www.bohemiancoding.com/sketch -->
    <title>melos-body</title>
    <desc>Created with Sketch.</desc>
    <defs>
        <path d="M52.5862228,0.00771943222 C65.864135,0.547609902 81.7438478,3.15365184 90.5713773,17.3871181 C101.921667,35.6882709 86.9666803,87.3642768 82.7311613,99.1632551 L82.7311613,110.306615 L89.600362,139.439447 L9.33605559,123.645431 L12.0108521,110.306615 L12.0108521,99.1632551 C7.77533314,87.3642768 -7.17965356,35.6882709 4.17063614,17.3871181 C12.9981656,3.15365184 28.8778784,0.547609902 42.1131831,0.0923027729 C43.7846563,0.00771943222 45.5337538,-0.00465878474 47.3710067,0.00193383624 C49.2082596,-0.00465878474 50.9573572,0.00771943222 52.5862228,0.00771943222 Z" id="path-1"></path>
    </defs>
    <g id="Page-1" stroke="none" stroke-width="1" fill="none" fill-rule="evenodd">
        <g id="Desktop-HD" transform="translate(-715.000000, -436.000000)">
            <g id="melos" transform="translate(643.000000, 336.000000)">
                <g id="melos-body" transform="translate(125.078575, 170.763427) rotate(-8.000000) translate(-125.078575, -170.763427) translate(77.578575, 100.763427)">
                    <g id="Path-5" transform="translate(-0.000000, 0.000000)">
                        <mask id="mask-2" fill="white">
                            <use xlink:href="#path-1"></use>
                        </mask>
                        <use id="Mask" fill="#FFF5E2" xlink:href="#path-1"></use>
                        <path d="M25.7698907,-8.22626181 C25.7698907,-8.22626181 36.1353463,34.900477 49.3107737,55.7337583 C62.4862011,76.5670395 87.0955611,91.5166688 96.4625432,97.0868122 C105.829525,102.656956 127.569963,45.4352201 127.569963,43.605705 C127.569963,41.7761899 111.618952,-4.11200013 109.919213,-6.16913097 C108.219475,-8.22626181 87.551199,-16.6294337 84.3076957,-16.6294337 C81.0641923,-16.6294337 25.7698907,-8.22626181 25.7698907,-8.22626181 Z" fill="#FFD9B0" mask="url(#mask-2)"></path>
                        <rect id="Rectangle-3" fill="#594C37" mask="url(#mask-2)" x="1.13686838e-13" y="98.8700565" width="95" height="11.8644068"></rect>
                        <ellipse id="Oval-4" fill="#FFB490" mask="url(#mask-2)" cx="46.4502906" cy="-28.5217548" rx="30.2196363" ry="46"></ellipse>
                    </g>
                </g>
            </g>
        </g>
    </g>
</svg>