<?xml version="1.0" encoding="UTF-8"?>
<svg width="509px" height="154px" viewBox="0 0 509 154" version="1.1" xmlns="http://www.w3.org/2000/svg" xmlns:xlink="http://www.w3.org/1999/xlink">
    <!-- Generator: Sketch 41.2 (35397) - http://www.bohemiancoding.com/sketch -->
    <title>ribon</title>
    <desc>Created with Sketch.</desc>
    <defs>
        <polygon id="path-1" points="133.96423 0.0101865672 0.97503326 0.0101865672 0.97503326 73.6207833 133.96423 73.6207833 133.96423 0.0101865672"></polygon>
        <polygon id="path-3" points="132.987316 0.0101865672 0 0.0101865672 0 73.6207833 132.987316 73.6207833 132.987316 0.0101865672"></polygon>
    </defs>
    <g id="Page-1" stroke="none" stroke-width="1" fill="none" fill-rule="evenodd">
        <g id="Desktop-HD" transform="translate(-631.000000, -147.000000)">
            <g id="ribon" transform="translate(631.000000, 147.000000)">
                <g id="RIBON">
                    <g id="Group-3" transform="translate(374.601681, 0.008252)">
                        <mask id="mask-2" fill="white">
                            <use xlink:href="#path-1"></use>
                        </mask>
                        <g id="Clip-2"></g>
                        <path d="M1.97925966,39.9643769 C-1.63718575,31.4229403 3.72415089,25.3721194 31.1139204,25.3721194 C54.671044,25.3721194 100.93796,15.6781455 112.986226,0.00975 C112.986226,0.00975 107.037436,29.0785746 94.3689575,39.4055709 C94.3689575,39.4055709 111.108121,46.0304776 133.96423,48.9227351 C133.96423,48.9227351 118.273312,62.8928843 93.8623057,68.3630709 C60.2551327,75.8916716 16.0388463,73.1238358 16.0388463,73.1238358" id="Fill-1" fill="#3F78A0" mask="url(#mask-2)"></path>
                    </g>
                    <path d="M454.753597,71.9457164 C452.268383,62.2997649 442.941186,52.380959 415.889912,52.8961082 C385.752867,53.4723769 377.026227,39.9715373 377.026227,39.9715373 L404.254392,106.294821" id="Fill-4" fill="#2C4B68"></path>
                    <g id="Group-8" transform="translate(0.000000, 0.008252)">
                        <mask id="mask-4" fill="white">
                            <use xlink:href="#path-3"></use>
                        </mask>
                        <g id="Clip-7"></g>
                        <path d="M131.983879,39.9643769 C135.59814,31.4229403 130.238987,25.3721194 102.849218,25.3721194 C79.2920943,25.3721194 33.0251786,15.6781455 20.9769121,0.00975 C20.9769121,0.00975 26.9278866,29.0785746 39.5941809,39.4055709 C39.5941809,39.4055709 22.8550178,46.0304776 -0.00109192192,48.9227351 C-0.00109192192,48.9227351 15.6898261,62.8928843 40.0986488,68.3630709 C73.7058218,75.8916716 117.924292,73.1238358 117.924292,73.1238358" id="Fill-6" fill="#3F78A0" mask="url(#mask-4)"></path>
                    </g>
                    <path d="M53.8112227,71.9457164 C56.2942532,62.2997649 65.6214502,52.380959 92.6749078,52.8961082 C122.811953,53.4723769 131.538593,39.9715373 131.538593,39.9715373 L104.308244,106.294821" id="Fill-9" fill="#2C4B68"></path>
                    <g id="Group-13" transform="translate(39.309189, 60.963476)" fill="#65A4C6">
                        <path d="M14.5020335,70.2043228 C49.2491729,83.4715989 165.412195,92.8621586 214.972347,92.8621586 C264.534683,92.8621586 380.697705,83.4715989 415.444845,70.2043228 C431.454604,64.0923825 429.593969,58.980181 429.593969,56.8431847 C429.593969,47.7931474 420.891351,20.116972 418.058906,14.3128116 C413.492488,4.95281157 408.698951,0.154938433 408.698951,0.154938433 C413.394215,6.22103918 409.070204,14.1600131 405.126182,16.0023265 C374.890864,30.1340056 254.030394,32.4827369 214.972347,32.4827369 C175.9143,32.4827369 55.051646,30.1340056 24.8206956,16.0023265 C20.8788575,14.1600131 16.5526628,6.22103918 21.2457433,0.154938433 C21.2457433,0.154938433 16.4565737,4.95281157 11.8879724,14.3128116 C9.0555269,20.116972 0.352909166,47.7931474 0.352909166,56.8431847 C0.352909166,58.980181 -1.50772579,64.0923825 14.5020335,70.2043228" id="Fill-11"></path>
                    </g>
                </g>
                <g id="Group-58" transform="translate(66.000000, 97.000000)">
                    <path d="M0,22 C0,22 95,38 184.5,39 C274,40 315,35 369,22" id="Path-29"></path>
                    <path d="M44.1363984,3.05449925 C42.0641786,1.7768009 39.528702,0.942075609 36.4994179,0.509596747 C30.6903202,-0.31974507 27.08598,2.00214976 26.4499817,6.45697929 C25.8648632,10.5554225 27.9677928,13.6557565 33.6854204,16.399386 C35.8288947,17.4327019 36.4806571,18.4712421 36.2567857,20.0393421 C35.9972983,21.8569125 34.5362052,22.6665389 32.005862,22.3052918 C29.5467961,21.9542207 27.3371325,20.8750902 25.3106818,19.0220857 L24.5729238,24.189688 C26.568801,25.7474074 28.9413712,26.7043353 31.6855461,27.0961103 C38.1361393,28.0170359 41.7099516,25.9089729 42.4375337,20.8126479 C42.7479009,18.6386911 42.3557168,16.8008141 41.2609814,15.2990171 C40.2018846,13.802308 38.0838275,12.3362405 34.9526245,10.8346253 C33.1451846,9.99474381 32.335581,8.78820909 32.5441885,7.327025 C32.7884118,5.61637046 34.0153212,4.91877078 36.189278,5.22913796 C38.7196212,5.59038501 41.12783,6.55240089 43.4088163,8.15082423 L44.1363984,3.05449925 Z M49.8137694,2.57087489 L46.4729034,28.6376548 L53.1145761,29.4888891 L56.455442,3.42210924 L49.8137694,2.57087489 Z M78.0981921,7.06829008 C75.9973868,5.83815792 73.4435422,5.06144321 70.4051873,4.69812629 C64.5786948,4.00141265 61.0282164,6.40486162 60.4939268,10.8730307 C60.0023804,14.9837462 62.1754327,18.0353405 67.9541131,20.6479294 C70.1205839,21.6321184 70.7958494,22.6555325 70.6077795,24.228328 C70.3897893,26.051341 68.9475304,26.8940612 66.4096104,26.5905847 C63.9431811,26.2956568 61.7094939,25.2671738 59.6413323,23.4608417 L59.0215563,28.6439178 C61.0524217,30.1557384 63.4461877,31.0583373 66.1985798,31.3874597 C72.6684886,32.161111 76.1933211,29.9721342 76.8045484,24.8605488 C77.0652817,22.6800823 76.6313069,20.8516223 75.502624,19.3751689 C74.4096863,17.9029898 72.2587619,16.4855822 69.0941447,15.0557298 C67.2680301,14.2572654 66.4311351,13.0694983 66.6063821,11.6039388 C66.8115493,9.88816192 68.0222388,9.16277729 70.2027053,9.42351061 C72.7406253,9.72698711 75.1701366,10.6338603 77.4869648,12.1798755 L78.0981921,7.06829008 Z M88.7293759,12.0920811 L86.5061266,33.1792047 L92.7355994,33.835988 L94.9588487,12.7488645 L101.868551,13.4773655 L102.400772,8.42934442 L82.3518943,6.315559 L81.8196733,11.3635801 L88.7293759,12.0920811 Z M106.536665,8.62919984 L104.21196,34.8061772 L120.922195,36.2901672 L121.358475,31.3775016 L110.744249,30.4348814 L111.311095,24.0520019 L121.208144,24.9309317 L121.618948,20.305137 L111.721899,19.4262073 L112.196393,14.0832352 L122.81062,15.0258555 L123.2469,10.1131899 L106.536665,8.62919984 Z M133.596431,15.2266128 C134.253101,15.1295341 135.012321,15.1120276 135.874088,15.1740932 C139.141625,15.4094255 140.702834,16.7851295 140.524395,19.2627122 C140.340784,21.8121088 138.403499,23.152406 135.064148,22.9119015 L133.053357,22.7670816 L133.596431,15.2266128 Z M134.525448,27.3847594 C136.536239,27.5295793 137.248909,28.1583987 137.786322,30.2183257 L139.751863,37.5063493 L146.035587,37.9589115 L143.800893,30.3988503 C143.166103,28.1875371 142.26415,26.6788474 141.056541,25.9061021 L141.061713,25.8342881 C144.193975,24.9409872 146.439801,22.3235545 146.669962,19.127832 C147.029425,14.1367598 143.74816,11.0851655 136.566761,10.5679516 C133.442853,10.3429636 130.557363,10.315613 127.910292,10.4858999 L126.035391,36.5184708 L132.031859,36.9503444 L132.730098,27.2554559 L134.525448,27.3847594 Z M154.737389,11.0062085 L160.885366,11.3204054 L153.65998,22.9187446 L149.489423,22.7056052 L154.737389,11.0062085 Z M178.774662,20.7781285 C176.492393,20.1526188 174.235363,19.8162509 171.968939,19.7317078 C166.608667,19.5317568 163.868685,21.519001 163.735832,25.080524 C163.612372,28.3902221 165.591822,30.3733874 170.734645,31.5739281 C172.483999,31.9994336 173.006179,32.4872377 172.969946,33.4585621 C172.931029,34.5018365 172.012867,34.9719374 170.250093,34.9061817 C167.91172,34.8189547 165.733349,34.3053958 163.71364,33.4014799 L163.549922,37.7904275 C165.789507,38.5944701 168.222386,39.0454727 170.812584,39.1420934 C175.957007,39.3339927 178.768938,37.3494324 178.903134,33.7519344 C178.972915,31.8812355 178.486969,30.422107 177.407977,29.409182 C176.36496,28.3975989 174.483784,27.6429508 171.768472,27.0373126 C170.338867,26.7318096 169.643523,26.0574209 169.677071,25.1580464 C169.713304,24.186722 170.414274,23.7445443 172.392898,23.8183518 C174.515422,23.897527 176.589893,24.2991351 178.616312,25.0231761 L178.774662,20.7781285 Z M204.676738,39.1730443 L207.574376,19.1437634 L207.646374,19.1443441 L210.220558,39.2177588 L217.348326,39.2752489 L222.780114,13.038205 L216.732311,12.9894255 L213.834673,33.0187064 L213.762675,33.0181257 L211.440483,12.9467435 L204.024724,12.8869306 L201.379078,32.9182439 L201.30708,32.9176632 L198.732897,12.8442485 L192.541098,12.7943077 L197.54897,39.1155542 L204.676738,39.1730443 Z M226.257193,12.6999341 L226.592246,38.9777982 L243.366883,38.7639147 L243.304003,33.8323155 L232.648869,33.9681728 L232.567171,27.5606937 L242.502363,27.4340159 L242.443155,22.7903933 L232.507963,22.9170711 L232.439575,17.5535071 L243.094709,17.4176498 L243.031829,12.4860506 L226.257193,12.6999341 Z M263.167467,24.4368971 C263.380934,30.8773604 261.201235,33.5790489 256.343902,33.7400434 C255.624298,33.7638944 254.938288,33.7145924 254.285873,33.5921374 L253.722989,16.6094631 C254.365863,16.4440762 255.047102,16.3494573 255.766707,16.3256062 C260.552079,16.1669968 262.976659,18.6800584 263.167467,24.4368971 Z M268.996266,24.2437037 C268.718402,15.8603073 263.739633,11.2707173 255.140355,11.5557372 C252.477817,11.643986 249.965163,11.9073659 247.602392,12.3458767 L248.46103,38.251651 C250.847651,38.532745 253.372231,38.6291676 256.034769,38.5409188 C264.634046,38.2558989 269.297982,33.3467049 268.996266,24.2437037 Z M287.534708,22.6925177 C287.952846,29.1229374 285.86015,31.8925647 281.010393,32.2079196 C280.29191,32.2546388 279.60468,32.2271738 278.948701,32.1255246 L277.846127,15.1693342 C278.483418,14.9835903 279.161304,14.8673588 279.879787,14.8206395 C284.657696,14.5099566 287.160954,16.9446565 287.534708,22.6925177 Z M293.354418,22.3140918 C292.810139,13.943769 287.687958,9.51480247 279.10209,10.0730975 C276.443704,10.2459587 273.940695,10.5890967 271.593062,11.1025115 L273.274955,36.9678868 C275.669307,37.1729546 278.195676,37.1890579 280.854062,37.0161967 C289.43993,36.4579017 293.945416,31.4028973 293.354418,22.3140918 Z M295.749661,8.73426396 L298.554815,34.8641226 L305.21256,34.1493847 L302.407406,8.01952605 L295.749661,8.73426396 Z M314.918248,16.4978834 L325.473141,31.3602059 L331.289568,30.5839317 L327.813003,4.53490307 L321.996576,5.31117726 L324.130139,21.2974305 L324.058772,21.3069553 L313.503879,6.44463283 L307.687452,7.22090703 L311.164017,33.2699357 L316.980444,32.4936615 L314.846881,16.5074083 L314.918248,16.4978834 Z M343.485619,0.696123538 C339.273473,1.47745856 336.198301,3.25615576 334.295498,6.02564928 C332.392696,8.79514281 331.828679,12.2682643 332.603448,16.4450139 C333.371652,20.5863672 335.179179,23.6195774 337.990635,25.5512104 C340.795524,27.4474471 344.197854,28.0245955 348.162226,27.2892213 C351.241694,26.7179932 354.016863,25.6906136 356.487733,24.2070824 L353.782607,9.6238552 L342.455828,11.7249242 L343.302822,16.2910317 L348.930815,15.2470631 L350.112666,21.6183759 C349.415307,22.0040319 348.585496,22.2678006 347.629799,22.4450783 C342.922107,23.3183351 339.777522,20.9725127 338.726988,15.3091235 C337.676453,9.64573425 339.8059,6.32160161 345.079931,5.34329137 C346.991325,4.98873598 349.138792,4.91991703 351.564295,5.16566486 L350.645077,0.210199306 C348.422819,0.0732070014 346.034144,0.223383018 343.485619,0.696123538 Z" id="SISTER’s-WEDDING" fill="#FFFFFF"></path>
                </g>
            </g>
        </g>
    </g>
</svg>