<?xml version="1.0" encoding="UTF-8"?>
<svg width="199px" height="293px" viewBox="0 0 199 293" version="1.1" xmlns="http://www.w3.org/2000/svg" xmlns:xlink="http://www.w3.org/1999/xlink">
    <!-- Generator: Sketch 41.2 (35397) - http://www.bohemiancoding.com/sketch -->
    <title>river-flow01</title>
    <desc>Created with Sketch.</desc>
    <defs>
        <path d="M393.312451,8 C393.312451,8 357.624113,0 292.374525,0 C227.124937,0 216,0 189,8 C162,16 137.875063,44 123,84 C108.124937,124 89.1875851,164 69,195 C48.8124149,226 9.50003584,250 1,299 C-7.50003584,348 47.9984947,307 47.9984947,307 L292.374525,299 C292.374525,299 326.374668,266 331.687191,253 C336.999713,240 350.812272,200 355.062289,195 C359.312307,190 375.249875,141 375.249875,137 C375.249875,133 385.874919,107 385.874919,102 C385.874919,97 405,68 405,68 L379.499892,52 L395.43746,33 L393.312451,8 Z" id="path-1"></path>
    </defs>
    <g id="Page-1" stroke="none" stroke-width="1" fill="none" fill-rule="evenodd">
        <g id="Desktop-HD" transform="translate(-374.000000, -1958.000000)">
            <g id="river-flow01" transform="translate(249.000000, 1958.000000)">
                <mask id="mask-2" fill="white">
                    <use xlink:href="#path-1"></use>
                </mask>
                <g id="Mask"></g>
                <path d="M258,-19 C258,-19 201,11 176,52 C151,93 133,138 125,163 C125,163 164,92 184,60 C204,28 243,3 292,-28 C341,-59 317,-19 317,-19 L267,-33 L258,-19 Z" id="Path-24" fill="#D2F5FF" mask="url(#mask-2)"></path>
                <path d="M248,54 C224,82 210,97 196,139 C182,181 181,206 166,235 C151,264 125,293 125,293 C125,293 183,243 191,213 C199,183 217,118 248,54 Z" id="Path-25" fill="#D2F5FF" mask="url(#mask-2)"></path>
                <path d="M323.711297,22 C308.548117,39.6903766 299.702929,49.167364 290.857741,75.7029289 C282.012552,102.238494 281.380753,118.033473 271.903766,136.355649 C262.426778,154.677824 246,173 246,173 C246,173 282.644351,141.410042 287.698745,122.456067 C292.753138,103.502092 304.125523,62.4351464 323.711297,22 Z" id="Path-25" fill="#D2F5FF" mask="url(#mask-2)"></path>
            </g>
        </g>
    </g>
</svg>