<?xml version="1.0" encoding="UTF-8"?>
<svg width="210px" height="305px" viewBox="0 0 210 305" version="1.1" xmlns="http://www.w3.org/2000/svg" xmlns:xlink="http://www.w3.org/1999/xlink">
    <!-- Generator: Sketch 41.2 (35397) - http://www.bohemiancoding.com/sketch -->
    <title>river-flow02</title>
    <desc>Created with Sketch.</desc>
    <defs>
        <path d="M393.312451,8 C393.312451,8 357.624113,0 292.374525,0 C227.124937,0 216,0 189,8 C162,16 137.875063,44 123,84 C108.124937,124 89.1875851,164 69,195 C48.8124149,226 9.50003584,250 1,299 C-7.50003584,348 47.9984947,307 47.9984947,307 L292.374525,299 C292.374525,299 326.374668,266 331.687191,253 C336.999713,240 350.812272,200 355.062289,195 C359.312307,190 375.249875,141 375.249875,137 C375.249875,133 385.874919,107 385.874919,102 C385.874919,97 405,68 405,68 L379.499892,52 L395.43746,33 L393.312451,8 Z" id="path-1"></path>
    </defs>
    <g id="Page-1" stroke="none" stroke-width="1" fill="none" fill-rule="evenodd">
        <g id="Desktop-HD" transform="translate(-363.000000, -1958.000000)">
            <g id="river-flow02" transform="translate(249.000000, 1958.000000)">
                <mask id="mask-2" fill="white">
                    <use xlink:href="#path-1"></use>
                </mask>
                <g id="Mask"></g>
                <path d="M259,-9 C259,-9 202,21 177,62 C152,103 134,148 126,173 C126,173 157,122 177,90 C197,58 215,34 264,3 C313,-28 318,-9 318,-9 L268,-23 L259,-9 Z" id="Path-24" fill="#D2F5FF" mask="url(#mask-2)"></path>
                <path d="M236,68 C212,96 198,111 184,153 C170,195 169,220 154,249 C139,278 113,307 113,307 C113,307 171,257 179,227 C187,197 205,132 236,68 Z" id="Path-25" fill="#D2F5FF" mask="url(#mask-2)"></path>
                <path d="M323.711297,8 C308.548117,25.6903766 299.702929,35.167364 290.857741,61.7029289 C282.012552,88.2384937 281.380753,104.033473 271.903766,122.355649 C262.426778,140.677824 246,159 246,159 C246,159 282.644351,127.410042 287.698745,108.456067 C292.753138,89.5020921 304.125523,48.4351464 323.711297,8 Z" id="Path-25" fill="#D2F5FF" mask="url(#mask-2)"></path>
            </g>
        </g>
    </g>
</svg>