<?xml version="1.0" encoding="UTF-8"?>
<svg width="488px" height="292px" viewBox="0 0 488 292" version="1.1" xmlns="http://www.w3.org/2000/svg" xmlns:xlink="http://www.w3.org/1999/xlink">
    <!-- Generator: Sketch 41.2 (35397) - http://www.bohemiancoding.com/sketch -->
    <title>river</title>
    <desc>Created with Sketch.</desc>
    <defs></defs>
    <g id="Page-1" stroke="none" stroke-width="1" fill="none" fill-rule="evenodd">
        <g id="Desktop-HD" transform="translate(-222.000000, -1926.000000)">
            <g id="river" transform="translate(208.000000, 1924.000000)">
                <g id="Group-38" transform="translate(14.000000, 2.000000)">
                    <g id="Group-36">
                        <g id="Group-35" transform="translate(145.125604, 0.000000)">
                            <path d="M24.132363,4.59237312 C37.6476161,-3.29492162 67.4356368,1.62181438 75.5447886,11.4809328 C83.6539404,21.3400512 93.3817526,36.5040305 89.1848199,51.6641976 C84.9878872,66.8243647 71.3478559,72.3298766 44.0677933,72.3298766 C16.7877308,72.3298766 1.5693245e-15,61.9970371 0,42.4794514 C0,22.9618656 10.61711,12.4796679 24.132363,4.59237312 Z" id="Path-21" fill="#A4A4A4"></path>
                            <rect id="Rectangle-10" fill="#AEAEAE" transform="translate(71.754662, 41.888275) rotate(-26.000000) translate(-71.754662, -41.888275) " x="69.1315791" y="36.2817004" width="5.24616587" height="11.2131492" rx="2.62308294"></rect>
                            <rect id="Rectangle-10" fill="#AEAEAE" transform="translate(60.724426, 53.826492) rotate(-26.000000) translate(-60.724426, -53.826492) " x="58.4370972" y="48.8093249" width="4.57465678" height="10.034335" rx="2.28732839"></rect>
                            <rect id="Rectangle-10" fill="#AEAEAE" transform="translate(42.876060, 48.976336) rotate(23.000000) translate(-42.876060, -48.976336) " x="40.2529774" y="44.3839627" width="5.24616587" height="9.18474624" rx="2.62308294"></rect>
                        </g>
                        <g id="Group-35" transform="translate(133.236715, 58.702247) scale(-1, 1) translate(-133.236715, -58.702247) translate(94.236715, 26.202247)" fill="#C1C1C1">
                            <path d="M22.2869857,5.14345789 C35.8152529,-2.7087822 56.3979981,0.471615674 64.5149585,10.2869158 C72.6319188,20.1022159 80.5686807,29.912468 76.3677067,45.0052566 C72.1667326,60.0980452 66.0532926,64.2932237 38.7469613,64.2932237 C11.4406301,64.2932237 5.86499623,56.5780368 1.17299925,42.4335276 C-3.51899774,28.2890184 8.75871842,12.995698 22.2869857,5.14345789 Z" id="Path-21"></path>
                        </g>
                        <g id="Group-35" transform="translate(115.428473, 58.481647)">
                            <path d="M21.3459327,4.96304213 C34.302978,-2.61376693 54.0166307,0.45507293 61.7908579,9.92608426 C69.565085,19.3970956 77.1667225,28.8632359 73.1431318,43.4266186 C69.119541,57.9900013 63.2642369,62.0380266 37.110897,62.0380266 C10.9575572,62.0380266 5.61735072,54.5934634 1.12347014,40.9450976 C-3.37041043,27.2967317 8.38888744,12.5398512 21.3459327,4.96304213 Z" id="Path-21" fill="#A5A5A5"></path>
                            <rect id="Rectangle-10" fill="#CECECE" transform="translate(31.361342, 49.484888) rotate(-26.000000) translate(-31.361342, -49.484888) " x="28.8465977" y="44.0990176" width="5.02948843" height="10.7717403" rx="2.51474422"></rect>
                            <rect id="Rectangle-10" fill="#CECECE" transform="translate(54.440160, 37.653304) rotate(-26.000000) translate(-54.440160, -37.653304) " x="52.247303" y="32.8336385" width="4.38571405" height="9.63933046" rx="2.19285702"></rect>
                            <rect id="Rectangle-10" fill="#CECECE" transform="translate(37.579738, 32.442796) rotate(23.000000) translate(-37.579738, -32.442796) " x="35.0649935" y="28.0312027" width="5.02948843" height="8.82318601" rx="2.51474422"></rect>
                        </g>
                        <g id="Group-35" transform="translate(86.000000, 99.000000)" fill="#7C7C7C">
                            <path d="M25.1641941,4.81089996 C39.2573209,-3.45170957 70.3189925,1.69898798 78.7748686,12.0272499 C87.2307446,22.3555118 97.3744903,38.2410649 92.9981087,54.1226245 C88.6217271,70.0041841 74.398487,75.7716744 45.9520067,75.7716744 C17.5055263,75.7716744 5.84798432e-14,64.9471494 5.68434189e-14,44.5008246 C5.68434189e-14,24.0544998 11.0710674,13.0735095 25.1641941,4.81089996 Z" id="Path-21"></path>
                        </g>
                        <g id="Group-35" transform="translate(125.000000, 180.000000) scale(-1, 1) translate(-125.000000, -180.000000) translate(78.000000, 140.000000)">
                            <path d="M26.9526906,6.37036669 C43.3130547,-3.35492897 68.2047279,0.584113809 78.0209464,12.7407334 C87.8371649,24.897353 97.4354609,37.0477203 92.3550272,55.7407086 C87.2745935,74.4336968 79.8813255,79.6295837 46.8585064,79.6295837 C13.8356872,79.6295837 7.09281331,70.0740336 1.41856266,52.5555252 C-4.25568798,35.0370168 10.5923264,16.0956624 26.9526906,6.37036669 Z" id="Path-21" fill="#C2C2C2"></path>
                            <rect id="Rectangle-10" fill="#CECECE" transform="translate(39.598764, 63.516866) rotate(-26.000000) translate(-39.598764, -63.516866) " x="36.4234925" y="56.6037735" width="6.35054215" height="13.8261844" rx="3.17527107"></rect>
                            <rect id="Rectangle-10" fill="#CECECE" transform="translate(68.739502, 48.330308) rotate(-26.000000) translate(-68.739502, -48.330308) " x="65.9706657" y="42.1439738" width="5.53767292" height="12.3726674" rx="2.76883646"></rect>
                            <rect id="Rectangle-10" fill="#CECECE" transform="translate(47.450493, 41.642303) rotate(23.000000) translate(-47.450493, -41.642303) " x="44.2752224" y="35.979755" width="6.35054215" height="11.3250963" rx="3.17527107"></rect>
                        </g>
                        <g id="Group-35" transform="translate(73.084541, 198.000000) scale(-1, 1) translate(-73.084541, -198.000000) translate(28.584541, 162.000000)">
                            <path d="M23.7431314,4.56768294 C37.0403964,-3.27720698 66.3479652,1.61309495 74.3263243,11.4192074 C82.3046833,21.2253198 91.8755953,36.3077722 87.746355,51.3864331 C83.6171148,66.4650939 70.197084,71.9410063 43.3570225,71.9410063 C16.5169609,71.9410063 1.54401282e-15,61.6637197 0,42.2510672 C0,22.8384147 10.4458663,12.4125729 23.7431314,4.56768294 Z" id="Path-21" fill="#A4A4A4"></path>
                            <rect id="Rectangle-10" fill="#AEAEAE" transform="translate(70.597329, 41.663069) rotate(-26.000000) translate(-70.597329, -41.663069) " x="68.0165536" y="36.0866375" width="5.1615503" height="11.1528635" rx="2.58077515"></rect>
                            <rect id="Rectangle-10" fill="#AEAEAE" transform="translate(59.744999, 53.537103) rotate(-26.000000) translate(-59.744999, -53.537103) " x="57.4945633" y="48.5469092" width="4.500872" height="9.98038697" rx="2.250436"></rect>
                            <rect id="Rectangle-10" fill="#AEAEAE" transform="translate(42.184511, 48.713022) rotate(23.000000) translate(-42.184511, -48.713022) " x="39.6037358" y="44.1453393" width="5.1615503" height="9.13536588" rx="2.58077515"></rect>
                        </g>
                        <g id="Group-35" transform="translate(66.698068, 264.000000) scale(-1, 1) translate(-66.698068, -264.000000) translate(0.198068, 211.000000)">
                            <path d="M35.4979275,5.77162425 C55.3784288,-5.85848396 99.1956464,1.39142537 111.123947,15.9290606 C123.052248,30.4666959 137.361546,52.8265449 131.187993,75.1807728 C125.01444,97.5350008 104.950394,105.653082 64.8223025,105.653082 C24.6942105,105.653082 -3.10330378e-13,90.4169274 -3.12638804e-13,61.6375243 C-3.12638804e-13,32.8581213 15.6174263,17.4017325 35.4979275,5.77162425 Z" id="Path-21" fill="#7C7C7C"></path>
                            <g id="Group-37" transform="translate(96.606172, 46.315804) rotate(-108.000000) translate(-96.606172, -46.315804) translate(68.106172, 28.315804)" fill="#AEAEAE">
                                <rect id="Rectangle-10" transform="translate(48.969083, 9.361319) rotate(-26.000000) translate(-48.969083, -9.361319) " x="45.1106127" y="1.09421657" width="7.71694077" height="16.5342039" rx="3.85847039"></rect>
                                <rect id="Rectangle-10" transform="translate(32.743961, 26.964662) rotate(-26.000000) translate(-32.743961, -26.964662) " x="29.3793747" y="19.5666629" width="6.72917256" height="14.7959986" rx="3.36458628"></rect>
                                <rect id="Rectangle-10" transform="translate(6.489591, 19.812927) rotate(23.000000) translate(-6.489591, -19.812927) " x="2.63112107" y="13.0413025" width="7.71694077" height="13.5432485" rx="3.85847039"></rect>
                            </g>
                        </g>
                    </g>
                    <g id="Mask-+-Path-24-+-Path-25-+-Path-25-Mask" transform="translate(27.000000, 32.000000)" fill="#9BE9FF">
                        <path d="M393.312451,8 C393.312451,8 357.624113,0 292.374525,0 C227.124937,0 216,0 189,8 C162,16 137.875063,44 123,84 C108.124937,124 89.1875851,164 69,195 C48.8124149,226 9.50003584,250 1,299 C-7.50003584,348 47.9984947,307 47.9984947,307 L292.374525,299 C292.374525,299 326.374668,266 331.687191,253 C336.999713,240 350.812272,200 355.062289,195 C359.312307,190 375.249875,141 375.249875,137 C375.249875,133 385.874919,107 385.874919,102 C385.874919,97 405,68 405,68 L379.499892,52 L395.43746,33 L393.312451,8 Z" id="Mask"></path>
                    </g>
                    <g id="Group-36" transform="translate(271.000000, 10.000000)">
                        <g id="Group-35" transform="translate(126.125604, 0.000000)">
                            <path d="M24.132363,4.59237312 C37.6476161,-3.29492162 67.4356368,1.62181438 75.5447886,11.4809328 C83.6539404,21.3400512 93.3817526,36.5040305 89.1848199,51.6641976 C84.9878872,66.8243647 71.3478559,72.3298766 44.0677933,72.3298766 C16.7877308,72.3298766 1.5693245e-15,61.9970371 0,42.4794514 C0,22.9618656 10.61711,12.4796679 24.132363,4.59237312 Z" id="Path-21" fill="#C2C2C2"></path>
                            <rect id="Rectangle-10" fill="#AEAEAE" transform="translate(71.754662, 41.888275) rotate(-26.000000) translate(-71.754662, -41.888275) " x="69.1315791" y="36.2817004" width="5.24616587" height="11.2131492" rx="2.62308294"></rect>
                            <rect id="Rectangle-10" fill="#AEAEAE" transform="translate(60.724426, 53.826492) rotate(-26.000000) translate(-60.724426, -53.826492) " x="58.4370972" y="48.8093249" width="4.57465678" height="10.034335" rx="2.28732839"></rect>
                            <rect id="Rectangle-10" fill="#AEAEAE" transform="translate(42.876060, 48.976336) rotate(23.000000) translate(-42.876060, -48.976336) " x="40.2529774" y="44.3839627" width="5.24616587" height="9.18474624" rx="2.62308294"></rect>
                        </g>
                        <g id="Group-35" transform="translate(125.797101, 67.500000) scale(-1, 1) translate(-125.797101, -67.500000) translate(86.797101, 35.000000)" fill="#7C7C7C">
                            <path d="M22.2869857,5.14345789 C35.8152529,-2.7087822 56.3979981,0.471615674 64.5149585,10.2869158 C72.6319188,20.1022159 80.5686807,29.912468 76.3677067,45.0052566 C72.1667326,60.0980452 66.0532926,64.2932237 38.7469613,64.2932237 C11.4406301,64.2932237 5.86499623,56.5780368 1.17299925,42.4335276 C-3.51899774,28.2890184 8.75871842,12.995698 22.2869857,5.14345789 Z" id="Path-21"></path>
                        </g>
                        <g id="Group-35" transform="translate(96.428473, 58.481647)">
                            <path d="M27.6523711,6.42932237 C44.4374434,-3.38597775 69.975294,0.589519592 80.0463374,12.8586447 C90.1173808,25.1277699 99.9648446,37.390585 94.7525249,56.2565707 C89.5402053,75.1225565 81.9550112,80.3665296 48.0749335,80.3665296 C14.1948558,80.3665296 7.27693976,70.722546 1.45538795,53.0419095 C-4.36616386,35.361273 10.8672988,16.2446225 27.6523711,6.42932237 Z" id="Path-21" fill="#A5A5A5"></path>
                            <rect id="Rectangle-10" fill="#CECECE" transform="translate(40.626731, 64.104694) rotate(-26.000000) translate(-40.626731, -64.104694) " x="37.3690311" y="57.1276231" width="6.51539955" height="13.9541413" rx="3.25769978"></rect>
                            <rect id="Rectangle-10" fill="#CECECE" transform="translate(70.523951, 48.777589) rotate(-26.000000) translate(-70.523951, -48.777589) " x="67.6832365" y="42.5340026" width="5.68142858" height="12.4871724" rx="2.84071429"></rect>
                            <rect id="Rectangle-10" fill="#CECECE" transform="translate(48.682288, 42.027689) rotate(23.000000) translate(-48.682288, -42.027689) " x="45.4245886" y="36.312736" width="6.51539955" height="11.4299064" rx="3.25769978"></rect>
                        </g>
                        <g id="Group-35" transform="translate(123.831707, 146.130887) scale(-1, 1) translate(-123.831707, -146.130887) translate(82.831707, 113.130887)">
                            <path d="M21.7969731,4.16715339 C34.0042984,-2.98983628 60.9096074,1.47164638 68.2340026,10.4178835 C75.5583978,19.3641205 84.3448088,33.1240276 80.5540308,46.8804756 C76.7632529,60.6369235 64.4432247,65.6326658 39.8031682,65.6326658 C15.1631117,65.6326658 1.41745439e-15,56.2565707 0,38.5461688 C0,20.8357669 9.58964774,11.3241431 21.7969731,4.16715339 Z" id="Path-21" fill="#C2C2C2"></path>
                            <rect id="Rectangle-10" fill="#AEAEAE" transform="translate(64.810662, 38.009731) rotate(-26.000000) translate(-64.810662, -38.009731) " x="62.4414263" y="32.9222837" width="4.7384724" height="10.1748947" rx="2.3692362"></rect>
                            <rect id="Rectangle-10" fill="#AEAEAE" transform="translate(54.847868, 48.842558) rotate(-26.000000) translate(-54.847868, -48.842558) " x="52.7818942" y="44.2899429" width="4.13194806" height="9.10522991" rx="2.06597403"></rect>
                            <rect id="Rectangle-10" fill="#AEAEAE" transform="translate(38.726764, 44.441490) rotate(23.000000) translate(-38.726764, -44.441490) " x="36.3575279" y="40.2743365" width="4.7384724" height="8.33430677" rx="2.3692362"></rect>
                        </g>
                        <g id="Group-35" transform="translate(96.634723, 174.348176) scale(-1, 1) translate(-96.634723, -174.348176) translate(54.634723, 138.848176)">
                            <path d="M23.9378735,5.65780368 C38.4682346,-2.97966042 60.5756276,0.518777241 69.2938443,11.3156074 C78.012061,22.1124375 86.5367311,32.9037148 82.0245738,49.5057822 C77.5124165,66.1078497 70.9461291,70.722546 41.6171066,70.722546 C12.2880841,70.722546 6.29944039,62.2358405 1.25988808,46.6768804 C-3.77966423,31.1179203 9.40751238,14.2952678 23.9378735,5.65780368 Z" id="Path-21" fill="#A5A5A5"></path>
                            <rect id="Rectangle-10" fill="#CECECE" transform="translate(35.169409, 56.412130) rotate(-26.000000) translate(-35.169409, -56.412130) " x="32.3493105" y="50.2723083" width="5.64019663" height="12.2796443" rx="2.82009831"></rect>
                            <rect id="Rectangle-10" fill="#CECECE" transform="translate(61.050584, 42.924278) rotate(-26.000000) translate(-61.050584, -42.924278) " x="58.5914584" y="37.4299223" width="4.91825161" height="10.9887118" rx="2.45912581"></rect>
                            <rect id="Rectangle-10" fill="#CECECE" transform="translate(42.142876, 36.984366) rotate(23.000000) translate(-42.142876, -36.984366) " x="39.3227782" y="31.9552077" width="5.64019663" height="10.0583177" rx="2.82009831"></rect>
                        </g>
                        <g id="Group-35" transform="translate(73.082126, 173.887640)">
                            <path d="M23.7431314,4.56768294 C37.0403964,-3.27720698 66.3479652,1.61309495 74.3263243,11.4192074 C82.3046833,21.2253198 91.8755953,36.3077722 87.746355,51.3864331 C83.6171148,66.4650939 70.197084,71.9410063 43.3570225,71.9410063 C16.5169609,71.9410063 1.54401282e-15,61.6637197 0,42.2510672 C0,22.8384147 10.4458663,12.4125729 23.7431314,4.56768294 Z" id="Path-21" fill="#7C7C7C"></path>
                            <rect id="Rectangle-10" fill="#AEAEAE" transform="translate(70.597329, 41.663069) rotate(-26.000000) translate(-70.597329, -41.663069) " x="68.0165536" y="36.0866375" width="5.1615503" height="11.1528635" rx="2.58077515"></rect>
                            <rect id="Rectangle-10" fill="#AEAEAE" transform="translate(59.744999, 53.537103) rotate(-26.000000) translate(-59.744999, -53.537103) " x="57.4945633" y="48.5469092" width="4.500872" height="9.98038697" rx="2.250436"></rect>
                            <rect id="Rectangle-10" fill="#AEAEAE" transform="translate(42.184511, 48.713022) rotate(23.000000) translate(-42.184511, -48.713022) " x="39.6037358" y="44.1453393" width="5.1615503" height="9.13536588" rx="2.58077515"></rect>
                        </g>
                        <g id="Group-35" transform="translate(66.698068, 264.374388) scale(-1, 1) translate(-66.698068, -264.374388) translate(0.198068, 211.374388)">
                            <path d="M35.4979275,5.77162425 C55.3784288,-5.85848396 99.1956464,1.39142537 111.123947,15.9290606 C123.052248,30.4666959 137.361546,52.8265449 131.187993,75.1807728 C125.01444,97.5350008 104.950394,105.653082 64.8223025,105.653082 C24.6942105,105.653082 1.44416973e-13,90.4169274 1.42108547e-13,61.6375243 C1.42108547e-13,32.8581213 15.6174263,17.4017325 35.4979275,5.77162425 Z" id="Path-21" fill="#C2C2C2"></path>
                            <rect id="Rectangle-10" fill="#AEAEAE" transform="translate(105.548793, 60.765813) rotate(-26.000000) translate(-105.548793, -60.765813) " x="101.690323" y="52.498711" width="7.71694077" height="16.5342039" rx="3.85847039"></rect>
                            <rect id="Rectangle-10" fill="#AEAEAE" transform="translate(89.323671, 78.369157) rotate(-26.000000) translate(-89.323671, -78.369157) " x="85.9590848" y="70.9711573" width="6.72917256" height="14.7959986" rx="3.36458628"></rect>
                            <rect id="Rectangle-10" fill="#AEAEAE" transform="translate(63.069302, 71.217421) rotate(23.000000) translate(-63.069302, -71.217421) " x="59.2108312" y="64.4457969" width="7.71694077" height="13.5432485" rx="3.85847039"></rect>
                        </g>
                    </g>
                </g>
            </g>
        </g>
    </g>
</svg>