<?xml version="1.0" encoding="UTF-8"?>
<svg width="304px" height="654px" viewBox="0 0 304 654" version="1.1" xmlns="http://www.w3.org/2000/svg" xmlns:xlink="http://www.w3.org/1999/xlink">
    <!-- Generator: Sketch 41.2 (35397) - http://www.bohemiancoding.com/sketch -->
    <title>shockwave</title>
    <desc>Created with Sketch.</desc>
    <defs>
        <rect id="path-1" x="0" y="0" width="328" height="654"></rect>
        <linearGradient x1="3.061617e-15%" y1="50%" x2="56.7576472%" y2="50%" id="linearGradient-3">
            <stop stop-color="#F4F4F4" offset="0%"></stop>
            <stop stop-color="#FFFFFF" stop-opacity="0" offset="100%"></stop>
        </linearGradient>
    </defs>
    <g id="Page-1" stroke="none" stroke-width="1" fill="none" fill-rule="evenodd">
        <g id="Desktop-HD" transform="translate(-920.000000, -8348.000000)">
            <g id="shockwave" transform="translate(896.000000, 8348.000000)">
                <mask id="mask-2" fill="white">
                    <use xlink:href="#path-1"></use>
                </mask>
                <g id="Mask"></g>
                <g id="Group-52" mask="url(#mask-2)">
                    <g transform="translate(24.000000, -41.000000)">
                        <path d="M267.103944,717 C119.589887,717 1.00127709,474 0.00611602238,358.5 C-0.989045045,243 119.589887,0 267.103944,0 C268.070504,0 269.035864,0.00689098963 270,0.0206383627 L606,0 L606,717 L270,717 C269.035864,716.993109 268.070504,717 267.103944,717 Z" id="Combined-Shape" fill="#F5A623"></path>
                        <path d="M267.103944,717 C414.618001,717 534.201772,556.494083 534.201772,358.5 C534.201772,160.505917 414.618001,0 267.103944,0 C119.589887,0 -0.989045045,243 0.00611602238,358.5 C1.00127709,474 119.589887,717 267.103944,717 Z" id="Oval-23" fill="url(#linearGradient-3)"></path>
                    </g>
                </g>
            </g>
        </g>
    </g>
</svg>