<?xml version="1.0" encoding="UTF-8"?>
<svg width="528px" height="380px" viewBox="0 0 528 380" version="1.1" xmlns="http://www.w3.org/2000/svg" xmlns:xlink="http://www.w3.org/1999/xlink">
    <!-- Generator: Sketch 41.2 (35397) - http://www.bohemiancoding.com/sketch -->
    <title>star01</title>
    <desc>Created with Sketch.</desc>
    <defs>
        <rect id="path-1" x="0" y="0" width="528" height="380"></rect>
    </defs>
    <g id="Page-1" stroke="none" stroke-width="1" fill="none" fill-rule="evenodd">
        <g id="star01">
            <g id="Page-1">
                <g id="Desktop-HD">
                    <g id="star01">
                        <g id="Group-19-Clipped">
                            <mask id="mask-2" fill="white">
                                <use xlink:href="#path-1"></use>
                            </mask>
                            <g id="path-1"></g>
                            <g id="Group-19" opacity="0.295742753" mask="url(#mask-2)">
                                <g transform="translate(106.000000, 78.000000)" id="Page-1">
                                    <g>
                                        <polygon id="Shape" fill="#FEFEFE" points="19.5973912 75 13.54839 87.2668832 0 89.241072 9.79869562 98.7932198 7.484036 112.281102 19.5973912 105.913304 31.7107465 112.281102 29.3960869 98.7932198 39.1974918 89.241072 25.6491018 87.2668832"></polygon>
                                        <polygon id="Shape" fill="#FEFEFE" points="255.597391 0 249.54839 12.2668832 236 14.241072 245.798696 23.7932198 243.484036 37.2811017 255.597391 30.9133042 267.710746 37.2811017 265.396087 23.7932198 275.197492 14.241072 261.649102 12.2668832"></polygon>
                                        <polygon id="Shape" fill="#FEFEFE" points="288.597391 173 282.54839 185.266883 269 187.241072 278.798696 196.79322 276.484036 210.281102 288.597391 203.913304 300.710746 210.281102 298.396087 196.79322 308.197492 187.241072 294.649102 185.266883"></polygon>
                                    </g>
                                </g>
                            </g>
                        </g>
                    </g>
                </g>
            </g>
        </g>
    </g>
</svg>