<?xml version="1.0" encoding="UTF-8"?>
<svg width="208px" height="291px" viewBox="0 0 208 291" version="1.1" xmlns="http://www.w3.org/2000/svg" xmlns:xlink="http://www.w3.org/1999/xlink">
    <!-- Generator: Sketch 41.2 (35397) - http://www.bohemiancoding.com/sketch -->
    <title>stop</title>
    <desc>Created with Sketch.</desc>
    <defs></defs>
    <g id="Page-1" stroke="none" stroke-width="1" fill="none" fill-rule="evenodd">
        <g id="Desktop-HD" transform="translate(-154.000000, -9735.000000)" fill="#F1901F">
            <g id="stop" transform="translate(154.000000, 9735.000000)">
                <path d="M43.4015986,127.817051 C43.4149876,127.489198 43.4217504,127.159547 43.4217504,126.828242 C43.4217504,114.267851 33.7014605,104.085642 21.7108752,104.085642 C9.72028993,104.085642 0,114.267851 0,126.828242 C0,127.159547 0.00676284631,127.489198 0.0201518191,127.817051 L0,127.817051 L0,203.040302 L43.4217504,203.040302 L43.4217504,127.817051 L43.4015986,127.817051 Z" id="Combined-Shape"></path>
                <path d="M132.580149,290.468297 L169.114265,290.468297 L207.771471,243.664686 L207.771471,209.678785 L207.783044,209.678785 L207.783044,72.2219867 L207.742934,72.2219867 C207.144773,62.8023898 199.930882,55.3630447 191.119695,55.3630447 C182.308509,55.3630447 175.094618,62.8023898 174.496457,72.2219867 L174.456347,72.2219867 L174.456347,138.19176 L165.890077,138.19176 L165.890077,31.9071253 L165.849967,31.9071253 C165.251806,22.4875284 158.037916,15.0481832 149.226729,15.0481832 C140.415542,15.0481832 133.201651,22.4875284 132.60349,31.9071253 L132.56338,31.9071253 L132.56338,138.19176 L124.507042,138.19176 L124.507042,17.0138121 L124.450732,17.0138121 C123.749307,7.70500268 116.581989,0.388233599 107.843694,0.388233599 C99.1053982,0.388233599 91.9380807,7.70500268 91.2366556,17.0138121 L91.1803452,17.0138121 L91.1803452,138.19176 L83.1295139,138.19176 L83.1295139,39.2371001 L83.089404,39.2371001 C82.4912427,29.8175032 75.2773522,22.378158 66.4661654,22.378158 C57.6549786,22.378158 50.4410881,29.8175032 49.8429268,39.2371001 L49.8028169,39.2371001 L49.8028169,138.19176 L49.5742878,138.19176 L49.5742878,180.18751 C56.2916302,180.360547 62.9590778,181.248822 69.4632206,182.984092 C79.8193572,185.747053 89.228454,190.586856 97.4380544,197.75334 C107.961921,206.940037 115.974985,218.789438 121.780094,232.644088 C126.598709,244.14434 129.661296,256.423849 131.322191,268.767909 C131.921218,273.219978 132.298772,277.415688 132.497497,281.265907 C132.628319,283.800545 132.664929,285.809002 132.649488,287.201869 C132.648544,287.287056 132.594559,289.798639 132.580149,290.468297 Z" id="Combined-Shape"></path>
                <path d="M0,193.363752 C0,193.363752 52.8612614,172.44354 89.3607038,203.251838 C125.860146,234.060137 124.601545,290.267003 124.601545,290.267003 L83.6969972,290.267003 L0,229.62007 L0,193.363752 Z" id="Rectangle-18"></path>
            </g>
        </g>
    </g>
</svg>