<?xml version="1.0" encoding="UTF-8"?>
<svg width="207px" height="269px" viewBox="0 0 207 269" version="1.1" xmlns="http://www.w3.org/2000/svg" xmlns:xlink="http://www.w3.org/1999/xlink">
    <!-- Generator: Sketch 41.2 (35397) - http://www.bohemiancoding.com/sketch -->
    <title>surprised-people02</title>
    <desc>Created with Sketch.</desc>
    <defs>
        <path d="M37.426508,0.00518304735 C46.3716278,0.367680935 57.0695396,2.11745195 63.0165068,11.6742079 C70.6630178,23.9621248 60.5880794,58.6588716 57.7346771,66.5810427 L57.7346771,74.0630128 L68.4289344,104.623629 L0.942161929,104.623629 L10.0915214,74.0630128 L10.0915214,66.5810427 C7.23811917,58.6588716 -2.83681924,23.9621248 4.80969171,11.6742079 C10.7566589,2.11745195 21.4545707,0.367680935 30.3709865,0.061974719 C31.4970316,0.00518304735 32.675371,-0.00312804118 33.9130993,0.0012984329 C35.1508275,-0.00312804118 36.3291669,0.00518304735 37.426508,0.00518304735 Z" id="path-1"></path>
        <path d="M38.276473,95.826087 C71,95.826087 74.4709543,74.3746867 76.4037409,47.9130435 C78.3365276,21.4514002 61.2663683,0 38.276473,0 C15.2865778,0 -1.7835815,21.4514002 0.149205136,47.9130435 C2.08199177,74.3746867 5.55294606,95.826087 38.276473,95.826087 Z" id="path-3"></path>
    </defs>
    <g id="Page-1" stroke="none" stroke-width="1" fill="none" fill-rule="evenodd">
        <g id="Desktop-HD" transform="translate(-296.000000, -2303.000000)">
            <g id="surprised-people02" transform="translate(288.000000, 2303.000000)">
                <g id="Group-25" transform="translate(54.000000, 185.000000)">
                    <g id="Group-18" transform="translate(25.500000, 43.000000) rotate(10.000000) translate(-25.500000, -43.000000) translate(7.000000, 3.000000)">
                        <path d="M27.9903616,-1.13242749e-13 C39.3787408,29 34.2252361,78.7829838 34.2252361,78.7829838" id="Path-6" stroke="#FFD9B0" stroke-width="14" transform="translate(31.689370, 39.391492) scale(-1, 1) translate(-31.689370, -39.391492) "></path>
                        <path d="M2.3625546e-13,78.3417863 C2.3625546e-13,69.8687517 8.19509408,63 18.3042549,63 C28.4134158,63 36.0964192,69.8718658 36.6085099,78.3417863 C18.2985924,81.9240039 2.3625546e-13,78.3417863 2.3625546e-13,78.3417863 Z" id="Combined-Shape" fill="#FFD9B0"></path>
                    </g>
                    <g id="Group-18" transform="translate(93.164871, 42.604801) scale(-1, 1) rotate(10.000000) translate(-93.164871, -42.604801) translate(74.664871, 2.604801)">
                        <path d="M27.9903616,-1.52766688e-13 C39.3787408,29 34.2252361,78.7829838 34.2252361,78.7829838" id="Path-6" stroke="#FFD9B0" stroke-width="14" transform="translate(31.689370, 39.391492) scale(-1, 1) translate(-31.689370, -39.391492) "></path>
                        <path d="M-2.84217094e-13,78.3417863 C-2.84217094e-13,69.8687517 8.19509408,63 18.3042549,63 C28.4134158,63 36.0964192,69.8718658 36.6085099,78.3417863 C18.2985924,81.9240039 -2.84217094e-13,78.3417863 -2.84217094e-13,78.3417863 Z" id="Combined-Shape" fill="#FFD9B0"></path>
                    </g>
                </g>
                <g id="Group-24" transform="translate(0.000000, 42.000000)">
                    <g id="Group-23" transform="translate(43.375525, 47.625534) rotate(-9.000000) translate(-43.375525, -47.625534) translate(6.875525, 6.125534)">
                        <path d="M41.2023135,87.3316946 C42.4602921,70.3488359 50.7976865,8.66830535 50.7976865,8.66830535" id="Path-6" stroke="#FFD9B0" stroke-width="14" transform="translate(46.000000, 48.000000) scale(-1, 1) rotate(216.000000) translate(-46.000000, -48.000000) "></path>
                        <ellipse id="Oval-3" fill="#FFD9B0" transform="translate(17.554796, 17.186376) scale(-1, 1) rotate(220.000000) translate(-17.554796, -17.186376) " cx="17.5547956" cy="17.1863764" rx="13.8242962" ry="10.8352592"></ellipse>
                    </g>
                    <g id="Group-23" transform="translate(179.542655, 47.698924) scale(-1, 1) rotate(-9.000000) translate(-179.542655, -47.698924) translate(143.042655, 6.198924)">
                        <path d="M41.2023135,87.3316946 C42.4602921,70.3488359 50.7976865,8.66830535 50.7976865,8.66830535" id="Path-6" stroke="#FFD9B0" stroke-width="14" transform="translate(46.000000, 48.000000) scale(-1, 1) rotate(216.000000) translate(-46.000000, -48.000000) "></path>
                        <ellipse id="Oval-3" fill="#FFD9B0" transform="translate(17.554796, 17.186376) scale(-1, 1) rotate(220.000000) translate(-17.554796, -17.186376) " cx="17.5547956" cy="17.1863764" rx="13.8242962" ry="10.8352592"></ellipse>
                    </g>
                </g>
                <path d="M63.9954654,67.0013737 C58.6421687,64.1389503 55,58.4948122 55,52 C55,45.8177781 58.300016,40.4063162 63.2346218,37.4310406 C61.812723,34.9462135 61,32.0680176 61,29 C61,19.6111593 68.6111593,12 78,12 C78.8772359,12 79.7389529,12.0664446 80.5803927,12.1945756 C83.6214163,5.02719872 90.7236255,0 99,0 C103.963089,0 108.503945,1.80779839 112,4.80082862 C115.496055,1.80779839 120.036911,0 125,0 C133.276374,0 140.378584,5.02719872 143.419607,12.1945756 C144.261047,12.0664446 145.122764,12 146,12 C155.388841,12 163,19.6111593 163,29 C163,32.0680176 162.187277,34.9462135 160.765378,37.4310406 C165.699984,40.4063162 169,45.8177781 169,52 C169,58.4948122 165.357831,64.1389503 160.004535,67.0013737 C161.278037,69.3853456 162,72.1083611 162,75 C162,84.3888407 154.388841,92 145,92 C135.611159,92 128,84.3888407 128,75 C128,68.5051868 131.64217,62.8610479 136.995468,59.998625 C135.721963,57.6146544 135,54.8916389 135,52 C135,48.9319824 135.812723,46.0537865 137.234622,43.5689594 C135.18544,42.333424 133.418139,40.6777753 132.051982,38.7212772 C129.858863,39.547797 127.48224,40 125,40 C120.036911,40 115.496055,38.1922016 112,35.1991714 C108.503945,38.1922016 103.963089,40 99,40 C96.5177596,40 94.1411369,39.547797 91.9480181,38.7212772 C90.5818612,40.6777753 88.8145599,42.333424 86.7653782,43.5689594 C88.187277,46.0537865 89,48.9319824 89,52 C89,54.8916389 88.2780369,57.6146544 87.004532,59.998625 C92.3578301,62.8610479 96,68.5051868 96,75 C96,84.3888407 88.3888407,92 79,92 C69.6111593,92 62,84.3888407 62,75 C62,72.1083611 62.7219631,69.3853456 63.995468,67.001375 Z" id="Combined-Shape" fill="#755D49"></path>
                <g id="body" transform="translate(73.000000, 12.000000)">
                    <g id="Path-5" transform="translate(6.000000, 90.000000)">
                        <mask id="mask-2" fill="white">
                            <use xlink:href="#path-1"></use>
                        </mask>
                        <use id="Mask" fill="#FFF5E2" xlink:href="#path-1"></use>
                        <path d="M19.3607685,-5.52334722 C19.3607685,-5.52334722 26.3438122,23.4331774 35.2198896,37.4212377 C44.095967,51.4092979 60.6749043,61.4469062 66.9852923,65.1868597 C73.2956803,68.9268131 87.9418699,30.506505 87.9418699,29.2781162 C87.9418699,28.0497275 77.1959253,-2.76091437 76.0508385,-4.14213079 C74.9057517,-5.52334722 60.9818604,-11.1654769 58.7967634,-11.1654769 C56.6116664,-11.1654769 19.3607685,-5.52334722 19.3607685,-5.52334722 Z" fill="#FFD9B0" mask="url(#mask-2)"></path>
                        <polygon id="Rectangle-3" fill="#607547" mask="url(#mask-2)" points="2 66.3841808 66 66.3841808 66 74.3502825 38.2451158 74.3502825 2 74.3502825"></polygon>
                        <ellipse id="Oval-4" fill="#FFB490" mask="url(#mask-2)" cx="33.2928273" cy="-19.1503211" rx="20.3584918" ry="30.8857143"></ellipse>
                    </g>
                    <mask id="mask-4" fill="white">
                        <use xlink:href="#path-3"></use>
                    </mask>
                    <use id="Oval-5" fill="#FFD6B5" transform="translate(38.276473, 47.913043) scale(-1, 1) translate(-38.276473, -47.913043) " xlink:href="#path-3"></use>
                </g>
                <g id="Group-8" transform="translate(111.000000, 69.500000) scale(-1, 1) translate(-111.000000, -69.500000) translate(89.000000, 64.000000)" fill="#A6774E">
                    <ellipse id="Oval" cx="4.42105263" cy="5.04347826" rx="4.42105263" ry="5.04347826"></ellipse>
                    <ellipse id="Oval" cx="39.5789474" cy="5.04347826" rx="4.42105263" ry="5.04347826"></ellipse>
                </g>
                <ellipse id="Oval-6" fill="#FFB490" transform="translate(111.052632, 79.521739) scale(-1, 1) translate(-111.052632, -79.521739) " cx="111.052632" cy="79.5217391" rx="5.05263158" ry="2.52173913"></ellipse>
                <path d="M81.0115711,33.8576237 C81.3495766,24.4902254 89.0500704,17 98.5,17 C103.659266,17 108.297078,19.2326139 111.5,22.7844076 C114.702919,19.2326155 119.340732,17 124.5,17 C133.94993,17 141.650423,24.4902254 141.988429,33.8576237 C143.555592,33.3022568 145.242498,33 147,33 C155.284271,33 162,39.7157288 162,48 C162,56.2842712 155.284271,63 147,63 C139.475652,63 133.245278,57.4598409 132.165557,50.2362019 C129.850605,51.3659909 127.249343,52 124.5,52 C119.340732,52 114.702919,49.7673845 111.499996,46.2155884 C108.297078,49.7673861 103.659266,52 98.5,52 C95.7506573,52 93.1493953,51.3659909 90.8344434,50.2362019 C89.7547219,57.4598409 83.5243477,63 76,63 C67.7157288,63 61,56.2842712 61,48 C61,39.7157288 67.7157288,33 76,33 C77.7575018,33 79.4444077,33.3022568 81.0115711,33.8576237 Z" id="Combined-Shape" fill="#755D49"></path>
                <polygon id="Path-10" fill="#765C4C" points="72 42 77 26 87 14 105 9 127 12 146 24 151 41 152 44 128 40 99 36"></polygon>
                <g id="Group-21" transform="translate(84.000000, 55.000000)">
                    <circle id="Oval-16" fill="#FFFFFF" cx="11.5" cy="11.5" r="11.5"></circle>
                    <circle id="Oval-16" fill="#A6774E" cx="11.5" cy="11.5" r="3.5"></circle>
                </g>
                <g id="Group-21" transform="translate(116.000000, 55.000000)">
                    <circle id="Oval-16" fill="#FFFFFF" cx="11.5" cy="11.5" r="11.5"></circle>
                    <circle id="Oval-16" fill="#A6774E" cx="11.5" cy="11.5" r="3.5"></circle>
                </g>
                <ellipse id="Oval-17" fill="#EE7857" cx="102" cy="93" rx="9" ry="8"></ellipse>
            </g>
        </g>
    </g>
</svg>