<?xml version="1.0" encoding="UTF-8"?>
<svg width="207px" height="265px" viewBox="0 0 207 265" version="1.1" xmlns="http://www.w3.org/2000/svg" xmlns:xlink="http://www.w3.org/1999/xlink">
    <!-- Generator: Sketch 41.2 (35397) - http://www.bohemiancoding.com/sketch -->
    <title>surprised-people01</title>
    <desc>Created with Sketch.</desc>
    <defs>
        <path d="M38.426508,0.00518304735 C47.3716278,0.367680935 58.0695396,2.11745195 64.0165068,11.6742079 C71.6630178,23.9621248 61.5880794,58.6588716 58.7346771,66.5810427 L58.7346771,74.0630128 L68,139 L0.513227573,139 L11.0915214,74.0630128 L11.0915214,66.5810427 C8.23811917,58.6588716 -1.83681924,23.9621248 5.80969171,11.6742079 C11.7566589,2.11745195 22.4545707,0.367680935 31.3709865,0.061974719 C32.4970316,0.00518304735 33.675371,-0.00312804118 34.9130993,0.0012984329 C36.1508275,-0.00312804118 37.3291669,0.00518304735 38.426508,0.00518304735 Z" id="path-1"></path>
        <path d="M38.276473,95.826087 C71,95.826087 74.4709543,74.3746867 76.4037409,47.9130435 C78.3365276,21.4514002 61.2663683,0 38.276473,0 C15.2865778,0 -1.7835815,21.4514002 0.149205136,47.9130435 C2.08199177,74.3746867 5.55294606,95.826087 38.276473,95.826087 Z" id="path-3"></path>
        <path d="M38.426508,0.00518304735 C47.3716278,0.367680935 58.0695396,2.11745195 64.0165068,11.6742079 C71.6630178,23.9621248 61.5880794,58.6588716 58.7346771,66.5810427 L58.7346771,74.0630128 L68,139 L0.513227573,139 L11.0915214,74.0630128 L11.0915214,66.5810427 C8.23811917,58.6588716 -1.83681924,23.9621248 5.80969171,11.6742079 C11.7566589,2.11745195 22.4545707,0.367680935 31.3709865,0.061974719 C32.4970316,0.00518304735 33.675371,-0.00312804118 34.9130993,0.0012984329 C36.1508275,-0.00312804118 37.3291669,0.00518304735 38.426508,0.00518304735 Z" id="path-5"></path>
        <path d="M38.276473,95.826087 C71,95.826087 74.4709543,74.3746867 76.4037409,47.9130435 C78.3365276,21.4514002 61.2663683,0 38.276473,0 C15.2865778,0 -1.7835815,21.4514002 0.149205136,47.9130435 C2.08199177,74.3746867 5.55294606,95.826087 38.276473,95.826087 Z" id="path-7"></path>
        <path d="M38.426508,0.00518304735 C47.3716278,0.367680935 58.0695396,2.11745195 64.0165068,11.6742079 C71.6630178,23.9621248 61.5880794,58.6588716 58.7346771,66.5810427 L58.7346771,74.0630128 L68,139 L0.513227573,139 L11.0915214,74.0630128 L11.0915214,66.5810427 C8.23811917,58.6588716 -1.83681924,23.9621248 5.80969171,11.6742079 C11.7566589,2.11745195 22.4545707,0.367680935 31.3709865,0.061974719 C32.4970316,0.00518304735 33.675371,-0.00312804118 34.9130993,0.0012984329 C36.1508275,-0.00312804118 37.3291669,0.00518304735 38.426508,0.00518304735 Z" id="path-9"></path>
        <path d="M38.276473,95.826087 C71,95.826087 74.4709543,74.3746867 76.4037409,47.9130435 C78.3365276,21.4514002 61.2663683,0 38.276473,0 C15.2865778,0 -1.7835815,21.4514002 0.149205136,47.9130435 C2.08199177,74.3746867 5.55294606,95.826087 38.276473,95.826087 Z" id="path-11"></path>
    </defs>
    <g id="Page-1" stroke="none" stroke-width="1" fill="none" fill-rule="evenodd">
        <g id="Desktop-HD" transform="translate(-88.000000, -2307.000000)">
            <g id="surprised-people01" transform="translate(80.000000, 2307.000000)">
                <g id="Group-25" transform="translate(51.000000, 181.000000)">
                    <g id="Group-18" transform="translate(25.500000, 43.000000) rotate(10.000000) translate(-25.500000, -43.000000) translate(7.000000, 3.000000)">
                        <path d="M27.9903616,-1.13242749e-13 C39.3787408,29 34.2252361,78.7829838 34.2252361,78.7829838" id="Path-6" stroke="#FFD9B0" stroke-width="14" transform="translate(31.689370, 39.391492) scale(-1, 1) translate(-31.689370, -39.391492) "></path>
                        <path d="M2.3625546e-13,78.3417863 C2.3625546e-13,69.8687517 8.19509408,63 18.3042549,63 C28.4134158,63 36.0964192,69.8718658 36.6085099,78.3417863 C18.2985924,81.9240039 2.3625546e-13,78.3417863 2.3625546e-13,78.3417863 Z" id="Combined-Shape" fill="#FFD9B0"></path>
                    </g>
                    <g id="Group-18" transform="translate(93.164871, 42.604801) scale(-1, 1) rotate(10.000000) translate(-93.164871, -42.604801) translate(74.664871, 2.604801)">
                        <path d="M27.9903616,-1.13686838e-13 C39.3787408,29 34.2252361,78.7829838 34.2252361,78.7829838" id="Path-6" stroke="#FFD9B0" stroke-width="14" transform="translate(31.689370, 39.391492) scale(-1, 1) translate(-31.689370, -39.391492) "></path>
                        <path d="M-2.84217094e-13,78.3417863 C-2.84217094e-13,69.8687517 8.19509408,63 18.3042549,63 C28.4134158,63 36.0964192,69.8718658 36.6085099,78.3417863 C18.2985924,81.9240039 -2.84217094e-13,78.3417863 -2.84217094e-13,78.3417863 Z" id="Combined-Shape" fill="#FFD9B0"></path>
                    </g>
                </g>
                <g id="Group-24" transform="translate(0.000000, 38.000000)">
                    <g id="Group-23" transform="translate(43.375525, 47.625534) rotate(-9.000000) translate(-43.375525, -47.625534) translate(6.875525, 6.125534)">
                        <path d="M41.2023135,87.3316946 C42.4602921,70.3488359 50.7976865,8.66830535 50.7976865,8.66830535" id="Path-6" stroke="#FFD9B0" stroke-width="14" transform="translate(46.000000, 48.000000) scale(-1, 1) rotate(216.000000) translate(-46.000000, -48.000000) "></path>
                        <ellipse id="Oval-3" fill="#FFD9B0" transform="translate(17.554796, 17.186376) scale(-1, 1) rotate(220.000000) translate(-17.554796, -17.186376) " cx="17.5547956" cy="17.1863764" rx="13.8242962" ry="10.8352592"></ellipse>
                    </g>
                    <g id="Group-23" transform="translate(179.542655, 47.698924) scale(-1, 1) rotate(-9.000000) translate(-179.542655, -47.698924) translate(143.042655, 6.198924)">
                        <path d="M41.2023135,87.3316946 C42.4602921,70.3488359 50.7976865,8.66830535 50.7976865,8.66830535" id="Path-6" stroke="#FFD9B0" stroke-width="14" transform="translate(46.000000, 48.000000) scale(-1, 1) rotate(216.000000) translate(-46.000000, -48.000000) "></path>
                        <ellipse id="Oval-3" fill="#FFD9B0" transform="translate(17.554796, 17.186376) scale(-1, 1) rotate(220.000000) translate(-17.554796, -17.186376) " cx="17.5547956" cy="17.1863764" rx="13.8242962" ry="10.8352592"></ellipse>
                    </g>
                </g>
                <path d="M66.2231222,24.9165068 C67.9855367,10.8679367 79.973597,0 94.5,0 C110.240115,0 123,12.7598846 123,28.5 C123,44.2401154 110.240115,57 94.5,57 C93.5234046,57 92.5582819,56.9508798 91.6069676,56.8549752 C87.7655575,61.8103591 81.755269,65 75,65 C63.4020203,65 54,55.5979797 54,44 C54,35.5352765 59.0082044,28.2402818 66.2231222,24.9165068 Z" id="Combined-Shape" fill="#E2B565"></path>
                <path d="M107.223122,24.9165068 C108.985537,10.8679367 120.973597,0 135.5,0 C151.240115,0 164,12.7598846 164,28.5 C164,44.2401154 151.240115,57 135.5,57 C134.523405,57 133.558282,56.9508798 132.606968,56.8549752 C128.765558,61.8103591 122.755269,65 116,65 C104.40202,65 95,55.5979797 95,44 C95,35.5352765 100.008204,28.2402818 107.223122,24.9165068 Z" id="Combined-Shape" fill="#E2B565" transform="translate(129.500000, 32.500000) scale(-1, 1) translate(-129.500000, -32.500000) "></path>
                <g id="body" transform="translate(71.000000, 8.000000)">
                    <g id="Path-5" transform="translate(5.000000, 90.000000)">
                        <mask id="mask-2" fill="white">
                            <use xlink:href="#path-1"></use>
                        </mask>
                        <use id="Mask" fill="#FFF5E2" xlink:href="#path-1"></use>
                        <ellipse id="Oval-14" fill="#FFD9B0" mask="url(#mask-2)" cx="35" cy="-9" rx="32" ry="25"></ellipse>
                        <polygon id="Rectangle-3" fill="#7484C6" mask="url(#mask-2)" points="3 66.3841808 67 66.3841808 67 74.3502825 39.2451158 74.3502825 3 74.3502825"></polygon>
                        <ellipse id="Oval-4" fill="#FFB490" mask="url(#mask-2)" cx="34.2928273" cy="-19.1503211" rx="20.3584918" ry="30.8857143"></ellipse>
                    </g>
                    <mask id="mask-4" fill="white">
                        <use xlink:href="#path-3"></use>
                    </mask>
                    <use id="Oval-5" fill="#FFD6B5" transform="translate(38.276473, 47.913043) scale(-1, 1) translate(-38.276473, -47.913043) " xlink:href="#path-3"></use>
                </g>
                <g id="body" transform="translate(71.000000, 8.000000)">
                    <g id="Path-5" transform="translate(5.000000, 90.000000)">
                        <mask id="mask-6" fill="white">
                            <use xlink:href="#path-5"></use>
                        </mask>
                        <use id="Mask" fill="#FFF5E2" xlink:href="#path-5"></use>
                        <ellipse id="Oval-14" fill="#FFD9B0" mask="url(#mask-6)" cx="35" cy="-9" rx="32" ry="25"></ellipse>
                        <polygon id="Rectangle-3" fill="#7484C6" mask="url(#mask-6)" points="3 66.3841808 67 66.3841808 67 74.3502825 39.2451158 74.3502825 3 74.3502825"></polygon>
                        <ellipse id="Oval-4" fill="#FFB490" mask="url(#mask-6)" cx="34.2928273" cy="-19.1503211" rx="20.3584918" ry="30.8857143"></ellipse>
                    </g>
                    <mask id="mask-8" fill="white">
                        <use xlink:href="#path-7"></use>
                    </mask>
                    <use id="Oval-5" fill="#FFD6B5" transform="translate(38.276473, 47.913043) scale(-1, 1) translate(-38.276473, -47.913043) " xlink:href="#path-7"></use>
                </g>
                <g id="body" transform="translate(71.000000, 8.000000)">
                    <g id="Path-5" transform="translate(5.000000, 90.000000)">
                        <mask id="mask-10" fill="white">
                            <use xlink:href="#path-9"></use>
                        </mask>
                        <use id="Mask" fill="#FFF5E2" xlink:href="#path-9"></use>
                        <ellipse id="Oval-14" fill="#FFD9B0" mask="url(#mask-10)" cx="35" cy="-9" rx="32" ry="25"></ellipse>
                        <polygon id="Rectangle-3" fill="#AB7749" mask="url(#mask-10)" points="3 66.3841808 67 66.3841808 67 74.3502825 39.2451158 74.3502825 3 74.3502825"></polygon>
                        <ellipse id="Oval-4" fill="#FFB490" mask="url(#mask-10)" cx="34.2928273" cy="-19.1503211" rx="20.3584918" ry="30.8857143"></ellipse>
                    </g>
                    <mask id="mask-12" fill="white">
                        <use xlink:href="#path-11"></use>
                    </mask>
                    <use id="Oval-5" fill="#FFD6B5" transform="translate(38.276473, 47.913043) scale(-1, 1) translate(-38.276473, -47.913043) " xlink:href="#path-11"></use>
                </g>
                <g id="Group-8" transform="translate(88.000000, 60.000000)" fill="#3C7E6A">
                    <ellipse id="Oval" cx="4.42105263" cy="5.04347826" rx="4.42105263" ry="5.04347826"></ellipse>
                    <ellipse id="Oval" cx="39.5789474" cy="5.04347826" rx="4.42105263" ry="5.04347826"></ellipse>
                </g>
                <ellipse id="Oval-6" fill="#FFB490" cx="109.947368" cy="75.5217391" rx="5.05263158" ry="2.52173913"></ellipse>
                <path d="M70,56 L108.5,36 L150,56 L150,25 C150,25 117.632441,4.75317728 108.5,5 C99.3675593,5.24682272 75,22 75,22 L67,47 L70,56 Z" id="Path-15" fill="#E2B665"></path>
                <g id="Group-21" transform="translate(82.000000, 51.000000)">
                    <circle id="Oval-16" fill="#FFFFFF" cx="11.5" cy="11.5" r="11.5"></circle>
                    <circle id="Oval-16" fill="#3C7E6A" cx="11.5" cy="11.5" r="3.5"></circle>
                </g>
                <g id="Group-21" transform="translate(114.000000, 51.000000)">
                    <circle id="Oval-16" fill="#FFFFFF" cx="11.5" cy="11.5" r="11.5"></circle>
                    <circle id="Oval-16" fill="#3C7E6A" cx="11.5" cy="11.5" r="3.5"></circle>
                </g>
                <ellipse id="Oval-17" fill="#EE7857" cx="101" cy="89" rx="9" ry="8"></ellipse>
            </g>
        </g>
    </g>
</svg>