<?xml version="1.0" encoding="UTF-8"?>
<svg width="87px" height="81px" viewBox="0 0 87 81" version="1.1" xmlns="http://www.w3.org/2000/svg" xmlns:xlink="http://www.w3.org/1999/xlink">
    <!-- Generator: Sketch 41.2 (35397) - http://www.bohemiancoding.com/sketch -->
    <title>text07-01</title>
    <desc>Created with Sketch.</desc>
    <defs></defs>
    <g id="Page-1" stroke="none" stroke-width="1" fill="none" fill-rule="evenodd">
        <g id="Desktop-HD" transform="translate(-676.000000, -3494.000000)" fill="#FFFFFF">
            <g id="text07" transform="translate(676.000000, 3494.000000)">
                <path d="M32.4835749,80.654 C42.8965749,77.539 51.1735749,72.466 57.4035749,65.168 C62.9215749,72.466 70.6645749,77.539 80.8105749,80.654 L86.0615749,69.173 C75.1145749,66.414 68.0835749,62.765 65.2355749,58.137 L80.7215749,58.137 L80.7215749,29.924 L63.3665749,29.924 L63.3665749,26.453 L71.8215749,26.453 L71.8215749,23.338 C75.2035749,25.83 78.5855749,28.144 82.1455749,30.102 L86.0615749,18.621 C77.2505749,13.459 69.5965749,7.318 63.0995749,0.198 L50.1945749,0.198 C44.8545749,6.072 39.3365749,10.878 33.6405749,14.616 L24.3845749,14.616 L24.3845749,1.088 L12.1915749,1.088 L12.1915749,14.616 L2.93557487,14.616 L2.93557487,25.919 L11.3905749,25.919 C9.61057487,34.819 6.13957487,43.274 0.888574871,51.373 L6.22857487,64.99 C8.54257487,61.43 10.5895749,57.069 12.1915749,51.818 L12.1915749,80.832 L24.3845749,80.832 L24.3845749,44.876 L26.5205749,50.038 L28.3005749,54.666 L32.5725749,51.462 L32.5725749,58.137 L47.8805749,58.137 C44.8545749,62.765 37.9125749,66.503 27.2325749,69.173 L32.4835749,80.654 Z M31.1485749,30.102 C34.4415749,28.233 37.8235749,25.919 41.2945749,23.338 L41.2945749,26.453 L49.9275749,26.453 L49.9275749,29.924 L32.5725749,29.924 L32.5725749,39.892 L29.5465749,33.751 C27.8555749,30.013 26.6095749,27.432 25.8085749,25.919 L29.6355749,25.919 L31.1485749,30.102 Z M43.5195749,39.803 L49.9275749,39.803 L49.9275749,48.614 L43.5195749,48.614 L43.5195749,39.803 Z M63.3665749,48.614 L63.3665749,39.803 L69.4185749,39.803 L69.4185749,48.614 L63.3665749,48.614 Z M49.8385749,16.307 C52.4195749,13.815 54.6445749,11.501 56.6915749,9.187 C58.8275749,11.768 61.1415749,14.082 63.4555749,16.307 L49.8385749,16.307 Z" id="text07-01"></path>
            </g>
        </g>
    </g>
</svg>