<?xml version="1.0" encoding="UTF-8"?>
<svg width="674px" height="57px" viewBox="0 0 674 57" version="1.1" xmlns="http://www.w3.org/2000/svg" xmlns:xlink="http://www.w3.org/1999/xlink">
    <!-- Generator: Sketch 41.2 (35397) - http://www.bohemiancoding.com/sketch -->
    <title>text11-01</title>
    <desc>Created with Sketch.</desc>
    <defs></defs>
    <g id="Page-1" stroke="none" stroke-width="1" fill="none" fill-rule="evenodd">
        <g id="Desktop-HD" transform="translate(-186.000000, -6326.000000)" fill="#F8A934">
            <g id="text11" transform="translate(186.000000, 6317.000000)">
                <path d="M22.79,18.2 C22.79,19.34 22.79,20.24 22.73,20.78 L1.91,20.78 L1.91,28.88 L21.65,28.88 C19.13,40.22 12.05,49.28 0.47,56.06 L5.33,63.92 C10.31,61.28 14.87,57.5 19.01,52.64 C22.37,57.38 24.95,61.22 26.69,63.98 L34.01,59.96 C32.21,57.14 29.51,53.12 25.85,47.96 L20.33,50.96 C23.45,47.06 26.03,42.8 28.01,38.3 C30.35,43.76 33.41,48.8 37.25,53.3 C41.03,57.86 45.29,61.4 49.85,63.92 L54.71,56.06 C43.07,49.22 35.99,40.16 33.47,28.88 L53.27,28.88 L53.27,20.78 L32.45,20.78 C32.39,20.24 32.39,19.34 32.39,18.2 L32.39,9.92 L22.79,9.92 L22.79,18.2 Z M85.79,40.46 C83.99,42.02 82.01,43.34 80.09,44.6 L80.09,43.76 C80.09,38.12 79.07,34.94 76.31,31.64 C78.11,27.92 79.73,23.48 81.05,18.5 L81.05,11.6 L61.85,11.6 L61.85,64.16 L70.01,64.16 L70.01,46.64 L71.63,53.18 L72.53,53.18 C75.77,53.18 77.99,51.98 79.07,49.58 L80.69,51.44 C82.25,50.66 83.99,49.58 86.03,48.14 L88.19,48.14 C84.35,51.68 79.91,54.68 74.69,57.08 L78.89,61.82 C82.01,60.38 85.19,58.34 88.43,55.82 C91.67,53.3 94.37,50.72 96.41,48.14 L98.69,48.14 C95.15,53.24 90.71,57.38 85.55,60.5 L90.35,65.06 C92.99,63.32 95.57,61.28 98.03,58.76 L98.39,63.98 C102.53,64.22 104.99,64.4 105.77,64.34 C112.13,64.1 113.57,62.36 113.57,47.9 L113.57,42.26 L92.81,42.26 L94.49,40.46 L114.89,40.46 L114.89,34.34 L80.63,34.34 L80.63,40.46 L85.79,40.46 Z M112.43,32.6 L112.43,11.6 L82.67,11.6 L82.67,32.6 L112.43,32.6 Z M105.35,49.52 C105.35,56.6 104.93,57.14 103.13,57.14 C102.17,57.14 101.09,57.08 99.71,56.96 C101.99,54.5 103.91,51.98 105.35,49.52 Z M103.07,20.84 L91.55,20.84 L91.55,18.62 L103.07,18.62 L103.07,20.84 Z M91.55,27.56 L91.55,25.22 L103.07,25.22 L103.07,27.56 L91.55,27.56 Z M74.03,18.5 C73.07,21.98 71.75,25.46 70.01,29.18 L70.01,18.5 L74.03,18.5 Z M70.01,33.68 C72.53,36.74 73.25,38.78 73.25,42.02 C73.25,45.32 72.65,46.04 70.25,46.04 L70.01,46.04 L70.01,33.68 Z M163.97,61.28 C170.57,56.66 174.23,49.28 174.41,41.18 C174.53,33.08 170.99,25.22 164.69,20.36 C158.87,15.74 150.83,13.94 142.97,15.14 C135.23,16.46 128.45,20.42 124.43,26.54 C119.93,33.38 118.79,42.44 121.79,49.22 C124.01,54.44 128.27,57.8 133.91,58.7 C138.59,59.36 143.39,57.8 147.29,54.44 C152.99,49.46 156.05,41.36 155.75,31.46 L145.67,31.82 C145.85,38.78 144.11,44.24 140.81,47.06 C139.01,48.62 137.15,49.28 135.41,49.04 C133.25,48.68 131.81,47.42 130.91,45.32 C129.23,41.54 130.01,36.08 132.77,31.94 C135.23,28.16 139.55,25.52 144.53,24.68 C149.87,23.84 154.91,25.04 158.51,28.04 C162.23,30.98 164.51,35.9 164.39,41 C164.33,44.3 163.37,47.18 161.81,49.64 L159.05,46.94 L154.13,51.8 L163.97,61.28 Z M202.79,23.9 L207.65,23.9 C207.59,31.1 206.33,37.1 203.93,41.96 C201.53,46.82 197.75,51.14 192.53,54.98 C194.03,51.44 195.29,47.96 196.25,44.6 L188.63,41.06 C186.59,47.66 183.95,53.84 180.59,59.42 L187.91,64.1 C189.11,62.06 190.25,59.96 191.15,57.98 L195.95,63.92 C203.51,59.48 209.15,52.76 212.99,43.64 L212.99,55.82 C212.99,58.58 212.93,59.42 213.47,60.74 C213.71,61.4 214.01,61.82 214.31,62.06 C214.91,62.42 217.13,62.9 218.93,62.9 C219.83,62.96 221.21,62.96 223.13,62.96 L226.07,62.96 C226.73,62.96 227.57,62.9 228.47,62.72 L230.39,62.36 C231.11,62.24 232.55,60.86 232.85,60.14 C233.03,59.84 233.27,59.18 233.57,58.16 C233.87,57.08 234.05,56.18 234.11,55.4 L234.41,51.62 L234.65,46.94 C234.71,45.5 234.71,43.52 234.77,40.94 L226.07,39.92 C226.07,47.42 225.89,51.86 225.65,53.18 C225.35,54.44 224.63,55.1 223.37,55.1 C221.57,55.1 221.57,54.98 221.57,53.3 L221.57,31.52 L216.35,31.52 C216.77,28.88 216.95,26.36 217.01,23.9 L225.11,23.9 L225.11,34.1 L233.99,34.1 L233.99,16.04 L217.01,16.04 L217.01,10.16 L207.65,10.16 L207.65,16.04 L194.39,16.04 C191.63,14 189.11,12.14 186.83,10.7 L181.97,17 C185.57,19.4 188.99,21.98 192.11,24.62 L194.33,21.62 L194.33,31.52 C191.33,28.88 187.97,26.24 184.37,23.66 L179.21,29.78 C183.35,32.78 187.07,35.84 190.31,38.84 L194.33,34.1 L202.79,34.1 L202.79,23.9 Z M285.11,59 C290.69,54.14 291.47,46.34 287.27,38.24 L295.79,32.78 L287.09,18.68 L279.17,23.78 L284.45,32.3 L275.75,37.7 C278.09,41.24 281.63,45.44 280.43,49.64 C279.59,52.64 276.17,53.96 273.23,53.84 C269.81,53.72 267.59,51.2 265.49,48.38 C267.53,41.96 267.47,33.86 266.51,25.82 L277.49,25.82 L277.49,16.82 L265.07,16.82 C264.65,14.66 264.17,12.5 263.69,10.34 L254.45,12.32 C254.87,14.12 255.17,15.5 255.41,16.82 L243.23,16.82 L243.23,25.82 L257.03,25.82 C257.81,31.52 258.05,35.84 257.81,39.38 C253.01,36.74 246.95,37.76 243.53,41.6 C241.19,44.18 240.53,47.72 241.25,51.26 C242.03,54.98 244.55,57.62 248.09,59 C252.23,60.5 257.03,59.6 260.39,56.72 C261.29,57.86 262.43,59 263.75,60.02 C266.51,62.06 270.11,63.08 273.59,63.08 C277.73,63.08 282.05,61.7 285.11,59 Z M255.23,49.1 C254.99,49.46 254.63,49.7 254.33,49.94 C253.25,50.84 250.97,51.2 250.31,49.82 C249.53,48.26 250.55,46.82 252.17,46.82 C253.67,46.82 254.39,47.78 255.23,49.1 Z M306.47,52.7 C304.31,54.38 302.09,55.94 299.69,57.38 L303.95,64.64 C306.89,62.66 309.53,60.68 311.87,58.7 C313.91,60.5 317.09,61.82 321.35,62.54 C325.61,63.32 331.67,63.74 339.77,63.74 L354.11,63.74 L354.59,56.12 L339.83,56.12 C333.29,56.12 328.49,55.94 325.31,55.64 C322.19,55.34 319.91,54.86 318.65,54.2 C317.33,53.54 316.25,52.46 315.35,50.96 L315.35,32.18 L300.71,32.18 L300.71,39.8 L306.47,39.8 L306.47,52.7 Z M330.41,23.24 L317.75,23.24 L317.75,40.52 L327.71,40.52 C324.47,42.8 320.45,44.9 315.77,46.76 L320.33,54.08 C324.11,52.16 327.47,50 330.41,47.54 L330.41,54.56 L339.77,54.56 L339.77,46.94 C342.89,49.64 346.43,52.04 350.57,54.08 L354.47,46.82 C350.03,44.84 346.25,42.8 343.25,40.52 L352.31,40.52 L352.31,23.24 L339.77,23.24 L339.77,20.9 L353.87,20.9 L353.87,13.46 L339.77,13.46 L339.77,9.92 L330.41,9.92 L330.41,13.46 L314.93,13.46 L314.93,19.7 C311.63,16.34 308.87,13.64 306.65,11.6 L300.71,17.36 C304.55,20.72 308.15,24.08 311.69,27.68 L317.15,21.98 L316.13,20.9 L330.41,20.9 L330.41,23.24 Z M330.41,34.94 L325.91,34.94 L325.91,29.66 L330.41,29.66 L330.41,34.94 Z M343.91,34.94 L339.77,34.94 L339.77,29.66 L343.91,29.66 L343.91,34.94 Z M391.37,48.74 C389.57,50.66 387.89,52.64 385.55,53.6 C383.81,54.44 381.65,54.38 379.85,53.54 C374.99,51.38 375.41,46.28 375.41,41.96 L365.99,41.96 C365.99,47.72 366.29,53.06 369.89,57.44 C373.13,61.22 377.99,63.38 382.85,63.38 C385.67,63.38 388.73,62.6 391.19,61.22 C393.95,59.66 395.93,57.32 398.03,55.34 L391.37,48.74 Z M400.37,42.56 L396.71,28.46 L413.15,28.46 L413.09,19.22 L394.07,19.22 L391.49,10.52 L382.37,13.1 L384.23,19.22 L363.17,19.22 L363.23,28.46 L386.81,28.46 L389.51,38.42 L385.85,39.32 L387.23,45.68 L400.37,42.56 Z M463.97,61.28 C470.57,56.66 474.23,49.28 474.41,41.18 C474.53,33.08 470.99,25.22 464.69,20.36 C458.87,15.74 450.83,13.94 442.97,15.14 C435.23,16.46 428.45,20.42 424.43,26.54 C419.93,33.38 418.79,42.44 421.79,49.22 C424.01,54.44 428.27,57.8 433.91,58.7 C438.59,59.36 443.39,57.8 447.29,54.44 C452.99,49.46 456.05,41.36 455.75,31.46 L445.67,31.82 C445.85,38.78 444.11,44.24 440.81,47.06 C439.01,48.62 437.15,49.28 435.41,49.04 C433.25,48.68 431.81,47.42 430.91,45.32 C429.23,41.54 430.01,36.08 432.77,31.94 C435.23,28.16 439.55,25.52 444.53,24.68 C449.87,23.84 454.91,25.04 458.51,28.04 C462.23,30.98 464.51,35.9 464.39,41 C464.33,44.3 463.37,47.18 461.81,49.64 L459.05,46.94 L454.13,51.8 L463.97,61.28 Z M494.93,26.42 L494.99,26.42 L494.99,59 L505.61,59 L505.61,15.2 L494.99,15.2 L483.41,23.6 L483.41,34.82 L494.93,26.42 Z M530.75,48.56 C529.61,46.34 529.07,42.56 529.07,37.1 C529.07,31.64 529.61,27.86 530.75,25.64 C531.89,23.42 533.69,22.34 536.09,22.34 C538.49,22.34 540.23,23.42 541.37,25.64 C542.51,27.86 543.11,31.64 543.11,37.1 C543.11,42.56 542.51,46.34 541.37,48.56 C540.23,50.78 538.49,51.86 536.09,51.86 C533.69,51.86 531.89,50.78 530.75,48.56 Z M522.95,19.88 C520.13,23.42 518.69,29.12 518.69,37.1 C518.69,45.08 520.13,50.78 522.95,54.32 C525.83,57.86 530.21,59.6 536.09,59.6 C541.97,59.6 546.35,57.86 549.17,54.32 C552.05,50.78 553.49,45.08 553.49,37.1 C553.49,29.12 552.05,23.42 549.17,19.88 C546.35,16.34 541.97,14.6 536.09,14.6 C530.21,14.6 525.83,16.34 522.95,19.88 Z M600.71,48.44 L600.71,55.04 L584.69,55.04 L584.69,48.44 L600.71,48.44 Z M605.99,30.38 C606.83,27.98 607.67,25.04 608.51,21.68 L612.35,21.68 L612.35,14.36 L597.77,14.36 L597.77,9.56 L588.11,9.56 L588.11,14.36 L574.85,14.36 C575.09,13.34 575.27,12.44 575.33,11.84 L566.69,10.28 C564.77,20 561.41,27.98 556.55,34.28 L558.95,45.14 C559.91,44.12 561.05,42.62 562.25,40.76 L562.25,64.28 L571.19,64.28 L571.19,27.14 C572.51,23.9 573.59,20.48 574.43,16.76 L574.43,21.68 L577.37,21.68 C578.15,24.02 579.05,26.9 580.01,30.38 L573.17,30.38 L573.17,38.06 L612.89,38.06 L612.89,30.38 L605.99,30.38 Z M610.01,64.16 L610.01,41.06 L575.57,41.06 L575.57,64.16 L584.69,64.16 L584.69,62.18 L600.71,62.18 L600.71,64.16 L610.01,64.16 Z M588.83,30.38 C587.99,27.26 587.09,24.38 586.19,21.68 L599.69,21.68 C599.03,24.44 598.13,27.32 597.05,30.38 L588.83,30.38 Z M637.91,45.32 L637.91,53 L673.55,53 L673.55,45.32 L637.91,45.32 Z M637.91,30.2 L637.91,37.88 L673.55,37.88 L673.55,30.2 L637.91,30.2 Z" id="text11-01"></path>
            </g>
        </g>
    </g>
</svg>