<?xml version="1.0" encoding="UTF-8"?>
<svg width="474px" height="484px" viewBox="0 0 474 484" version="1.1" xmlns="http://www.w3.org/2000/svg" xmlns:xlink="http://www.w3.org/1999/xlink">
    <!-- Generator: Sketch 41.2 (35397) - http://www.bohemiancoding.com/sketch -->
    <title>text10-01</title>
    <desc>Created with Sketch.</desc>
    <defs></defs>
    <g id="Page-1" stroke="none" stroke-width="1" fill="none" fill-rule="evenodd">
        <g id="Desktop-HD" transform="translate(-682.000000, -5595.000000)">
            <g id="text10" transform="translate(682.000000, 5595.000000)">
                <g id="text10-01">
                    <path d="M80.38,185.753333 L80.44,185.753333 L80.44,218.333333 L91.06,218.333333 L91.06,174.533333 L80.44,174.533333 L68.86,182.933333 L68.86,194.153333 L80.38,185.753333 Z M135.76,182.753333 L135.76,174.533333 L106.54,174.533333 L106.54,182.753333 L123.52,182.753333 L123.52,182.873333 L112.42,192.473333 L112.42,199.313333 L115.42,199.313333 C119.62,199.313333 122.5,199.793333 124,200.573333 C125.56,201.413333 126.34,202.733333 126.34,204.713333 C126.34,208.553333 123.64,210.833333 119.02,210.833333 C115.36,210.833333 111.28,209.873333 106.84,208.013333 L106.84,216.833333 C110.98,218.213333 115.3,218.933333 119.86,218.933333 C130.48,218.933333 136.36,213.833333 136.36,204.533333 C136.36,197.153333 131.8,192.533333 124.84,192.533333 L124.06,192.533333 L124.06,192.413333 L135.76,182.753333 Z M155.2,207.893333 C154.06,205.673333 153.52,201.893333 153.52,196.433333 C153.52,190.973333 154.06,187.193333 155.2,184.973333 C156.34,182.753333 158.14,181.673333 160.54,181.673333 C162.94,181.673333 164.68,182.753333 165.82,184.973333 C166.96,187.193333 167.56,190.973333 167.56,196.433333 C167.56,201.893333 166.96,205.673333 165.82,207.893333 C164.68,210.113333 162.94,211.193333 160.54,211.193333 C158.14,211.193333 156.34,210.113333 155.2,207.893333 Z M147.4,179.213333 C144.58,182.753333 143.14,188.453333 143.14,196.433333 C143.14,204.413333 144.58,210.113333 147.4,213.653333 C150.28,217.193333 154.66,218.933333 160.54,218.933333 C166.42,218.933333 170.8,217.193333 173.62,213.653333 C176.5,210.113333 177.94,204.413333 177.94,196.433333 C177.94,188.453333 176.5,182.753333 173.62,179.213333 C170.8,175.673333 166.42,173.933333 160.54,173.933333 C154.66,173.933333 150.28,175.673333 147.4,179.213333 Z M194.2,207.893333 C193.06,205.673333 192.52,201.893333 192.52,196.433333 C192.52,190.973333 193.06,187.193333 194.2,184.973333 C195.34,182.753333 197.14,181.673333 199.54,181.673333 C201.94,181.673333 203.68,182.753333 204.82,184.973333 C205.96,187.193333 206.56,190.973333 206.56,196.433333 C206.56,201.893333 205.96,205.673333 204.82,207.893333 C203.68,210.113333 201.94,211.193333 199.54,211.193333 C197.14,211.193333 195.34,210.113333 194.2,207.893333 Z M186.4,179.213333 C183.58,182.753333 182.14,188.453333 182.14,196.433333 C182.14,204.413333 183.58,210.113333 186.4,213.653333 C189.28,217.193333 193.66,218.933333 199.54,218.933333 C205.42,218.933333 209.8,217.193333 212.62,213.653333 C215.5,210.113333 216.94,204.413333 216.94,196.433333 C216.94,188.453333 215.5,182.753333 212.62,179.213333 C209.8,175.673333 205.42,173.933333 199.54,173.933333 C193.66,173.933333 189.28,175.673333 186.4,179.213333 Z M232.96,218.333333 L232.96,205.733333 L233.08,205.733333 L242.8,218.333333 L253.9,218.333333 L241.06,202.133333 L253.9,187.133333 L242.8,187.133333 L233.08,198.953333 L232.96,198.953333 L232.96,173.333333 L223.3,173.333333 L223.3,218.333333 L232.96,218.333333 Z M269.74,197.153333 C269.74,196.433333 270.16,195.713333 271.06,194.933333 C271.96,194.153333 272.86,193.793333 273.76,193.793333 C276.4,193.793333 277.12,194.813333 277.12,199.133333 L277.12,218.333333 L286.6,218.333333 L286.6,197.153333 C286.6,196.433333 287.02,195.713333 287.86,194.933333 C288.76,194.153333 289.66,193.793333 290.56,193.793333 C293.2,193.793333 293.98,194.813333 293.98,199.133333 L293.98,218.333333 L303.46,218.333333 L303.46,198.533333 C303.46,189.833333 300.58,186.533333 293.8,186.533333 C290.8,186.533333 287.92,188.093333 285.1,191.153333 L284.98,191.153333 C283.12,187.733333 281.2,186.533333 277.54,186.533333 C274.48,186.533333 271.72,188.093333 269.38,191.153333 L269.26,191.153333 L269.02,187.133333 L260.02,187.133333 L260.02,218.333333 L269.74,218.333333 L269.74,197.153333 Z M335.02,220.733333 L355.9,174.533333 L347.02,174.533333 L326.14,220.733333 L335.02,220.733333 Z M389.8,218.333333 L389.8,199.733333 C389.8,198.413333 390.4,197.153333 391.54,196.013333 C392.74,194.813333 394,194.213333 395.38,194.213333 C397.12,194.213333 398.26,194.753333 398.86,195.773333 C399.52,196.793333 399.82,198.953333 399.82,202.133333 L399.82,218.333333 L409.3,218.333333 L409.3,200.933333 C409.3,195.533333 408.52,191.813333 406.9,189.713333 C405.28,187.613333 402.64,186.533333 398.98,186.533333 C395.8,186.533333 392.8,187.853333 389.92,190.433333 L389.8,190.433333 L389.8,173.333333 L380.08,173.333333 L380.08,218.333333 L389.8,218.333333 Z" id="1300km-/-h" fill="#FFFFFF"></path>
                    <path d="M0.64,354.886667 L0.64,362.506667 L5.26,362.506667 L5.26,385.366667 L2.5,385.966667 C1.3,386.266667 0.58,386.386667 0.4,386.446667 L1.18,394.666667 C7.36,393.286667 13.54,391.366667 19.6,388.846667 L19.36,380.926667 C17.2,381.706667 15.46,382.366667 14.2,382.786667 L14.2,362.506667 L16.72,362.506667 L17.14,366.226667 L21.88,365.326667 L21.88,388.186667 C21.88,390.946667 21.94,392.206667 22.72,393.586667 C23.14,394.306667 23.62,394.786667 24.1,395.026667 C25.3,395.686667 28.06,396.226667 30.94,396.286667 C32.44,396.346667 34.42,396.406667 36.94,396.406667 C39.4,396.406667 41.38,396.346667 42.76,396.346667 C44.26,396.286667 45.7,396.226667 47.26,395.986667 C50.32,395.566667 51.28,395.266667 52.9,393.946667 C54.52,392.566667 54.82,391.606667 55.48,388.846667 C55.78,387.466667 55.96,386.086667 56.08,384.766667 C56.14,383.386667 56.32,381.646667 56.38,379.366667 L50.5,377.986667 C52.06,377.506667 53.14,375.766667 53.68,372.646667 C54.28,369.526667 54.58,363.586667 54.58,354.886667 L54.58,350.326667 L41.56,352.846667 L41.56,343.126667 L33.7,343.126667 L33.7,354.406667 L30.58,355.006667 L30.58,346.066667 L21.88,346.066667 L21.88,356.686667 L19.06,357.286667 L19.06,354.886667 L14.2,354.886667 L14.2,344.146667 L5.26,344.146667 L5.26,354.886667 L0.64,354.886667 Z M47.92,378.226667 C47.74,381.226667 47.8,382.366667 47.5,384.166667 C47.2,385.906667 47.2,386.326667 46.42,387.226667 C45.64,388.126667 45.52,388.126667 44.08,388.366667 C42.58,388.606667 41.98,388.546667 39.64,388.546667 C35.2,388.546667 32.56,388.426667 31.78,388.246667 C31,388.066667 30.58,387.346667 30.58,386.206667 L30.58,363.526667 L33.7,362.866667 L33.7,382.306667 L41.56,382.306667 L41.56,361.366667 L46.24,360.406667 C46.06,370.246667 45.88,370.366667 45.04,370.366667 C44.62,370.366667 42.82,370.186667 42.1,370.186667 L43.84,378.106667 C46,378.166667 47.44,378.226667 47.92,378.226667 Z M114.46,347.266667 C111.76,345.226667 108.64,343.126667 105.04,340.966667 L101.14,346.246667 L106.06,349.486667 L100.72,349.486667 L100.72,342.286667 L91.84,342.286667 L91.84,349.486667 L78.1,349.486667 L78.1,346.546667 L60.46,346.546667 L60.46,354.646667 L65.2,354.646667 L65.2,362.626667 L61,362.626667 L61,370.486667 L65.2,370.486667 L65.2,383.086667 L60.16,384.106667 L60.94,391.966667 C66.16,390.946667 70.9,389.806667 75.28,388.426667 L78.4,392.806667 C80.8,391.186667 82.72,389.806667 84.16,388.666667 L84.64,396.526667 C88.24,396.706667 90.46,396.766667 91.24,396.766667 C94.48,396.766667 95.92,396.766667 97.54,396.166667 C98.32,395.806667 98.92,395.566667 99.22,395.146667 C99.94,394.426667 100.6,392.386667 100.66,390.346667 C100.66,389.326667 100.72,387.946667 100.72,386.086667 L100.72,377.446667 C103.6,384.106667 106.9,389.686667 110.56,394.186667 L116.62,387.406667 C113.32,383.806667 110.2,379.426667 107.38,374.446667 C110.44,370.726667 113.26,366.526667 115.78,361.726667 L108.7,358.426667 C107.14,361.306667 105.34,364.006667 103.48,366.586667 C102.34,363.946667 101.44,361.426667 100.72,359.086667 L100.72,357.106667 L115.48,357.106667 L115.48,349.486667 L112.9,349.486667 L114.46,347.266667 Z M91.84,367.426667 C89.2,364.426667 86.32,361.426667 83.14,358.486667 L78.1,362.686667 L78.1,362.626667 L73.42,362.626667 L73.42,354.646667 L77.14,354.646667 L77.14,357.106667 L91.84,357.106667 L91.84,367.426667 Z M88.24,374.446667 C84.88,377.686667 81.58,380.446667 78.34,382.726667 L78.16,379.726667 C76.72,380.206667 75.16,380.686667 73.42,381.166667 L73.42,370.486667 L78.1,370.486667 L78.1,364.126667 C81.16,367.126667 83.98,370.186667 86.56,373.246667 L91.84,368.566667 L91.84,378.586667 L88.24,374.446667 Z M91.84,386.506667 C91.84,388.846667 91.72,388.906667 89.98,388.906667 C89.2,388.906667 87.22,388.786667 84.22,388.606667 C87.34,386.146667 89.86,383.986667 91.84,382.066667 L91.84,386.506667 Z M164.38,393.946667 C170.98,389.326667 174.64,381.946667 174.82,373.846667 C174.94,365.746667 171.4,357.886667 165.1,353.026667 C159.28,348.406667 151.24,346.606667 143.38,347.806667 C135.64,349.126667 128.86,353.086667 124.84,359.206667 C120.34,366.046667 119.2,375.106667 122.2,381.886667 C124.42,387.106667 128.68,390.466667 134.32,391.366667 C139,392.026667 143.8,390.466667 147.7,387.106667 C153.4,382.126667 156.46,374.026667 156.16,364.126667 L146.08,364.486667 C146.26,371.446667 144.52,376.906667 141.22,379.726667 C139.42,381.286667 137.56,381.946667 135.82,381.706667 C133.66,381.346667 132.22,380.086667 131.32,377.986667 C129.64,374.206667 130.42,368.746667 133.18,364.606667 C135.64,360.826667 139.96,358.186667 144.94,357.346667 C150.28,356.506667 155.32,357.706667 158.92,360.706667 C162.64,363.646667 164.92,368.566667 164.8,373.666667 C164.74,376.966667 163.78,379.846667 162.22,382.306667 L159.46,379.606667 L154.54,384.466667 L164.38,393.946667 Z M222.22,356.566667 L222.22,361.966667 L193.78,361.966667 L193.78,356.566667 L222.22,356.566667 Z M202.6,341.386667 C202,344.206667 201.34,346.846667 200.62,349.126667 L184.36,349.126667 L184.36,396.346667 L193.78,396.346667 L193.78,393.766667 L222.22,393.766667 L222.22,396.346667 L231.64,396.346667 L231.64,349.126667 L210.52,349.126667 C211.06,347.386667 211.66,345.166667 212.26,342.466667 L202.6,341.386667 Z M222.22,386.566667 L193.78,386.566667 L193.78,381.046667 L222.22,381.046667 L222.22,386.566667 Z M222.22,374.266667 L193.78,374.266667 L193.78,368.746667 L222.22,368.746667 L222.22,374.266667 Z M282.58,373.786667 C283.12,376.006667 283.96,379.726667 285.04,384.886667 C284.02,385.066667 282.1,385.306667 279.46,385.666667 C280.6,380.506667 281.68,374.506667 282.88,367.486667 L294.88,367.486667 L294.88,359.626667 L269.86,359.626667 L269.86,357.226667 L260.8,357.226667 L260.8,354.286667 L269.02,354.286667 L269.02,347.206667 L260.8,347.206667 L260.8,343.186667 L252.04,343.186667 L252.04,347.206667 L241.24,347.206667 L241.24,354.286667 L252.04,354.286667 L252.04,357.226667 L242.44,357.226667 L242.44,381.346667 L252.04,381.346667 L252.04,384.286667 L241.24,384.286667 L241.24,391.486667 L252.04,391.486667 L252.04,397.006667 L260.8,397.006667 L260.8,391.486667 L267.4,391.486667 L267.52,395.086667 C272.98,394.546667 279.34,393.586667 286.54,392.326667 L287.38,397.246667 L295.48,395.206667 C294.1,386.866667 292.48,379.066667 290.44,371.746667 L282.58,373.786667 Z M270.64,345.406667 L270.64,353.326667 L293.26,353.326667 L293.26,345.406667 L270.64,345.406667 Z M252.4,374.986667 L249.1,374.986667 L249.1,371.926667 L252.4,371.926667 L252.4,374.986667 Z M252.4,366.586667 L249.1,366.586667 L249.1,363.646667 L252.4,363.646667 L252.4,366.586667 Z M274.48,367.486667 C273.16,374.986667 271.96,381.406667 270.76,386.746667 C270.34,386.746667 269.44,386.986667 269.02,386.986667 L269.02,384.286667 L260.8,384.286667 L260.8,381.346667 L269.86,381.346667 L269.86,367.486667 L274.48,367.486667 Z M260.38,374.986667 L260.38,371.926667 L263.74,371.926667 L263.74,374.986667 L260.38,374.986667 Z M263.74,366.586667 L260.38,366.586667 L260.38,363.646667 L263.74,363.646667 L263.74,366.586667 Z M344.38,393.946667 C350.98,389.326667 354.64,381.946667 354.82,373.846667 C354.94,365.746667 351.4,357.886667 345.1,353.026667 C339.28,348.406667 331.24,346.606667 323.38,347.806667 C315.64,349.126667 308.86,353.086667 304.84,359.206667 C300.34,366.046667 299.2,375.106667 302.2,381.886667 C304.42,387.106667 308.68,390.466667 314.32,391.366667 C319,392.026667 323.8,390.466667 327.7,387.106667 C333.4,382.126667 336.46,374.026667 336.16,364.126667 L326.08,364.486667 C326.26,371.446667 324.52,376.906667 321.22,379.726667 C319.42,381.286667 317.56,381.946667 315.82,381.706667 C313.66,381.346667 312.22,380.086667 311.32,377.986667 C309.64,374.206667 310.42,368.746667 313.18,364.606667 C315.64,360.826667 319.96,358.186667 324.94,357.346667 C330.28,356.506667 335.32,357.706667 338.92,360.706667 C342.64,363.646667 344.92,368.566667 344.8,373.666667 C344.74,376.966667 343.78,379.846667 342.22,382.306667 L339.46,379.606667 L334.54,384.466667 L344.38,393.946667 Z M366.88,385.366667 C364.72,387.046667 362.5,388.606667 360.1,390.046667 L364.36,397.306667 C367.3,395.326667 369.94,393.346667 372.28,391.366667 C374.32,393.166667 377.5,394.486667 381.76,395.206667 C386.02,395.986667 392.08,396.406667 400.18,396.406667 L414.52,396.406667 L415,388.786667 L400.24,388.786667 C393.7,388.786667 388.9,388.606667 385.72,388.306667 C382.6,388.006667 380.32,387.526667 379.06,386.866667 C377.74,386.206667 376.66,385.126667 375.76,383.626667 L375.76,364.846667 L361.12,364.846667 L361.12,372.466667 L366.88,372.466667 L366.88,385.366667 Z M390.82,355.906667 L378.16,355.906667 L378.16,373.186667 L388.12,373.186667 C384.88,375.466667 380.86,377.566667 376.18,379.426667 L380.74,386.746667 C384.52,384.826667 387.88,382.666667 390.82,380.206667 L390.82,387.226667 L400.18,387.226667 L400.18,379.606667 C403.3,382.306667 406.84,384.706667 410.98,386.746667 L414.88,379.486667 C410.44,377.506667 406.66,375.466667 403.66,373.186667 L412.72,373.186667 L412.72,355.906667 L400.18,355.906667 L400.18,353.566667 L414.28,353.566667 L414.28,346.126667 L400.18,346.126667 L400.18,342.586667 L390.82,342.586667 L390.82,346.126667 L375.34,346.126667 L375.34,352.366667 C372.04,349.006667 369.28,346.306667 367.06,344.266667 L361.12,350.026667 C364.96,353.386667 368.56,356.746667 372.1,360.346667 L377.56,354.646667 L376.54,353.566667 L390.82,353.566667 L390.82,355.906667 Z M390.82,367.606667 L386.32,367.606667 L386.32,362.326667 L390.82,362.326667 L390.82,367.606667 Z M404.32,367.606667 L400.18,367.606667 L400.18,362.326667 L404.32,362.326667 L404.32,367.606667 Z M451.78,381.406667 C449.98,383.326667 448.3,385.306667 445.96,386.266667 C444.22,387.106667 442.06,387.046667 440.26,386.206667 C435.4,384.046667 435.82,378.946667 435.82,374.626667 L426.4,374.626667 C426.4,380.386667 426.7,385.726667 430.3,390.106667 C433.54,393.886667 438.4,396.046667 443.26,396.046667 C446.08,396.046667 449.14,395.266667 451.6,393.886667 C454.36,392.326667 456.34,389.986667 458.44,388.006667 L451.78,381.406667 Z M460.78,375.226667 L457.12,361.126667 L473.56,361.126667 L473.5,351.886667 L454.48,351.886667 L451.9,343.186667 L442.78,345.766667 L444.64,351.886667 L423.58,351.886667 L423.64,361.126667 L447.22,361.126667 L449.92,371.086667 L446.26,371.986667 L447.64,378.346667 L460.78,375.226667 Z" id="地球の自転の速さ" fill="#FFFFFF"></path>
                    <g id="Group-48" transform="translate(220.000000, 84.666667)" stroke="#FFFFFF" stroke-width="10">
                        <path d="M5,0 L5,52.0384473" id="Path-28"></path>
                        <path d="M32,0 L32,52.0384473" id="Path-28"></path>
                    </g>
                    <g id="Group-48" transform="translate(220.000000, 258.000000)" stroke="#FFFFFF" stroke-width="10">
                        <path d="M5,0 L5,52.0384473" id="Path-28"></path>
                        <path d="M32,0 L32,52.0384473" id="Path-28"></path>
                    </g>
                    <g id="Group-48" transform="translate(220.000000, 431.333333)" stroke="#FFFFFF" stroke-width="10">
                        <path d="M5,0 L5,52.0384473" id="Path-28"></path>
                        <path d="M32,0 L32,52.0384473" id="Path-28"></path>
                    </g>
                    <path d="M38.26,9.42 L38.26,1.2 L9.04,1.2 L9.04,9.42 L26.02,9.42 L26.02,9.54 L14.92,19.14 L14.92,25.98 L17.92,25.98 C22.12,25.98 25,26.46 26.5,27.24 C28.06,28.08 28.84,29.4 28.84,31.38 C28.84,35.22 26.14,37.5 21.52,37.5 C17.86,37.5 13.78,36.54 9.34,34.68 L9.34,43.5 C13.48,44.88 17.8,45.6 22.36,45.6 C32.98,45.6 38.86,40.5 38.86,31.2 C38.86,23.82 34.3,19.2 27.34,19.2 L26.56,19.2 L26.56,19.08 L38.26,9.42 Z M61.66,36.66 C68.14,31.26 72.46,26.94 74.68,23.76 C76.9,20.52 78.04,17.16 78.04,13.62 C78.04,5.46 72.58,0.6 62.92,0.6 C58.06,0.6 53.44,1.44 49.12,3.12 L49.12,12.42 C54.04,10.2 58.12,9.06 61.42,9.06 C65.5,9.06 67.54,10.92 67.54,14.58 C67.54,17.4 66.28,20.28 63.76,23.28 C61.3,26.22 56.08,30.72 48.22,36.78 L48.22,45 L78.22,45 L78.22,36.78 L61.66,36.78 L61.66,36.66 Z M96.7,34.56 C95.56,32.34 95.02,28.56 95.02,23.1 C95.02,17.64 95.56,13.86 96.7,11.64 C97.84,9.42 99.64,8.34 102.04,8.34 C104.44,8.34 106.18,9.42 107.32,11.64 C108.46,13.86 109.06,17.64 109.06,23.1 C109.06,28.56 108.46,32.34 107.32,34.56 C106.18,36.78 104.44,37.86 102.04,37.86 C99.64,37.86 97.84,36.78 96.7,34.56 Z M88.9,5.88 C86.08,9.42 84.64,15.12 84.64,23.1 C84.64,31.08 86.08,36.78 88.9,40.32 C91.78,43.86 96.16,45.6 102.04,45.6 C107.92,45.6 112.3,43.86 115.12,40.32 C118,36.78 119.44,31.08 119.44,23.1 C119.44,15.12 118,9.42 115.12,5.88 C112.3,2.34 107.92,0.6 102.04,0.6 C96.16,0.6 91.78,2.34 88.9,5.88 Z M135.7,34.56 C134.56,32.34 134.02,28.56 134.02,23.1 C134.02,17.64 134.56,13.86 135.7,11.64 C136.84,9.42 138.64,8.34 141.04,8.34 C143.44,8.34 145.18,9.42 146.32,11.64 C147.46,13.86 148.06,17.64 148.06,23.1 C148.06,28.56 147.46,32.34 146.32,34.56 C145.18,36.78 143.44,37.86 141.04,37.86 C138.64,37.86 136.84,36.78 135.7,34.56 Z M127.9,5.88 C125.08,9.42 123.64,15.12 123.64,23.1 C123.64,31.08 125.08,36.78 127.9,40.32 C130.78,43.86 135.16,45.6 141.04,45.6 C146.92,45.6 151.3,43.86 154.12,40.32 C157,36.78 158.44,31.08 158.44,23.1 C158.44,15.12 157,9.42 154.12,5.88 C151.3,2.34 146.92,0.6 141.04,0.6 C135.16,0.6 130.78,2.34 127.9,5.88 Z M174.7,34.56 C173.56,32.34 173.02,28.56 173.02,23.1 C173.02,17.64 173.56,13.86 174.7,11.64 C175.84,9.42 177.64,8.34 180.04,8.34 C182.44,8.34 184.18,9.42 185.32,11.64 C186.46,13.86 187.06,17.64 187.06,23.1 C187.06,28.56 186.46,32.34 185.32,34.56 C184.18,36.78 182.44,37.86 180.04,37.86 C177.64,37.86 175.84,36.78 174.7,34.56 Z M166.9,5.88 C164.08,9.42 162.64,15.12 162.64,23.1 C162.64,31.08 164.08,36.78 166.9,40.32 C169.78,43.86 174.16,45.6 180.04,45.6 C185.92,45.6 190.3,43.86 193.12,40.32 C196,36.78 197.44,31.08 197.44,23.1 C197.44,15.12 196,9.42 193.12,5.88 C190.3,2.34 185.92,0.6 180.04,0.6 C174.16,0.6 169.78,2.34 166.9,5.88 Z M213.46,45 L213.46,32.4 L213.58,32.4 L223.3,45 L234.4,45 L221.56,28.8 L234.4,13.8 L223.3,13.8 L213.58,25.62 L213.46,25.62 L213.46,0 L203.8,0 L203.8,45 L213.46,45 Z M250.24,23.82 C250.24,23.1 250.66,22.38 251.56,21.6 C252.46,20.82 253.36,20.46 254.26,20.46 C256.9,20.46 257.62,21.48 257.62,25.8 L257.62,45 L267.1,45 L267.1,23.82 C267.1,23.1 267.52,22.38 268.36,21.6 C269.26,20.82 270.16,20.46 271.06,20.46 C273.7,20.46 274.48,21.48 274.48,25.8 L274.48,45 L283.96,45 L283.96,25.2 C283.96,16.5 281.08,13.2 274.3,13.2 C271.3,13.2 268.42,14.76 265.6,17.82 L265.48,17.82 C263.62,14.4 261.7,13.2 258.04,13.2 C254.98,13.2 252.22,14.76 249.88,17.82 L249.76,17.82 L249.52,13.8 L240.52,13.8 L240.52,45 L250.24,45 L250.24,23.82 Z M315.52,47.4 L336.4,1.2 L327.52,1.2 L306.64,47.4 L315.52,47.4 Z M374.44,36.66 C380.92,31.26 385.24,26.94 387.46,23.76 C389.68,20.52 390.82,17.16 390.82,13.62 C390.82,5.46 385.36,0.6 375.7,0.6 C370.84,0.6 366.22,1.44 361.9,3.12 L361.9,12.42 C366.82,10.2 370.9,9.06 374.2,9.06 C378.28,9.06 380.32,10.92 380.32,14.58 C380.32,17.4 379.06,20.28 376.54,23.28 C374.08,26.22 368.86,30.72 361,36.78 L361,45 L391,45 L391,36.78 L374.44,36.78 L374.44,36.66 Z M396.04,28.62 L396.04,36.6 L415.54,36.6 L415.54,45 L425.26,45 L425.26,36.6 L431.62,36.6 L431.62,28.62 L425.26,28.62 L425.26,1.2 L415.54,1.2 L396.04,28.62 Z M415.42,13.56 L415.54,13.56 L415.54,28.62 L405.04,28.62 L405.04,28.5 L415.42,13.56 Z M448.3,45 L448.3,26.4 C448.3,25.08 448.9,23.82 450.04,22.68 C451.24,21.48 452.5,20.88 453.88,20.88 C455.62,20.88 456.76,21.42 457.36,22.44 C458.02,23.46 458.32,25.62 458.32,28.8 L458.32,45 L467.8,45 L467.8,27.6 C467.8,22.2 467.02,18.48 465.4,16.38 C463.78,14.28 461.14,13.2 457.48,13.2 C454.3,13.2 451.3,14.52 448.42,17.1 L448.3,17.1 L448.3,0 L438.58,0 L438.58,45 L448.3,45 Z" id="32000km-/-24h" fill="#FFFFFF"></path>
                </g>
            </g>
        </g>
    </g>
</svg>