<?xml version="1.0" encoding="UTF-8"?>
<svg width="265px" height="55px" viewBox="0 0 265 55" version="1.1" xmlns="http://www.w3.org/2000/svg" xmlns:xlink="http://www.w3.org/1999/xlink">
    <!-- Generator: Sketch 41.2 (35397) - http://www.bohemiancoding.com/sketch -->
    <title>text15</title>
    <desc>Created with Sketch.</desc>
    <defs></defs>
    <g id="Page-1" stroke="none" stroke-width="1" fill="none" fill-rule="evenodd">
        <g id="Desktop-HD" transform="translate(-587.000000, -10075.000000)" fill="#FFFFFF">
            <path d="M633.96,10102.504 C631.152,10102.504 628.128,10101.136 624.816,10098.472 C619.704,10094.368 614.232,10092.352 608.328,10092.352 C599.832,10092.352 592.92,10096.168 587.592,10103.728 L595.944,10111.648 C598.464,10108.624 600.624,10106.536 602.424,10105.384 C604.224,10104.232 606.24,10103.656 608.328,10103.656 C611.136,10103.656 614.16,10105.024 617.472,10107.688 C622.584,10111.792 628.056,10113.808 633.96,10113.808 C642.456,10113.808 649.368,10109.992 654.696,10102.432 L646.128,10094.656 C643.608,10097.68 641.52,10099.768 639.72,10100.848 C637.992,10101.928 636.048,10102.504 633.96,10102.504 Z M662.616,10076.44 L662.616,10129 L696.168,10129 L696.168,10119.136 L674.856,10119.136 L674.856,10106.32 L694.728,10106.32 L694.728,10097.032 L674.856,10097.032 L674.856,10086.304 L696.168,10086.304 L696.168,10076.44 L662.616,10076.44 Z M718.272,10096.744 L735.264,10129 L747,10129 L747,10076.44 L735.264,10076.44 L735.264,10108.696 L735.12,10108.696 L718.128,10076.44 L706.392,10076.44 L706.392,10129 L718.128,10129 L718.128,10096.744 L718.272,10096.744 Z M788.256,10102 C788.256,10114.888 783.72,10120.144 774,10120.144 C772.56,10120.144 771.192,10120 769.896,10119.712 L769.896,10085.728 C771.192,10085.44 772.56,10085.296 774,10085.296 C783.576,10085.296 788.256,10090.48 788.256,10102 Z M799.92,10102 C799.92,10085.224 790.272,10075.72 773.064,10075.72 C767.736,10075.72 762.696,10076.08 757.944,10076.8 L757.944,10128.64 C762.696,10129.36 767.736,10129.72 773.064,10129.72 C790.272,10129.72 799.92,10120.216 799.92,10102 Z M819.72,10108.12 C821.664,10108.12 823.68,10109.2 825.912,10111.36 C829.44,10114.816 833.256,10116.544 837.288,10116.544 C843.12,10116.544 847.872,10113.304 851.544,10106.896 L845.064,10100.704 C841.968,10105.312 839.952,10106.68 837.288,10106.68 C835.344,10106.68 833.328,10105.6 831.096,10103.44 C827.568,10099.984 823.752,10098.256 819.72,10098.256 C813.888,10098.256 809.136,10101.496 805.464,10107.904 L811.944,10114.096 C815.04,10109.488 817.056,10108.12 819.72,10108.12 Z" id="text15"></path>
        </g>
    </g>
</svg>