<?xml version="1.0" encoding="UTF-8"?>
<svg width="119px" height="58px" viewBox="0 0 119 58" version="1.1" xmlns="http://www.w3.org/2000/svg" xmlns:xlink="http://www.w3.org/1999/xlink">
    <!-- Generator: Sketch 41.2 (35397) - http://www.bohemiancoding.com/sketch -->
    <title>text06-01</title>
    <desc>Created with Sketch.</desc>
    <defs></defs>
    <g id="Page-1" stroke="none" stroke-width="1" fill="none" fill-rule="evenodd">
        <g id="Desktop-HD" transform="translate(-742.000000, -3173.000000)" fill="#FFFFFF">
            <g id="text06" transform="translate(742.000000, 3173.000000)">
                <path d="M22.959,55.819 C27.85,54.948 38.57,52.469 44.667,44.429 C49.692,37.796 49.893,28.148 45.203,21.046 C41.317,15.485 34.282,12.47 25.706,12.47 C19.475,12.47 13.579,13.475 8.152,14.882 L7.482,12.604 L0.514,14.949 L4.266,26.138 C11.435,24.329 18.537,22.654 25.639,22.654 C29.525,22.721 34.282,23.458 36.359,26.741 C38.905,30.426 38.838,35.183 36.292,38.265 C33.679,41.749 27.984,44.63 20.949,45.836 L22.959,55.819 Z M108.987,48.114 C100.947,44.429 96.056,39.806 94.783,34.58 C93.175,27.545 97.061,19.505 101.349,12.939 L118.568,11.666 L117.831,1.616 L71.467,5.167 L71.065,0.946 L63.628,1.549 L64.834,15.686 L88.217,13.877 C83.996,22.185 82.656,30.024 84.264,37.059 C86.274,45.635 92.773,52.469 103.56,57.695 L108.987,48.114 Z" id="text06-01"></path>
            </g>
        </g>
    </g>
</svg>