<?xml version="1.0" encoding="UTF-8"?>
<svg width="420px" height="422px" viewBox="0 0 420 422" version="1.1" xmlns="http://www.w3.org/2000/svg" xmlns:xlink="http://www.w3.org/1999/xlink">
    <!-- Generator: Sketch 41.2 (35397) - http://www.bohemiancoding.com/sketch -->
    <title>text01</title>
    <desc>Created with Sketch.</desc>
    <defs></defs>
    <g id="Page-1" stroke="none" stroke-width="1" fill="none" fill-rule="evenodd">
        <g id="Desktop-HD" transform="translate(-174.000000, -164.000000)" fill="#FFFFFF">
            <g id="text01" transform="translate(174.000000, 164.000000)">
                <path d="M419.344,392.032 C388.096,378.496 377.152,359.056 374.272,352.576 L415.456,302.176 L304.288,302.176 L304.288,324.064 L368.224,324.064 L317.104,388 L308.608,380.944 L298.384,393.184 L324.304,413.92 L359.152,370.864 C373.552,394.912 385.792,401.392 409.84,412.48 L419.344,392.032 Z" id="text01-09"></path>
                <polygon id="text01-08" points="157.552 303.904 165.76 413.632 188.512 412.336 181.744 325.792 243.664 325.792 243.664 380.944 194.704 380.944 194.704 402.976 266.56 402.976 266.56 303.904"></polygon>
                <path d="M113.92,396.064 C107.44,378.928 100.816,365.536 90.016,353.152 L127.168,307.216 L100.528,286.48 L90.304,298.864 L99.088,305.92 L72.88,338.896 C60.64,330.256 46.096,325.504 31.408,321.904 L25.216,343.648 C37.312,346.816 48.4,349.552 58.048,356.032 C58.48,356.176 58.624,356.176 58.48,356.32 L17.584,407.296 L35.008,421.12 L75.76,370.72 C83.968,380.656 88.288,391.888 92.608,403.408 L113.92,396.064 Z" id="text01-07"></path>
                <path d="M22.912,276.536 C27.232,267.608 30.832,258.536 34.144,249.32 C42.352,258.68 53.008,265.304 66.256,268.904 C79.792,272.504 99.088,274.376 124.288,274.376 L133.648,274.376 L134.8,255.368 L124.576,255.368 C106.432,255.368 92.32,254.648 82.384,253.208 L82.384,235.496 L123.136,235.496 L123.136,217.928 L82.384,217.928 L82.384,205.256 L134.224,205.256 L134.224,186.824 L82.384,186.824 L82.384,175.592 L125.728,175.592 L125.728,157.88 L82.384,157.88 L82.384,145.064 L59.2,145.064 L59.2,157.88 L14.272,157.88 L14.272,175.592 L59.2,175.592 L59.2,186.824 L5.776,186.824 L5.776,205.256 L59.2,205.256 L59.2,246.872 C51.712,242.984 45.52,236.936 40.48,228.44 C41.632,223.832 42.64,219.368 43.504,214.76 L22.768,210.584 C18.304,230.744 11.824,250.04 3.184,268.616 L22.912,276.536 Z" id="text01-04"></path>
                <path d="M295.072,97.696 C306.736,110.8 315.664,121.312 321.568,129.232 L338.272,117.136 C330.928,108.064 322,97.12 311.2,84.592 L295.072,97.696 Z" id="text01-03"></path>
                <path d="M152.08,87.616 L152.08,131.392 L170.08,131.392 L170.08,126.64 L197.728,126.64 L197.728,87.616 L152.08,87.616 Z M181.888,111.664 L170.08,111.664 L170.08,102.592 L181.888,102.592 L181.888,111.664 Z M236.032,107.632 L227.824,107.632 L227.824,41.104 L208.672,41.104 L208.672,107.632 L200.896,107.632 L200.896,126.64 L281.392,126.64 L281.392,107.632 L258.064,107.632 L258.064,72.64 L277.936,72.64 L277.936,53.776 L258.064,53.776 L258.064,26.128 L280.528,26.128 L280.528,7.264 L203.056,7.264 L203.056,26.128 L236.032,26.128 L236.032,107.632 Z M152.08,5.536 L152.08,21.664 L197.296,21.664 L197.296,5.536 L152.08,5.536 Z M148.336,25.84 L148.336,43.552 L199.6,43.552 L199.6,25.84 L148.336,25.84 Z M153.376,47.872 L153.376,63.424 L197.152,63.424 L197.152,47.872 L153.376,47.872 Z M153.376,67.744 L153.376,83.296 L197.152,83.296 L197.152,67.744 L153.376,67.744 Z" id="text01-02"></path>
                <path d="M51.712,130.384 C68.56,125.344 81.952,117.136 92.032,105.328 C100.96,117.136 113.488,125.344 129.904,130.384 L138.4,111.808 C120.688,107.344 109.312,101.44 104.704,93.952 L129.76,93.952 L129.76,48.304 L101.68,48.304 L101.68,42.688 L115.36,42.688 L115.36,37.648 C120.832,41.68 126.304,45.424 132.064,48.592 L138.4,30.016 C124.144,21.664 111.76,11.728 101.248,0.208 L80.368,0.208 C71.728,9.712 62.8,17.488 53.584,23.536 L38.608,23.536 L38.608,1.648 L18.88,1.648 L18.88,23.536 L3.904,23.536 L3.904,41.824 L17.584,41.824 C14.704,56.224 9.088,69.904 0.592,83.008 L9.232,105.04 C12.976,99.28 16.288,92.224 18.88,83.728 L18.88,130.672 L38.608,130.672 L38.608,72.496 L42.064,80.848 L44.944,88.336 L51.856,83.152 L51.856,93.952 L76.624,93.952 C71.728,101.44 60.496,107.488 43.216,111.808 L51.712,130.384 Z M79.792,26.272 C83.968,22.24 87.568,18.496 90.88,14.752 C94.336,18.928 98.08,22.672 101.824,26.272 L79.792,26.272 Z M101.68,78.544 L101.68,64.288 L111.472,64.288 L111.472,78.544 L101.68,78.544 Z M69.568,64.288 L79.936,64.288 L79.936,78.544 L69.568,78.544 L69.568,64.288 Z M49.552,48.592 C54.88,45.568 60.352,41.824 65.968,37.648 L65.968,42.688 L79.936,42.688 L79.936,48.304 L51.856,48.304 L51.856,64.432 L46.96,54.496 C44.224,48.448 42.208,44.272 40.912,41.824 L47.104,41.824 L49.552,48.592 Z" id="text01-01"></path>
                <path d="M290.496,247.2 C250.176,221.712 266.736,175.2 267.888,172.464 L246.288,164.976 C245.136,167.856 244.416,170.592 243.84,173.472 C233.04,176.928 220.224,181.968 211.44,188.16 L211.44,150 L188.832,150 L188.832,169.44 C185.232,169.44 179.904,170.016 173.856,171.888 L170.688,165.264 L156.144,172.464 L169.104,196.8 C178.464,191.76 185.232,191.04 188.832,191.04 L188.976,205.008 C169.68,222.144 157.296,239.568 156,241.44 L174.576,254.112 C175.152,253.392 180.48,245.616 188.976,235.824 L188.976,271.392 L211.584,271.392 L211.44,215.376 C219.648,208.608 231.456,202.56 241.104,197.952 C241.392,221.136 249.024,248.496 278.256,266.784 L290.496,247.2 Z" id="text01-02"></path>
            </g>
        </g>
    </g>
</svg>