<?xml version="1.0" encoding="UTF-8"?>
<svg width="590px" height="426px" viewBox="0 0 590 426" version="1.1" xmlns="http://www.w3.org/2000/svg" xmlns:xlink="http://www.w3.org/1999/xlink">
    <!-- Generator: Sketch 41.2 (35397) - http://www.bohemiancoding.com/sketch -->
    <title>text03</title>
    <desc>Created with Sketch.</desc>
    <defs>
        <polygon id="path-1" points="582.886809 0.684 4.30766534e-14 0.684 4.30766534e-14 441 582.887 441 582.887 0.684 582.886809 440.999932 -0.000404498773 440.999932 -0.000404498773 0.683557447 582.886809 0.683557447"></polygon>
    </defs>
    <g id="Page-1" stroke="none" stroke-width="1" fill="none" fill-rule="evenodd">
        <g id="Desktop-HD" transform="translate(-120.000000, -736.000000)">
            <g id="text03" transform="translate(423.282293, 980.051243) rotate(-11.000000) translate(-423.282293, -980.051243) translate(131.782293, 758.551243)">
                <g id="Page-1">
                    <path d="M305.9486,314.7725 C304.7896,311.9045 303.3846,306.7315 303.3846,306.7315 L305.9486,314.7725 L243.8246,349.0425 L220.5756,321.1435 L174.0786,342.8435 L155.4796,311.8445 L96.5836,341.2925 L87.2836,316.4955 L31.0506,330.7315 L34.5876,328.8945 L36.1426,324.0975 L53.1856,271.5475 L20.6386,249.8495 L50.0866,204.9025 L2.0386,163.0535 L36.6566,131.2065 L46.0506,122.7315 L41.0506,126.7315 L11.3386,74.7095 L43.8866,62.3105 L36.0506,19.7315 L31.0506,17.7315 L40.6386,21.1375 L96.5836,37.5115 L93.4836,11.1635 L153.9296,39.0615 L160.1296,6.5135 L223.6756,32.8615 L238.7646,10.2275 L242.2746,4.9635 L245.4966,7.0425 L290.3216,35.9615 L339.9186,9.6125 L353.8676,32.8615 L401.9146,11.1635 L414.0506,41.7315 L410.0506,42.7315 L415.9726,39.4985 L484.9886,15.5535 L493.0506,12.7315 L489.0506,13.7315 L490.2596,46.8115 L550.7056,40.6115 L532.1056,87.1085 L567.7536,115.0065 L546.0556,144.4545 L573.0156,172.7635 L581.0506,180.7315 L577.0506,176.7315 L542.9556,215.7515 L577.0536,254.4995 L539.8556,279.2975 L549.1556,305.6455 L501.1076,305.6455 L503.7916,325.7745 L504.2076,328.8945 L499.3146,328.1275 L425.1636,316.4955 L434.4626,341.2925 L363.1666,314.9455 C363.1666,314.9455 336.8366,370.5325 443.3406,431.9655 C444.2646,432.4985 445.1996,433.0335 446.1436,433.5675 C448.3916,434.8385 450.6976,436.1125 453.0616,437.3875 C350.5116,410.4005 313.7456,334.0735 305.9486,314.7725" id="Fill-1" fill="#FFFFFF"></path>
                    <g id="Group-5" transform="translate(-0.000000, 0.316000)">
                        <mask id="mask-2" fill="white">
                            <use xlink:href="#path-1"></use>
                        </mask>
                        <g id="Clip-4"></g>
                        <path d="M307.0125,314.0266 C306.3705,312.3436 305.3205,308.8116 305.1065,308.0336 C304.0495,307.2826 302.9925,306.5326 301.9345,305.7826 C302.7895,308.4626 303.6445,311.1426 304.4995,313.8236 C304.4515,312.7206 304.4045,311.6186 304.3565,310.5156 C283.6485,321.9396 262.9405,333.3626 242.2325,344.7866 C242.6385,345.0696 243.0445,345.3536 243.4515,345.6366 C235.7015,336.3366 227.9525,327.0366 220.2025,317.7376 C220.0465,317.5506 219.4125,316.6866 218.9835,316.8866 C203.4845,324.1206 187.9855,331.3536 172.4865,338.5876 C173.0555,339.1136 173.6245,339.6406 174.1935,340.1676 C167.9935,329.8346 161.7945,319.5016 155.5945,309.1686 C155.4035,308.8516 154.5165,307.2736 153.8875,307.5886 C134.2555,317.4046 114.6235,327.2206 94.9915,337.0366 C95.8765,338.2066 96.7615,339.3766 97.6475,340.5476 C94.5475,332.2816 91.4475,324.0156 88.3485,315.7496 C88.0785,315.0306 86.8535,311.9446 85.6915,312.2386 C66.9475,316.9836 48.2025,321.7296 29.4585,326.4746 C30.5195,329.1016 31.5805,331.7286 32.6425,334.3556 C36.1025,332.5586 36.3855,332.3266 37.5935,328.6006 C37.9225,327.5856 38.2515,326.5706 38.5815,325.5546 C40.4535,319.7826 42.3255,314.0096 44.1975,308.2376 C47.7995,297.1306 51.4015,286.0236 55.0035,274.9176 C55.7045,272.7566 53.7365,268.5196 51.9335,267.3176 C41.0845,260.0846 30.2345,252.8526 19.3855,245.6196 C20.4095,248.1526 21.4325,250.6856 22.4565,253.2186 L51.9045,208.2716 C52.9545,206.6696 50.4945,202.0516 49.2485,200.9666 C33.2325,187.0166 17.2175,173.0676 1.2015,159.1176 C2.0115,161.6376 2.8215,164.1576 3.6315,166.6776 C18.2735,153.2066 32.8695,139.6836 47.6425,126.3556 C49.2385,124.9166 45.2725,117.8236 44.4585,118.4746 C42.7915,119.8086 41.1245,121.1416 39.4585,122.4746 C40.0275,123.0016 40.5965,123.5286 41.1655,124.0556 C31.2615,106.7146 21.3575,89.3746 11.4535,72.0336 L12.9305,78.3336 C23.7795,74.2006 34.6295,70.0676 45.4785,65.9346 C46.1585,65.6756 45.6835,64.0186 45.6085,63.6116 C43.8295,53.9486 42.0515,44.2856 40.2735,34.6226 C39.4785,30.3046 38.8625,25.9036 37.8815,21.6236 C36.6635,16.3156 34.4485,15.3616 29.7975,13.5016 C30.6325,16.1106 31.4675,18.7206 32.3025,21.3296 C53.7875,28.9616 75.9575,34.7066 97.8355,41.1096 C98.6455,41.3466 98.5125,40.1096 98.4615,39.6776 C97.4285,30.8956 96.3945,22.1126 95.3615,13.3296 L94.7355,14.7606 C114.8845,24.0606 135.0335,33.3596 155.1815,42.6596 C155.4465,42.7706 155.6345,42.6946 155.7475,42.4306 C157.0865,35.4006 158.4255,28.3706 159.7655,21.3396 C160.4305,17.8466 160.9015,14.2426 161.7735,10.7936 C162.0215,9.8146 161.8005,10.1136 161.5375,10.1756 C161.8545,10.1006 162.9195,10.7336 163.1975,10.8646 C178.0915,17.8816 193.7845,23.5466 208.9935,29.8526 C214.3055,32.0556 219.6165,34.2576 224.9285,36.4596 C225.1925,36.5716 225.3805,36.4956 225.4935,36.2316 C229.0805,30.8506 232.6675,25.4706 236.2545,20.0906 C237.6885,17.9386 239.1225,15.7876 240.5565,13.6366 C241.2365,12.6156 241.9175,11.5956 242.5975,10.5756 C244.1075,8.3106 243.3825,8.4686 245.5255,9.8516 C256.1145,16.6836 266.7035,23.5146 277.2925,30.3456 C282.0525,33.4176 286.8135,36.4886 291.5745,39.5596 C291.6875,39.5686 291.8005,39.5776 291.9135,39.5866 C308.4455,30.8036 324.9785,22.0206 341.5105,13.2376 C340.9415,12.7106 340.3725,12.1836 339.8035,11.6566 C344.4525,19.4066 349.1025,27.1566 353.7525,34.9056 C353.9565,35.2456 354.8115,36.7786 355.4595,36.4866 L403.5065,14.7876 C402.6215,13.6176 401.7355,12.4476 400.8505,11.2766 C404.8955,21.4666 408.9405,31.6556 412.9865,41.8456 C412.8105,40.3886 412.6345,38.9316 412.4585,37.4746 C411.1245,37.8086 409.7915,38.1416 408.4585,38.4746 C409.5195,41.1016 410.5805,43.7286 411.6425,46.3556 C420.3645,41.5956 429.7935,38.8806 439.1815,35.6236 C453.5825,30.6266 467.9835,25.6306 482.3855,20.6336 C486.4735,19.2156 490.5575,17.7856 494.6425,16.3556 C496.0735,15.8546 493.2435,8.0286 491.4585,8.4746 C490.1245,8.8086 488.7915,9.1416 487.4585,9.4746 C487.2155,9.6606 487.1095,9.9116 487.1385,10.2296 C487.5415,21.2566 487.9445,32.2826 488.3475,43.3096 C488.4005,44.7736 489.7055,50.6556 491.8515,50.4356 C512.0005,48.3686 532.1485,46.3026 552.2975,44.2356 C551.1605,41.6936 550.0245,39.1516 548.8875,36.6096 C542.6875,52.1086 536.4875,67.6076 530.2875,83.1066 C529.5475,84.9576 531.4375,89.2336 532.9435,90.4116 C544.8265,99.7116 556.7085,109.0106 568.5905,118.3106 L565.9355,111.0056 C558.7025,120.8216 551.4695,130.6376 544.2375,140.4526 C543.0585,142.0516 545.7835,146.5936 546.8925,147.7576 C558.4825,159.9276 569.9555,172.2016 581.8875,184.0346 C583.2185,185.3546 582.8705,182.5796 582.7725,182.0336 C582.4545,180.2556 581.5105,178.0936 580.2125,176.7956 C578.8795,175.4626 577.5455,174.1296 576.2125,172.7956 C575.8325,172.4166 575.5555,172.3596 575.2325,172.7296 C563.8675,185.7366 552.5025,198.7436 541.1375,211.7506 C539.8485,213.2256 542.8035,217.9306 543.7935,219.0556 C555.1595,231.9716 566.5255,244.8866 577.8915,257.8026 C577.0815,255.2826 576.2715,252.7626 575.4615,250.2426 C563.0625,258.5086 550.6635,266.7746 538.2635,275.0416 C537.4705,275.5696 538.1905,277.7366 538.4065,278.3486 C541.5065,287.1316 544.6065,295.9136 547.7065,304.6966 C547.6585,303.5936 547.6115,302.4916 547.5635,301.3886 L499.5155,301.3886 C499.0755,301.3886 499.2215,302.7876 499.2295,302.8466 C500.2625,310.5966 501.2965,318.3466 502.3295,326.0956 C502.5375,325.6186 502.7465,325.1416 502.9545,324.6646 C476.6065,320.5356 450.2585,316.3986 423.9115,312.2646 C422.3695,312.0236 423.9455,316.1966 424.0995,316.6086 C427.1995,324.8746 430.2985,333.1406 433.3985,341.4066 L433.2095,337.0626 C409.4445,328.2806 385.6795,319.4976 361.9135,310.7156 C361.6495,310.6036 361.4615,310.6796 361.3485,310.9436 C357.6425,318.8416 357.8335,329.0786 359.0805,337.4496 C362.7275,361.9336 377.8425,383.2856 395.4315,399.9726 C412.8365,416.4856 433.2925,429.5926 454.3145,440.9856 C453.4795,438.3766 452.6445,435.7666 451.8095,433.1576 C395.5415,418.1596 345.2585,383.4286 316.0745,332.4506 C312.5385,326.2736 309.4855,320.1236 307.0125,314.0266 C306.7515,313.3826 305.4455,310.0756 304.3565,310.5156 C303.2925,310.9456 304.6905,314.4086 304.8845,314.8866 C322.0685,357.2546 355.1365,393.2436 394.3155,416.2816 C413.0555,427.3006 433.3285,435.3916 454.3145,440.9856 C455.7465,441.3676 453.3525,433.9936 451.8095,433.1576 C425.5775,418.9406 399.3015,401.8676 380.3955,378.3686 C370.9085,366.5786 363.2725,352.8196 362.2955,337.4506 C362.0275,333.2276 362.2425,328.9096 363.0645,324.7536 C363.4065,323.0256 363.7295,320.1806 364.8155,318.7036 C365.3315,318.0026 363.8835,318.5616 365.0795,318.7876 C366.9455,319.1396 368.9085,320.2026 370.6825,320.8586 C378.1655,323.6236 385.6485,326.3886 393.1315,329.1546 L435.7145,344.8906 C437.1675,345.4276 435.5965,340.7346 435.5265,340.5476 C432.4265,332.2816 429.3265,324.0156 426.2275,315.7496 L426.4155,320.0926 C452.7635,324.2266 479.1115,328.3636 505.4595,332.4926 C506.2615,332.6186 506.1575,331.5986 506.0855,331.0606 C505.0525,323.3116 504.0195,315.5616 502.9855,307.8116 C502.8905,308.2976 502.7955,308.7836 502.6995,309.2696 L550.7475,309.2696 C551.5705,309.2696 550.6635,306.1296 550.6045,305.9626 C547.5045,297.1796 544.4045,288.3976 541.3055,279.6146 C541.3525,280.7176 541.4005,281.8196 541.4475,282.9226 C553.8475,274.6566 566.2465,266.3896 578.6465,258.1236 C580.4115,256.9466 577.0825,251.5476 576.2165,250.5636 C564.8505,237.6476 553.4835,224.7326 542.1175,211.8166 L544.7735,219.1216 C551.3275,211.6206 557.8805,204.1206 564.4345,196.6206 C568.2785,192.2206 572.1235,187.8206 575.9675,183.4206 C576.7375,182.5396 577.7005,180.8696 578.7205,180.2696 C579.0045,180.1026 578.7355,180.1106 578.4385,180.1466 C577.5245,180.2556 578.6825,180.6466 578.9245,181.0716 C579.5425,182.1576 580.9935,183.1406 581.8875,184.0346 C581.3295,181.6216 580.7705,179.2086 580.2125,176.7956 C568.2805,164.9626 556.8065,152.6886 545.2175,140.5186 C546.1025,142.9536 546.9875,145.3886 547.8735,147.8236 C555.1055,138.0086 562.3385,128.1926 569.5715,118.3766 C570.6465,116.9166 568.1445,112.0326 566.9155,111.0716 C555.0335,101.7716 543.1505,92.4726 531.2685,83.1726 L533.9235,90.4776 C540.1235,74.9786 546.3235,59.4796 552.5235,43.9806 C553.1065,42.5236 551.1285,36.1476 549.1135,36.3546 C528.9645,38.4216 508.8155,40.4876 488.6675,42.5546 C489.8355,44.9296 491.0025,47.3056 492.1705,49.6806 C491.9335,43.1796 491.6955,36.6786 491.4585,30.1776 C491.3205,26.4086 491.1825,22.6396 491.0445,18.8706 C491.0295,18.4446 490.7285,16.9646 490.9635,16.6406 C490.1545,17.7586 494.0405,16.5066 494.6425,16.3556 C493.5805,13.7286 492.5195,11.1016 491.4585,8.4746 C467.5205,16.8546 443.5445,25.1236 419.5835,33.4366 C415.5505,34.8356 412.2475,36.4066 408.4585,38.4746 C406.9575,39.2936 409.9595,46.7766 411.6425,46.3556 C412.9755,46.0226 414.3085,45.6896 415.6425,45.3556 C416.7265,45.0846 415.2435,41.3106 415.1145,40.9856 C411.0685,30.7966 407.0235,20.6066 402.9785,10.4176 C402.7575,9.8616 401.3585,6.4386 400.3225,6.9066 C384.3065,14.1396 368.2915,21.3726 352.2755,28.6056 C352.8445,29.1316 353.4135,29.6586 353.9825,30.1856 C349.3325,22.4356 344.6835,14.6866 340.0335,6.9366 C339.8515,6.6326 338.9435,5.0276 338.3265,5.3566 C323.7045,13.1246 309.0825,20.8926 294.4595,28.6606 C293.1265,29.3696 290.3355,31.6376 288.7805,31.6786 C288.8025,31.6776 285.3765,29.3496 284.5135,28.7926 C276.2435,23.4576 267.9745,18.1216 259.7045,12.7866 C253.4765,8.7686 247.2495,4.7516 241.0215,0.7336 C240.7575,0.6216 240.5685,0.6976 240.4565,0.9616 C236.8635,6.3506 233.2705,11.7396 229.6785,17.1286 C227.4075,20.5356 224.6335,23.9206 222.7325,27.5476 C221.9295,29.0786 222.5865,28.8176 220.7735,27.9476 C205.8915,20.8106 190.0575,15.2116 174.8115,8.8906 C169.4995,6.6876 164.1885,4.4856 158.8765,2.2836 C158.6125,2.1716 158.4235,2.2476 158.3115,2.5116 C157.0325,9.2276 155.7525,15.9426 154.4735,22.6586 C153.8125,26.1296 152.4955,30.0096 152.3995,33.5456 C152.3555,35.1846 152.8235,35.1436 151.2965,34.1946 C145.7785,30.7626 139.0185,28.5276 133.1255,25.8076 C124.6285,21.8856 116.1315,17.9636 107.6345,14.0426 L92.2305,6.9326 C91.4335,6.5656 91.5685,8.0566 91.6055,8.3646 C92.6385,17.1476 93.6715,25.9306 94.7055,34.7136 C94.9135,34.2356 95.1225,33.7586 95.3305,33.2816 C73.4525,26.8786 51.2835,21.1336 29.7975,13.5016 C28.8185,13.1536 30.2715,20.5166 32.3025,21.3296 C33.9695,21.9966 35.6355,22.6626 37.3025,23.3296 C36.3105,21.4856 35.3195,19.6416 34.3275,17.7976 C36.9395,31.9906 39.5515,46.1836 42.1635,60.3766 C42.2075,59.6026 42.2505,58.8276 42.2935,58.0536 C31.4445,62.1866 20.5955,66.3196 9.7465,70.4526 C8.2485,71.0236 10.8255,76.0576 11.2235,76.7536 C21.1275,94.0946 31.0315,111.4346 40.9355,128.7756 C41.0535,128.9836 42.1235,130.7716 42.6425,130.3556 C44.3085,129.0226 45.9755,127.6896 47.6425,126.3556 C46.5805,123.7286 45.5195,121.1016 44.4585,118.4746 C29.6845,131.8026 15.0895,145.3256 0.4465,158.7966 C-1.0825,160.2036 1.7085,165.3396 2.8765,166.3566 C18.8925,180.3066 34.9085,194.2556 50.9235,208.2056 C50.0385,205.7706 49.1535,203.3356 48.2685,200.9006 C38.4525,215.8836 28.6365,230.8656 18.8195,245.8476 C17.6745,247.5966 20.4465,252.4856 21.8905,253.4476 C32.7395,260.6806 43.5885,267.9136 54.4385,275.1456 C53.4145,272.6126 52.3915,270.0796 51.3675,267.5466 C47.8655,278.3456 44.3635,289.1446 40.8605,299.9436 L35.1435,317.5716 C34.8595,318.4476 34.5755,319.3236 34.2915,320.1996 C33.9105,321.3736 33.6365,323.4426 32.9245,324.4156 C32.2245,325.3706 30.5355,325.9156 29.4585,326.4746 C27.9555,327.2556 30.9565,334.7826 32.6425,334.3556 C51.3865,329.6106 70.1315,324.8646 88.8765,320.1196 C87.9905,318.9496 87.1055,317.7796 86.2205,316.6086 C89.3195,324.8746 92.4195,333.1406 95.5195,341.4066 C95.7165,341.9326 97.1785,345.4156 98.1755,344.9176 C117.8075,335.1016 137.4395,325.2856 157.0715,315.4696 C156.5025,314.9426 155.9335,314.4156 155.3645,313.8886 C161.5635,324.2216 167.7635,334.5546 173.9635,344.8876 C174.1625,345.2206 175.0285,346.7686 175.6705,346.4686 C191.1695,339.2346 206.6685,332.0016 222.1685,324.7686 C221.7615,324.4846 221.3555,324.2016 220.9495,323.9176 C228.6995,333.2176 236.4485,342.5176 244.1985,351.8176 C244.3285,351.9736 245.0095,352.8916 245.4165,352.6676 C266.1245,341.2436 286.8325,329.8206 307.5405,318.3966 C308.3655,317.9426 307.5735,315.6396 307.3975,315.0896 C306.5425,312.4096 305.6885,309.7286 304.8335,307.0486 C304.2685,305.2766 300.3055,299.8566 301.6615,304.7976 C302.5985,308.2076 303.6235,311.5806 304.8845,314.8866 C305.1315,315.5346 306.4615,318.8336 307.5405,318.3966 C308.6115,317.9646 307.1965,314.5096 307.0125,314.0266" id="Fill-3" fill="#000000" mask="url(#mask-2)"></path>
                    </g>
                </g>
                <path d="M119.544,116.192 C114.104,121.312 106.68,126.176 97.272,130.656 L102.264,138.272 C114.552,132.448 124.344,125.024 131.768,116.192 L131.768,107.936 L82.232,107.936 L82.232,116.192 L119.544,116.192 Z M96.568,95.904 C100.152,93.28 103.608,90.208 107,86.752 C110.392,90.208 113.848,93.28 117.432,95.904 L96.568,95.904 Z M123.448,100.064 C126.84,102.24 130.36,104.224 133.88,105.888 L137.528,97.76 C128.184,92.896 120.184,87.2 113.4,80.48 L100.6,80.48 C93.816,87.2 85.816,92.896 76.472,97.76 L80.12,105.888 C83.64,104.224 87.16,102.24 90.552,100.064 L90.552,103.84 L123.448,103.84 L123.448,100.064 Z M181.432,106.528 L181.432,125.856 C181.432,128.416 181.368,128.48 178.872,128.48 C177.144,128.48 174.264,128.352 170.296,128.16 L170.808,136.608 C175.224,136.8 178.488,136.928 180.728,136.928 C184.44,136.928 186.104,136.928 187.896,136.224 C188.856,135.904 189.56,135.584 189.944,135.136 C190.712,134.304 191.416,132.256 191.48,130.08 C191.544,128.928 191.608,127.456 191.608,125.536 L191.608,106.528 L200.76,106.528 L200.76,98.08 L163.768,98.08 L163.768,106.528 L181.432,106.528 Z M164.6,82.016 L164.6,90.464 L198.136,90.464 L198.136,82.016 L164.6,82.016 Z M145.272,99.04 C148.856,96.864 151.864,94.624 154.296,92.448 C156.728,90.272 159.288,87.52 161.848,84.192 L154.936,79.2 C152.888,81.76 150.776,83.872 148.856,85.536 C146.936,87.264 144.44,88.928 141.496,90.72 L145.272,99.04 Z M157.624,107.808 C159.8,105.056 161.592,102.368 163,99.68 L155.256,95.008 C152.952,98.592 150.648,101.472 148.536,103.776 C146.424,106.144 143.8,108.448 140.6,110.88 L142.904,121.568 C144.568,120.224 146.232,118.496 147.896,116.32 L147.896,137.632 L157.624,137.632 L157.624,107.808 Z M252.216,121.952 L247.672,125.728 C240.824,117.6 232.952,111.52 227.896,107.744 L253.432,88.096 L246.776,80.096 L209.848,108.896 C223.352,116.384 235.384,125.024 243.832,137.888 L256.696,127.392 L252.216,121.952 Z M324.472,111.712 L324.472,102.304 L306.68,102.304 L318.968,86.688 C311.416,80.864 318.712,86.752 311.8,80.864 L290.936,91.04 L285.112,80.48 L276.408,85.344 L285.24,101.024 L301.368,93.152 L294.52,102.304 L271.224,102.304 L271.224,111.712 L290.36,111.712 C288.248,116.32 287.16,121.632 288.76,126.304 C290.296,130.784 294.52,136.224 307.384,137.44 L311.352,125.92 L304.504,123.68 L303.416,126.88 C294.84,123.744 298.552,116.128 302.392,111.712 L324.472,111.712 Z M324.024,100 L322.36,90.528 L316.216,91.68 L317.88,101.152 L324.024,100 Z M330.872,94.56 L329.208,85.152 L323.064,86.304 L324.728,95.84 L330.872,94.56 Z M335.032,122.976 C340.216,128.8 344.184,133.472 346.808,136.992 L354.232,131.616 C350.968,127.584 347,122.72 342.2,117.152 L335.032,122.976 Z M121.272,185.44 C113.016,190.496 108.216,190.816 104.248,188.256 C101.112,186.144 99.192,182.56 99.192,178.784 L99.192,164.32 L120.056,164.32 L116.344,172.32 L110.712,169.76 L107.64,175.968 L122.232,182.944 L135.8,154.976 L99.192,154.976 L99.192,145.696 L88.888,145.696 L88.888,154.976 L79.416,154.976 L79.416,164.32 L88.888,164.32 L88.888,178.976 C88.888,186.528 93.304,193.76 99.768,197.472 C109.048,202.848 118.136,199.264 126.648,194.016 L121.272,185.44 Z M160.44,180.896 L160.632,148 L150.136,148 L150.008,180.704 L160.44,180.896 Z M187.832,189.792 C190.584,183.648 192.184,177.12 192.504,170.464 C192.824,163.424 192.312,155.616 188.152,143.968 L178.424,147.232 C180.024,151.904 181.176,155.936 181.752,160.416 C183.032,170.784 181.24,181.6 175.8,190.432 L171.576,187.552 L167.48,193.248 L180.216,202.08 C183.16,198.048 185.912,194.08 187.832,189.792 Z M255.352,194.016 C253.112,186.848 250.744,180.128 246.008,174.88 L264.184,149.536 L207.032,149.536 L207.032,159.456 L244.6,159.456 L238.008,168.928 C233.4,167.2 229.368,167.072 224.888,166.816 L224.888,176.736 C227.512,176.864 229.88,176.672 231.928,177.248 L223.288,189.6 L218.936,186.4 L214.584,192.096 L227.192,200.992 L239.928,183.2 C242.552,187.424 244.28,191.84 245.56,196.64 L255.352,194.016 Z M296.12,167.008 L301.24,158.112 L279.48,145.888 L274.296,154.656 L296.12,167.008 Z M307.64,187.296 C316.28,181.088 322.552,173.088 328.056,163.616 L319.032,158.432 C310.456,173.344 298.424,183.456 282.552,188.576 L281.656,185.184 L274.744,186.912 L278.136,200.16 C288.888,197.6 298.808,193.632 307.64,187.296 Z M384.376,147.936 L341.752,147.936 L341.752,157.792 L384.376,157.792 L384.376,147.936 Z M359.8,173.216 C360.632,179.68 357.688,186.72 356.152,189.6 L352.312,187.04 L348.28,192.864 L360.952,201.056 C364.216,196.32 371.32,185.184 370.36,173.216 L389.048,173.216 L389.048,163.424 L337.08,163.424 L337.08,173.216 L359.8,173.216 Z M435.064,157.472 L437.88,159.008 C435.32,162.528 427.128,171.424 404.344,173.024 L404.984,181.984 C415.864,181.216 421.304,179.936 425.528,178.336 L425.528,200.16 L435,200.16 L435,173.728 C443.512,168.224 446.904,161.824 449.144,157.408 L438.072,151.84 L435.064,157.472 Z M493.624,200.928 C516.088,185.44 515.64,161.952 515.448,155.936 L495.928,155.936 L495.928,146.464 L485.88,146.464 L485.88,155.936 L475.384,155.936 L475,151.2 L464.952,151.968 L467.384,182.176 L477.368,181.28 L476.152,165.408 L504.888,165.408 C504.056,171.296 501.496,181.92 493.496,188.64 L491.256,185.44 L485.496,189.6 L493.624,200.928 Z M134.264,253.792 C120.376,247.776 115.512,239.136 114.232,236.256 L132.536,213.856 L83.128,213.856 L83.128,223.584 L111.544,223.584 L88.824,252 L85.048,248.864 L80.504,254.304 L92.024,263.52 L107.512,244.384 C113.912,255.072 119.352,257.952 130.04,262.88 L134.264,253.792 Z M144.312,231.776 L144.312,242.144 L197.688,242.144 L197.688,231.776 L144.312,231.776 Z M216.696,243.104 L226.168,241.376 L222.264,220.512 L212.984,222.048 L216.696,243.104 Z M228.792,241.312 L238.392,240.8 L237.176,220.192 L227.576,220.768 L228.792,241.312 Z M246.264,222.048 L245.752,228.384 L249.08,228.64 C248.568,231.328 245.432,245.6 227.448,255.392 L232.056,263.456 C255.736,250.848 258.424,230.304 258.488,229.408 L259.064,222.944 L246.264,222.048 Z M280.696,243.104 L290.168,241.376 L286.264,220.512 L276.984,222.048 L280.696,243.104 Z M292.792,241.312 L302.392,240.8 L301.176,220.192 L291.576,220.768 L292.792,241.312 Z M310.264,222.048 L309.752,228.384 L313.08,228.64 C312.568,231.328 309.432,245.6 291.448,255.392 L296.056,263.456 C319.736,250.848 322.424,230.304 322.488,229.408 L323.064,222.944 L310.264,222.048 Z M357.432,250.4 L357.432,260 L368.568,260 L368.568,250.4 L357.432,250.4 Z M369.528,213.28 L356.472,213.28 L358.072,245.28 L367.928,245.28 L369.528,213.28 Z M421.432,250.4 L421.432,260 L432.568,260 L432.568,250.4 L421.432,250.4 Z M433.528,213.28 L420.472,213.28 L422.072,245.28 L431.928,245.28 L433.528,213.28 Z" id="今行くぞ、-セリヌンティウスーッッ！！" fill="#252423"></path>
            </g>
        </g>
    </g>
</svg>