<?xml version="1.0" encoding="UTF-8"?>
<svg width="488px" height="76px" viewBox="0 0 488 76" version="1.1" xmlns="http://www.w3.org/2000/svg" xmlns:xlink="http://www.w3.org/1999/xlink">
    <!-- Generator: Sketch 41.2 (35397) - http://www.bohemiancoding.com/sketch -->
    <title>text09</title>
    <desc>Created with Sketch.</desc>
    <defs></defs>
    <g id="Page-1" stroke="none" stroke-width="1" fill="none" fill-rule="evenodd">
        <g id="Desktop-HD" transform="translate(-653.000000, -5386.000000)" fill="#FFFFFF">
            <g id="text09" transform="translate(653.000000, 5385.000000)">
                <path d="M242.22,40.42 L242.22,32.2 L213,32.2 L213,40.42 L229.98,40.42 L229.98,40.54 L218.88,50.14 L218.88,56.98 L221.88,56.98 C226.08,56.98 228.96,57.46 230.46,58.24 C232.02,59.08 232.8,60.4 232.8,62.38 C232.8,66.22 230.1,68.5 225.48,68.5 C221.82,68.5 217.74,67.54 213.3,65.68 L213.3,74.5 C217.44,75.88 221.76,76.6 226.32,76.6 C236.94,76.6 242.82,71.5 242.82,62.2 C242.82,54.82 238.26,50.2 231.3,50.2 L230.52,50.2 L230.52,50.08 L242.22,40.42 Z M265.62,67.66 C272.1,62.26 276.42,57.94 278.64,54.76 C280.86,51.52 282,48.16 282,44.62 C282,36.46 276.54,31.6 266.88,31.6 C262.02,31.6 257.4,32.44 253.08,34.12 L253.08,43.42 C258,41.2 262.08,40.06 265.38,40.06 C269.46,40.06 271.5,41.92 271.5,45.58 C271.5,48.4 270.24,51.28 267.72,54.28 C265.26,57.22 260.04,61.72 252.18,67.78 L252.18,76 L282.18,76 L282.18,67.78 L265.62,67.78 L265.62,67.66 Z M300.66,65.56 C299.52,63.34 298.98,59.56 298.98,54.1 C298.98,48.64 299.52,44.86 300.66,42.64 C301.8,40.42 303.6,39.34 306,39.34 C308.4,39.34 310.14,40.42 311.28,42.64 C312.42,44.86 313.02,48.64 313.02,54.1 C313.02,59.56 312.42,63.34 311.28,65.56 C310.14,67.78 308.4,68.86 306,68.86 C303.6,68.86 301.8,67.78 300.66,65.56 Z M292.86,36.88 C290.04,40.42 288.6,46.12 288.6,54.1 C288.6,62.08 290.04,67.78 292.86,71.32 C295.74,74.86 300.12,76.6 306,76.6 C311.88,76.6 316.26,74.86 319.08,71.32 C321.96,67.78 323.4,62.08 323.4,54.1 C323.4,46.12 321.96,40.42 319.08,36.88 C316.26,33.34 311.88,31.6 306,31.6 C300.12,31.6 295.74,33.34 292.86,36.88 Z M339.66,65.56 C338.52,63.34 337.98,59.56 337.98,54.1 C337.98,48.64 338.52,44.86 339.66,42.64 C340.8,40.42 342.6,39.34 345,39.34 C347.4,39.34 349.14,40.42 350.28,42.64 C351.42,44.86 352.02,48.64 352.02,54.1 C352.02,59.56 351.42,63.34 350.28,65.56 C349.14,67.78 347.4,68.86 345,68.86 C342.6,68.86 340.8,67.78 339.66,65.56 Z M331.86,36.88 C329.04,40.42 327.6,46.12 327.6,54.1 C327.6,62.08 329.04,67.78 331.86,71.32 C334.74,74.86 339.12,76.6 345,76.6 C350.88,76.6 355.26,74.86 358.08,71.32 C360.96,67.78 362.4,62.08 362.4,54.1 C362.4,46.12 360.96,40.42 358.08,36.88 C355.26,33.34 350.88,31.6 345,31.6 C339.12,31.6 334.74,33.34 331.86,36.88 Z M378.66,65.56 C377.52,63.34 376.98,59.56 376.98,54.1 C376.98,48.64 377.52,44.86 378.66,42.64 C379.8,40.42 381.6,39.34 384,39.34 C386.4,39.34 388.14,40.42 389.28,42.64 C390.42,44.86 391.02,48.64 391.02,54.1 C391.02,59.56 390.42,63.34 389.28,65.56 C388.14,67.78 386.4,68.86 384,68.86 C381.6,68.86 379.8,67.78 378.66,65.56 Z M370.86,36.88 C368.04,40.42 366.6,46.12 366.6,54.1 C366.6,62.08 368.04,67.78 370.86,71.32 C373.74,74.86 378.12,76.6 384,76.6 C389.88,76.6 394.26,74.86 397.08,71.32 C399.96,67.78 401.4,62.08 401.4,54.1 C401.4,46.12 399.96,40.42 397.08,36.88 C394.26,33.34 389.88,31.6 384,31.6 C378.12,31.6 373.74,33.34 370.86,36.88 Z M417.42,76 L417.42,63.4 L417.54,63.4 L427.26,76 L438.36,76 L425.52,59.8 L438.36,44.8 L427.26,44.8 L417.54,56.62 L417.42,56.62 L417.42,31 L407.76,31 L407.76,76 L417.42,76 Z M454.2,54.82 C454.2,54.1 454.62,53.38 455.52,52.6 C456.42,51.82 457.32,51.46 458.22,51.46 C460.86,51.46 461.58,52.48 461.58,56.8 L461.58,76 L471.06,76 L471.06,54.82 C471.06,54.1 471.48,53.38 472.32,52.6 C473.22,51.82 474.12,51.46 475.02,51.46 C477.66,51.46 478.44,52.48 478.44,56.8 L478.44,76 L487.92,76 L487.92,56.2 C487.92,47.5 485.04,44.2 478.26,44.2 C475.26,44.2 472.38,45.76 469.56,48.82 L469.44,48.82 C467.58,45.4 465.66,44.2 462,44.2 C458.94,44.2 456.18,45.76 453.84,48.82 L453.72,48.82 L453.48,44.8 L444.48,44.8 L444.48,76 L454.2,76 L454.2,54.82 Z"></path>
                <path d="M27.821,30.699 C27.236,30.699 26.768,30.66 26.339,30.582 C25.559,30.465 25.52,30.387 25.52,29.022 L25.52,18.219 C29.147,16.113 32.852,13.266 36.557,9.639 L32.774,5.544 C30.356,7.962 27.938,9.99 25.52,11.667 L25.52,1.488 L19.319,1.488 L19.319,29.724 C19.319,32.61 19.358,33.78 20.138,34.716 C20.957,35.652 21.815,35.73 24.233,35.847 C25.286,35.925 26.417,35.964 27.665,35.964 C29.03,35.964 30.161,35.886 31.097,35.769 C32.618,35.613 33.242,35.496 34.022,34.755 C34.412,34.365 34.724,33.897 34.88,33.351 C35.27,32.298 35.66,29.88 35.777,27.15 L36.011,21.651 L30.551,20.988 C30.434,25.629 30.356,28.398 30.239,29.256 C30.122,30.075 29.849,30.543 29.342,30.582 C28.835,30.621 28.328,30.699 27.821,30.699 Z M1.262,14.436 L9.686,14.436 L9.686,23.484 C6.41,24.732 3.446,25.707 0.716,26.487 L2.198,31.752 C4.031,31.245 6.488,30.348 9.686,29.1 L9.686,36.432 L15.77,36.432 L15.77,1.488 L9.686,1.488 L9.686,9.327 L1.262,9.327 L1.262,14.436 Z M54.263,33.975 C54.263,33.819 54.224,33.351 54.224,33.156 L63.974,33.156 L63.974,36.432 L70.019,36.432 L70.019,33.156 L75.713,33.156 L75.713,28.554 L70.019,28.554 L70.019,27.267 L74.933,27.267 L74.933,23.211 L70.019,23.211 L70.019,22.197 L74.114,22.197 L74.114,14.319 L54.77,14.319 L54.77,19.194 C54.224,16.62 53.717,14.67 53.327,13.344 L75.557,13.344 L75.557,8.898 L73.49,8.898 L73.49,3.36 L65.417,3.36 L65.885,1.449 L59.957,1.098 C59.801,1.605 59.489,2.853 59.372,3.36 L54.692,3.36 L54.692,7.572 L58.124,7.572 C57.929,8.196 57.773,8.625 57.656,8.898 L53.054,8.898 L53.054,12.642 L50.246,13.383 C51.572,11.121 52.82,8.898 53.951,6.714 L49.505,5.037 C48.725,6.675 47.555,8.703 46.151,11.16 C46.112,11.121 45.683,10.575 45.527,10.302 C46.814,7.845 48.023,5.154 49.193,2.385 L44.591,0.981 C44.006,2.658 43.304,4.413 42.524,6.246 C42.251,5.895 41.588,5.037 41.315,4.725 L39.287,10.536 L43.304,15.84 C43.148,16.074 42.836,16.62 42.68,16.815 L39.638,17.01 L39.833,22.47 L44.24,22.158 L44.24,36.432 L49.856,36.432 L49.856,21.729 L51.611,21.612 L51.884,22.86 L55.043,22.197 L63.974,22.197 L63.974,23.211 L54.458,23.211 L54.458,27.267 L55.901,27.267 L55.901,28.554 L53.951,28.554 C53.834,26.994 53.717,25.2 53.522,23.172 L50.363,23.523 C50.636,27.54 50.792,31.128 50.909,34.209 L54.263,33.975 Z M42.641,34.638 C43.187,30.933 43.538,27.306 43.733,23.718 L40.301,23.484 C40.106,26.838 39.716,30.348 39.209,34.053 L42.641,34.638 Z M50.363,16.347 L48.296,16.503 L49.778,14.124 L50.363,16.347 Z M68.342,18.999 L60.152,18.999 L60.152,17.556 L68.342,17.556 L68.342,18.999 Z M60.971,27.267 L63.974,27.267 L63.974,28.554 L60.971,28.554 L60.971,27.267 Z M63.701,8.898 C63.818,8.625 63.974,8.196 64.13,7.572 L67.562,7.572 L67.562,8.898 L63.701,8.898 Z M98.918,9.873 L98.918,4.53 L79.925,4.53 L79.925,9.873 L90.962,9.873 L90.962,9.951 L83.747,16.191 L83.747,20.637 L85.697,20.637 C88.427,20.637 90.299,20.949 91.274,21.456 C92.288,22.002 92.795,22.86 92.795,24.147 C92.795,26.643 91.04,28.125 88.037,28.125 C85.658,28.125 83.006,27.501 80.12,26.292 L80.12,32.025 C82.811,32.922 85.619,33.39 88.583,33.39 C95.486,33.39 99.308,30.075 99.308,24.03 C99.308,19.233 96.344,16.23 91.82,16.23 L91.313,16.23 L91.313,16.152 L98.918,9.873 Z M118.808,10.029 C114.44,16.932 110.696,24.576 107.615,33 L114.713,33 C116.273,28.281 117.833,24.186 119.432,20.637 C121.031,17.088 122.903,13.5 125.087,9.873 L125.087,4.53 L105.08,4.53 L105.08,9.873 L118.808,9.873 L118.808,10.029 Z M133.862,8.898 C134.837,7.923 136.397,7.923 137.333,8.898 C138.308,9.873 138.308,11.433 137.333,12.408 C136.397,13.344 134.837,13.383 133.862,12.408 C132.887,11.433 132.926,9.873 133.862,8.898 Z M131.015,15.255 C132.302,16.503 133.823,17.127 135.617,17.127 C137.411,17.127 138.932,16.503 140.219,15.255 C141.506,13.968 142.13,12.447 142.13,10.653 C142.13,8.859 141.506,7.338 140.219,6.051 C138.932,4.764 137.411,4.14 135.617,4.14 C133.823,4.14 132.302,4.764 131.015,6.051 C129.728,7.338 129.104,8.859 129.104,10.653 C129.104,12.447 129.728,13.968 131.015,15.255 Z M15.263,72.975 C15.263,72.819 15.224,72.351 15.224,72.156 L24.974,72.156 L24.974,75.432 L31.019,75.432 L31.019,72.156 L36.713,72.156 L36.713,67.554 L31.019,67.554 L31.019,66.267 L35.933,66.267 L35.933,62.211 L31.019,62.211 L31.019,61.197 L35.114,61.197 L35.114,53.319 L15.77,53.319 L15.77,58.194 C15.224,55.62 14.717,53.67 14.327,52.344 L36.557,52.344 L36.557,47.898 L34.49,47.898 L34.49,42.36 L26.417,42.36 L26.885,40.449 L20.957,40.098 C20.801,40.605 20.489,41.853 20.372,42.36 L15.692,42.36 L15.692,46.572 L19.124,46.572 C18.929,47.196 18.773,47.625 18.656,47.898 L14.054,47.898 L14.054,51.642 L11.246,52.383 C12.572,50.121 13.82,47.898 14.951,45.714 L10.505,44.037 C9.725,45.675 8.555,47.703 7.151,50.16 C7.112,50.121 6.683,49.575 6.527,49.302 C7.814,46.845 9.023,44.154 10.193,41.385 L5.591,39.981 C5.006,41.658 4.304,43.413 3.524,45.246 C3.251,44.895 2.588,44.037 2.315,43.725 L0.287,49.536 L4.304,54.84 C4.148,55.074 3.836,55.62 3.68,55.815 L0.638,56.01 L0.833,61.47 L5.24,61.158 L5.24,75.432 L10.856,75.432 L10.856,60.729 L12.611,60.612 L12.884,61.86 L16.043,61.197 L24.974,61.197 L24.974,62.211 L15.458,62.211 L15.458,66.267 L16.901,66.267 L16.901,67.554 L14.951,67.554 C14.834,65.994 14.717,64.2 14.522,62.172 L11.363,62.523 C11.636,66.54 11.792,70.128 11.909,73.209 L15.263,72.975 Z M3.641,73.638 C4.187,69.933 4.538,66.306 4.733,62.718 L1.301,62.484 C1.106,65.838 0.716,69.348 0.209,73.053 L3.641,73.638 Z M11.363,55.347 L9.296,55.503 L10.778,53.124 L11.363,55.347 Z M29.342,57.999 L21.152,57.999 L21.152,56.556 L29.342,56.556 L29.342,57.999 Z M21.971,66.267 L24.974,66.267 L24.974,67.554 L21.971,67.554 L21.971,66.267 Z M24.701,47.898 C24.818,47.625 24.974,47.196 25.13,46.572 L28.562,46.572 L28.562,47.898 L24.701,47.898 Z M42.485,73.599 C43.07,69.894 43.382,66.189 43.577,62.64 L40.145,62.406 C39.911,65.799 39.521,69.309 39.053,73.014 L42.485,73.599 Z M39.326,49.536 C40.574,51.135 41.939,52.89 43.382,54.84 C43.304,55.035 42.953,55.62 42.797,55.815 L39.521,56.01 L39.638,61.47 L44.045,61.158 L44.045,75.432 L49.778,75.432 L49.778,60.729 L52.04,60.573 L52.04,62.328 L50.285,62.523 C50.48,64.395 50.636,66.657 50.792,69.348 L53.093,69.153 C52.391,69.894 51.533,70.674 50.597,71.493 L54.224,74.925 C55.472,73.794 56.642,72.546 57.734,71.103 L57.968,75.081 C59.684,75.198 60.737,75.276 61.166,75.276 C63.116,75.276 64.013,75.237 64.949,74.886 C65.456,74.691 65.846,74.496 66.041,74.223 C66.431,73.794 66.821,72.468 66.86,71.142 C66.899,70.44 66.899,69.543 66.899,68.334 L66.899,67.086 C68.693,70.323 70.799,72.975 73.217,75.042 L76.259,70.362 C74.855,69.309 73.49,67.983 72.086,66.306 C73.451,64.824 74.738,63.147 75.986,61.236 L73.1,58.623 L74.582,58.623 L74.582,42.594 L66.587,42.594 C66.821,41.58 67.016,40.761 67.133,40.059 L60.854,39.708 C60.737,40.41 60.503,41.346 60.269,42.594 L53.483,42.594 L53.483,45.48 L49.622,44.037 C48.296,46.611 47.165,48.678 46.229,50.238 L45.527,49.263 C46.97,46.572 48.14,43.92 49.154,41.346 L44.552,39.981 C43.811,42.087 43.148,43.842 42.524,45.168 C42.017,44.544 41.627,44.037 41.393,43.725 L39.326,49.536 Z M60.074,70.44 C60.035,70.44 59.411,70.401 58.319,70.284 C59.762,68.178 60.776,66.15 61.4,64.278 L61.4,68.88 C61.4,70.401 61.4,70.44 60.074,70.44 Z M48.413,55.464 C49.193,54.216 49.817,53.202 50.207,52.578 C50.636,54.021 50.87,54.918 50.948,55.308 L48.413,55.464 Z M50.519,52.071 C51.533,50.355 52.547,48.6 53.483,46.806 L53.483,51.291 L50.519,52.071 Z M53.912,68.256 C53.834,67.008 53.717,65.76 53.561,64.434 L56.486,64.434 C55.901,65.682 55.043,66.93 53.912,68.256 Z M61.4,58.623 L61.4,62.874 L59.606,60.105 L55.706,60.105 L55.355,58.623 L61.4,58.623 Z M68.654,48.834 L58.943,48.834 L58.943,46.962 L68.654,46.962 L68.654,48.834 Z M58.943,54.528 L58.943,52.617 L68.654,52.617 L68.654,54.528 L58.943,54.528 Z M72.125,58.623 C71.306,59.871 70.331,61.119 69.278,62.367 C68.537,61.197 67.913,59.949 67.328,58.623 L72.125,58.623 Z M107.147,73.482 C111.437,70.479 113.816,65.682 113.933,60.417 C114.011,55.152 111.71,50.043 107.615,46.884 C103.832,43.881 98.606,42.711 93.497,43.491 C88.466,44.349 84.059,46.923 81.446,50.901 C78.521,55.347 77.78,61.236 79.73,65.643 C81.173,69.036 83.942,71.22 87.608,71.805 C90.65,72.234 93.77,71.22 96.305,69.036 C100.01,65.799 101.999,60.534 101.804,54.099 L95.252,54.333 C95.369,58.857 94.238,62.406 92.093,64.239 C90.923,65.253 89.714,65.682 88.583,65.526 C87.179,65.292 86.243,64.473 85.658,63.108 C84.566,60.651 85.073,57.102 86.867,54.411 C88.466,51.954 91.274,50.238 94.511,49.692 C97.982,49.146 101.258,49.926 103.598,51.876 C106.016,53.787 107.498,56.985 107.42,60.3 C107.381,62.445 106.757,64.317 105.743,65.916 L103.949,64.161 L100.751,67.32 L107.147,73.482 Z M127.193,52.266 L133.16,52.266 L133.16,54.333 L126.686,54.333 L126.686,58.857 L145.367,58.857 L145.367,54.333 L138.932,54.333 L138.932,52.266 L144.899,52.266 L144.899,47.937 L138.932,47.937 L138.932,45.987 L146.654,45.987 L146.654,68.958 C146.654,70.479 146.576,70.518 145.055,70.518 L144.587,70.518 L144.587,60.378 L127.349,60.378 L127.349,73.521 L132.536,73.521 L132.536,71.844 L141.077,71.844 L141.272,75.432 C143.768,75.549 145.367,75.627 146.069,75.627 C148.214,75.627 149.189,75.627 150.281,75.198 C150.788,75.003 151.178,74.808 151.412,74.574 C151.88,74.067 152.27,72.741 152.348,71.415 C152.348,70.791 152.426,69.855 152.426,68.685 L152.426,41.034 L119.666,41.034 L119.666,55.191 C119.666,59.715 119.432,63.147 119.003,65.409 C118.574,67.71 117.794,69.777 116.663,71.649 L121.343,75.861 C122.825,73.677 123.917,71.22 124.502,68.607 C125.126,65.955 125.438,62.367 125.438,57.882 L125.438,45.987 L133.16,45.987 L133.16,47.937 L127.193,47.937 L127.193,52.266 Z M139.361,67.866 L132.536,67.866 L132.536,64.551 L139.361,64.551 L139.361,67.866 Z M167.831,69.582 C169.937,67.632 171.38,65.526 172.043,63.264 L176.255,63.264 L176.255,68.724 L181.637,68.724 L181.637,63.264 L184.874,63.264 L184.874,58.428 L181.637,58.428 L181.637,54.567 L184.64,54.567 L184.64,49.692 L181.637,49.692 L181.637,46.416 L176.255,46.416 L176.255,49.692 L173.096,49.692 L173.096,46.416 L167.87,46.416 L167.87,49.692 L164.087,49.692 L164.087,54.567 L167.87,54.567 C167.87,55.659 167.831,56.946 167.753,58.428 L163.931,58.428 L163.931,63.264 L166.661,63.264 C166.154,64.395 165.218,65.487 163.892,66.618 L167.363,69.582 L163.19,69.582 L163.19,45.597 L185.81,45.597 L185.81,69.582 L167.831,69.582 Z M191.621,75.432 L191.621,41.034 L157.379,41.034 L157.379,75.432 L163.19,75.432 L163.19,73.989 L185.81,73.989 L185.81,75.432 L191.621,75.432 Z M172.901,58.428 C173.018,56.946 173.057,55.659 173.096,54.567 L176.255,54.567 L176.255,58.428 L172.901,58.428 Z" id="北緯37°-緯線の周囲"></path>
            </g>
        </g>
    </g>
</svg>