<?xml version="1.0" encoding="UTF-8"?>
<svg width="390px" height="70px" viewBox="0 0 390 70" version="1.1" xmlns="http://www.w3.org/2000/svg" xmlns:xlink="http://www.w3.org/1999/xlink">
    <!-- Generator: Sketch 41.2 (35397) - http://www.bohemiancoding.com/sketch -->
    <title>text16</title>
    <desc>Created with Sketch.</desc>
    <defs>
        <polygon id="path-1" points="389.837624 69.7729468 389.837624 0.000223404255 0 0.000223404255 0 69.7729468 389.837624 69.7729468"></polygon>
    </defs>
    <g id="Page-1" stroke="none" stroke-width="1" fill="none" fill-rule="evenodd">
        <g id="Desktop-HD" transform="translate(-534.000000, -10203.000000)">
            <g id="text16" transform="translate(534.000000, 10203.000000)">
                <g id="Page-1">
                    <mask id="mask-2" fill="white">
                        <use xlink:href="#path-1"></use>
                    </mask>
                    <g id="Clip-2"></g>
                    <path d="M389.320762,34.3134787 C383.865952,29.9012447 380.1135,31.893266 377.529565,26.8964574 C377.255971,26.3662447 374.705401,25.4212447 374.457017,24.7190106 C374.388804,24.5261383 377.119546,26.8167766 377.052074,25.8360319 C376.871162,23.217734 376.203861,15.5869894 376.203861,10.2230532 C376.203861,4.98124468 372.693861,0.499755319 367.473348,0.499755319 C358.529298,0.499755319 358.529298,0.583159574 349.585249,0.583159574 C340.641941,0.583159574 340.641941,0.756670213 331.697892,0.756670213 C322.753842,0.756670213 322.753842,0.306138298 313.809051,0.306138298 C304.865002,0.306138298 304.865002,0.847521277 295.920211,0.847521277 C286.97542,0.847521277 286.97542,1.32709574 278.029888,1.32709574 C269.085097,1.32709574 269.085097,0.117734043 260.141048,0.117734043 C251.195515,0.117734043 251.195515,0.854968085 242.250724,0.854968085 C233.305933,0.854968085 233.305933,1.47528723 224.361143,1.47528723 C215.41561,1.47528723 215.41561,0.773797872 206.471561,0.773797872 C197.526029,0.773797872 197.526029,0.924223404 188.581238,0.924223404 C179.635705,0.924223404 179.635705,0.957734043 170.690914,0.957734043 C161.746865,0.957734043 161.746865,0.952521277 152.803557,0.952521277 C143.858766,0.951776596 143.858766,1.34869149 134.913975,1.34869149 C125.969184,1.34869149 125.969184,0.72837234 117.024394,0.72837234 C108.078861,0.72837234 108.078861,0.467734043 99.1325875,0.467734043 C90.1863137,0.467734043 90.1863137,7.44680856e-05 81.2400399,7.44680856e-05 C72.2945076,7.44680856e-05 72.2945076,0.278585106 63.3482338,0.278585106 C54.4019601,0.278585106 54.4019601,0.907840426 45.4556863,0.907840426 C36.5079297,0.907840426 36.5079297,0.213053191 27.5609144,0.213053191 C18.6131578,0.213053191 18.6131578,1.05826596 9.66540114,1.05826596 C4.44711217,1.05826596 -7.41444869e-05,4.98124468 -7.41444869e-05,10.2230532 C-7.41444869e-05,18.4473085 0.00140874525,18.4473085 0.00140874525,26.6708191 C0.00140874525,34.8965638 0.584925856,34.8965638 0.584925856,43.1215638 C0.584925856,51.3465638 0.75323384,51.3465638 0.75323384,59.5715638 C0.75323384,64.8133723 4.44711217,68.6447553 9.66540114,68.6447553 C18.6094506,68.6447553 18.6094506,69.3715638 27.5527586,69.3715638 C36.496808,69.3715638 36.496808,69.5547553 45.4408574,69.5547553 C54.3849068,69.5547553 54.3849068,68.8919894 63.3289563,68.8919894 C72.2737471,68.8919894 72.2737471,69.4706064 81.2177966,69.4706064 C90.1633289,69.4706064 90.1633289,68.3915638 99.1088612,68.3915638 C108.053652,68.3915638 108.053652,68.7445426 116.997702,68.7445426 C125.942492,68.7445426 125.942492,68.9947553 134.888025,68.9947553 C143.832816,68.9947553 143.832816,68.6283723 152.777606,68.6283723 C161.722397,68.6283723 161.722397,68.349117 170.667188,68.349117 C179.611979,68.349117 179.611979,69.7729468 188.557511,69.7729468 C197.502302,69.7729468 197.502302,69.3179468 206.448576,69.3179468 C215.391884,69.3179468 215.391884,69.6351809 224.335933,69.6351809 C233.279983,69.6351809 233.279983,68.5501809 242.224032,68.5501809 C251.169565,68.5501809 251.169565,68.4667766 260.114356,68.4667766 C269.060629,68.4667766 269.060629,69.553266 278.006162,69.553266 C286.952435,69.553266 286.952435,69.1824149 295.897968,69.1824149 C304.844241,69.1824149 304.844241,68.9776277 313.790515,68.9776277 C322.736789,68.9776277 322.736789,68.7155 331.683063,68.7155 C340.630078,68.7155 340.630078,68.7393298 349.578576,68.7393298 C358.526333,68.7393298 358.526333,68.9865638 367.473348,68.9865638 C372.693861,68.9865638 376.980154,64.8133723 376.980154,59.5715638 C376.980154,53.471883 376.320268,47.0370957 376.320268,47.0370957 C380.063082,40.2240106 382.741181,42.222734 388.775059,37.3413511 C389.75599,36.5490106 390.301694,35.1058191 389.320762,34.3134787" id="Fill-1" fill="#FFFFFF" mask="url(#mask-2)"></path>
                </g>
                <path d="M43.21,38.7 C43.21,35.94 41.2,33.78 37.99,33.39 L37.99,33.33 C40.72,32.88 42.49,30.93 42.49,28.41 C42.49,24.66 39.58,22.8 33.79,22.8 C31.57,22.8 29.47,22.95 27.49,23.25 L27.49,44.85 C29.56,45.15 31.78,45.3 34.09,45.3 C40.36,45.3 43.21,43.14 43.21,38.7 Z M33.91,35.43 C36.91,35.43 38.41,36.36 38.41,38.19 C38.41,40.38 37.15,41.43 34.3,41.43 C33.67,41.43 33.07,41.37 32.5,41.25 L32.5,35.43 L33.91,35.43 Z M32.5,26.85 C33.01,26.73 33.58,26.67 34.21,26.67 C36.64,26.67 37.87,27.51 37.87,29.16 C37.87,30.9 36.4,31.77 33.49,31.77 L32.5,31.77 L32.5,26.85 Z M50.68,45 L47.92,51.6 L52.99,51.6 L61.24,29.4 L56.17,29.4 L52.96,40.41 L52.9,40.41 L50.23,29.4 L44.92,29.4 L50.68,45 Z M71.23,39.3 L65.44,39.3 L63.55,48.3 L67.75,48.3 L71.23,39.3 Z M98.98,39.09 C100.99,37.35 101.77,34.65 101.17,32.19 C100.54,29.76 98.83,28.05 96.52,27.33 L96.94,21.6 L89.86,21.12 L89.56,24.39 L92.02,24.54 L91.87,27.12 C89.47,27.3 86.98,27.99 84.76,28.71 L82.93,21.33 L78.31,22.44 L80.26,30.09 C78.46,30.72 76.66,31.41 74.65,32.1 L76.18,36.39 C78.13,35.73 79.81,35.16 81.43,34.59 L84.67,47.37 L89.29,46.26 L85.96,33.12 C88,32.55 90.1,32.07 92.26,31.71 C93.73,31.44 95.62,31.41 96.43,32.79 C97.12,33.96 96.37,35.52 95.23,36.09 C94.3,36.66 93.34,36.69 92.14,36.84 L93.01,41.34 C95.32,40.98 97.39,40.5 98.98,39.09 Z M109.45,38.64 C109.66,38.43 113.17,35.07 114.76,29.64 L119.77,29.64 L119.77,25.26 L115.69,25.26 C115.72,24.63 115.72,24.03 115.63,21.06 L110.92,21.27 C110.98,22.68 111.04,23.97 110.95,25.26 L105.31,25.26 L105.31,29.64 L109.78,29.64 C108.49,32.7 106.72,34.8 104.53,36.93 L107.8,40.29 L109.45,38.64 Z M131.8,43.11 C130.21,40.71 128.14,38.49 125.83,37.02 C125.89,35.46 125.77,34.02 125.56,32.55 L127.45,32.22 L128.29,33.45 L132.16,30.81 L125.68,21.51 L121.75,24.09 L125.47,29.34 L120.34,30.45 C120.85,32.1 121.03,33.84 121.12,35.46 C119.44,35.22 117.55,35.52 115.78,36.6 C112.93,38.25 111.91,41.85 113.5,44.58 C114.52,46.29 116.44,47.19 118.24,47.19 C120.1,47.19 121.99,46.35 123.43,44.73 C124.09,44.04 124.66,43.23 124.99,42.15 C126.46,43.59 127.75,45.39 128.08,45.9 L131.8,43.11 Z M120.79,39.9 C120.49,41.28 118.45,43.77 117.55,42.27 C117.25,41.79 117.46,40.92 118.18,40.44 C119.08,39.93 120.04,39.75 120.79,39.9 Z M152.32,34.77 L156.88,34.77 L156.91,30.48 L151.33,30.48 L150.85,28.41 L156.07,28.41 L156.07,24.18 L149.98,24.18 L149.29,20.58 L144.76,21.48 L145.27,24.18 L135.7,24.18 L135.7,28.41 L146.17,28.41 L146.65,30.48 L136.99,30.48 L136.99,34.77 L147.61,34.77 L147.85,36.12 L145.75,36.69 L146.59,39.9 L153.13,38.13 L152.32,34.77 Z M149.14,40.89 C147.88,42.12 146.38,44.07 144.67,42.69 C143.41,41.67 143.8,40.05 143.8,38.64 L139.18,38.64 C139.18,40.62 139.06,42.36 139.81,43.86 C140.53,45.24 141.64,46.47 143.11,47.13 C144.64,47.82 146.5,47.94 148.15,47.37 C150.01,46.77 151.12,45.3 152.41,44.13 L149.14,40.89 Z M159.73,26.16 L158.89,21.78 L156.1,22.32 L156.94,26.76 L159.73,26.16 Z M163.03,24.36 L162.31,19.92 L159.55,20.49 L160.3,24.96 L163.03,24.36 Z M190.72,33.45 C188.68,32.25 184.51,30.15 179.5,31.77 L180.73,36.15 C182.89,35.52 184.51,35.67 185.5,36 L184.9,37.26 L187.9,38.76 L190.72,33.45 Z M184.9,29.76 L184.9,25.17 L176.47,25.17 C176.77,24.03 177.04,22.8 177.34,21.57 L172.84,20.49 C172.06,23.52 171.85,24.3 171.61,25.17 L165.16,25.17 L165.16,29.76 L170.44,29.76 L166.81,43.53 L171.31,44.73 L175.33,29.76 L184.9,29.76 Z M187.24,40.68 C186.28,41.61 184.27,43.41 181.78,42.48 C180.13,41.85 179.5,40.05 179.44,38.28 L174.7,38.43 C174.79,42.48 176.92,45.6 180.19,46.8 C184.03,48.18 187.9,46.56 190.6,43.83 L187.24,40.68 Z M215.44,47.43 C219.97,46.2 223.42,44.43 225.58,40.29 C228.28,34.92 228.04,27.84 224.02,20.49 L219.76,22.74 C221.98,26.91 223.21,30.96 222.07,35.52 C221.05,39.66 218.5,41.91 214.21,42.84 L215.44,47.43 Z M214.48,32.49 L211.63,33.93 C210.16,30.33 211.21,26.49 212.53,22.77 L207.85,21.21 C207.01,23.55 206.32,25.68 206.11,28.08 C205.78,32.13 206.83,35.43 208.81,39.03 L215.92,35.43 L214.48,32.49 Z M253.87,39.33 C254.14,36.69 253.81,33.9 252.1,31.83 C250.9,30.42 249.04,29.43 247.24,28.74 L249.37,22.05 L244.87,20.73 L242.62,27.75 C239.83,27.54 236.65,27.84 233.08,28.86 L234.16,33.3 C236.74,32.64 239.14,32.28 241.09,32.31 L236.5,45.3 L241.09,46.86 L245.8,33 C246.79,33.42 247.57,33.96 248.11,34.65 C249.85,36.75 249.34,40.05 248.26,43.02 L245.5,42.06 L244.39,45.18 L251.47,47.55 C252.73,44.55 253.6,42.15 253.87,39.33 Z M261.19,36.45 C261.19,27.42 254.17,23.37 253.69,23.1 L251.38,27.15 C251.62,27.24 256.51,30.09 256.51,36.45 L261.19,36.45 Z M279.4,47.34 C283.78,47.37 287.2,44.52 288.1,41.04 C288.85,38.13 287.74,35.16 285.37,33.06 C286.36,31.71 287.83,29.82 289.93,28.47 L287.05,24.93 C284.26,26.82 282.43,29.25 281.44,31.02 C280.42,30.72 279.28,30.54 278.14,30.45 C278.08,29.85 277.99,29.19 277.9,28.56 L282.07,28.56 L282.07,24.15 L277.18,24.18 C277,23.13 276.82,22.08 276.7,21.03 L272.11,21.63 C272.23,22.56 272.35,23.37 272.5,24.18 L266.2,24.21 L266.23,28.59 L273.22,28.59 C273.31,29.31 273.43,30.09 273.52,30.81 C270.01,31.68 266.62,33.75 265.06,37.08 C263.59,40.23 264.46,44.82 268.03,46.53 C269.44,47.25 271.06,47.34 272.59,46.77 C277.24,45 278.29,39.18 278.44,34.98 C279.58,35.13 280.66,35.46 281.53,36 C284.32,37.71 284.38,40.62 281.77,42.27 L281.26,40.17 L277.99,41.01 L279.4,47.34 Z M273.73,35.46 C273.67,37.23 273.4,38.88 272.74,40.47 C271.33,43.89 267.91,42.18 269.35,38.97 C270.1,37.38 271.66,36.12 273.73,35.46 Z M293.53,35.43 L301.39,35.43 C300.88,39.36 297.85,42.45 293.23,43.74 L295.03,47.79 C301.6,45.96 305.2,41.85 305.89,35.43 L308.08,35.43 L308.08,43.26 C308.08,45.18 308.17,46.02 309.07,46.65 C310.03,47.31 311.26,47.37 314.11,47.37 C315.76,47.37 316.93,47.31 317.83,47.07 C318.28,46.95 318.91,46.56 319.18,46.2 C319.69,45.51 319.9,44.58 320.11,43.02 C320.26,41.88 320.29,40.86 320.38,39.21 L316.39,38.82 C316.3,41.07 316.15,42.42 315.97,42.81 C315.79,43.2 315.25,43.41 314.38,43.41 C313.57,43.41 313.12,43.35 312.97,43.26 C312.82,43.17 312.76,42.84 312.76,42.33 L312.76,35.43 L320.05,35.43 L320.05,31.5 L309.64,31.5 L309.64,27.66 L318.34,27.66 L318.34,23.85 L309.64,23.85 L309.64,20.73 L304.81,20.73 L304.81,23.85 L301.54,23.85 L302.14,21.6 L297.94,20.76 C297.01,24.09 295.75,27.12 294.13,29.88 L297.64,31.5 L293.53,31.5 L293.53,35.43 Z M298.3,31.5 C298.93,30.36 299.56,29.1 300.16,27.66 L304.81,27.66 L304.81,31.5 L298.3,31.5 Z M330.7,24.9 C331.06,23.43 331.27,22.47 331.33,21.99 L327.01,21.24 C326.05,25.53 324.7,29.61 322.93,33.45 L326.95,35.31 L326.95,37.23 L334.84,37.23 L334.84,42.96 L323.71,42.96 L323.71,46.89 L349.87,46.89 L349.87,42.96 L339.67,42.96 L339.67,37.23 L347.44,37.23 L347.44,33.39 L339.67,33.39 L339.67,28.83 L348.91,28.83 L348.91,24.9 L339.67,24.9 L339.67,20.73 L334.84,20.73 L334.84,24.9 L330.7,24.9 Z M327.85,33.39 C328.45,32.04 329.02,30.51 329.56,28.83 L334.84,28.83 L334.84,33.39 L327.85,33.39 Z" id="By,やなぎた-りかお先生" fill="#242C23"></path>
            </g>
        </g>
    </g>
</svg>