<?xml version="1.0" encoding="UTF-8"?>
<svg width="925px" height="266px" viewBox="0 0 925 266" version="1.1" xmlns="http://www.w3.org/2000/svg" xmlns:xlink="http://www.w3.org/1999/xlink">
    <!-- Generator: Sketch 41.2 (35397) - http://www.bohemiancoding.com/sketch -->
    <title>text13</title>
    <desc>Created with Sketch.</desc>
    <defs></defs>
    <g id="Page-1" stroke="none" stroke-width="1" fill="none" fill-rule="evenodd">
        <g id="Desktop-HD" transform="translate(-257.000000, -9204.000000)">
            <g id="text13" transform="translate(257.000000, 9204.000000)">
                <path d="M856.123,261.08 C858.664,263.621 861.667,264.853 865.209,264.853 C868.751,264.853 871.754,263.621 874.295,261.08 C876.836,258.616 878.068,255.613 878.068,252.071 C878.068,248.529 876.836,245.526 874.295,242.985 C871.754,240.444 868.751,239.212 865.209,239.212 C861.667,239.212 858.664,240.444 856.123,242.985 C853.659,245.526 852.427,248.529 852.427,252.071 C852.427,255.613 853.659,258.616 856.123,261.08 Z M861.744,248.606 C863.669,246.681 866.749,246.681 868.674,248.606 C870.599,250.531 870.599,253.611 868.674,255.536 C866.749,257.384 863.669,257.461 861.744,255.536 C859.819,253.611 859.896,250.531 861.744,248.606 Z" id="Combined-Shape" fill="#BB1E1E"></path>
                <path d="M842.725,204.254 L822.705,204.254 C822.32,201.097 821.858,198.864 821.165,195.399 L809.307,197.709 C809.846,200.25 810.308,202.021 810.616,204.254 L778.738,204.177 L778.738,215.727 L811.463,215.727 C811.463,217.344 811.309,218.499 811.155,219.885 C807.074,218.73 802.531,218.576 798.142,219.962 C793.368,221.502 789.518,225.198 787.824,229.741 C786.284,233.976 786.9,238.904 789.364,242.754 C793.445,249.145 801.838,251.532 809.307,248.452 C812.31,247.143 814.851,244.602 816.622,241.753 C816.468,245.295 815.005,248.452 812.695,253.072 L808.768,250.993 L804.764,258.462 L819.24,265.546 C825.554,254.535 832.484,242.908 825.323,231.512 C824.399,229.972 823.398,228.509 822.012,227.123 C822.936,223.119 823.321,219.654 823.398,215.727 L842.725,215.727 L842.725,204.254 Z M809.076,231.666 C807.998,234.977 806.535,236.979 804.61,237.749 C802.839,238.596 800.452,238.288 799.451,236.594 C798.065,234.284 799.682,231.743 801.838,231.127 C804.302,230.203 806.92,230.665 809.076,231.666 Z" id="Combined-Shape" fill="#BB1E1E"></path>
                <path d="M761.49,252.148 C757.024,244.063 750.864,238.519 744.011,234.9 C744.165,232.975 744.242,229.356 744.319,227.2 L760.566,225.968 L759.796,215.496 L744.165,216.651 C744.011,215.265 743.857,213.571 743.703,212.108 L760.258,212.108 L760.258,201.636 L742.086,201.636 C741.239,197.478 740.469,194.706 740.392,194.09 L728.611,196.477 C728.688,196.862 729.381,198.941 729.92,201.636 L706.666,201.636 L706.666,212.108 L731.691,212.108 C731.999,213.879 732.153,215.804 732.307,217.498 L717.831,218.499 L717.6,214.11 L709.361,214.572 L710.208,229.741 L732.307,228.047 L732.307,232.128 C726.917,231.666 721.527,232.821 716.907,235.593 C712.98,237.903 710.054,241.445 708.976,246.296 C708.129,250.223 708.822,254.535 710.901,257.538 C713.519,261.311 717.754,263.544 722.605,264.083 C727.841,264.776 733.308,262.158 736.85,258.539 C739.468,255.844 741.085,252.071 742.24,247.682 C745.397,250.223 748.862,254.458 751.634,259.078 L761.49,252.148 Z M730.69,243.37 C730.074,247.297 728.226,252.61 723.76,252.379 C722.22,252.302 720.68,251.378 720.68,249.684 C721.296,244.602 726.994,243.37 730.69,243.37 Z" id="Combined-Shape" fill="#BB1E1E"></path>
                <path d="M660.851,263.236 C671.708,263.236 681.949,257.384 687.955,248.067 L677.483,241.137 C673.479,247.528 666.549,251.378 659.542,250.839 C652.843,250.377 647.145,245.757 644.989,239.366 C640.831,227.354 647.145,211.338 650.379,200.558 L632.592,195.784 L630.205,204.023 L635.595,205.486 C631.514,219.577 627.587,237.826 636.904,250.839 C642.602,258.77 651.226,263.236 660.851,263.236 Z" id="Path" fill="#BB1E1E"></path>
                <path d="M600.329,195.476 C600.868,196.708 601.638,198.633 602.639,201.328 L599.559,201.328 C599.559,200.712 599.482,199.557 599.482,198.017 L599.482,194.552 L589.164,194.552 L589.164,198.017 C589.164,199.557 589.241,200.712 589.241,201.328 L559.211,201.328 L559.211,203.484 C556.131,200.558 553.282,198.017 550.664,196.015 L543.965,203.253 C548.277,206.872 552.127,210.414 555.515,213.879 L559.211,209.644 L559.211,222.041 C555.977,219.115 552.435,216.112 548.662,213.263 L542.117,220.809 C546.891,224.582 551.203,228.432 555.361,232.436 L559.211,227.893 C559.134,232.051 558.98,235.67 558.749,238.596 L550.895,235.67 C548.97,244.217 546.429,251.994 543.195,258.847 L552.897,264.468 C553.975,262.158 554.976,259.617 555.977,256.768 L562.522,265.007 C564.139,262.697 565.525,260.156 566.449,257.461 L570.607,263.467 C575.227,259.848 578.769,255.305 581.156,249.838 L583.928,253.303 C582.234,254.381 580.309,255.536 577.999,256.691 L584.467,264.468 C588.779,262.235 592.86,259.232 596.71,255.228 C599.559,261.311 602.793,264.468 606.643,264.468 C611.494,264.468 615.421,257.769 616.114,244.217 L607.721,241.137 C607.336,248.298 606.72,251.84 606.027,251.84 C605.488,251.84 604.718,249.992 603.794,246.296 C608.953,238.596 612.495,229.972 614.42,220.347 L605.334,216.497 C604.333,221.733 603.024,226.507 601.253,230.819 C600.483,223.735 599.944,217.036 599.79,210.645 L614.42,210.645 L614.42,201.328 L612.033,201.328 C610.955,198.017 609.954,195.322 609.03,193.32 L600.329,195.476 Z M589.472,210.645 C589.472,211.8 589.472,212.647 589.549,213.186 L569.76,213.186 L569.76,210.645 L589.472,210.645 Z M584.929,233.36 C585.006,231.82 585.083,230.742 585.083,229.895 L585.083,221.733 L590.088,221.733 L590.396,224.89 L587.778,224.043 C587.239,226.969 586.238,230.049 584.929,233.36 Z M587.547,240.752 C588.933,238.365 590.242,235.516 591.243,232.436 C591.859,237.21 592.475,241.291 593.322,244.679 C592.321,245.988 591.397,246.989 590.396,247.99 C588.933,246.219 586.854,243.832 584.082,240.752 L584.39,239.058 L587.547,240.752 Z M576.228,229.587 C576.228,239.905 573.456,247.836 567.758,253.226 C568.605,249.761 569.221,245.68 569.529,241.06 L572.609,242.677 C573.995,238.981 575.227,234.592 576.228,229.356 L576.228,229.587 Z M571.685,224.351 C571.146,227.893 570.453,230.896 569.76,233.36 L569.76,221.733 L576.228,221.733 L576.228,225.506 L571.685,224.351 Z" id="Combined-Shape" fill="#BB1E1E"></path>
                <path d="M487.601,200.558 C490.065,206.333 492.144,211.415 493.915,215.881 L489.526,215.881 L489.526,264.468 L501.23,264.468 L501.23,250.762 L523.714,250.762 L523.714,251.224 C523.714,254.304 523.637,254.381 521.789,254.381 C521.404,254.381 518.863,254.227 514.32,253.996 L514.551,264.083 C518.324,264.314 521.173,264.391 523.175,264.391 C527.641,264.391 529.258,264.468 531.491,263.698 C532.646,263.313 533.339,262.928 533.647,262.543 C534.494,261.927 535.187,259.078 535.264,256.768 C535.264,255.536 535.341,253.765 535.341,251.378 L535.341,215.881 L531.183,215.881 C533.416,210.491 535.418,205.101 537.189,199.557 L526.794,196.015 C525.254,200.943 523.175,206.41 520.634,212.57 L529.489,215.881 L518.324,215.881 L518.324,195.476 L506.62,195.476 L506.62,215.881 L495.609,215.881 L504.156,212.57 C501.846,206.256 499.613,201.02 497.611,196.631 L487.601,200.558 Z M501.23,241.599 L501.23,237.98 L523.714,237.98 L523.714,241.599 L501.23,241.599 Z M523.714,228.894 L501.23,228.894 L501.23,225.506 L523.714,225.506 L523.714,228.894 Z M468.736,203.869 C473.587,207.411 477.822,210.876 481.364,214.11 L488.063,205.948 C484.444,202.714 480.209,199.403 475.281,196.015 L468.736,203.869 Z M486.292,223.966 C481.98,219.962 477.206,216.189 472.201,212.647 L465.579,220.501 C470.661,224.197 475.358,228.124 479.747,232.128 L486.292,223.966 Z M477.899,234.669 C475.05,243.601 471.508,251.532 467.35,258.539 L476.821,264.545 C481.518,256.999 485.137,248.221 487.755,238.288 L477.899,234.669 Z" id="Combined-Shape" fill="#BB1E1E"></path>
                <path d="M462.345,209.644 L460.189,198.094 L452.874,199.634 L454.953,211.107 L462.345,209.644 Z M451.796,204.716 L449.871,194.013 L442.325,195.399 L444.404,206.102 L451.796,204.716 Z M460.728,238.981 C460.728,215.727 442.556,205.794 441.247,205.255 L435.626,215.034 C436.242,215.265 448.793,222.58 448.793,238.981 L460.728,238.981 Z M435.857,264.468 C444.019,240.752 441.709,230.511 436.55,224.197 C433.624,220.578 429.62,217.96 425.077,216.189 L430.313,199.095 L418.84,195.63 C415.683,205.409 414.451,209.644 413.142,213.648 C405.904,213.032 397.819,213.956 388.656,216.497 L391.428,227.893 C398.127,226.045 404.133,225.352 409.215,225.429 L397.203,258.693 L409.138,262.697 C411.217,256.845 415.76,243.832 421.227,227.2 C423.768,228.124 425.847,229.587 427.233,231.358 C431.622,236.748 430.313,245.295 427.541,252.918 L420.457,250.454 L417.685,258.385 L435.857,264.468 Z" id="Combined-Shape" fill="#232D23"></path>
                <path d="M319.818,229.818 C320.665,225.275 321.358,220.963 321.743,216.959 L324.053,216.959 L324.053,234.207 C320.049,235.054 316.045,235.747 312.118,236.44 L313.119,246.373 C315.814,245.911 319.433,245.218 324.053,244.217 L324.053,264.776 L335.449,264.776 L335.449,241.445 L336.835,241.06 L344.15,248.683 C348.77,244.987 353.159,239.982 357.24,233.745 C361.321,227.508 364.632,220.655 367.173,213.263 L369.714,213.263 C367.096,222.503 363.015,230.896 357.779,238.596 C352.543,246.142 346.46,252.456 339.453,257.23 L347.076,265.161 C351.08,262.312 354.622,259.232 357.702,255.767 L358.164,263.929 C363.862,264.237 368.405,264.391 372.101,264.391 C375.181,264.391 376.49,264.314 378.261,261.542 C379.108,260.079 379.801,258.308 380.109,255.921 C380.802,251.147 381.803,241.137 382.111,228.201 C382.265,221.81 382.419,213.417 382.496,203.176 L357.471,203.176 C358.395,200.404 359.165,197.863 359.704,195.707 L348.693,194.398 C346.922,201.867 344.381,208.643 340.993,214.572 L340.993,207.18 L335.449,207.18 L335.449,195.784 L324.053,195.784 L324.053,207.18 L322.513,207.18 C322.744,203.946 322.821,201.405 322.898,199.48 L314.428,198.787 C313.966,209.567 312.965,219.192 311.348,227.585 L319.818,229.818 Z M370.022,237.826 C369.483,247.374 368.867,251.994 368.02,253.303 C367.635,253.919 367.25,254.227 366.634,254.227 C364.324,254.227 361.937,254.15 359.396,253.919 C363.477,248.991 367.019,243.601 370.022,237.826 Z M343.457,229.587 C346.999,225.429 350.31,220.039 353.39,213.263 L356.239,213.263 C352.697,222.426 347.923,230.203 341.763,236.44 L341.301,229.664 C338.683,230.511 336.758,231.05 335.449,231.435 L335.449,216.959 L339.453,216.959 C338.144,219.038 337.143,220.501 336.219,221.579 L343.457,229.587 Z" id="Combined-Shape" fill="#232D23"></path>
                <path d="M297.95,208.797 L297.18,197.555 L251.596,200.712 L251.365,195.707 L242.664,196.092 L243.588,212.416 L271.693,210.414 L252.289,224.505 L258.757,232.898 L263.454,229.356 C269.46,229.125 276.005,228.74 281.472,232.051 C287.94,235.978 288.633,245.141 282.473,249.607 C282.242,246.604 281.626,242.6 278.7,239.212 C276.544,236.825 272.771,233.976 266.303,233.745 C258.988,233.591 252.751,239.751 251.981,247.605 C250.903,259.848 262.992,263.852 272.463,263.852 C281.857,263.852 289.942,260.618 294.87,253.765 C304.649,239.982 295.178,220.655 278.238,218.73 L291.328,209.259 L297.95,208.797 Z M264.455,250.762 C262.915,249.222 264.07,246.065 265.995,245.603 C269.383,244.756 271.231,248.452 270.615,252.379 L270.615,252.533 C268.767,252.456 265.841,252.379 264.455,250.762 Z" id="Combined-Shape" fill="#232D23"></path>
                <path d="M200.237,254.304 C216.176,254.304 223.337,244.294 225.955,239.135 C228.65,233.745 228.881,227.816 226.725,222.118 C224.415,216.112 219.102,211.107 213.019,208.643 C208.63,206.949 204.318,206.102 200.391,206.102 C199.852,204.023 199.082,201.867 195.617,194.398 L184.529,198.633 C187.763,205.794 188.225,207.103 188.687,208.412 C183.143,210.799 178.061,214.495 173.98,219.5 C174.827,215.188 176.367,211.03 177.984,206.872 L161.429,200.943 L158.657,208.951 L163.893,210.799 C159.735,223.735 160.659,237.441 162.969,250.993 L174.75,248.837 C173.595,242.985 173.441,241.83 173.21,240.059 C176.906,231.666 183.22,223.966 191.382,220.27 C192.229,227.893 191.69,235.131 190.689,241.06 C188.61,240.521 186.3,239.674 183.374,238.827 L179.909,250.069 C186.531,252.148 187.378,252.379 187.917,252.61 C187.224,255.382 186.069,258.231 184.683,261.311 L195.925,265.084 C198.312,259.386 199.082,257.384 199.929,254.304 L200.237,254.304 Z M203.163,218.422 C206.936,218.73 210.863,220.039 213.404,223.042 C216.022,226.045 216.869,230.126 215.175,233.668 C212.634,239.212 208.322,241.753 202.778,242.369 C203.933,234.361 204.241,226.199 203.163,218.422 Z" id="Combined-Shape" fill="#232D23"></path>
                <path d="M132.631,260.926 C143.103,256.46 148.416,247.297 145.798,238.134 C143.18,229.048 135.018,224.505 126.086,223.581 C118.771,222.811 111.456,224.274 105.296,225.891 L105.758,218.576 L110.532,218.576 L110.532,210.183 L94.054,210.183 L92.36,240.829 C97.134,239.674 106.913,236.286 115.922,234.977 C125.162,233.591 132.939,234.438 134.171,241.137 C135.403,247.913 126.471,251.224 121.389,251.686 C113.689,252.302 106.605,250.377 99.213,249.145 L97.134,260.849 C110.378,263.082 122.005,265.469 132.631,260.926 Z M115.075,211.723 C122.929,215.419 130.167,216.42 138.098,216.805 L138.637,204.947 C131.322,204.639 125.547,203.638 119.464,200.712 C115.537,198.787 111.841,196.477 108.607,194.013 L101.523,203.638 C106.297,206.795 110.301,209.49 115.075,211.723 Z" id="Combined-Shape" fill="#232D23"></path>
                <path d="M44.774,197.94 L33.301,195.784 L32.146,201.328 C32.069,202.021 31.838,202.714 31.684,203.407 L10.971,203.407 L10.971,214.495 L30.144,214.495 C29.913,216.651 29.682,218.807 29.605,220.809 C23.522,223.042 18.055,226.507 14.128,231.512 C10.124,236.979 8.507,244.14 10.278,250.3 C12.665,258.924 21.135,262.928 29.22,262.928 C38.537,262.928 48.47,257.615 55.862,243.37 L45.775,238.134 C44.697,239.982 43.773,241.522 42.695,243.216 C41.848,239.443 41.309,235.054 41.155,230.203 C48.624,229.818 56.016,232.821 58.403,240.136 C59.558,243.755 59.558,248.067 58.326,252.148 L53.783,250.377 L50.703,258.231 L65.795,264.006 C71.493,254.843 72.802,244.833 69.953,236.286 C65.949,224.197 52.782,218.653 41.54,218.884 C41.694,217.498 41.848,216.035 41.925,214.495 L67.72,214.572 L67.72,203.407 L43.85,203.407 L44.774,197.94 Z M23.753,238.673 C25.293,236.517 27.372,234.746 29.528,233.514 C29.836,239.52 30.991,245.603 32.762,250.993 C29.066,252.225 23.214,251.763 21.905,247.22 C21.058,244.525 21.905,241.06 23.753,238.673 Z" id="Combined-Shape" fill="#232D23"></path>
                <path d="M874.064,163.926 C882.534,157.997 887.231,148.526 887.462,138.131 C887.616,127.736 883.073,117.649 874.988,111.412 C867.519,105.483 857.201,103.173 847.114,104.713 C837.181,106.407 828.48,111.489 823.321,119.343 C817.546,128.121 816.083,139.748 819.933,148.449 C822.782,155.148 828.249,159.46 835.487,160.615 C841.493,161.462 847.653,159.46 852.658,155.148 C859.973,148.757 863.9,138.362 863.515,125.657 L850.579,126.119 C850.81,135.051 848.577,142.058 844.342,145.677 C842.032,147.679 839.645,148.526 837.412,148.218 C834.64,147.756 832.792,146.139 831.637,143.444 C829.481,138.593 830.482,131.586 834.024,126.273 C837.181,121.422 842.725,118.034 849.116,116.956 C855.969,115.878 862.437,117.418 867.057,121.268 C871.831,125.041 874.757,131.355 874.603,137.9 C874.526,142.135 873.294,145.831 871.292,148.988 L867.75,145.523 L861.436,151.76 L874.064,163.926 Z" id="Path" fill="#232D23"></path>
                <path d="M743.472,166.39 L755.407,166.39 L755.407,142.289 L759.103,146.832 C766.726,142.751 772.501,137.592 776.505,131.278 C780.355,135.205 784.59,140.441 789.21,146.986 L796.679,142.212 L796.679,153.069 C796.679,154.609 796.525,155.533 796.217,155.841 C795.909,156.072 794.908,156.226 793.214,156.226 C792.829,156.226 789.21,156.072 782.588,155.841 L783.204,165.928 C788.825,166.159 792.983,166.313 795.832,166.313 C800.144,166.313 802.146,166.236 804.302,165.543 C805.457,165.158 806.227,164.773 806.689,164.234 C807.536,163.31 808.383,160.692 808.46,158.074 C808.537,156.765 808.614,154.994 808.614,152.684 L808.614,105.406 L781.818,105.406 L781.818,97.937 L769.883,97.937 L769.883,105.406 L743.472,105.406 L743.472,166.39 Z M769.729,115.493 C769.036,124.81 764.57,130.739 755.407,135.513 L755.407,115.493 L769.729,115.493 Z M780.894,120.729 C781.279,118.958 781.587,117.187 781.664,115.493 L796.679,115.493 L796.679,137.823 C791.905,131.586 786.592,125.965 780.894,120.729 Z" id="Combined-Shape" fill="#232D23"></path>
                <path d="M669.244,148.988 L662.391,151.375 L665.24,161.539 C678.099,157.381 690.958,151.683 703.971,144.676 L700.968,134.897 C694.577,138.131 687.955,141.288 680.948,144.291 L680.948,100.786 L669.244,100.786 L669.244,148.988 Z M686.107,110.873 C692.113,116.879 697.58,123.347 702.662,130.354 L711.209,123.655 C706.127,116.494 700.506,109.795 694.346,103.481 L686.107,110.873 Z M717.446,100.016 C717.446,105.791 717.369,110.488 717.292,114.338 C717.215,118.111 716.907,121.807 716.368,125.503 C715.906,129.199 715.444,132.202 714.905,134.358 C714.366,136.514 713.365,138.824 712.056,141.057 C710.747,143.29 709.361,145.138 707.975,146.447 C706.512,147.679 704.51,149.142 701.969,150.759 C699.505,152.299 696.887,153.685 694.269,154.84 C691.728,155.918 688.417,157.227 684.259,158.767 L689.726,168.546 C702.816,163.695 711.132,159.537 716.83,153.839 C720.526,158.613 723.683,163.002 726.455,167.237 L735.772,161.077 C732.615,155.995 728.534,150.374 723.606,144.137 C725.762,139.517 727.225,133.665 728.072,126.812 C728.996,119.882 729.458,110.95 729.458,100.016 L717.446,100.016 Z" id="Combined-Shape" fill="#232D23"></path>
                <path d="M612.572,133.819 C612.572,132.895 613.111,131.971 614.266,130.97 C615.421,129.969 616.576,129.507 617.731,129.507 C621.119,129.507 622.043,130.816 622.043,136.36 L622.043,161 L634.209,161 L634.209,133.819 C634.209,132.895 634.748,131.971 635.826,130.97 C636.981,129.969 638.136,129.507 639.291,129.507 C642.679,129.507 643.68,130.816 643.68,136.36 L643.68,161 L655.846,161 L655.846,135.59 C655.846,124.425 652.15,120.19 643.449,120.19 C639.599,120.19 635.903,122.192 632.284,126.119 L632.13,126.119 C629.743,121.73 627.279,120.19 622.582,120.19 C618.655,120.19 615.113,122.192 612.11,126.119 L611.956,126.119 L611.648,120.96 L600.098,120.96 L600.098,161 L612.572,161 L612.572,133.819 Z" id="Path" fill="#232D23"></path>
                <polygon id="Path" fill="#232D23" points="565.371 161 565.371 144.83 565.525 144.83 577.999 161 592.244 161 575.766 140.21 592.244 120.96 577.999 120.96 565.525 136.129 565.371 136.129 565.371 103.25 552.974 103.25 552.974 161"></polygon>
                <path d="M520.711,150.297 C529.027,143.367 534.571,137.823 537.42,133.742 C540.269,129.584 541.732,125.272 541.732,120.729 C541.732,110.257 534.725,104.02 522.328,104.02 C516.091,104.02 510.162,105.098 504.618,107.254 L504.618,119.189 C510.932,116.34 516.168,114.877 520.403,114.877 C525.639,114.877 528.257,117.264 528.257,121.961 C528.257,125.58 526.64,129.276 523.406,133.126 C520.249,136.899 513.55,142.674 503.463,150.451 L503.463,161 L541.963,161 L541.963,150.451 L520.711,150.451 L520.711,150.297 Z" id="Path" fill="#232D23"></path>
                <path d="M428.003,121.191 C432.238,118.573 435.78,116.032 438.629,113.491 C441.555,110.95 444.481,107.793 447.407,104.02 L447.407,110.103 L458.726,110.103 L451.334,115.57 C453.413,118.342 456.185,120.96 459.573,123.578 C455.261,125.349 450.564,126.735 445.713,127.813 C446.945,126.042 448.177,123.963 449.409,121.73 L440.015,116.109 C437.243,120.421 434.471,123.886 431.93,126.735 C429.389,129.507 426.232,132.279 422.382,135.205 L425.154,147.756 C426.848,146.447 428.619,144.676 430.467,142.443 L430.467,167.776 L441.863,167.776 L441.863,132.895 C442.864,131.586 443.865,130.431 444.712,129.122 L448.716,137.977 C457.032,135.744 464.193,133.28 469.891,130.354 C476.513,133.742 483.674,136.283 491.451,137.977 L495.378,128.198 C489.988,126.966 484.983,125.426 480.363,123.501 C484.675,119.882 488.294,115.493 491.22,110.103 L491.22,100.555 L447.407,100.555 L447.407,103.019 L439.63,97.321 C437.089,100.478 434.548,103.019 432.238,105.021 C429.928,107.1 426.925,109.102 423.46,111.258 L428.003,121.191 Z M469.968,118.188 C466.041,115.647 462.807,112.952 460.343,110.103 L478.823,110.103 C476.436,113.106 473.51,115.801 469.968,118.188 Z M491.836,139.902 L476.205,139.902 L476.205,134.512 L464.27,134.512 L464.27,139.902 L448.485,139.902 L448.485,149.219 L464.27,149.219 L464.27,156.534 L445.482,156.534 L445.482,166.005 L494.223,166.005 L494.223,156.534 L476.205,156.534 L476.205,149.219 L491.836,149.219 L491.836,139.902 Z" id="Combined-Shape" fill="#232D23"></path>
                <path d="M414.759,132.895 L414.759,123.116 L404.287,123.116 C407.521,117.033 410.293,110.719 412.834,104.02 L401.823,100.94 C399.59,107.177 396.741,113.491 393.353,120.113 L402.67,123.116 L387.963,123.116 L387.963,98.784 L375.951,98.784 L375.951,123.116 L361.244,123.116 L370.561,120.113 C367.789,113.106 364.863,106.946 361.783,101.479 L351.08,105.021 C354.006,110.565 356.932,116.571 359.627,123.116 L349.155,123.116 L349.155,132.895 L375.951,132.895 L375.951,140.287 L346.845,140.287 L346.845,150.451 L375.951,150.451 L375.951,167.776 L387.963,167.776 L387.963,150.451 L417.069,150.451 L417.069,140.287 L387.963,140.287 L387.963,132.895 L414.759,132.895 Z" id="Path" fill="#232D23"></path>
                <polygon id="Path" fill="#232D23" points="337.759 138.362 335.68 126.735 328.365 128.275 330.444 139.671"></polygon>
                <polygon id="Path" fill="#232D23" points="327.364 137.746 325.208 126.196 317.816 127.659 319.972 138.978"></polygon>
                <path d="M325.362,156.534 C316.199,152.299 310.501,146.986 309.038,140.98 C307.19,132.895 311.656,123.655 316.584,116.109 L336.373,114.646 L335.526,103.096 L282.242,107.177 L281.78,102.326 L273.233,103.019 L274.619,119.266 L301.492,117.187 C296.641,126.735 295.101,135.744 296.949,143.829 C299.259,153.685 306.728,161.539 319.125,167.545 L325.362,156.534 Z" id="Path" fill="#232D23"></path>
                <path d="M245.205,98.014 L233.501,98.014 L233.501,104.944 L213.712,104.944 L213.712,123.732 C213.712,133.357 213.327,140.441 212.48,144.907 C211.633,149.373 210.093,153.762 207.706,157.92 L215.098,168.161 C217.023,165.543 218.563,162.771 220.026,159.691 L223.337,167.468 C230.729,165.543 236.812,162.925 241.509,159.614 C246.822,163.156 253.367,165.697 261.298,167.468 L264.147,157.612 C258.372,156.072 253.521,154.147 249.671,151.914 C253.521,147.063 256.678,141.057 259.065,133.742 L259.065,124.656 C260.682,121.499 262.068,118.188 263.223,114.8 L263.223,104.944 L245.205,104.944 L245.205,98.014 Z M224.8,114.8 L233.501,114.8 L233.501,124.194 L224.8,124.194 L224.8,114.8 Z M240.893,144.753 C238.198,141.75 235.888,138.054 233.963,133.742 L246.745,133.742 C245.205,138.054 243.28,141.75 240.893,144.753 Z M224.723,136.668 L224.723,133.742 L232.192,133.742 L224.723,136.668 Z M224.569,139.055 C226.802,143.983 229.574,148.372 232.885,152.068 C229.343,154.224 225.416,155.995 221.104,157.227 C223.029,152.145 224.184,146.139 224.569,139.055 Z M252.058,114.8 C251.211,116.648 250.133,118.804 248.901,121.037 L255.754,124.194 L245.205,124.194 L245.205,114.8 L252.058,114.8 Z M193.769,106.638 C198.466,110.18 202.547,113.645 206.012,116.879 L212.326,108.948 C208.707,105.56 204.626,102.249 200.083,99.015 L193.769,106.638 Z M211.402,127.428 C207.244,123.578 202.701,119.805 197.773,116.109 L191.228,123.732 C196.387,127.736 200.93,131.663 204.78,135.359 L211.402,127.428 Z M200.237,139.363 C198.312,147.756 195.617,155.456 192.229,162.309 L202.008,167.545 C205.55,160.692 208.399,152.299 210.555,142.52 L200.237,139.363 Z" id="Combined-Shape" fill="#232D23"></path>
                <path d="M182.681,150.528 L182.681,143.983 L158.503,143.983 L158.503,142.366 C168.051,142.135 175.674,141.827 181.295,141.442 L179.601,137.13 C180.679,137.361 182.45,137.746 184.76,138.131 L187.532,130.2 C183.682,129.661 180.371,129.122 177.599,128.506 C180.217,126.966 182.604,124.887 184.76,122.577 L184.76,115.955 L159.504,115.955 C162.122,113.106 163.508,109.872 163.662,106.176 L167.05,106.176 L167.05,111.72 C167.05,112.875 167.589,113.645 168.513,114.03 C169.514,114.415 171.824,114.646 175.289,114.646 L180.14,114.646 C181.141,114.646 182.219,114.569 183.374,114.184 C184.452,113.876 185.222,113.568 185.53,113.26 C186.146,112.798 187.224,110.103 187.301,108.255 L187.686,103.558 L180.217,102.865 C180.063,105.406 179.909,106.792 179.755,107.177 C179.678,107.562 179.216,107.793 178.523,107.793 C177.368,107.793 177.445,107.87 177.445,107.023 L177.445,99.246 L154.499,99.246 L154.499,101.941 C154.499,105.791 153.19,108.948 150.495,111.258 L150.495,110.026 L139.869,110.026 L139.869,108.409 L151.342,108.409 L151.342,101.479 L139.869,101.479 L139.869,98.707 L127.857,98.707 L127.857,101.479 L115.691,101.479 L115.691,108.409 L127.857,108.409 L127.857,110.026 L117.231,110.026 L117.231,125.503 L127.857,125.503 L127.857,127.12 L115.691,127.12 L115.691,133.742 L127.857,133.742 L127.857,136.36 C126.702,136.36 123.699,136.437 122.544,136.437 L123.16,142.905 C131.322,142.905 139.022,142.828 146.183,142.674 L146.183,143.983 L119.31,143.983 L119.31,150.528 L146.183,150.528 L146.183,152.068 L115.152,152.068 L115.152,158.921 L146.183,158.921 L146.183,159.306 C146.183,160.846 146.029,160.923 143.257,160.923 C141.332,160.923 137.405,160.769 131.476,160.538 L132.169,168.315 C138.791,168.546 143.334,168.7 145.798,168.7 C151.65,168.7 154.884,168.546 156.578,167.468 C158.272,166.621 158.503,164.696 158.503,161.539 L158.503,158.921 L186.839,158.921 L186.839,152.068 L158.503,152.068 L158.503,150.528 L182.681,150.528 Z M152.574,124.425 C154.114,125.811 155.885,127.12 157.733,128.275 C155.423,128.737 153.344,129.122 151.65,129.353 L151.65,127.12 L139.869,127.12 L139.869,125.503 L150.495,125.503 L150.495,112.567 L158.041,115.955 L151.958,115.955 L151.958,122.577 L157.348,122.577 L152.574,124.425 Z M125.932,119.497 L128.858,119.497 L128.858,121.345 L125.932,121.345 L125.932,119.497 Z M138.945,121.345 L138.945,119.497 L141.871,119.497 L141.871,121.345 L138.945,121.345 Z M128.858,114.107 L128.858,116.109 L125.932,116.109 L125.932,114.107 L128.858,114.107 Z M141.871,116.109 L138.945,116.109 L138.945,114.107 L141.871,114.107 L141.871,116.109 Z M154.576,135.975 C151.419,136.052 146.491,136.206 139.869,136.283 L139.869,133.742 L151.65,133.742 L151.65,130.816 L154.576,135.975 Z M167.974,125.58 C165.664,124.579 163.816,123.655 162.353,122.577 L173.903,122.577 C172.132,123.809 170.13,124.733 167.974,125.58 Z M167.204,133.126 C168.59,133.742 170.592,134.512 173.056,135.359 C167.435,135.59 161.814,135.744 156.501,135.898 C160.813,134.974 164.355,134.05 167.204,133.126 Z" id="Combined-Shape" fill="#232D23"></path>
                <path d="M79.886,111.874 L79.886,108.178 C84.121,107.716 87.355,107.177 89.742,106.792 L87.74,98.63 C79.193,100.17 69.568,101.171 58.711,101.71 L58.865,103.096 L51.242,97.475 C47.161,103.096 42.695,107.639 37.844,111.027 L41.155,121.961 C47.315,118.265 53.244,112.259 59.096,104.251 L59.943,109.949 C61.56,109.872 64.409,109.718 68.49,109.41 L68.49,111.874 L57.479,111.874 L57.479,118.958 L52.397,116.263 C49.856,120.575 47.469,124.194 45.236,126.966 C42.926,129.815 40.154,132.587 36.766,135.359 L38.999,147.91 C40.154,146.986 41.54,145.677 43.157,143.752 L43.157,167.776 L54.322,167.776 L54.322,133.203 C55.323,131.74 56.555,129.815 58.018,127.274 L58.018,144.753 L68.49,144.753 L68.49,146.986 L58.172,146.986 L58.172,154.994 L68.49,154.994 L68.49,157.766 L57.248,158.305 L57.941,167.16 C69.183,166.544 79.27,165.774 88.279,164.773 L88.279,156.303 C83.659,156.765 80.887,156.996 79.886,157.073 L79.886,154.994 L90.204,154.994 L90.204,146.986 L79.886,146.986 L79.886,144.753 L90.435,144.753 L90.435,127.813 L94.285,127.813 L94.285,153.993 C94.285,157.15 94.285,157.15 93.284,157.15 C92.129,157.15 90.743,156.996 89.357,156.765 L90.281,166.852 C93.669,167.083 96.21,167.237 97.981,167.237 C102.986,167.237 104.526,166.39 105.373,162.771 C105.758,161 105.912,157.843 105.912,153.454 L105.912,127.813 L110.301,127.813 L110.301,117.726 L90.743,117.726 L90.743,111.874 L79.886,111.874 Z M68.49,119.728 L68.49,122.038 L60.79,122.038 L61.329,120.883 L59.173,119.728 L68.49,119.728 Z M79.886,119.728 L88.51,119.728 L88.51,122.038 L79.886,122.038 L79.886,119.728 Z M66.95,135.667 L69.337,135.667 L69.337,138.593 L66.95,138.593 L66.95,135.667 Z M79.116,138.593 L79.116,135.667 L81.58,135.667 L81.58,138.593 L79.116,138.593 Z M69.337,128.121 L69.337,131.124 L66.95,131.124 L66.95,128.121 L69.337,128.121 Z M81.58,131.124 L79.116,131.124 L79.116,128.121 L81.58,128.121 L81.58,131.124 Z M89.973,100.786 L89.973,110.95 L109.454,110.95 L109.454,100.786 L89.973,100.786 Z" id="Combined-Shape" fill="#232D23"></path>
                <path d="M920.726,54.76 C910.485,58.071 901.476,59.149 894.7,57.378 C890.234,56.3 886.307,52.604 886.923,48.292 C887.693,43.133 892.621,38.975 899.166,35.587 C902.477,33.893 906.019,32.584 909.484,31.352 C914.566,29.581 919.417,27.887 924.422,26.501 L919.263,10.1 L911.024,12.641 L912.564,17.8 C906.943,19.571 900.552,21.881 894.623,24.807 C892.698,21.265 890.234,15.259 889.926,7.328 L889.695,1.476 L877.606,1.938 L877.837,7.79 C878.222,18.185 881.533,26.27 884.305,31.121 C879.531,35.048 875.758,40.053 874.911,46.598 C873.448,56.685 880.84,66.31 891.851,68.851 C895.239,69.621 898.627,70.083 902.323,70.083 C908.637,70.083 915.721,68.851 923.652,66.387 L920.726,54.76 Z" id="Path" fill="#232D23"></path>
                <path d="M848.5,14.797 L847.73,3.555 L802.146,6.712 L801.915,1.707 L793.214,2.092 L794.138,18.416 L822.243,16.414 L802.839,30.505 L809.307,38.898 L814.004,35.356 C820.01,35.125 826.555,34.74 832.022,38.051 C838.49,41.978 839.183,51.141 833.023,55.607 C832.792,52.604 832.176,48.6 829.25,45.212 C827.094,42.825 823.321,39.976 816.853,39.745 C809.538,39.591 803.301,45.751 802.531,53.605 C801.453,65.848 813.542,69.852 823.013,69.852 C832.407,69.852 840.492,66.618 845.42,59.765 C855.199,45.982 845.728,26.655 828.788,24.73 L841.878,15.259 L848.5,14.797 Z M815.005,56.762 C813.465,55.222 814.62,52.065 816.545,51.603 C819.933,50.756 821.781,54.452 821.165,58.379 L821.165,58.533 C819.317,58.456 816.391,58.379 815.005,56.762 Z" id="Combined-Shape" fill="#BB1E1E"></path>
                <path d="M719.371,71.238 C721.681,66.464 723.606,61.613 725.377,56.685 C729.766,61.69 735.464,65.232 742.548,67.157 C749.786,69.082 760.104,70.083 773.579,70.083 L778.584,70.083 L779.2,59.919 L773.733,59.919 C764.031,59.919 756.485,59.534 751.172,58.764 L751.172,49.293 L772.963,49.293 L772.963,39.899 L751.172,39.899 L751.172,33.123 L778.892,33.123 L778.892,23.267 L751.172,23.267 L751.172,17.261 L774.349,17.261 L774.349,7.79 L751.172,7.79 L751.172,0.937 L738.775,0.937 L738.775,7.79 L714.751,7.79 L714.751,17.261 L738.775,17.261 L738.775,23.267 L710.208,23.267 L710.208,33.123 L738.775,33.123 L738.775,55.376 C734.771,53.297 731.46,50.063 728.765,45.52 C729.381,43.056 729.92,40.669 730.382,38.205 L719.294,35.972 C716.907,46.752 713.442,57.07 708.822,67.003 L719.371,71.238 Z" id="Path" fill="#BB1E1E"></path>
                <path d="M700.352,41.362 L698.273,29.735 L690.958,31.275 L693.037,42.671 L700.352,41.362 Z M689.957,40.746 L687.801,29.196 L680.409,30.659 L682.565,41.978 L689.957,40.746 Z M687.955,59.534 C678.792,55.299 673.094,49.986 671.631,43.98 C669.783,35.895 674.249,26.655 679.177,19.109 L698.966,17.646 L698.119,6.096 L644.835,10.177 L644.373,5.326 L635.826,6.019 L637.212,22.266 L664.085,20.187 C659.234,29.735 657.694,38.744 659.542,46.829 C661.852,56.685 669.321,64.539 681.718,70.545 L687.955,59.534 Z" id="Combined-Shape" fill="#BB1E1E"></path>
                <polygon id="Path" fill="#BB1E1E" points="601.253 22.189 601.33 22.189 601.33 64 614.959 64 614.959 7.79 601.33 7.79 586.469 18.57 586.469 32.969"></polygon>
                <polygon id="Path" fill="#BB1E1E" points="551.203 22.189 551.28 22.189 551.28 64 564.909 64 564.909 7.79 551.28 7.79 536.419 18.57 536.419 32.969"></polygon>
                <path d="M525.254,52.373 C520.249,48.523 508.237,39.283 505.234,24.807 L511.24,23.96 L510.316,15.644 L491.682,17.954 C493.607,32.276 496.841,40.592 503.309,48.831 C507.544,54.144 512.241,57.917 517.785,62.075 L525.254,52.373 Z M466.734,68.774 L489.911,7.328 L478.207,3.478 L455.338,64.231 L466.734,68.774 Z" id="Combined-Shape" fill="#BB1E1E"></path>
                <path d="M427.002,18.339 L426.386,25.962 L430.39,26.27 C429.774,29.504 426.001,46.675 404.364,58.456 L409.908,68.158 C438.398,52.989 441.632,28.272 441.709,27.194 L442.402,19.417 L427.002,18.339 Z M405.981,41.516 L417.531,40.9 L416.068,16.106 L404.518,16.799 L405.981,41.516 Z M391.428,43.672 L402.824,41.593 L398.127,16.491 L386.962,18.339 L391.428,43.672 Z" id="Combined-Shape" fill="#BB1E1E"></path>
                <path d="M349.001,56.3 C348.077,54.067 346.768,51.911 345.305,49.986 L371.1,7.636 L304.418,7.636 L304.418,19.494 L349.078,19.494 L335.911,41.747 C332.831,39.129 328.673,37.512 324.746,37.05 C320.434,36.434 316.43,37.127 312.041,37.666 L313.504,49.447 C317.2,49.062 320.665,48.292 323.976,49.062 C326.825,49.678 329.289,51.141 331.522,53.143 C336.219,57.224 339.222,62.922 342.071,69.005 L357.933,61.305 L354.083,53.759 L349.001,56.3 Z" id="Path" fill="#BB1E1E"></path>
                <path d="M296.795,15.644 L294.639,4.094 L287.324,5.634 L289.403,17.107 L296.795,15.644 Z M286.246,10.716 L284.321,0.013 L276.775,1.399 L278.854,12.102 L286.246,10.716 Z M295.178,44.981 C295.178,21.727 277.006,11.794 275.697,11.255 L270.076,21.034 C270.692,21.265 283.243,28.58 283.243,44.981 L295.178,44.981 Z M270.307,70.468 C278.469,46.752 276.159,36.511 271,30.197 C268.074,26.578 264.07,23.96 259.527,22.189 L264.763,5.095 L253.29,1.63 C250.133,11.409 248.901,15.644 247.592,19.648 C240.354,19.032 232.269,19.956 223.106,22.497 L225.878,33.893 C232.577,32.045 238.583,31.352 243.665,31.429 L231.653,64.693 L243.588,68.697 C245.667,62.845 250.21,49.832 255.677,33.2 C258.218,34.124 260.297,35.587 261.683,37.358 C266.072,42.748 264.763,51.295 261.991,58.918 L254.907,56.454 L252.135,64.385 L270.307,70.468 Z" id="Combined-Shape" fill="#BB1E1E"></path>
                <path d="M215.252,56.531 C198.543,49.293 192.691,38.898 191.151,35.433 L213.173,8.483 L153.729,8.483 L153.729,20.187 L187.917,20.187 L160.582,54.375 L156.039,50.602 L150.572,57.147 L164.432,68.235 L183.066,45.212 C190.766,58.071 197.311,61.536 210.17,67.465 L215.252,56.531 Z" id="Path" fill="#BB1E1E"></path>
                <polygon id="Path" fill="#BB1E1E" points="75.266 9.407 79.655 68.081 91.821 67.388 88.202 21.111 121.312 21.111 121.312 50.602 95.132 50.602 95.132 62.383 133.555 62.383 133.555 9.407"></polygon>
                <path d="M51.935,58.687 C48.47,49.524 44.928,42.363 39.153,35.741 L59.019,11.178 L44.774,0.09 L39.307,6.712 L44.004,10.485 L29.99,28.118 C23.445,23.498 15.668,20.957 7.814,19.032 L4.503,30.659 C10.971,32.353 16.9,33.816 22.059,37.281 C22.29,37.358 22.367,37.358 22.29,37.435 L0.422,64.693 L9.739,72.085 L31.53,45.135 C35.919,50.448 38.229,56.454 40.539,62.614 L51.935,58.687 Z" id="Path" fill="#BB1E1E"></path>
            </g>
        </g>
    </g>
</svg>