<?xml version="1.0" encoding="UTF-8"?>
<svg width="323px" height="74px" viewBox="0 0 323 74" version="1.1" xmlns="http://www.w3.org/2000/svg" xmlns:xlink="http://www.w3.org/1999/xlink">
    <!-- Generator: Sketch 41.2 (35397) - http://www.bohemiancoding.com/sketch -->
    <title>text08</title>
    <desc>Created with Sketch.</desc>
    <defs></defs>
    <g id="Page-1" stroke="none" stroke-width="1" fill="none" fill-rule="evenodd">
        <g id="Desktop-HD" transform="translate(-272.000000, -3737.000000)" fill="#242C23">
            <g id="Group-44" transform="translate(271.000000, 3737.000000)">
                <path d="M22.032,25.362 L22.032,22.71 L23.902,22.71 L23.902,25.362 L22.032,25.362 Z M28.594,18.97 L28.594,17.27 L31.824,17.27 L31.824,13.802 L29.104,13.802 L29.104,11.864 L32.504,11.864 L32.504,8.124 L29.104,8.124 L29.104,6.186 L31.144,6.186 L31.144,2.582 L11.22,2.582 C11.492,2.276 11.866,1.766 12.308,1.086 L7.14,0.508 C5.61,2.446 3.672,4.316 1.292,6.152 L5.066,7.784 L5.066,8.124 L1.496,8.124 L1.496,11.864 L5.066,11.864 L5.066,13.802 L2.176,13.802 L2.176,17.27 L6.29,17.27 C4.998,19.48 3.23,21.316 0.952,22.778 L3.672,26.11 C4.08,25.872 4.624,25.464 5.406,24.886 C6.222,25.328 7.106,25.838 8.058,26.484 C6.392,27.504 4.318,28.354 1.768,28.932 L4.862,32.4 C9.486,31.108 12.75,29.068 14.722,26.246 L14.722,29.238 L23.256,29.238 L23.256,31.992 L28.594,31.992 L28.594,29.238 L32.708,29.238 L32.708,25.362 L28.594,25.362 L28.594,22.71 L31.824,22.71 L31.824,18.97 L28.594,18.97 Z M11.05,23.764 C10.54,23.39 9.622,22.846 8.364,22.166 L8.84,21.656 L12.172,21.656 C11.9,22.37 11.526,23.084 11.05,23.764 Z M15.3,25.362 C15.776,24.512 16.116,23.628 16.388,22.71 L17.68,22.71 L17.68,25.362 L15.3,25.362 Z M11.594,17.27 L23.256,17.27 L23.256,18.97 L16.66,18.97 L16.66,18.29 L11.118,18.29 L11.594,17.27 Z M9.758,8.124 L9.758,6.186 L11.424,6.186 L11.424,8.124 L9.758,8.124 Z M9.758,11.864 L11.424,11.864 L11.424,13.802 L9.758,13.802 L9.758,11.864 Z M17.748,8.124 L16.218,8.124 L16.218,6.186 L17.748,6.186 L17.748,8.124 Z M16.218,13.802 L16.218,11.864 L17.748,11.864 L17.748,13.802 L16.218,13.802 Z M24.072,8.124 L22.576,8.124 L22.576,6.186 L24.072,6.186 L24.072,8.124 Z M22.576,13.802 L22.576,11.864 L24.072,11.864 L24.072,13.802 L22.576,13.802 Z M53.958,6.458 C54.672,7.206 55.794,8.396 57.358,10.096 C54.944,10.3 51.034,10.572 45.73,10.878 C47.498,8.192 49.13,5.472 50.626,2.616 L45.492,0.882 C43.384,4.792 41.378,8.226 39.44,11.184 C37.808,11.286 36.584,11.32 35.734,11.354 L36.006,15.808 C44.03,15.604 52.326,14.992 60.928,14.074 C61.88,15.196 62.594,16.046 63.138,16.726 L67.184,13.802 C64.532,10.538 61.506,7.24 58.106,3.942 L53.958,6.458 Z M58.038,21.622 L58.038,26.348 L43.962,26.348 L43.962,21.622 L58.038,21.622 Z M63.342,31.992 L63.342,17.27 L38.692,17.27 L38.692,31.992 L43.962,31.992 L43.962,30.53 L58.038,30.53 L58.038,31.992 L63.342,31.992 Z M24.48,42.154 L22.712,45.452 L24.616,46.404 C22.848,49.022 20.332,51.028 17.544,52.49 C12.954,54.904 8.058,55.516 2.72,55.89 L3.094,61.058 C7.888,60.684 12.308,60.14 16.524,58.542 L16.524,72.856 L21.998,72.856 L21.998,55.856 C26.18,53.102 29.07,49.838 31.144,45.554 L24.48,42.154 Z M47.532,46.506 C47.532,46.2 47.532,45.86 47.43,43.038 L39.61,43.344 L39.678,47.05 L42.228,46.948 C41.922,51.946 38.964,55.89 35.428,59.324 L39.134,63.03 C42.602,59.63 45.424,56.094 46.75,51.538 L58.14,51.538 L55.692,58.236 C52.836,56.162 49.912,56.026 46.512,56.026 L46.512,61.024 C49.674,61.126 51.476,61.024 53.856,63.166 L51.034,70.782 L56.066,72.346 L65.722,46.506 L47.532,46.506 Z M79.39,61.976 L79.492,44.5 L73.916,44.5 L73.848,61.874 L79.39,61.976 Z M93.942,66.702 C95.404,63.438 96.254,59.97 96.424,56.434 C96.594,52.694 96.322,48.546 94.112,42.358 L88.944,44.092 C89.794,46.574 90.406,48.716 90.712,51.096 C91.392,56.604 90.44,62.35 87.55,67.042 L85.306,65.512 L83.13,68.538 L89.896,73.23 C91.46,71.088 92.922,68.98 93.942,66.702 Z M127.738,61.024 L133.824,45.282 L105.162,45.282 L105.162,50.416 L125.97,50.416 L122.638,59.188 L127.738,61.024 Z M113.254,72.618 C119.17,67.11 121.21,61.194 121.108,53.306 L113.458,53.306 L113.458,57.046 L115.77,57.046 C115.566,61.772 112.846,65.818 109.276,69.082 L113.254,72.618 Z M141.916,71.36 L153.748,45.18 L148.716,45.18 L136.884,71.36 L141.916,71.36 Z M174.318,47.22 L159.698,43.616 L158.372,48.682 L173.06,52.32 L174.318,47.22 Z M172.074,54.36 L158.27,54.292 L158.27,59.596 L172.04,59.664 L172.074,54.36 Z M182.682,61.704 C184.382,59.698 185.606,57.352 186.932,54.904 L182.206,52.49 C180.438,55.754 178.636,58.542 176.018,60.888 C173.536,63.098 170.714,64.968 167.79,66.362 L166.974,64.322 L163.404,65.784 L166.226,72.584 C172.822,70 178.398,66.668 182.682,61.704 Z M220.388,55.074 L210.664,55.074 C210.494,52.456 209.916,50.552 209.474,49.43 L216.886,48.648 L216.036,41.95 L212.16,42.392 L212.364,43.956 L196.554,45.724 L197.064,50.756 L203.796,50.042 C204.306,51.13 205.122,52.558 205.292,55.074 L191.59,55.074 L191.59,60.276 L204.68,60.276 C203.796,63.676 201.892,66.532 199.444,69.796 L203.762,72.822 C206.856,68.674 209.304,64.866 210.256,60.276 L220.388,60.276 L220.388,55.074 Z M234.532,61.976 L234.634,44.5 L229.058,44.5 L228.99,61.874 L234.532,61.976 Z M249.084,66.702 C250.546,63.438 251.396,59.97 251.566,56.434 C251.736,52.694 251.464,48.546 249.254,42.358 L244.086,44.092 C244.936,46.574 245.548,48.716 245.854,51.096 C246.534,56.604 245.582,62.35 242.692,67.042 L240.448,65.512 L238.272,68.538 L245.038,73.23 C246.602,71.088 248.064,68.98 249.084,66.702 Z M282.88,61.024 L288.966,45.282 L260.304,45.282 L260.304,50.416 L281.112,50.416 L277.78,59.188 L282.88,61.024 Z M268.396,72.618 C274.312,67.11 276.352,61.194 276.25,53.306 L268.6,53.306 L268.6,57.046 L270.912,57.046 C270.708,61.772 267.988,65.818 264.418,69.082 L268.396,72.618 Z M318.172,72.89 C319.328,72.89 320.178,72.686 320.756,72.244 C321.3,71.802 321.674,70.918 321.98,69.558 C322.252,68.164 322.422,66.056 322.422,63.2 L322.422,61.194 L300.866,61.194 L300.866,60.14 L323.136,60.14 L323.136,56.672 L300.866,56.672 L300.866,55.652 L319.804,55.652 L319.804,44.058 L309.128,44.058 L309.638,41.814 L304.198,41.508 C304.096,42.222 303.892,43.038 303.654,44.058 L295.596,44.058 L295.596,64.492 L301.41,64.492 L301.41,67.518 L298.622,67.518 L298.622,65.274 L293.488,65.274 L293.488,72.55 L298.622,72.55 L298.622,71.122 L311.27,71.122 L311.44,72.686 C314.126,72.822 316.37,72.89 318.172,72.89 Z M314.5,48.682 L300.866,48.682 L300.866,47.492 L314.5,47.492 L314.5,48.682 Z M300.866,52.66 L300.866,51.436 L314.5,51.436 L314.5,52.66 L300.866,52.66 Z M309.298,67.518 L306.544,67.518 L306.544,64.492 L317.254,64.492 C317.152,68.436 317.016,68.674 316.064,68.674 C315.928,68.674 315.282,68.64 314.092,68.606 L314.092,65.274 L309.298,65.274 L309.298,67.518 Z" id="text08"></path>
            </g>
        </g>
    </g>
</svg>