<?xml version="1.0" encoding="UTF-8"?>
<svg width="303px" height="64px" viewBox="0 0 303 64" version="1.1" xmlns="http://www.w3.org/2000/svg" xmlns:xlink="http://www.w3.org/1999/xlink">
    <!-- Generator: Sketch 41.2 (35397) - http://www.bohemiancoding.com/sketch -->
    <title>text11-02</title>
    <desc>Created with Sketch.</desc>
    <defs></defs>
    <g id="Page-1" stroke="none" stroke-width="1" fill="none" fill-rule="evenodd">
        <g id="Desktop-HD" transform="translate(-891.000000, -6317.000000)" fill="#FFFFFF">
            <g id="text11" transform="translate(186.000000, 6317.000000)">
                <path d="M748.475,51.5 C747.575,49.325 746.3,47.225 744.875,45.35 L770,4.1 L705.05,4.1 L705.05,15.65 L748.55,15.65 L735.725,37.325 C732.725,34.775 728.675,33.2 724.85,32.75 C720.65,32.15 716.75,32.825 712.475,33.35 L713.9,44.825 C717.5,44.45 720.875,43.7 724.1,44.45 C726.875,45.05 729.275,46.475 731.45,48.425 C736.025,52.4 738.95,57.95 741.725,63.875 L757.175,56.375 L753.425,49.025 L748.475,51.5 Z M789.8,39.2 L800.9,37.175 L796.325,12.725 L785.45,14.525 L789.8,39.2 Z M803.975,37.1 L815.225,36.5 L813.8,12.35 L802.55,13.025 L803.975,37.1 Z M824.45,14.525 L823.85,21.95 L827.75,22.25 C827.15,25.4 823.475,42.125 802.4,53.6 L807.8,63.05 C835.55,48.275 838.7,24.2 838.775,23.15 L839.45,15.575 L824.45,14.525 Z M863.15,63.65 L885.725,3.8 L874.325,0.05 L852.05,59.225 L863.15,63.65 Z M920.15,47.675 C915.275,43.925 903.575,34.925 900.65,20.825 L906.5,20 L905.6,11.9 L887.45,14.15 C889.325,28.1 892.475,36.2 898.775,44.225 C902.9,49.4 907.475,53.075 912.875,57.125 L920.15,47.675 Z M945.425,18.275 L945.5,18.275 L945.5,59 L958.775,59 L958.775,4.25 L945.5,4.25 L931.025,14.75 L931.025,28.775 L945.425,18.275 Z M994.175,18.275 L994.25,18.275 L994.25,59 L1007.525,59 L1007.525,4.25 L994.25,4.25 L979.775,14.75 L979.775,28.775 L994.175,18.275 Z" id="text11-02"></path>
            </g>
        </g>
    </g>
</svg>