<?xml version="1.0" encoding="UTF-8"?>
<svg width="1111px" height="187px" viewBox="0 0 1111 187" version="1.1" xmlns="http://www.w3.org/2000/svg" xmlns:xlink="http://www.w3.org/1999/xlink">
    <!-- Generator: Sketch 41.2 (35397) - http://www.bohemiancoding.com/sketch -->
    <title>text12</title>
    <desc>Created with Sketch.</desc>
    <defs>
        <polygon id="path-1" points="1.95399523e-14 0.712140739 1.95399523e-14 179.999822 103.626342 179.999822 103.626342 0.712140739 1.95399252e-14 0.712140739"></polygon>
        <polygon id="path-3" points="71.723 180.199866 71.723 0.737137467 0.1819 0.737137467 0.1819 180.199866 71.723 180.199866"></polygon>
        <polygon id="path-5" points="4.54747378e-13 0.712140739 4.54747378e-13 179.999822 103.626342 179.999822 103.626342 0.712140739 4.54747351e-13 0.712140739"></polygon>
        <polygon id="path-7" points="71.723 180.199866 71.723 0.737137467 0.1819 0.737137467 0.1819 180.199866 71.723 180.199866"></polygon>
    </defs>
    <g id="Page-1" stroke="none" stroke-width="1" fill="none" fill-rule="evenodd">
        <g id="Desktop-HD" transform="translate(-229.000000, -7517.000000)">
            <g id="text12" transform="translate(229.000000, 7513.000000)">
                <g id="Page-1" transform="translate(60.780425, 96.948850) scale(-1, 1) rotate(-182.000000) translate(-60.780425, -96.948850) translate(3.280425, 1.948850)">
                    <g id="Group-3" transform="translate(0.000000, 9.263000)">
                        <mask id="mask-2" fill="white">
                            <use xlink:href="#path-1"></use>
                        </mask>
                        <g id="Clip-2"></g>
                        <path d="M0.4278,14.4124 C0.4278,14.4124 91.9128,172.5214 95.4238,178.9224 C97.0948,181.9744 104.9918,177.8484 103.4208,175.1394 C100.0088,169.2804 24.5758,6.8384 22.6208,4.4534 C20.6668,2.0744 22.8778,-1.5856 14.7088,2.6694 C6.5458,6.9304 -0.0002,10.1594 -0.0002,10.1594 L0.4278,14.4124 Z" id="Fill-1" fill="#FFFFFF" mask="url(#mask-2)"></path>
                    </g>
                    <g id="Group-6" transform="translate(43.000000, 0.263000)">
                        <mask id="mask-4" fill="white">
                            <use xlink:href="#path-3"></use>
                        </mask>
                        <g id="Clip-5"></g>
                        <path d="M0.8799,5.8475 C0.8799,5.8475 65.3629,171.5015 67.8709,178.1345 C69.0729,181.3015 72.6199,180.5565 71.5119,177.7255 C69.1139,171.5765 12.3069,7.8395 11.0479,5.1485 C9.7839,2.4525 10.4939,0.1215 6.8179,0.8835 C3.1419,1.6415 0.1819,2.0965 0.1819,2.0965 L0.8799,5.8475 Z" id="Fill-4" fill="#FFFFFF" mask="url(#mask-4)"></path>
                    </g>
                </g>
                <g id="Page-1" transform="translate(1050.780425, 96.948850) rotate(-182.000000) translate(-1050.780425, -96.948850) translate(993.280425, 1.948850)">
                    <g id="Group-3" transform="translate(0.000000, 9.263000)">
                        <mask id="mask-6" fill="white">
                            <use xlink:href="#path-5"></use>
                        </mask>
                        <g id="Clip-2"></g>
                        <path d="M0.4278,14.4124 C0.4278,14.4124 91.9128,172.5214 95.4238,178.9224 C97.0948,181.9744 104.9918,177.8484 103.4208,175.1394 C100.0088,169.2804 24.5758,6.8384 22.6208,4.4534 C20.6668,2.0744 22.8778,-1.5856 14.7088,2.6694 C6.5458,6.9304 -0.0002,10.1594 -0.0002,10.1594 L0.4278,14.4124 Z" id="Fill-1" fill="#FFFFFF" mask="url(#mask-6)"></path>
                    </g>
                    <g id="Group-6" transform="translate(43.000000, 0.263000)">
                        <mask id="mask-8" fill="white">
                            <use xlink:href="#path-7"></use>
                        </mask>
                        <g id="Clip-5"></g>
                        <path d="M0.8799,5.8475 C0.8799,5.8475 65.3629,171.5015 67.8709,178.1345 C69.0729,181.3015 72.6199,180.5565 71.5119,177.7255 C69.1139,171.5765 12.3069,7.8395 11.0479,5.1485 C9.7839,2.4525 10.4939,0.1215 6.8179,0.8835 C3.1419,1.6415 0.1819,2.0965 0.1819,2.0965 L0.8799,5.8475 Z" id="Fill-4" fill="#FFFFFF" mask="url(#mask-8)"></path>
                    </g>
                </g>
                <path d="M155.176,100.36 C156.4,97.264 157.264,94.528 157.768,92.296 L160.72,92.296 L160.72,83.368 L148.696,83.368 L148.696,76.744 L138.04,76.744 L138.04,83.368 L127.816,83.368 L127.816,92.296 L130.912,92.296 C131.704,94.96 132.424,97.624 133,100.36 L127.456,100.36 L127.456,108.928 L138.04,108.928 L138.04,112.024 L127.456,112.024 L127.456,120.952 L135.088,120.952 C132.568,124.984 129.4,128.656 125.512,131.896 L130.912,140.248 C133.432,137.656 135.88,134.56 138.04,130.96 L138.04,142.768 L148.696,142.768 L148.696,131.896 C150.568,133.912 152.224,135.712 153.592,137.296 L155.104,135.496 L161.656,142.336 C164.824,138.016 167.2,133.336 168.928,128.368 C170.656,123.328 171.88,116.776 172.6,108.784 L177.064,108.784 L177.064,142.12 L187.504,142.12 L187.504,108.784 L192.472,108.784 L192.472,99.064 L173.248,99.064 C173.32,97.336 173.464,94.672 173.536,91.144 C180.376,90.28 186.496,88.912 192.112,87.112 L189.304,77.392 C182.464,79.84 173.896,81.496 163.528,82.36 C163.528,95.68 163.096,105.544 162.232,112.096 C161.368,118.576 159.856,124.12 157.552,128.728 C154.528,125.776 151.648,123.256 148.912,120.952 L159.568,120.952 L159.568,112.024 L148.696,112.024 L148.696,108.928 L160.504,108.928 L160.504,100.36 L155.176,100.36 Z M142.216,100.36 C141.856,98.56 141.136,95.896 140.2,92.296 L148.408,92.296 C147.688,94.888 146.752,97.552 145.744,100.36 L142.216,100.36 Z M260.368,104.68 L260.368,100 C260.944,100.36 262.096,101.296 262.6,101.656 L266.2,92.08 C260.512,87.976 255.256,83.152 250.648,77.464 L241.504,77.464 C237.904,81.928 234.232,85.6 230.488,88.552 L230.488,83.224 L219.616,83.224 L219.616,77.752 L208.96,77.752 L208.96,83.224 L198.232,83.224 L198.232,91.792 L208.96,91.792 L208.96,95.32 L199.312,95.32 L199.312,122.464 L208.96,122.464 L208.96,125.992 L198.232,125.992 L198.232,134.632 L208.96,134.632 L208.96,142.408 L219.616,142.408 L219.616,134.632 L230.632,134.632 L230.632,125.992 L219.616,125.992 L219.616,122.464 L228.904,122.464 L228.904,123.904 L241.072,123.904 L241.072,142.408 L252.304,142.408 L252.304,123.904 L264.112,123.904 L264.112,114.472 L252.304,114.472 L252.304,104.68 L260.368,104.68 Z M241.072,114.472 L229.192,114.472 L229.192,101.584 L231.928,99.64 L231.928,104.68 L241.072,104.68 L241.072,114.472 Z M236.464,95.824 C240.064,92.512 243.232,88.912 246.112,84.952 C249.064,89.2 252.16,92.8 255.4,95.824 L236.464,95.824 Z M226.168,91.792 L227.176,95.32 L219.616,95.32 L219.616,91.792 L226.168,91.792 Z M219.472,105.4 L209.608,105.4 L209.608,102.16 L219.472,102.16 L219.472,105.4 Z M209.608,115.552 L209.608,112.24 L219.472,112.24 L219.472,115.552 L209.608,115.552 Z M275.704,138.952 C276.784,132.112 277.36,125.272 277.72,118.72 L271.384,118.288 C270.952,124.552 270.232,131.032 269.368,137.872 L275.704,138.952 Z M269.872,94.528 C272.176,97.48 274.696,100.72 277.36,104.32 C277.216,104.68 276.568,105.76 276.28,106.12 L270.232,106.48 L270.448,116.56 L278.584,115.984 L278.584,142.336 L289.168,142.336 L289.168,115.192 L293.344,114.904 L293.344,118.144 L290.104,118.504 C290.464,121.96 290.752,126.136 291.04,131.104 L295.288,130.744 C293.992,132.112 292.408,133.552 290.68,135.064 L297.376,141.4 C299.68,139.312 301.84,137.008 303.856,134.344 L304.288,141.688 C307.456,141.904 309.4,142.048 310.192,142.048 C313.792,142.048 315.448,141.976 317.176,141.328 C318.112,140.968 318.832,140.608 319.192,140.104 C319.912,139.312 320.632,136.864 320.704,134.416 C320.776,133.12 320.776,131.464 320.776,129.232 L320.776,126.928 C324.088,132.904 327.976,137.8 332.44,141.616 L338.056,132.976 C335.464,131.032 332.944,128.584 330.352,125.488 C332.872,122.752 335.248,119.656 337.552,116.128 L332.224,111.304 L334.96,111.304 L334.96,81.712 L320.2,81.712 C320.632,79.84 320.992,78.328 321.208,77.032 L309.616,76.384 C309.4,77.68 308.968,79.408 308.536,81.712 L296.008,81.712 L296.008,87.04 L288.88,84.376 C286.432,89.128 284.344,92.944 282.616,95.824 L281.32,94.024 C283.984,89.056 286.144,84.16 288.016,79.408 L279.52,76.888 C278.152,80.776 276.928,84.016 275.776,86.464 C274.84,85.312 274.12,84.376 273.688,83.8 L269.872,94.528 Z M308.176,133.12 C308.104,133.12 306.952,133.048 304.936,132.832 C307.6,128.944 309.472,125.2 310.624,121.744 L310.624,130.24 C310.624,133.048 310.624,133.12 308.176,133.12 Z M286.648,105.472 C288.088,103.168 289.24,101.296 289.96,100.144 C290.752,102.808 291.184,104.464 291.328,105.184 L286.648,105.472 Z M290.536,99.208 C292.408,96.04 294.28,92.8 296.008,89.488 L296.008,97.768 L290.536,99.208 Z M296.8,129.088 C296.656,126.784 296.44,124.48 296.152,122.032 L301.552,122.032 C300.472,124.336 298.888,126.64 296.8,129.088 Z M310.624,111.304 L310.624,119.152 L307.312,114.04 L300.112,114.04 L299.464,111.304 L310.624,111.304 Z M324.016,93.232 L306.088,93.232 L306.088,89.776 L324.016,89.776 L324.016,93.232 Z M306.088,103.744 L306.088,100.216 L324.016,100.216 L324.016,103.744 L306.088,103.744 Z M330.424,111.304 C328.912,113.608 327.112,115.912 325.168,118.216 C323.8,116.056 322.648,113.752 321.568,111.304 L330.424,111.304 Z M395.08,138.736 C403,133.192 407.392,124.336 407.608,114.616 C407.752,104.896 403.504,95.464 395.944,89.632 C388.96,84.088 379.312,81.928 369.88,83.368 C360.592,84.952 352.456,89.704 347.632,97.048 C342.232,105.256 340.864,116.128 344.464,124.264 C347.128,130.528 352.24,134.56 359.008,135.64 C364.624,136.432 370.384,134.56 375.064,130.528 C381.904,124.552 385.576,114.832 385.216,102.952 L373.12,103.384 C373.336,111.736 371.248,118.288 367.288,121.672 C365.128,123.544 362.896,124.336 360.808,124.048 C358.216,123.616 356.488,122.104 355.408,119.584 C353.392,115.048 354.328,108.496 357.64,103.528 C360.592,98.992 365.776,95.824 371.752,94.816 C378.16,93.808 384.208,95.248 388.528,98.848 C392.992,102.376 395.728,108.28 395.584,114.4 C395.512,118.36 394.36,121.816 392.488,124.768 L389.176,121.528 L383.272,127.36 L395.08,138.736 Z M413.152,96.688 L413.152,115.84 L459.952,115.84 L459.952,136 L483.28,136 L483.28,115.84 L498.544,115.84 L498.544,96.688 L483.28,96.688 L483.28,30.88 L459.952,30.88 L413.152,96.688 Z M459.664,60.544 L459.952,60.544 L459.952,96.688 L434.752,96.688 L434.752,96.4 L459.664,60.544 Z M506.752,96.688 L506.752,115.84 L553.552,115.84 L553.552,136 L576.88,136 L576.88,115.84 L592.144,115.84 L592.144,96.688 L576.88,96.688 L576.88,30.88 L553.552,30.88 L506.752,96.688 Z M553.264,60.544 L553.552,60.544 L553.552,96.688 L528.352,96.688 L528.352,96.4 L553.264,60.544 Z M706.912,110.656 L706.912,126.496 L668.464,126.496 L668.464,110.656 L706.912,110.656 Z M719.584,67.312 C721.6,61.552 723.616,54.496 725.632,46.432 L734.848,46.432 L734.848,28.864 L699.856,28.864 L699.856,17.344 L676.672,17.344 L676.672,28.864 L644.848,28.864 C645.424,26.416 645.856,24.256 646,22.816 L625.264,19.072 C620.656,42.4 612.592,61.552 600.928,76.672 L606.688,102.736 C608.992,100.288 611.728,96.688 614.608,92.224 L614.608,148.672 L636.064,148.672 L636.064,59.536 C639.232,51.76 641.824,43.552 643.84,34.624 L643.84,46.432 L650.896,46.432 C652.768,52.048 654.928,58.96 657.232,67.312 L640.816,67.312 L640.816,85.744 L736.144,85.744 L736.144,67.312 L719.584,67.312 Z M729.232,148.384 L729.232,92.944 L646.576,92.944 L646.576,148.384 L668.464,148.384 L668.464,143.632 L706.912,143.632 L706.912,148.384 L729.232,148.384 Z M678.4,67.312 C676.384,59.824 674.224,52.912 672.064,46.432 L704.464,46.432 C702.88,53.056 700.72,59.968 698.128,67.312 L678.4,67.312 Z M798.28,138.736 C806.2,133.192 810.592,124.336 810.808,114.616 C810.952,104.896 806.704,95.464 799.144,89.632 C792.16,84.088 782.512,81.928 773.08,83.368 C763.792,84.952 755.656,89.704 750.832,97.048 C745.432,105.256 744.064,116.128 747.664,124.264 C750.328,130.528 755.44,134.56 762.208,135.64 C767.824,136.432 773.584,134.56 778.264,130.528 C785.104,124.552 788.776,114.832 788.416,102.952 L776.32,103.384 C776.536,111.736 774.448,118.288 770.488,121.672 C768.328,123.544 766.096,124.336 764.008,124.048 C761.416,123.616 759.688,122.104 758.608,119.584 C756.592,115.048 757.528,108.496 760.84,103.528 C763.792,98.992 768.976,95.824 774.952,94.816 C781.36,93.808 787.408,95.248 791.728,98.848 C796.192,102.376 798.928,108.28 798.784,114.4 C798.712,118.36 797.56,121.816 795.688,124.768 L792.376,121.528 L786.472,127.36 L798.28,138.736 Z M825.28,128.44 C822.688,130.456 820.024,132.328 817.144,134.056 L822.256,142.768 C825.784,140.392 828.952,138.016 831.76,135.64 C834.208,137.8 838.024,139.384 843.136,140.248 C848.248,141.184 855.52,141.688 865.24,141.688 L882.448,141.688 L883.024,132.544 L865.312,132.544 C857.464,132.544 851.704,132.328 847.888,131.968 C844.144,131.608 841.408,131.032 839.896,130.24 C838.312,129.448 837.016,128.152 835.936,126.352 L835.936,103.816 L818.368,103.816 L818.368,112.96 L825.28,112.96 L825.28,128.44 Z M854.008,93.088 L838.816,93.088 L838.816,113.824 L850.768,113.824 C846.88,116.56 842.056,119.08 836.44,121.312 L841.912,130.096 C846.448,127.792 850.48,125.2 854.008,122.248 L854.008,130.672 L865.24,130.672 L865.24,121.528 C868.984,124.768 873.232,127.648 878.2,130.096 L882.88,121.384 C877.552,119.008 873.016,116.56 869.416,113.824 L880.288,113.824 L880.288,93.088 L865.24,93.088 L865.24,90.28 L882.16,90.28 L882.16,81.352 L865.24,81.352 L865.24,77.104 L854.008,77.104 L854.008,81.352 L835.432,81.352 L835.432,88.84 C831.472,84.808 828.16,81.568 825.496,79.12 L818.368,86.032 C822.976,90.064 827.296,94.096 831.544,98.416 L838.096,91.576 L836.872,90.28 L854.008,90.28 L854.008,93.088 Z M854.008,107.128 L848.608,107.128 L848.608,100.792 L854.008,100.792 L854.008,107.128 Z M870.208,107.128 L865.24,107.128 L865.24,100.792 L870.208,100.792 L870.208,107.128 Z M927.16,123.688 C925,125.992 922.984,128.368 920.176,129.52 C918.088,130.528 915.496,130.456 913.336,129.448 C907.504,126.856 908.008,120.736 908.008,115.552 L896.704,115.552 C896.704,122.464 897.064,128.872 901.384,134.128 C905.272,138.664 911.104,141.256 916.936,141.256 C920.32,141.256 923.992,140.32 926.944,138.664 C930.256,136.792 932.632,133.984 935.152,131.608 L927.16,123.688 Z M937.96,116.272 L933.568,99.352 L953.296,99.352 L953.224,88.264 L930.4,88.264 L927.304,77.824 L916.36,80.92 L918.592,88.264 L893.32,88.264 L893.392,99.352 L921.688,99.352 L924.928,111.304 L920.536,112.384 L922.192,120.016 L937.96,116.272 Z M967.336,125.2 L967.336,136 L979.864,136 L979.864,125.2 L967.336,125.2 Z M980.944,83.44 L966.256,83.44 L968.056,119.44 L979.144,119.44 L980.944,83.44 Z" id="新幹線の44倍の速さ!" fill="#FFFFFF"></path>
            </g>
        </g>
    </g>
</svg>