<?xml version="1.0" encoding="UTF-8"?>
<svg width="5209px" height="69px" viewBox="0 0 5209 69" version="1.1" xmlns="http://www.w3.org/2000/svg" xmlns:xlink="http://www.w3.org/1999/xlink">
    <!-- Generator: Sketch 41.2 (35397) - http://www.bohemiancoding.com/sketch -->
    <title>text04</title>
    <desc>Created with Sketch.</desc>
    <defs></defs>
    <g id="Page-1" stroke="none" stroke-width="1" fill="none" fill-rule="evenodd">
        <path d="M44.352,66.24 C47.808,66.24 49.104,66.024 50.544,65.232 C51.264,64.872 51.696,64.152 51.984,63.072 C52.416,60.984 52.632,58.752 52.632,53.496 L52.632,48.96 L60.192,53.424 C62.856,48.6 64.944,43.632 66.456,38.664 L66.456,29.232 L57.312,29.232 C56.664,28.44 55.728,27.36 54.36,25.992 C57.744,22.248 61.056,18 64.368,13.248 L64.368,4.104 L35.784,4.104 L35.784,13.248 L53.28,13.248 C51.912,15.048 50.112,17.064 48.024,19.296 L42.192,13.68 L36.288,20.88 C38.88,23.328 41.832,26.064 44.928,29.232 L33.84,29.232 L33.84,3.384 L1.872,3.384 L1.872,36.432 L12.816,36.432 L12.816,40.824 L1.152,40.824 L1.152,49.176 L12.816,49.176 L12.816,54.864 C8.496,55.224 4.248,55.512 0,55.728 L0.936,65.16 C12.168,64.296 23.4,63 34.704,61.416 L34.992,65.88 C38.664,66.096 41.832,66.24 44.352,66.24 Z M22.752,23.472 L25.848,23.472 L25.848,28.656 L22.752,28.656 L22.752,23.472 Z M25.848,11.952 L25.848,16.992 L22.752,16.992 L22.752,11.952 L25.848,11.952 Z M10.296,11.952 L13.248,11.952 L13.248,16.992 L10.296,16.992 L10.296,11.952 Z M10.296,28.656 L10.296,23.472 L13.248,23.472 L13.248,28.656 L10.296,28.656 Z M34.776,40.824 L23.256,40.824 L23.256,36.432 L31.896,36.432 L31.896,38.664 L42.048,38.664 L42.048,53.928 C42.048,56.736 42.048,56.808 40.536,56.808 C39.168,56.808 37.44,56.736 35.136,56.52 L35.136,52.848 L23.256,54 L23.256,49.176 L34.776,49.176 L34.776,40.824 Z M57.024,38.664 C55.872,41.76 54.36,44.784 52.632,47.736 L52.632,38.664 L57.024,38.664 Z M122.112,26.856 L100.296,26.856 L100.296,23.616 L122.112,23.616 L122.112,26.856 Z M100.296,37.8 L100.296,34.344 L122.112,34.344 L122.112,37.8 L100.296,37.8 Z M106.776,54.36 C106.776,57.168 106.704,57.24 104.4,57.24 C103.176,57.24 101.16,57.168 98.352,56.952 C99.936,54.504 101.376,51.768 102.672,48.744 L95.976,45.504 L106.776,45.504 L106.776,54.36 Z M136.8,4.104 L75.96,4.104 L75.96,24.912 C75.96,33.696 75.6,40.32 74.808,44.712 C74.088,49.176 72.648,53.28 70.632,57.168 L78.12,66.816 C81.072,62.496 83.16,57.888 84.456,52.776 C85.68,47.664 86.328,41.112 86.328,33.192 L86.328,12.888 L104.472,12.888 L103.608,15.984 L89.928,15.984 L89.928,45.504 L93.24,45.504 C90.792,50.832 87.192,55.584 82.512,59.976 L90.432,66.528 C93.024,64.08 95.4,61.416 97.416,58.392 L97.848,66.312 C104.976,66.816 108.576,66.672 110.736,66.528 C113.04,66.384 115.128,65.592 115.992,64.728 C116.784,63.864 117.576,61.416 117.648,58.896 C117.72,57.744 117.72,56.016 117.72,53.856 L117.72,45.504 L125.208,45.504 L118.296,50.256 C122.616,55.152 126.648,60.552 130.464,66.24 L138.6,60.696 C135.432,55.44 131.616,50.4 127.368,45.504 L133.056,45.504 L133.056,15.984 L115.416,15.984 L116.136,12.888 L136.8,12.888 L136.8,4.104 Z M195.84,56.376 C187.272,52.416 181.944,47.448 180.576,41.832 C178.848,34.272 183.024,25.632 187.632,18.576 L206.136,17.208 L205.344,6.408 L155.52,10.224 L155.088,5.688 L147.096,6.336 L148.392,21.528 L173.52,19.584 C168.984,28.512 167.544,36.936 169.272,44.496 C171.432,53.712 178.416,61.056 190.008,66.672 L195.84,56.376 Z M197.712,38.808 L195.696,28.008 L188.784,29.376 L190.8,39.96 L197.712,38.808 Z M207.432,39.384 L205.488,28.512 L198.648,29.952 L200.592,40.608 L207.432,39.384 Z M224.208,40.176 C222.12,47.52 219.384,54.576 215.928,61.344 L224.856,66.6 C227.664,61.128 230.184,54.576 232.416,47.016 L232.416,66.168 L242.784,66.168 L242.784,63.432 L269.784,63.432 L269.784,66.168 L280.152,66.168 L280.152,16.848 L267.048,16.848 L267.048,12.888 L281.952,12.888 L281.952,4.104 L231.408,4.104 L231.408,10.08 C228.6,7.56 225.504,5.04 222.192,2.592 L216.288,9.576 C220.68,13.032 224.352,16.2 227.376,19.08 L232.488,12.888 L245.592,12.888 L245.592,16.848 L232.416,16.848 L232.416,28.44 C229.176,25.416 225.36,22.248 220.824,18.72 L214.704,25.776 C219.384,29.52 223.56,33.192 227.16,36.648 L232.416,30.384 L232.416,43.272 L224.208,40.176 Z M257.616,31.752 C257.616,35.064 258.12,37.296 259.056,38.448 C259.992,39.6 261.792,40.104 264.456,40.104 L269.784,40.104 L269.784,44.136 L247.248,44.136 C252.864,38.808 254.952,33.264 254.952,24.912 L257.616,24.912 L257.616,31.752 Z M268.704,32.256 C267.552,32.256 266.76,32.112 266.544,31.896 C266.328,31.608 266.256,30.672 266.256,29.16 L266.256,24.912 L269.784,24.912 L269.784,32.256 L268.704,32.256 Z M254.448,16.848 L254.448,12.888 L258.12,12.888 L258.12,16.848 L254.448,16.848 Z M269.784,55.296 L242.784,55.296 L242.784,51.696 L269.784,51.696 L269.784,55.296 Z M242.784,44.136 L242.784,39.528 L246.384,44.136 L242.784,44.136 Z M246.456,24.912 C246.456,29.304 245.52,32.04 242.784,35.208 L242.784,24.912 L246.456,24.912 Z M298.296,47.088 C296.568,48.744 294.552,50.256 292.536,51.84 L301.464,56.376 C303.264,55.152 304.704,54.072 305.856,53.208 C307.656,53.568 310.104,54.288 313.416,55.224 C307.8,56.736 300.024,57.888 290.16,58.824 L292.824,66.744 C307.008,65.088 317.952,62.64 325.8,59.184 C330.552,60.912 336.96,63.576 345.096,67.104 L351.144,59.616 C344.952,57.24 339.552,55.368 334.8,53.856 C337.176,51.984 339.336,49.752 341.064,47.088 L353.376,47.088 L353.376,39.744 L318.888,39.744 L320.256,37.584 L345.456,37.584 L345.456,22.68 L352.728,22.68 L352.728,6.408 L326.52,6.408 L326.52,0.864 L315,0.864 L315,6.408 L288.792,6.408 L288.792,22.68 L296.064,22.68 L296.064,37.584 L307.656,37.584 C307.152,38.088 306.072,39.24 305.712,39.744 L288.144,39.744 L288.144,47.088 L298.296,47.088 Z M324.72,50.904 C320.112,49.752 315.792,48.744 311.832,47.952 L312.696,47.088 L330.12,47.088 C328.536,48.6 326.736,49.824 324.72,50.904 Z M334.224,24.552 L307.296,24.552 L307.296,22.248 L334.224,22.248 L334.224,24.552 Z M307.296,32.04 L307.296,29.736 L334.224,29.736 L334.224,32.04 L307.296,32.04 Z M342.288,16.704 L299.232,16.704 L299.232,14.544 L342.288,14.544 L342.288,16.704 Z M412.416,63.288 C420.336,57.744 424.728,48.888 424.944,39.168 C425.088,29.448 420.84,20.016 413.28,14.184 C406.296,8.64 396.648,6.48 387.216,7.92 C377.928,9.504 369.792,14.256 364.968,21.6 C359.568,29.808 358.2,40.68 361.8,48.816 C364.464,55.08 369.576,59.112 376.344,60.192 C381.96,60.984 387.72,59.112 392.4,55.08 C399.24,49.104 402.912,39.384 402.552,27.504 L390.456,27.936 C390.672,36.288 388.584,42.84 384.624,46.224 C382.464,48.096 380.232,48.888 378.144,48.6 C375.552,48.168 373.824,46.656 372.744,44.136 C370.728,39.6 371.664,33.048 374.976,28.08 C377.928,23.544 383.112,20.376 389.088,19.368 C395.496,18.36 401.544,19.8 405.864,23.4 C410.328,26.928 413.064,32.832 412.92,38.952 C412.848,42.912 411.696,46.368 409.824,49.32 L406.512,46.08 L400.608,51.912 L412.416,63.288 Z M433.296,50.4 C439.128,56.952 443.592,62.208 446.544,66.168 L454.896,60.12 C451.224,55.584 446.76,50.112 441.36,43.848 L433.296,50.4 Z M566.712,38.016 L566.712,27.072 L547.488,27.072 L561.456,9.864 L552.96,3.168 L529.488,14.616 L521.712,2.88 L511.992,8.352 L523.296,25.992 L541.296,17.136 L533.592,27.072 L506.736,27.072 L506.736,38.016 L528.408,38.016 C526.032,43.2 524.808,49.176 526.536,54.432 C528.192,59.4 533.088,65.592 547.272,66.672 L551.808,53.712 L544.032,51.192 L542.736,54.792 C533.592,51.624 537.696,42.912 541.8,38.016 L566.712,38.016 Z M628.416,63.288 C636.336,57.744 640.728,48.888 640.944,39.168 C641.088,29.448 636.84,20.016 629.28,14.184 C622.296,8.64 612.648,6.48 603.216,7.92 C593.928,9.504 585.792,14.256 580.968,21.6 C575.568,29.808 574.2,40.68 577.8,48.816 C580.464,55.08 585.576,59.112 592.344,60.192 C597.96,60.984 603.72,59.112 608.4,55.08 C615.24,49.104 618.912,39.384 618.552,27.504 L606.456,27.936 C606.672,36.288 604.584,42.84 600.624,46.224 C598.464,48.096 596.232,48.888 594.144,48.6 C591.552,48.168 589.824,46.656 588.744,44.136 C586.728,39.6 587.664,33.048 590.976,28.08 C593.928,23.544 599.112,20.376 605.088,19.368 C611.496,18.36 617.544,19.8 621.864,23.4 C626.328,26.928 629.064,32.832 628.92,38.952 C628.848,42.912 627.696,46.368 625.824,49.32 L622.512,46.08 L616.608,51.912 L628.416,63.288 Z M658.296,47.088 C656.568,48.744 654.552,50.256 652.536,51.84 L661.464,56.376 C663.264,55.152 664.704,54.072 665.856,53.208 C667.656,53.568 670.104,54.288 673.416,55.224 C667.8,56.736 660.024,57.888 650.16,58.824 L652.824,66.744 C667.008,65.088 677.952,62.64 685.8,59.184 C690.552,60.912 696.96,63.576 705.096,67.104 L711.144,59.616 C704.952,57.24 699.552,55.368 694.8,53.856 C697.176,51.984 699.336,49.752 701.064,47.088 L713.376,47.088 L713.376,39.744 L678.888,39.744 L680.256,37.584 L705.456,37.584 L705.456,22.68 L712.728,22.68 L712.728,6.408 L686.52,6.408 L686.52,0.864 L675,0.864 L675,6.408 L648.792,6.408 L648.792,22.68 L656.064,22.68 L656.064,37.584 L667.656,37.584 C667.152,38.088 666.072,39.24 665.712,39.744 L648.144,39.744 L648.144,47.088 L658.296,47.088 Z M684.72,50.904 C680.112,49.752 675.792,48.744 671.832,47.952 L672.696,47.088 L690.12,47.088 C688.536,48.6 686.736,49.824 684.72,50.904 Z M694.224,24.552 L667.296,24.552 L667.296,22.248 L694.224,22.248 L694.224,24.552 Z M667.296,32.04 L667.296,29.736 L694.224,29.736 L694.224,32.04 L667.296,32.04 Z M702.288,16.704 L659.232,16.704 L659.232,14.544 L702.288,14.544 L702.288,16.704 Z M784.728,18.288 L775.872,18.288 L775.872,15.192 L784.728,15.192 L784.728,6.408 L760.464,6.408 L760.464,0.864 L749.016,0.864 L749.016,6.408 L723.024,6.408 L723.024,25.56 C723.024,34.632 722.736,41.184 722.088,45.288 C721.512,49.32 720.288,53.424 718.416,57.528 L726.12,67.392 C729.792,61.128 732.096,54.36 732.96,47.088 L732.96,64.656 L743.4,64.656 L743.4,49.032 L751.104,49.032 L751.104,67.608 L762.048,67.608 L762.048,49.032 L771.912,49.032 L771.912,52.272 C771.912,55.152 771.912,55.152 769.896,55.152 C769.536,55.152 767.664,55.008 764.496,54.792 L765.072,64.296 C769.68,64.512 772.632,64.656 773.856,64.656 C777.816,64.656 779.256,64.512 780.624,62.568 C781.92,60.624 781.992,58.032 781.992,51.84 L781.992,40.176 L762.048,40.176 L762.048,37.008 L775.872,37.008 L775.872,26.496 L784.728,26.496 L784.728,18.288 Z M751.176,29.808 L751.176,26.496 L764.568,26.496 L764.568,29.808 L751.176,29.808 Z M764.568,18.288 L751.176,18.288 L751.176,15.192 L764.568,15.192 L764.568,18.288 Z M751.104,40.176 L733.536,40.176 C733.608,37.656 733.68,35.64 733.68,34.128 L733.68,26.496 L740.232,26.496 L740.232,37.008 L751.104,37.008 L751.104,40.176 Z M740.232,15.192 L740.232,18.288 L733.68,18.288 L733.68,15.192 L740.232,15.192 Z M844.416,63.288 C852.336,57.744 856.728,48.888 856.944,39.168 C857.088,29.448 852.84,20.016 845.28,14.184 C838.296,8.64 828.648,6.48 819.216,7.92 C809.928,9.504 801.792,14.256 796.968,21.6 C791.568,29.808 790.2,40.68 793.8,48.816 C796.464,55.08 801.576,59.112 808.344,60.192 C813.96,60.984 819.72,59.112 824.4,55.08 C831.24,49.104 834.912,39.384 834.552,27.504 L822.456,27.936 C822.672,36.288 820.584,42.84 816.624,46.224 C814.464,48.096 812.232,48.888 810.144,48.6 C807.552,48.168 805.824,46.656 804.744,44.136 C802.728,39.6 803.664,33.048 806.976,28.08 C809.928,23.544 815.112,20.376 821.088,19.368 C827.496,18.36 833.544,19.8 837.864,23.4 C842.328,26.928 845.064,32.832 844.92,38.952 C844.848,42.912 843.696,46.368 841.824,49.32 L838.512,46.08 L832.608,51.912 L844.416,63.288 Z M923.4,55.08 C919.224,47.52 913.464,42.336 907.056,38.952 C907.2,37.152 907.272,33.768 907.344,31.752 L922.536,30.6 L921.816,20.808 L907.2,21.888 C907.056,20.592 906.912,19.008 906.768,17.64 L922.248,17.64 L922.248,7.848 L905.256,7.848 C904.464,3.96 903.744,1.368 903.672,0.792 L892.656,3.024 C892.728,3.384 893.376,5.328 893.88,7.848 L872.136,7.848 L872.136,17.64 L895.536,17.64 C895.824,19.296 895.968,21.096 896.112,22.68 L882.576,23.616 L882.36,19.512 L874.656,19.944 L875.448,34.128 L896.112,32.544 L896.112,36.36 C891.072,35.928 886.032,37.008 881.712,39.6 C878.04,41.76 875.304,45.072 874.296,49.608 C873.504,53.28 874.152,57.312 876.096,60.12 C878.544,63.648 882.504,65.736 887.04,66.24 C891.936,66.888 897.048,64.44 900.36,61.056 C902.808,58.536 904.32,55.008 905.4,50.904 C908.352,53.28 911.592,57.24 914.184,61.56 L923.4,55.08 Z M894.6,46.872 C894.024,50.544 892.296,55.512 888.12,55.296 C886.68,55.224 885.24,54.36 885.24,52.776 C885.816,48.024 891.144,46.872 894.6,46.872 Z M967.104,64.656 C972.36,63.72 983.88,61.056 990.432,52.416 C995.832,45.288 996.048,34.92 991.008,27.288 C986.832,21.312 979.272,18.072 970.056,18.072 C963.36,18.072 957.024,19.152 951.192,20.664 L950.472,18.216 L942.984,20.736 L947.016,32.76 C954.72,30.816 962.352,29.016 969.984,29.016 C974.16,29.088 979.272,29.88 981.504,33.408 C984.24,37.368 984.168,42.48 981.432,45.792 C978.624,49.536 972.504,52.632 964.944,53.928 L967.104,64.656 Z M1071.144,32.832 C1066.248,29.952 1056.24,24.912 1044.216,28.8 L1047.168,39.312 C1052.352,37.8 1056.24,38.16 1058.616,38.952 L1057.176,41.976 L1064.376,45.576 L1071.144,32.832 Z M1057.176,23.976 L1057.176,12.96 L1036.944,12.96 C1037.664,10.224 1038.312,7.272 1039.032,4.32 L1028.232,1.728 C1026.36,9 1025.856,10.872 1025.28,12.96 L1009.8,12.96 L1009.8,23.976 L1022.472,23.976 L1013.76,57.024 L1024.56,59.904 L1034.208,23.976 L1057.176,23.976 Z M1062.792,50.184 C1060.488,52.416 1055.664,56.736 1049.688,54.504 C1045.728,52.992 1044.216,48.672 1044.072,44.424 L1032.696,44.784 C1032.912,54.504 1038.024,61.992 1045.872,64.872 C1055.088,68.184 1064.376,64.296 1070.856,57.744 L1062.792,50.184 Z M1143,32.832 C1138.104,29.952 1129.248,24.912 1115.928,28.8 L1119.024,39.312 C1124.208,37.8 1128.024,38.16 1130.544,38.952 L1129.032,41.976 L1136.304,45.576 L1143,32.832 Z M1125.864,23.976 L1125.864,12.96 L1108.872,12.96 L1110.888,4.32 L1100.088,1.728 L1097.136,12.96 L1081.656,12.96 L1081.656,23.976 L1094.256,23.976 L1085.472,57.024 L1096.344,59.904 L1105.992,23.976 L1125.864,23.976 Z M1134.504,50.184 C1132.272,52.416 1127.376,56.736 1121.616,54.504 C1117.584,52.992 1116,48.672 1115.856,44.496 L1104.48,44.784 C1104.696,54.504 1109.88,62.064 1117.584,64.872 C1120.032,65.736 1122.48,66.168 1124.64,66.168 C1130.976,66.168 1137.312,63.36 1142.712,57.744 L1134.504,50.184 Z M1135.8,15.768 L1133.856,4.968 L1126.944,6.336 L1128.888,17.064 L1135.8,15.768 Z M1145.52,18 L1143.504,7.344 L1136.664,8.64 L1138.536,19.296 L1145.52,18 Z M1204.632,22.32 L1204.632,38.016 L1190.52,38.016 L1190.52,22.32 L1204.632,22.32 Z M1190.52,67.608 L1190.52,47.16 L1204.632,47.16 L1204.632,50.904 L1215.216,50.904 L1215.216,12.888 L1190.52,12.888 L1190.52,1.656 L1179,1.656 L1179,12.888 L1154.304,12.888 L1154.304,50.904 L1164.888,50.904 L1164.888,47.16 L1179,47.16 L1179,67.608 L1190.52,67.608 Z M1179,38.016 L1164.888,38.016 L1164.888,22.32 L1179,22.32 L1179,38.016 Z M1285.488,19.08 L1285.488,8.064 L1256.4,8.064 L1257.48,3.384 L1246.896,0.936 L1245.168,8.064 L1226.808,8.064 L1226.808,19.08 L1242.288,19.08 L1239.408,31.248 C1245.24,31.392 1248.624,32.328 1251.144,34.2 C1243.8,39.168 1235.088,48.672 1240.704,58.68 C1243.584,63.792 1248.624,65.664 1254.24,66.096 C1260.288,66.6 1268.856,65.736 1275.048,64.8 L1273.824,53.784 C1267.632,54.792 1259.568,55.728 1254.672,55.008 C1250.136,54.288 1249.848,52.2 1251.072,49.968 C1252.368,47.664 1255.032,45.144 1257.192,43.704 C1257.552,45.288 1257.912,47.16 1258.272,49.536 L1269.072,47.952 C1268.496,44.496 1267.92,41.688 1267.056,38.736 C1270.584,37.44 1274.328,37.008 1278.36,36.288 L1275.552,21.888 L1267.56,23.472 L1268.208,26.856 C1266.192,27.36 1264.176,28.008 1262.016,28.872 C1259.712,26.064 1256.832,23.832 1252.872,22.464 L1253.664,19.08 L1285.488,19.08 Z M1318.68,54.576 C1318.536,57.456 1318.176,57.456 1317.456,57.456 C1317.096,57.456 1316.016,57.384 1314.144,57.312 C1313.928,54.864 1313.352,50.544 1312.416,44.424 L1308.168,45.216 L1308.168,45.288 L1307.88,45.36 C1308.816,53.136 1309.248,57.744 1309.392,59.4 L1311.696,58.968 L1312.128,66.24 C1315.224,66.528 1317.744,66.672 1319.688,66.672 C1321.992,66.672 1323.576,66.096 1324.656,65.016 C1325.736,64.008 1326.456,61.776 1326.816,58.32 L1326.816,65.16 L1362.744,65.16 L1362.744,55.44 L1357.704,55.44 L1357.704,33.48 L1361.88,33.48 L1361.88,24.048 L1341,24.048 L1341,15.552 C1350.144,14.544 1356.912,13.032 1361.304,11.088 L1358.496,1.584 C1350.144,4.824 1340.64,6.768 1330.056,7.272 L1330.056,55.44 L1327.104,55.44 C1327.32,51.984 1327.464,47.952 1327.464,43.344 L1327.464,35.424 L1321.2,35.424 L1321.2,31.824 L1326.6,31.824 L1326.6,25.488 L1321.2,25.488 L1321.2,22.032 L1326.6,22.032 L1326.6,15.696 L1321.2,15.696 L1321.2,12.24 L1327.392,12.24 L1327.392,3.744 L1297.44,3.744 L1297.44,42.84 L1318.824,42.84 L1318.824,51.912 C1318.608,49.968 1318.104,47.448 1317.456,44.136 L1313.568,44.856 L1313.568,45 L1313.352,45.072 C1314,49.032 1314.504,52.416 1314.792,55.224 L1315.224,55.152 L1315.224,55.224 L1318.68,54.576 Z M1308.312,62.28 C1308.096,57.888 1307.736,52.056 1307.16,44.64 L1306.872,44.712 L1306.872,44.64 L1302.264,45.36 C1302.696,54.792 1302.912,60.768 1302.984,63.432 L1307.952,62.712 L1307.952,62.352 L1308.312,62.28 Z M1299.6,64.44 C1300.824,57.6 1301.544,51.192 1301.76,45.216 L1296.576,44.28 L1296.576,44.424 L1295.928,44.352 C1295.712,50.184 1294.992,56.304 1293.84,62.712 L1299.456,64.8 C1299.456,64.728 1299.528,64.44 1299.528,64.368 L1299.6,64.44 Z M1312.056,12.24 L1312.056,15.696 L1307.664,15.696 L1307.664,12.24 L1312.056,12.24 Z M1307.664,22.032 L1312.056,22.032 L1312.056,25.488 L1307.664,25.488 L1307.664,22.032 Z M1307.664,31.824 L1312.056,31.824 L1312.056,35.424 L1307.664,35.424 L1307.664,31.824 Z M1347.336,33.48 L1347.336,55.44 L1341,55.44 L1341,33.48 L1347.336,33.48 Z M1430.424,18.144 L1421.856,18.144 C1420.632,12.816 1418.976,7.632 1417.032,2.16 L1406.304,5.76 C1407.96,10.152 1409.256,14.112 1410.192,18.144 L1389.672,18.144 L1389.672,28.872 L1412.064,28.872 C1412.28,31.392 1412.352,33.984 1412.208,36.72 C1411.704,46.656 1407.888,52.848 1401.984,59.832 L1410.768,66.816 C1418.544,57.672 1422.576,49.896 1423.512,38.016 C1423.8,34.992 1423.728,31.896 1423.512,28.872 L1430.424,28.872 L1430.424,18.144 Z M1383.48,44.784 C1379.52,34.632 1381.896,26.784 1386.072,17.568 L1375.704,13.032 C1371.096,23.328 1368.72,31.032 1370.952,41.76 C1372.104,47.448 1374.552,52.056 1377.648,57.312 L1392.984,48.6 L1389.24,41.616 L1383.48,44.784 Z M1447.92,66.6 C1451.376,66.6 1453.608,66.096 1454.616,65.16 C1455.696,64.296 1456.272,61.992 1456.488,58.32 L1462.032,66.168 C1463.4,64.296 1464.768,61.848 1466.424,58.968 L1469.088,66.24 C1475.856,63.72 1481.544,60.768 1485.936,57.24 C1490.4,60.768 1496.304,63.792 1503.576,66.24 L1506.744,56.952 C1501.344,55.152 1496.808,52.92 1493.208,50.256 C1497.24,45.432 1500.48,39.096 1503.144,31.32 L1503.144,22.464 L1478.232,22.464 C1478.448,21.384 1478.592,19.584 1478.88,17.28 L1505.736,17.28 L1505.736,8.064 L1479.6,8.064 C1479.672,5.328 1479.744,3.384 1479.744,2.016 L1469.088,2.016 C1469.088,3.384 1469.016,5.328 1468.944,8.064 L1460.16,8.064 L1460.16,14.04 L1456.56,14.04 L1456.56,2.376 L1446.12,2.376 L1446.12,14.04 L1439.712,14.04 L1439.712,23.184 L1446.12,23.184 L1446.12,35.208 C1442.808,35.856 1440.648,36.144 1439.712,36.288 L1440.36,46.08 C1442.16,45.792 1444.032,45.432 1446.12,45 L1446.12,54.864 C1446.12,57.888 1446.192,57.744 1445.112,57.744 C1443.888,57.744 1442.304,57.6 1440.144,57.384 L1440.792,66.24 C1444.536,66.456 1446.912,66.6 1447.92,66.6 Z M1459.224,41.688 C1460.88,41.184 1461.96,40.896 1462.68,40.68 L1462.248,31.248 C1460.808,31.752 1458.864,32.256 1456.56,32.76 L1456.56,23.184 L1461.744,23.184 L1461.744,17.28 L1468.224,17.28 C1466.568,32.256 1462.68,44.856 1456.56,55.152 L1456.56,42.48 L1459.224,41.688 Z M1485.936,43.128 C1483.776,40.248 1481.832,36.864 1480.176,32.976 L1475.64,35.064 C1475.856,34.416 1476.36,32.256 1476.576,31.32 L1492.416,31.32 C1490.76,35.928 1488.6,39.816 1485.936,43.128 Z M1478.736,50.184 C1475.856,52.272 1472.256,54.144 1468.008,55.944 C1470.096,51.768 1471.896,47.232 1473.552,42.336 C1475.064,45.072 1476.864,47.664 1478.736,50.184 Z M1574.424,18.144 L1565.856,18.144 C1564.632,12.816 1562.976,7.632 1561.032,2.16 L1550.304,5.76 C1551.96,10.152 1553.256,14.112 1554.192,18.144 L1533.672,18.144 L1533.672,28.872 L1556.064,28.872 C1556.28,31.392 1556.352,33.984 1556.208,36.72 C1555.704,46.656 1551.888,52.848 1545.984,59.832 L1554.768,66.816 C1562.544,57.672 1566.576,49.896 1567.512,38.016 C1567.8,34.992 1567.728,31.896 1567.512,28.872 L1574.424,28.872 L1574.424,18.144 Z M1527.48,44.784 C1523.52,34.632 1525.896,26.784 1530.072,17.568 L1519.704,13.032 C1515.096,23.328 1512.72,31.032 1514.952,41.76 C1516.104,47.448 1518.552,52.056 1521.648,57.312 L1536.984,48.6 L1533.24,41.616 L1527.48,44.784 Z M1585.296,50.4 C1591.128,56.952 1595.592,62.208 1598.544,66.168 L1606.896,60.12 C1603.224,55.584 1598.76,50.112 1593.36,43.848 L1585.296,50.4 Z M1664.208,40.176 C1662.12,47.52 1659.384,54.576 1655.928,61.344 L1664.856,66.6 C1667.664,61.128 1670.184,54.576 1672.416,47.016 L1672.416,66.168 L1682.784,66.168 L1682.784,63.432 L1709.784,63.432 L1709.784,66.168 L1720.152,66.168 L1720.152,16.848 L1707.048,16.848 L1707.048,12.888 L1721.952,12.888 L1721.952,4.104 L1671.408,4.104 L1671.408,10.08 C1668.6,7.56 1665.504,5.04 1662.192,2.592 L1656.288,9.576 C1660.68,13.032 1664.352,16.2 1667.376,19.08 L1672.488,12.888 L1685.592,12.888 L1685.592,16.848 L1672.416,16.848 L1672.416,28.44 C1669.176,25.416 1665.36,22.248 1660.824,18.72 L1654.704,25.776 C1659.384,29.52 1663.56,33.192 1667.16,36.648 L1672.416,30.384 L1672.416,43.272 L1664.208,40.176 Z M1697.616,31.752 C1697.616,35.064 1698.12,37.296 1699.056,38.448 C1699.992,39.6 1701.792,40.104 1704.456,40.104 L1709.784,40.104 L1709.784,44.136 L1687.248,44.136 C1692.864,38.808 1694.952,33.264 1694.952,24.912 L1697.616,24.912 L1697.616,31.752 Z M1708.704,32.256 C1707.552,32.256 1706.76,32.112 1706.544,31.896 C1706.328,31.608 1706.256,30.672 1706.256,29.16 L1706.256,24.912 L1709.784,24.912 L1709.784,32.256 L1708.704,32.256 Z M1694.448,16.848 L1694.448,12.888 L1698.12,12.888 L1698.12,16.848 L1694.448,16.848 Z M1709.784,55.296 L1682.784,55.296 L1682.784,51.696 L1709.784,51.696 L1709.784,55.296 Z M1682.784,44.136 L1682.784,39.528 L1686.384,44.136 L1682.784,44.136 Z M1686.456,24.912 C1686.456,29.304 1685.52,32.04 1682.784,35.208 L1682.784,24.912 L1686.456,24.912 Z M1738.296,47.088 C1736.568,48.744 1734.552,50.256 1732.536,51.84 L1741.464,56.376 C1743.264,55.152 1744.704,54.072 1745.856,53.208 C1747.656,53.568 1750.104,54.288 1753.416,55.224 C1747.8,56.736 1740.024,57.888 1730.16,58.824 L1732.824,66.744 C1747.008,65.088 1757.952,62.64 1765.8,59.184 C1770.552,60.912 1776.96,63.576 1785.096,67.104 L1791.144,59.616 C1784.952,57.24 1779.552,55.368 1774.8,53.856 C1777.176,51.984 1779.336,49.752 1781.064,47.088 L1793.376,47.088 L1793.376,39.744 L1758.888,39.744 L1760.256,37.584 L1785.456,37.584 L1785.456,22.68 L1792.728,22.68 L1792.728,6.408 L1766.52,6.408 L1766.52,0.864 L1755,0.864 L1755,6.408 L1728.792,6.408 L1728.792,22.68 L1736.064,22.68 L1736.064,37.584 L1747.656,37.584 C1747.152,38.088 1746.072,39.24 1745.712,39.744 L1728.144,39.744 L1728.144,47.088 L1738.296,47.088 Z M1764.72,50.904 C1760.112,49.752 1755.792,48.744 1751.832,47.952 L1752.696,47.088 L1770.12,47.088 C1768.536,48.6 1766.736,49.824 1764.72,50.904 Z M1774.224,24.552 L1747.296,24.552 L1747.296,22.248 L1774.224,22.248 L1774.224,24.552 Z M1747.296,32.04 L1747.296,29.736 L1774.224,29.736 L1774.224,32.04 L1747.296,32.04 Z M1782.288,16.704 L1739.232,16.704 L1739.232,14.544 L1782.288,14.544 L1782.288,16.704 Z M1852.416,63.288 C1860.336,57.744 1864.728,48.888 1864.944,39.168 C1865.088,29.448 1860.84,20.016 1853.28,14.184 C1846.296,8.64 1836.648,6.48 1827.216,7.92 C1817.928,9.504 1809.792,14.256 1804.968,21.6 C1799.568,29.808 1798.2,40.68 1801.8,48.816 C1804.464,55.08 1809.576,59.112 1816.344,60.192 C1821.96,60.984 1827.72,59.112 1832.4,55.08 C1839.24,49.104 1842.912,39.384 1842.552,27.504 L1830.456,27.936 C1830.672,36.288 1828.584,42.84 1824.624,46.224 C1822.464,48.096 1820.232,48.888 1818.144,48.6 C1815.552,48.168 1813.824,46.656 1812.744,44.136 C1810.728,39.6 1811.664,33.048 1814.976,28.08 C1817.928,23.544 1823.112,20.376 1829.088,19.368 C1835.496,18.36 1841.544,19.8 1845.864,23.4 C1850.328,26.928 1853.064,32.832 1852.92,38.952 C1852.848,42.912 1851.696,46.368 1849.824,49.32 L1846.512,46.08 L1840.608,51.912 L1852.416,63.288 Z M1877.688,66.528 C1883.52,63.72 1888.92,59.616 1893.672,54.144 C1898.496,48.744 1902.384,42.624 1905.264,35.784 C1908.072,42.624 1911.816,48.744 1916.424,54.144 C1921.032,59.616 1926.216,63.72 1931.832,66.528 L1938.24,57.672 C1919.664,47.52 1910.52,32.328 1910.52,10.296 L1910.52,2.376 L1899,2.376 L1899,10.296 C1899,32.328 1889.856,47.52 1871.28,57.672 L1877.688,66.528 Z M2007.144,32.832 C2002.248,29.952 1992.24,24.912 1980.216,28.8 L1983.168,39.312 C1988.352,37.8 1992.24,38.16 1994.616,38.952 L1993.176,41.976 L2000.376,45.576 L2007.144,32.832 Z M1993.176,23.976 L1993.176,12.96 L1972.944,12.96 C1973.664,10.224 1974.312,7.272 1975.032,4.32 L1964.232,1.728 C1962.36,9 1961.856,10.872 1961.28,12.96 L1945.8,12.96 L1945.8,23.976 L1958.472,23.976 L1949.76,57.024 L1960.56,59.904 L1970.208,23.976 L1993.176,23.976 Z M1998.792,50.184 C1996.488,52.416 1991.664,56.736 1985.688,54.504 C1981.728,52.992 1980.216,48.672 1980.072,44.424 L1968.696,44.784 C1968.912,54.504 1974.024,61.992 1981.872,64.872 C1991.088,68.184 2000.376,64.296 2006.856,57.744 L1998.792,50.184 Z M2076.336,23.184 L2076.336,11.952 L2047.104,11.952 L2048.688,3.168 L2037.456,1.512 L2035.728,11.952 L2017.656,11.952 L2017.656,23.184 L2033.928,23.184 L2030.328,43.56 C2034.864,42.624 2038.752,41.904 2042.64,41.4 C2046.456,40.896 2050.416,40.824 2054.376,41.616 C2061.648,43.056 2061.432,50.256 2055.6,52.92 C2053.44,53.856 2051.28,54.288 2049.336,54.72 L2048.832,50.256 L2040.696,51.048 L2042.136,66.096 C2053.152,66.24 2070.504,62.568 2071.224,47.88 C2071.44,42.48 2069.568,37.944 2065.464,34.848 C2060.568,30.96 2053.008,29.52 2043.936,30.312 L2045.304,23.184 L2076.336,23.184 Z M2149.488,19.08 L2149.488,8.064 L2120.4,8.064 L2121.48,3.384 L2110.896,0.936 L2109.168,8.064 L2090.808,8.064 L2090.808,19.08 L2106.288,19.08 L2103.408,31.248 C2109.24,31.392 2112.624,32.328 2115.144,34.2 C2107.8,39.168 2099.088,48.672 2104.704,58.68 C2107.584,63.792 2112.624,65.664 2118.24,66.096 C2124.288,66.6 2132.856,65.736 2139.048,64.8 L2137.824,53.784 C2131.632,54.792 2123.568,55.728 2118.672,55.008 C2114.136,54.288 2113.848,52.2 2115.072,49.968 C2116.368,47.664 2119.032,45.144 2121.192,43.704 C2121.552,45.288 2121.912,47.16 2122.272,49.536 L2133.072,47.952 C2132.496,44.496 2131.92,41.688 2131.056,38.736 C2134.584,37.44 2138.328,37.008 2142.36,36.288 L2139.552,21.888 L2131.56,23.472 L2132.208,26.856 C2130.192,27.36 2128.176,28.008 2126.016,28.872 C2123.712,26.064 2120.832,23.832 2116.872,22.464 L2117.664,19.08 L2149.488,19.08 Z M2216.16,58.32 C2220.768,58.32 2222.64,58.248 2224.08,56.376 C2225.592,54.432 2225.664,51.768 2225.664,45.504 L2225.664,6.12 L2203.2,6.12 L2201.976,2.16 C2194.416,4.392 2186.496,5.904 2178.144,6.984 L2178.144,48.816 C2177.928,48.888 2176.632,49.32 2174.328,49.968 L2176.128,59.688 C2183.328,57.456 2190.024,54.936 2196.144,51.984 L2196,42.696 C2193.264,43.704 2190.816,44.64 2188.8,45.36 L2188.8,15.048 C2191.392,14.544 2194.344,13.968 2197.584,13.176 L2197.584,66.816 L2208.24,66.816 L2208.24,15.264 L2215.296,15.264 L2215.296,45.72 C2215.296,48.528 2215.296,48.6 2212.992,48.6 C2212.056,48.6 2210.688,48.528 2208.888,48.384 L2210.904,58.104 C2213.208,58.248 2214.936,58.32 2216.16,58.32 Z M2173.608,22.248 C2175.12,16.488 2176.056,10.152 2176.704,3.168 L2167.344,2.088 C2165.832,13.248 2162.736,22.824 2158.2,30.816 L2160.576,43.848 C2161.512,42.696 2162.448,41.256 2163.456,39.528 L2163.456,66.888 L2173.608,66.888 L2173.608,22.248 Z M2257.272,35.712 C2254.104,44.856 2245.824,52.2 2232.576,57.672 L2238.336,66.528 C2249.856,62.208 2259.576,53.784 2265.264,43.848 C2270.808,53.928 2280.168,62.136 2291.184,66.528 L2296.944,57.672 C2283.768,52.272 2275.488,44.928 2272.248,35.712 L2293.344,35.712 L2293.344,26.28 L2270.52,26.28 L2270.52,14.328 L2295.576,14.328 L2295.576,4.896 L2233.944,4.896 L2233.944,14.328 L2259,14.328 L2259,26.28 L2236.176,26.28 L2236.176,35.712 L2257.272,35.712 Z M2341.296,48.24 C2339.136,50.544 2337.12,52.92 2334.312,54.072 C2332.224,55.08 2329.632,55.008 2327.472,54 C2321.64,51.408 2322.144,45.288 2322.144,40.104 L2310.84,40.104 C2310.84,47.016 2311.2,53.424 2315.52,58.68 C2319.408,63.216 2325.24,65.808 2331.072,65.808 C2334.456,65.808 2338.128,64.872 2341.08,63.216 C2344.392,61.344 2346.768,58.536 2349.288,56.16 L2341.296,48.24 Z M2352.096,40.824 L2347.704,23.904 L2367.432,23.904 L2367.36,12.816 L2344.536,12.816 L2341.44,2.376 L2330.496,5.472 L2332.728,12.816 L2307.456,12.816 L2307.528,23.904 L2335.824,23.904 L2339.064,35.856 L2334.672,36.936 L2336.328,44.568 L2352.096,40.824 Z M2424.168,51.12 C2422.008,51.912 2407.752,58.248 2401.056,47.664 C2398.536,43.56 2397.816,38.232 2398.32,32.256 L2416.68,32.256 C2416.464,33.696 2416.176,35.208 2415.888,36.648 L2411.064,35.496 L2409.12,43.128 L2424.744,46.584 C2426.112,41.616 2427.264,37.08 2427.84,32.256 L2440.008,32.256 L2439.936,21.456 L2428.272,21.456 C2428.056,17.496 2427.624,13.536 2425.248,4.464 L2414.304,7.272 C2415.6,12.024 2416.608,16.848 2416.896,21.456 L2399.904,21.456 C2400.84,16.92 2402.136,12.024 2403.648,6.48 L2392.704,3.744 C2391.048,10.152 2389.464,15.912 2388.312,21.456 L2377.656,21.456 L2377.728,32.256 L2386.8,32.256 C2386.44,40.032 2387.52,47.16 2391.624,53.64 C2396.88,61.704 2404.872,64.872 2412.864,64.872 C2418.12,64.872 2423.448,63.648 2428.488,61.272 L2424.168,51.12 Z M2449.296,50.4 C2455.128,56.952 2459.592,62.208 2462.544,66.168 L2470.896,60.12 C2467.224,55.584 2462.76,50.112 2457.36,43.848 L2449.296,50.4 Z M2562.768,7.632 C2566.512,10.44 2570.328,13.608 2574.072,16.992 L2557.944,16.992 L2557.944,2.376 L2546.424,2.376 L2546.424,16.992 L2521.944,16.992 L2521.944,26.712 L2545.632,26.712 C2543.256,40.104 2534.904,50.472 2520.576,57.744 L2526.84,66.528 C2532.384,64.008 2537.352,60.408 2541.888,55.8 C2546.424,51.12 2550.024,45.792 2552.76,39.96 C2555.496,45.792 2559.096,51.12 2563.632,55.8 C2568.168,60.408 2573.136,64.008 2578.68,66.528 L2584.944,57.744 C2570.04,50.472 2561.328,40.104 2558.736,26.712 L2583.576,26.712 L2583.576,16.992 L2576.088,16.992 L2581.632,10.44 C2578.104,7.2 2573.928,3.744 2569.032,0 L2562.768,7.632 Z M2653.488,19.08 L2653.488,8.064 L2624.4,8.064 L2625.48,3.384 L2614.896,0.936 L2613.168,8.064 L2594.808,8.064 L2594.808,19.08 L2610.288,19.08 L2607.408,31.248 C2613.24,31.392 2616.624,32.328 2619.144,34.2 C2611.8,39.168 2603.088,48.672 2608.704,58.68 C2611.584,63.792 2616.624,65.664 2622.24,66.096 C2628.288,66.6 2636.856,65.736 2643.048,64.8 L2641.824,53.784 C2635.632,54.792 2627.568,55.728 2622.672,55.008 C2618.136,54.288 2617.848,52.2 2619.072,49.968 C2620.368,47.664 2623.032,45.144 2625.192,43.704 C2625.552,45.288 2625.912,47.16 2626.272,49.536 L2637.072,47.952 C2636.496,44.496 2635.92,41.688 2635.056,38.736 C2638.584,37.44 2642.328,37.008 2646.36,36.288 L2643.552,21.888 L2635.56,23.472 L2636.208,26.856 C2634.192,27.36 2632.176,28.008 2630.016,28.872 C2627.712,26.064 2624.832,23.832 2620.872,22.464 L2621.664,19.08 L2653.488,19.08 Z M2711.592,2.376 L2711.592,14.04 L2709.144,14.04 L2709.144,7.344 L2703.24,7.344 L2703.24,1.656 L2692.512,1.656 L2692.512,7.344 L2686.104,7.344 L2686.104,16.2 L2707.416,16.2 L2707.416,18.792 L2686.824,18.792 L2686.824,39.6 L2693.664,39.6 L2693.664,54.936 C2693.664,57.096 2693.664,57.096 2693.088,57.096 C2692.656,57.096 2692.008,57.024 2691.288,56.88 C2692.08,52.632 2692.728,48.096 2693.16,43.344 L2686.824,41.76 C2686.248,47.376 2685.384,52.632 2684.304,57.384 L2684.232,50.688 C2683.584,50.904 2682,51.408 2681.424,51.696 L2681.424,43.416 L2685.312,43.416 L2685.312,34.488 L2681.424,34.488 L2681.424,29.736 L2684.88,29.736 L2684.88,3.672 L2664.144,3.672 L2664.144,29.736 L2672.928,29.736 L2672.928,54.648 C2672.568,54.72 2671.704,55.08 2671.416,55.152 L2671.416,32.832 L2664.432,32.832 L2664.432,57.096 L2662.848,57.528 L2663.784,66.744 C2670.12,65.088 2676.744,63 2683.872,60.336 L2689.92,62.784 L2691,58.176 L2691.504,66.24 C2694.384,66.456 2696.184,66.6 2696.976,66.6 C2699.712,66.384 2700.936,66.528 2701.512,63.504 C2701.872,61.416 2702.016,58.968 2702.016,53.784 L2702.016,44.712 L2704.104,55.296 L2706.192,54 C2705.328,56.088 2704.176,58.104 2702.664,60.264 L2708.64,67.248 C2711.808,62.424 2714.256,55.44 2715.984,46.224 L2715.984,58.824 C2715.984,62.136 2716.344,64.152 2717.064,64.872 C2717.856,65.664 2720.016,66.024 2723.544,66.024 C2725.416,66.024 2726.712,65.952 2727.36,65.736 C2728.872,65.304 2729.808,64.008 2730.312,61.704 C2730.816,59.184 2731.032,51.768 2731.104,39.528 L2725.128,38.376 C2725.056,50.472 2724.768,56.592 2724.12,56.592 C2723.832,56.592 2723.688,56.16 2723.688,55.224 L2723.688,27.576 L2720.952,27.576 L2720.952,23.832 L2730.672,23.832 L2730.672,14.04 L2724.624,14.04 L2730.744,11.088 C2729.664,7.776 2728.296,4.392 2726.712,0.864 L2720.952,3.744 L2720.952,2.376 L2711.592,2.376 Z M2720.952,6.624 C2721.888,8.784 2722.896,11.232 2723.904,14.04 L2720.952,14.04 L2720.952,6.624 Z M2711.52,23.832 C2711.304,33.048 2710.44,40.68 2708.856,46.728 C2708.496,45.216 2708.064,43.272 2707.416,41.04 L2702.016,43.2 L2702.016,39.6 L2708.424,39.6 L2708.424,23.832 L2711.52,23.832 Z M2700.432,31.896 L2695.32,31.896 L2695.32,26.28 L2700.432,26.28 L2700.432,31.896 Z M2676.888,21.168 L2673,21.168 L2673,12.528 L2676.888,12.528 L2676.888,21.168 Z M2798.424,18.144 L2789.856,18.144 C2788.632,12.816 2786.976,7.632 2785.032,2.16 L2774.304,5.76 C2775.96,10.152 2777.256,14.112 2778.192,18.144 L2757.672,18.144 L2757.672,28.872 L2780.064,28.872 C2780.28,31.392 2780.352,33.984 2780.208,36.72 C2779.704,46.656 2775.888,52.848 2769.984,59.832 L2778.768,66.816 C2786.544,57.672 2790.576,49.896 2791.512,38.016 C2791.8,34.992 2791.728,31.896 2791.512,28.872 L2798.424,28.872 L2798.424,18.144 Z M2751.48,44.784 C2747.52,34.632 2749.896,26.784 2754.072,17.568 L2743.704,13.032 C2739.096,23.328 2736.72,31.032 2738.952,41.76 C2740.104,47.448 2742.552,52.056 2745.648,57.312 L2760.984,48.6 L2757.24,41.616 L2751.48,44.784 Z M2861.496,51.912 C2851.92,55.008 2843.496,56.016 2837.16,54.36 C2832.984,53.352 2829.312,49.896 2829.888,45.864 C2830.608,41.04 2835.216,37.152 2841.336,33.984 C2844.432,32.4 2847.744,31.176 2850.984,30.024 C2855.736,28.368 2860.272,26.784 2864.952,25.488 L2860.128,10.152 L2852.424,12.528 L2853.864,17.352 C2848.608,19.008 2842.632,21.168 2837.088,23.904 C2835.288,20.592 2832.984,14.976 2832.696,7.56 L2832.48,2.088 L2821.176,2.52 L2821.392,7.992 C2821.752,17.712 2824.848,25.272 2827.44,29.808 C2822.976,33.48 2819.448,38.16 2818.656,44.28 C2817.288,53.712 2824.2,62.712 2834.496,65.088 C2837.664,65.808 2840.832,66.24 2844.288,66.24 C2850.192,66.24 2856.816,65.088 2864.232,62.784 L2861.496,51.912 Z M2944.584,54.36 C2940.84,48.672 2937.456,44.928 2933.352,42.048 C2933.784,37.656 2933.928,33.552 2933.928,30.528 C2933.928,28.296 2933.856,27 2933.784,25.344 L2941.272,25.344 L2941.272,14.688 L2931.696,14.688 C2930.544,8.64 2929.032,4.032 2928.744,3.456 L2918.304,6.048 C2918.52,6.48 2919.528,10.224 2920.536,14.688 L2902.68,14.688 L2902.68,25.344 L2922.408,25.344 C2922.624,27 2922.696,28.296 2922.696,30.528 C2922.696,32.76 2922.624,35.136 2922.408,37.368 C2917.944,36.504 2913.264,37.368 2909.016,40.032 C2905.488,42.12 2903.112,45.648 2902.176,49.824 C2901.384,53.568 2901.816,57.312 2903.688,60.192 C2906.28,64.08 2910.744,66.24 2915.352,66.24 C2919.528,66.24 2923.704,64.44 2926.728,61.056 C2928.456,59.256 2929.752,56.952 2930.688,54.288 C2932.776,56.808 2934.864,59.76 2936.088,61.56 L2944.584,54.36 Z M2920.536,48.24 C2919.672,51.264 2918.232,55.584 2914.848,55.224 C2912.976,55.08 2912.328,53.856 2912.76,52.2 C2913.48,48.96 2917.8,47.52 2920.536,48.24 Z M2893.968,45.36 C2892.744,41.904 2890.944,34.128 2896.416,19.008 L2885.688,15.408 L2883.816,20.664 C2877.048,39.312 2884.968,52.776 2888.28,58.032 L2901.384,50.472 L2897.64,43.272 L2893.968,45.36 Z M2939.976,11.448 L2937.528,1.728 L2931.192,3.456 L2933.424,13.248 L2939.976,11.448 Z M2948.544,11.664 L2946.168,1.656 L2939.616,3.24 L2942.064,13.32 L2948.544,11.664 Z M2989.296,65.448 C2999.448,65.448 3009.024,59.976 3014.64,51.264 L3004.848,44.784 C3001.104,50.76 2994.624,54.36 2988.072,53.856 C2981.808,53.424 2976.48,49.104 2974.464,43.128 C2970.576,31.896 2976.48,16.92 2979.504,6.84 L2962.872,2.376 L2960.64,10.08 L2965.68,11.448 C2961.864,24.624 2958.192,41.688 2966.904,53.856 C2972.232,61.272 2980.296,65.448 2989.296,65.448 Z M3025.296,50.4 C3031.128,56.952 3035.592,62.208 3038.544,66.168 L3046.896,60.12 C3043.224,55.584 3038.76,50.112 3033.36,43.848 L3025.296,50.4 Z M3142.512,20.088 C3146.544,31.68 3149.784,43.128 3152.376,54.36 L3163.32,51.552 C3160.512,39.528 3157.128,28.008 3153.168,16.92 L3142.512,20.088 Z M3103.272,17.856 C3101.472,29.016 3098.448,39.888 3094.2,50.544 L3104.856,53.928 C3109.248,42.768 3112.272,31.392 3114,19.728 L3103.272,17.856 Z M3123.648,54.072 C3123.648,56.952 3123.576,57.024 3120.84,57.024 C3118.68,57.024 3115.296,56.88 3110.616,56.664 L3111.264,66.384 C3116.448,66.6 3120.336,66.744 3123,66.744 C3127.104,66.744 3129.048,66.672 3131.064,65.952 C3132.144,65.592 3132.864,65.232 3133.368,64.728 C3134.232,63.792 3135.024,61.488 3135.096,59.04 C3135.168,57.744 3135.24,56.088 3135.24,53.928 L3135.24,2.376 L3123.648,2.376 L3123.648,54.072 Z M3175.056,28.728 C3175.056,37.296 3174.48,43.776 3173.328,47.952 C3172.248,52.128 3170.088,56.232 3166.92,60.264 L3175.776,66.312 C3179.376,62.208 3181.968,57.672 3183.552,52.56 C3185.208,47.448 3186,40.896 3186,33.12 L3186,4.32 L3175.056,4.32 L3175.056,28.728 Z M3197.016,6.264 L3197.016,59.328 L3207.888,59.328 L3207.888,6.264 L3197.016,6.264 Z M3219.552,4.32 L3219.552,65.52 L3230.784,65.52 L3230.784,4.32 L3219.552,4.32 Z M3301.488,19.08 L3301.488,8.064 L3272.4,8.064 L3273.48,3.384 L3262.896,0.936 L3261.168,8.064 L3242.808,8.064 L3242.808,19.08 L3258.288,19.08 L3255.408,31.248 C3261.24,31.392 3264.624,32.328 3267.144,34.2 C3259.8,39.168 3251.088,48.672 3256.704,58.68 C3259.584,63.792 3264.624,65.664 3270.24,66.096 C3276.288,66.6 3284.856,65.736 3291.048,64.8 L3289.824,53.784 C3283.632,54.792 3275.568,55.728 3270.672,55.008 C3266.136,54.288 3265.848,52.2 3267.072,49.968 C3268.368,47.664 3271.032,45.144 3273.192,43.704 C3273.552,45.288 3273.912,47.16 3274.272,49.536 L3285.072,47.952 C3284.496,44.496 3283.92,41.688 3283.056,38.736 C3286.584,37.44 3290.328,37.008 3294.36,36.288 L3291.552,21.888 L3283.56,23.472 L3284.208,26.856 C3282.192,27.36 3280.176,28.008 3278.016,28.872 C3275.712,26.064 3272.832,23.832 3268.872,22.464 L3269.664,19.08 L3301.488,19.08 Z M3361.824,47.016 C3361.176,44.64 3360.744,42.12 3360.528,39.528 L3363.12,43.704 L3361.824,47.016 Z M3368.952,43.704 C3371.832,42.336 3374.496,40.68 3376.944,38.952 L3373.2,33.84 C3375.648,31.824 3377.376,28.8 3378.168,24.696 L3375.288,23.544 L3378.024,17.352 C3375.72,16.272 3372.552,15.12 3368.52,13.608 C3371.616,12.096 3374.424,10.512 3377.016,8.712 L3372.336,2.16 C3368.304,4.608 3363.768,6.768 3358.728,8.64 C3358.584,7.128 3358.512,5.472 3358.512,3.744 L3314.376,3.744 L3314.376,12.888 L3330.216,12.888 C3325.104,15.696 3319.128,17.928 3312.288,19.368 L3315.312,28.08 C3317.688,27.576 3319.416,27.216 3320.568,26.928 L3320.568,28.512 C3320.568,29.16 3320.496,30.888 3320.496,31.464 L3311.784,31.464 L3311.784,40.32 L3320.064,40.32 C3319.56,44.928 3318.768,48.528 3317.4,51.048 C3316.032,53.568 3314.088,55.872 3311.424,57.96 L3318.192,67.032 C3322.224,63.72 3325.176,60.12 3326.976,56.376 C3328.848,52.56 3330,47.16 3330.504,40.32 L3336.192,40.32 L3336.192,66.096 L3346.848,66.096 L3346.848,40.32 L3350.448,40.32 C3351.6,49.608 3354.192,56.664 3356.784,60.264 C3358.008,61.992 3359.52,63.432 3361.104,64.584 C3364.344,66.744 3366.432,66.96 3368.736,66.96 C3373.344,66.96 3377.52,62.352 3378.888,54.432 L3375.864,53.208 L3378.312,47.376 C3375.216,46.08 3372.12,44.856 3368.952,43.704 Z M3370.608,53.28 C3369.96,55.728 3369.24,57.024 3368.448,57.024 C3367.152,57.024 3364.776,54.936 3363.048,50.472 C3365.928,51.48 3368.376,52.416 3370.608,53.28 Z M3360.456,38.376 C3360.384,37.152 3360.24,35.496 3360.168,33.192 C3362.328,34.56 3364.488,35.352 3366.576,35.64 C3364.416,36.72 3362.328,37.656 3360.456,38.376 Z M3330.936,23.328 C3332.88,22.392 3334.68,21.528 3336.192,20.592 L3336.192,31.464 L3330.936,31.464 L3330.936,23.328 Z M3349.224,12.888 C3350.448,21.312 3353.256,27.432 3357.72,31.464 L3346.848,31.464 L3346.848,14.76 L3336.264,14.76 L3334.68,12.888 L3349.224,12.888 Z M3360.96,18.288 C3359.952,15.768 3359.232,13.032 3358.872,10.152 L3362.112,15.192 L3360.96,18.288 Z M3369.816,22.968 C3369.168,25.056 3368.52,25.992 3367.872,25.992 C3366.504,25.992 3363.768,23.976 3361.752,20.016 C3364.056,20.808 3366.72,21.816 3369.816,22.968 Z M3450.312,27.648 L3430.224,16.272 L3424.968,25.344 C3429.36,36.864 3428.208,45.288 3424.248,50.328 C3421.368,53.856 3417.624,55.296 3412.944,54.504 C3407.976,53.64 3404.232,50.328 3402.576,45 C3400.704,38.88 3401.496,29.016 3414.528,17.568 L3412.944,7.272 L3392.424,10.8 L3391.632,6.984 L3383.64,8.568 L3386.304,22.752 L3397.248,20.52 C3391.2,29.376 3389.04,39.096 3391.776,48.168 C3394.584,57.456 3401.784,64.008 3411.072,65.448 C3419.928,66.816 3427.992,63.504 3433.104,57.312 C3438.216,50.976 3439.872,41.4 3438.648,32.976 L3444.84,37.008 L3450.312,27.648 Z M3440.808,15.192 L3439.008,4.536 L3432.024,5.832 L3433.896,16.56 L3440.808,15.192 Z M3451.032,19.152 L3449.088,8.496 L3442.176,9.792 L3444.192,20.448 L3451.032,19.152 Z M3499.704,4.464 C3499.704,5.688 3499.776,6.624 3499.776,7.272 L3488.184,7.272 L3488.184,40.176 L3486.024,41.112 L3486.024,38.016 L3479.976,38.016 L3479.976,31.68 L3486.672,31.68 L3486.672,22.464 L3477.888,22.464 L3477.888,16.848 L3485.952,16.848 L3485.952,7.92 L3477.888,7.92 L3477.888,1.584 L3467.16,1.584 L3467.16,7.92 L3458.088,7.92 L3458.088,16.848 L3467.16,16.848 L3467.16,22.464 L3456.504,22.464 L3456.504,31.68 L3469.536,31.68 L3469.536,50.544 C3468.96,49.968 3468.168,49.176 3467.376,48.096 C3467.736,44.064 3468.024,39.816 3468.096,35.28 L3458.952,34.416 C3458.736,44.568 3457.512,54.216 3455.208,63.36 L3464.064,67.248 C3464.784,64.512 3465.432,61.344 3466.008,57.744 C3469.392,61.056 3473.784,63.288 3479.184,64.44 C3484.512,65.664 3492.576,66.24 3503.376,66.24 L3520.584,66.24 L3521.16,57.024 L3503.376,57.024 C3492.504,57.024 3484.728,56.592 3479.976,55.656 L3479.976,46.8 L3485.088,46.8 L3485.736,50.976 C3490.992,49.104 3496.032,46.584 3500.64,43.416 C3498.696,45.36 3496.536,47.232 3493.872,49.032 L3498.84,55.8 C3501.504,53.928 3504.168,51.696 3506.616,49.032 C3509.064,53.568 3512.016,55.944 3515.328,55.944 C3519.648,55.944 3521.88,50.328 3522.024,39.168 L3515.832,35.928 C3515.688,42.264 3515.328,45.36 3514.752,45.36 C3514.104,45.36 3513.384,43.848 3512.592,40.824 C3515.904,35.352 3518.784,28.584 3521.376,20.52 L3513.456,17.568 C3512.592,20.952 3511.512,24.264 3510.36,27.576 C3509.928,23.4 3509.64,19.584 3509.424,16.128 L3520.944,16.128 L3520.944,7.272 L3518.856,7.272 C3517.992,4.608 3516.984,2.376 3516.048,0.576 L3509.928,2.592 C3510.792,4.32 3511.512,5.904 3511.944,7.272 L3509.064,7.272 L3509.064,1.584 L3499.704,1.584 L3499.704,4.464 Z M3500.064,16.128 C3500.568,25.632 3501.648,33.696 3503.376,40.248 C3502.8,41.04 3502.368,41.616 3502.008,41.976 L3500.928,33.264 L3497.76,35.208 L3497.76,16.128 L3500.064,16.128 Z M3584.88,50.544 L3581.136,54.36 C3574.584,49.104 3567.816,46.296 3561.192,45.864 L3575.16,31.104 L3587.256,31.104 L3587.256,20.448 L3568.752,20.448 L3575.952,11.52 C3566.592,3.528 3552.552,1.008 3541.104,2.16 L3541.896,12.312 C3546,12.096 3555.216,12.312 3562.488,15.768 L3558.672,20.448 L3532.608,20.448 L3532.608,31.104 L3559.68,31.104 L3533.04,59.04 L3540.96,66.528 L3547.512,59.832 C3558.312,53.712 3568.032,55.728 3579.048,67.032 L3590.568,56.448 L3584.88,50.544 Z M3601.296,50.4 C3607.128,56.952 3611.592,62.208 3614.544,66.168 L3622.896,60.12 C3619.224,55.584 3614.76,50.112 3609.36,43.848 L3601.296,50.4 Z M3678.984,66.6 C3702.312,64.224 3719.232,55.944 3729.744,41.76 L3723.048,35.136 C3717.72,41.544 3711.384,46.512 3703.824,50.04 C3696.336,53.424 3686.904,55.656 3675.384,56.664 L3678.984,66.6 Z M3716.28,11.232 C3720.888,20.016 3724.992,29.16 3728.592,38.664 L3738.6,35.208 C3735,25.704 3730.968,16.416 3726.216,7.56 L3716.28,11.232 Z M3682.008,8.784 C3679.416,17.928 3675.744,26.712 3671.064,35.208 L3680.712,39.816 C3685.896,30.6 3689.784,21.096 3692.376,11.304 L3682.008,8.784 Z M3696.84,34.704 C3695.184,34.704 3692.52,34.56 3688.848,34.344 L3689.352,43.776 C3693.6,43.992 3696.768,44.136 3699,44.136 C3703.176,44.136 3705.048,44.136 3707.064,43.488 C3708.144,43.2 3708.936,42.768 3709.368,42.336 C3710.232,41.4 3710.952,38.952 3711.024,36.432 C3711.096,35.28 3711.168,33.48 3711.168,31.32 L3711.168,2.376 L3699.648,2.376 L3699.648,31.824 C3699.648,34.632 3699.648,34.704 3696.84,34.704 Z M3781.296,65.448 C3791.448,65.448 3801.024,59.976 3806.64,51.264 L3796.848,44.784 C3793.104,50.76 3786.624,54.36 3780.072,53.856 C3773.808,53.424 3768.48,49.104 3766.464,43.128 C3762.576,31.896 3768.48,16.92 3771.504,6.84 L3754.872,2.376 L3752.64,10.08 L3757.68,11.448 C3753.864,24.624 3750.192,41.688 3758.904,53.856 C3764.232,61.272 3772.296,65.448 3781.296,65.448 Z M3858.768,31.392 C3859.632,27.864 3859.776,24.912 3859.776,21.24 L3877.92,21.24 L3877.92,11.88 L3880.872,11.232 L3878.928,0.504 L3872.088,1.872 L3873.6,10.512 L3871.08,10.512 L3869.352,0.864 L3862.44,2.232 L3863.88,10.512 L3859.344,10.512 C3858.984,7.416 3858.624,4.32 3857.904,0.936 L3846.744,2.736 C3847.32,5.112 3847.608,8.28 3847.896,10.512 L3818.088,10.44 L3818.088,21.24 L3848.544,21.24 C3848.544,22.68 3848.544,23.616 3848.4,24.84 C3844.728,23.76 3840.48,23.544 3836.304,24.912 C3831.912,26.352 3828.168,29.808 3826.728,34.056 C3825.36,38.016 3825.72,42.624 3828.024,46.224 C3831.984,52.272 3839.76,54.432 3846.744,51.552 C3849.552,50.4 3852.072,47.952 3853.584,45.288 C3853.44,48.744 3852.216,52.128 3849.912,56.52 L3846.096,54.504 L3842.496,61.56 L3855.96,68.184 C3859.056,63 3862.008,57.888 3863.592,52.488 C3865.248,46.944 3865.248,41.184 3861.72,35.496 C3860.856,34.056 3859.848,32.688 3858.768,31.392 Z M3846.528,35.784 C3845.592,38.88 3844.224,40.752 3842.352,41.544 C3840.696,42.336 3838.536,42.12 3837.528,40.392 C3836.232,38.16 3837.816,36 3839.688,35.352 C3841.992,34.488 3844.512,34.92 3846.528,35.784 Z M3917.592,64.728 C3923.496,63.648 3937.32,60.192 3945.384,49.968 C3951.936,41.472 3952.152,29.016 3945.96,19.8 C3941.064,12.744 3932.208,8.856 3920.832,8.856 C3912.264,8.784 3904.272,10.368 3897.072,12.024 L3896.064,8.208 L3888.36,10.44 L3892.32,25.128 C3901.176,22.752 3909.6,20.664 3918.312,20.376 C3924.576,20.16 3932.208,20.808 3935.952,26.352 C3939.696,31.896 3939.192,39.672 3934.584,44.424 C3929.688,49.392 3922.488,51.84 3915.288,53.136 L3917.592,64.728 Z M3987,18.432 L3992.832,18.432 C3992.76,27.072 3991.248,34.272 3988.368,40.104 C3985.488,45.936 3980.952,51.12 3974.688,55.728 C3976.488,51.48 3978,47.304 3979.152,43.272 L3970.008,39.024 C3967.56,46.944 3964.392,54.36 3960.36,61.056 L3969.144,66.672 C3970.584,64.224 3971.952,61.704 3973.032,59.328 L3978.792,66.456 C3987.864,61.128 3994.632,53.064 3999.24,42.12 L3999.24,56.736 C3999.24,60.048 3999.168,61.056 3999.816,62.64 C4000.104,63.432 4000.464,63.936 4000.824,64.224 C4001.544,64.656 4004.208,65.232 4006.368,65.232 C4007.448,65.304 4009.104,65.304 4011.408,65.304 L4014.936,65.304 C4015.728,65.304 4016.736,65.232 4017.816,65.016 L4020.12,64.584 C4020.984,64.44 4022.712,62.784 4023.072,61.92 C4023.288,61.56 4023.576,60.768 4023.936,59.544 C4024.296,58.248 4024.512,57.168 4024.584,56.232 L4024.944,51.696 L4025.232,46.08 C4025.304,44.352 4025.304,41.976 4025.376,38.88 L4014.936,37.656 C4014.936,46.656 4014.72,51.984 4014.432,53.568 C4014.072,55.08 4013.208,55.872 4011.696,55.872 C4009.536,55.872 4009.536,55.728 4009.536,53.712 L4009.536,27.576 L4003.272,27.576 C4003.776,24.408 4003.992,21.384 4004.064,18.432 L4013.784,18.432 L4013.784,30.672 L4024.44,30.672 L4024.44,9 L4004.064,9 L4004.064,1.944 L3992.832,1.944 L3992.832,9 L3976.92,9 C3973.608,6.552 3970.584,4.32 3967.848,2.592 L3962.016,10.152 C3966.336,13.032 3970.44,16.128 3974.184,19.296 L3976.848,15.696 L3976.848,27.576 C3973.248,24.408 3969.216,21.24 3964.896,18.144 L3958.704,25.488 C3963.672,29.088 3968.136,32.76 3972.024,36.36 L3976.848,30.672 L3987,30.672 L3987,18.432 Z M4086,61.992 C4093.92,55.512 4095.36,44.28 4096.008,34.704 L4084.56,34.272 C4084.128,40.032 4083.552,52.128 4077.072,54.216 C4074.12,55.224 4071.6,52.992 4070.52,50.112 C4068.936,45.792 4069.584,41.112 4069.872,36.936 L4053.672,38.664 L4065.624,7.848 L4049.568,1.728 L4046.688,9.072 L4052.088,11.16 L4032.432,61.416 L4042.944,65.448 L4048.992,50.184 L4058.712,49.032 C4059.72,54.792 4062.312,60.696 4067.712,63.576 C4073.328,66.744 4081.032,66.024 4086,61.992 Z M4155.84,56.376 C4147.272,52.416 4141.944,47.448 4140.576,41.832 C4138.848,34.272 4143.024,25.632 4147.632,18.576 L4166.136,17.208 L4165.344,6.408 L4115.52,10.224 L4115.088,5.688 L4107.096,6.336 L4108.392,21.528 L4133.52,19.584 C4128.984,28.512 4127.544,36.936 4129.272,44.496 C4131.432,53.712 4138.416,61.056 4150.008,66.672 L4155.84,56.376 Z M4157.712,38.808 L4155.696,28.008 L4148.784,29.376 L4150.8,39.96 L4157.712,38.808 Z M4167.432,39.384 L4165.488,28.512 L4158.648,29.952 L4160.592,40.608 L4167.432,39.384 Z M4214.592,57.096 C4229.496,57.096 4236.192,47.736 4238.64,42.912 C4241.16,37.872 4241.376,32.328 4239.36,27 C4237.2,21.384 4232.232,16.704 4226.544,14.4 C4222.44,12.816 4218.408,12.024 4214.736,12.024 C4214.232,10.08 4213.512,8.064 4210.272,1.08 L4199.904,5.04 C4202.928,11.736 4203.36,12.96 4203.792,14.184 C4198.608,16.416 4193.856,19.872 4190.04,24.552 C4190.832,20.52 4192.272,16.632 4193.784,12.744 L4178.304,7.2 L4175.712,14.688 L4180.608,16.416 C4176.72,28.512 4177.584,41.328 4179.744,54 L4190.76,51.984 C4189.68,46.512 4189.536,45.432 4189.32,43.776 C4192.776,35.928 4198.68,28.728 4206.312,25.272 C4207.104,32.4 4206.6,39.168 4205.664,44.712 C4203.72,44.208 4201.56,43.416 4198.824,42.624 L4195.584,53.136 C4201.776,55.08 4202.568,55.296 4203.072,55.512 C4202.424,58.104 4201.344,60.768 4200.048,63.648 L4210.56,67.176 C4212.792,61.848 4213.512,59.976 4214.304,57.096 L4214.592,57.096 Z M4217.328,23.544 C4220.856,23.832 4224.528,25.056 4226.904,27.864 C4229.352,30.672 4230.144,34.488 4228.56,37.8 C4226.184,42.984 4222.152,45.36 4216.968,45.936 C4218.048,38.448 4218.336,30.816 4217.328,23.544 Z M4300.128,49.248 L4295.016,53.496 C4287.312,44.352 4278.456,37.512 4272.768,33.264 L4301.496,11.16 L4294.008,2.16 L4252.464,34.56 C4267.656,42.984 4281.192,52.704 4290.696,67.176 L4305.168,55.368 L4300.128,49.248 Z M4347,11.592 C4347,12.96 4347,14.04 4346.928,14.688 L4321.944,14.688 L4321.944,24.408 L4345.632,24.408 C4342.608,38.016 4334.112,48.888 4320.216,57.024 L4326.048,66.456 C4332.024,63.288 4337.496,58.752 4342.464,52.92 C4346.496,58.608 4349.592,63.216 4351.68,66.528 L4360.464,61.704 C4358.304,58.32 4355.064,53.496 4350.672,47.304 L4344.048,50.904 C4347.792,46.224 4350.888,41.112 4353.264,35.712 C4356.072,42.264 4359.744,48.312 4364.352,53.712 C4368.888,59.184 4374,63.432 4379.472,66.456 L4385.304,57.024 C4371.336,48.816 4362.84,37.944 4359.816,24.408 L4383.576,24.408 L4383.576,14.688 L4358.592,14.688 C4358.52,14.04 4358.52,12.96 4358.52,11.592 L4358.52,1.656 L4347,1.656 L4347,11.592 Z M4422.6,38.304 C4420.44,40.176 4418.064,41.76 4415.76,43.272 L4415.76,42.264 C4415.76,35.496 4414.536,31.68 4411.224,27.72 C4413.384,23.256 4415.328,17.928 4416.912,11.952 L4416.912,3.672 L4393.872,3.672 L4393.872,66.744 L4403.664,66.744 L4403.664,45.72 L4405.608,53.568 L4406.688,53.568 C4410.576,53.568 4413.24,52.128 4414.536,49.248 L4416.48,51.48 C4418.352,50.544 4420.44,49.248 4422.888,47.52 L4425.48,47.52 C4420.872,51.768 4415.544,55.368 4409.28,58.248 L4414.32,63.936 C4418.064,62.208 4421.88,59.76 4425.768,56.736 C4429.656,53.712 4432.896,50.616 4435.344,47.52 L4438.08,47.52 C4433.832,53.64 4428.504,58.608 4422.312,62.352 L4428.072,67.824 C4431.24,65.736 4434.336,63.288 4437.288,60.264 L4437.72,66.528 C4442.688,66.816 4445.64,67.032 4446.576,66.96 C4454.208,66.672 4455.936,64.584 4455.936,47.232 L4455.936,40.464 L4431.024,40.464 L4433.04,38.304 L4457.52,38.304 L4457.52,30.96 L4416.408,30.96 L4416.408,38.304 L4422.6,38.304 Z M4454.568,28.872 L4454.568,3.672 L4418.856,3.672 L4418.856,28.872 L4454.568,28.872 Z M4446.072,49.176 C4446.072,57.672 4445.568,58.32 4443.408,58.32 C4442.256,58.32 4440.96,58.248 4439.304,58.104 C4442.04,55.152 4444.344,52.128 4446.072,49.176 Z M4443.336,14.76 L4429.512,14.76 L4429.512,12.096 L4443.336,12.096 L4443.336,14.76 Z M4429.512,22.824 L4429.512,20.016 L4443.336,20.016 L4443.336,22.824 L4429.512,22.824 Z M4408.488,11.952 C4407.336,16.128 4405.752,20.304 4403.664,24.768 L4403.664,11.952 L4408.488,11.952 Z M4403.664,30.168 C4406.688,33.84 4407.552,36.288 4407.552,40.176 C4407.552,44.136 4406.832,45 4403.952,45 L4403.664,45 L4403.664,30.168 Z M4516.416,63.288 C4524.336,57.744 4528.728,48.888 4528.944,39.168 C4529.088,29.448 4524.84,20.016 4517.28,14.184 C4510.296,8.64 4500.648,6.48 4491.216,7.92 C4481.928,9.504 4473.792,14.256 4468.968,21.6 C4463.568,29.808 4462.2,40.68 4465.8,48.816 C4468.464,55.08 4473.576,59.112 4480.344,60.192 C4485.96,60.984 4491.72,59.112 4496.4,55.08 C4503.24,49.104 4506.912,39.384 4506.552,27.504 L4494.456,27.936 C4494.672,36.288 4492.584,42.84 4488.624,46.224 C4486.464,48.096 4484.232,48.888 4482.144,48.6 C4479.552,48.168 4477.824,46.656 4476.744,44.136 C4474.728,39.6 4475.664,33.048 4478.976,28.08 C4481.928,23.544 4487.112,20.376 4493.088,19.368 C4499.496,18.36 4505.544,19.8 4509.864,23.4 C4514.328,26.928 4517.064,32.832 4516.92,38.952 C4516.848,42.912 4515.696,46.368 4513.824,49.32 L4510.512,46.08 L4504.608,51.912 L4516.416,63.288 Z M4537.296,50.4 C4543.128,56.952 4547.592,62.208 4550.544,66.168 L4558.896,60.12 C4555.224,55.584 4550.76,50.112 4545.36,43.848 L4537.296,50.4 Z M4634.712,67.464 L4646.808,67.464 L4646.808,38.088 L4673.592,38.088 L4673.592,27.72 L4646.808,27.72 L4646.808,1.8 L4634.712,1.8 L4634.712,27.72 L4607.928,27.72 L4607.928,38.088 L4634.712,38.088 L4634.712,67.464 Z M4730.904,47.88 L4730.904,55.8 L4711.68,55.8 L4711.68,47.88 L4730.904,47.88 Z M4737.24,26.208 C4738.248,23.328 4739.256,19.8 4740.264,15.768 L4744.872,15.768 L4744.872,6.984 L4727.376,6.984 L4727.376,1.224 L4715.784,1.224 L4715.784,6.984 L4699.872,6.984 C4700.16,5.76 4700.376,4.68 4700.448,3.96 L4690.08,2.088 C4687.776,13.752 4683.744,23.328 4677.912,30.888 L4680.792,43.92 C4681.944,42.696 4683.312,40.896 4684.752,38.664 L4684.752,66.888 L4695.48,66.888 L4695.48,22.32 C4697.064,18.432 4698.36,14.328 4699.368,9.864 L4699.368,15.768 L4702.896,15.768 C4703.832,18.576 4704.912,22.032 4706.064,26.208 L4697.856,26.208 L4697.856,35.424 L4745.52,35.424 L4745.52,26.208 L4737.24,26.208 Z M4742.064,66.744 L4742.064,39.024 L4700.736,39.024 L4700.736,66.744 L4711.68,66.744 L4711.68,64.368 L4730.904,64.368 L4730.904,66.744 L4742.064,66.744 Z M4716.648,26.208 C4715.64,22.464 4714.56,19.008 4713.48,15.768 L4729.68,15.768 C4728.888,19.08 4727.808,22.536 4726.512,26.208 L4716.648,26.208 Z M4780.728,30.024 C4781.088,27.936 4781.448,25.776 4781.952,23.544 L4811.184,23.544 L4811.184,12.816 L4784.544,12.816 C4785.12,10.44 4785.768,8.064 4786.632,5.112 L4772.088,1.296 L4770.072,8.928 L4773.672,9.864 C4773.456,10.872 4773.312,11.736 4773.024,12.816 L4756.968,12.816 L4756.968,23.544 L4770.576,23.544 C4770.144,25.704 4769.784,27.936 4769.496,30.024 L4756.248,30.024 L4756.248,40.752 L4768.632,40.752 C4768.776,49.032 4771.008,55.944 4776.48,60.696 C4780.296,64.152 4785.264,65.808 4790.16,65.808 C4792.608,65.808 4794.984,65.376 4797.288,64.512 C4804.2,61.92 4808.736,55.8 4809.816,47.16 L4798.728,45.792 C4798.08,50.4 4796.208,53.064 4793.328,54.216 C4790.304,55.512 4786.488,54.648 4783.896,52.416 C4781.232,50.112 4780.152,46.152 4779.936,40.752 L4810.248,40.752 L4810.248,30.024 L4780.728,30.024 Z M4851,40.464 L4851,45.432 L4824.504,45.432 L4824.504,54.936 L4851,54.936 L4851,66.96 L4862.52,66.96 L4862.52,54.936 L4889.016,54.936 L4889.016,45.432 L4862.52,45.432 L4862.52,40.464 L4884.408,40.464 L4884.408,4.104 L4829.112,4.104 L4829.112,40.464 L4851,40.464 Z M4873.104,18.36 L4840.416,18.36 L4840.416,12.888 L4873.104,12.888 L4873.104,18.36 Z M4840.416,31.896 L4840.416,26.352 L4873.104,26.352 L4873.104,31.896 L4840.416,31.896 Z M4948.128,49.248 L4943.016,53.496 C4935.312,44.352 4926.456,37.512 4920.768,33.264 L4949.496,11.16 L4942.008,2.16 L4900.464,34.56 C4915.656,42.984 4929.192,52.704 4938.696,67.176 L4953.168,55.368 L4948.128,49.248 Z M4977.216,67.32 C4979.376,62.856 4981.176,58.32 4982.832,53.712 C4986.936,58.392 4992.264,61.704 4998.888,63.504 C5005.656,65.304 5015.304,66.24 5027.904,66.24 L5032.584,66.24 L5033.16,56.736 L5028.048,56.736 C5018.976,56.736 5011.92,56.376 5006.952,55.656 L5006.952,46.8 L5027.328,46.8 L5027.328,38.016 L5006.952,38.016 L5006.952,31.68 L5032.872,31.68 L5032.872,22.464 L5006.952,22.464 L5006.952,16.848 L5028.624,16.848 L5028.624,7.992 L5006.952,7.992 L5006.952,1.584 L4995.36,1.584 L4995.36,7.992 L4972.896,7.992 L4972.896,16.848 L4995.36,16.848 L4995.36,22.464 L4968.648,22.464 L4968.648,31.68 L4995.36,31.68 L4995.36,52.488 C4991.616,50.544 4988.52,47.52 4986,43.272 C4986.576,40.968 4987.08,38.736 4987.512,36.432 L4977.144,34.344 C4974.912,44.424 4971.672,54.072 4967.352,63.36 L4977.216,67.32 Z M5071.104,64.656 C5076.36,63.72 5087.88,61.056 5094.432,52.416 C5099.832,45.288 5100.048,34.92 5095.008,27.288 C5090.832,21.312 5083.272,18.072 5074.056,18.072 C5067.36,18.072 5061.024,19.152 5055.192,20.664 L5054.472,18.216 L5046.984,20.736 L5051.016,32.76 C5058.72,30.816 5066.352,29.016 5073.984,29.016 C5078.16,29.088 5083.272,29.88 5085.504,33.408 C5088.24,37.368 5088.168,42.48 5085.432,45.792 C5082.624,49.536 5076.504,52.632 5068.944,53.928 L5071.104,64.656 Z M5175.144,32.832 C5170.248,29.952 5160.24,24.912 5148.216,28.8 L5151.168,39.312 C5156.352,37.8 5160.24,38.16 5162.616,38.952 L5161.176,41.976 L5168.376,45.576 L5175.144,32.832 Z M5161.176,23.976 L5161.176,12.96 L5140.944,12.96 C5141.664,10.224 5142.312,7.272 5143.032,4.32 L5132.232,1.728 C5130.36,9 5129.856,10.872 5129.28,12.96 L5113.8,12.96 L5113.8,23.976 L5126.472,23.976 L5117.76,57.024 L5128.56,59.904 L5138.208,23.976 L5161.176,23.976 Z M5166.792,50.184 C5164.488,52.416 5159.664,56.736 5153.688,54.504 C5149.728,52.992 5148.216,48.672 5148.072,44.424 L5136.696,44.784 C5136.912,54.504 5142.024,61.992 5149.872,64.872 C5159.088,68.184 5168.376,64.296 5174.856,57.744 L5166.792,50.184 Z M5193.144,51.768 C5194.944,49.968 5197.824,49.968 5199.624,51.768 C5201.424,53.568 5201.424,56.448 5199.624,58.248 C5197.824,59.976 5194.944,60.048 5193.144,58.248 C5191.344,56.448 5191.416,53.568 5193.144,51.768 Z M5187.888,63.432 C5190.264,65.808 5193.072,66.96 5196.384,66.96 C5199.696,66.96 5202.504,65.808 5204.88,63.432 C5207.256,61.128 5208.408,58.32 5208.408,55.008 C5208.408,51.696 5207.256,48.888 5204.88,46.512 C5202.504,44.136 5199.696,42.984 5196.384,42.984 C5193.072,42.984 5190.264,44.136 5187.888,46.512 C5185.584,48.888 5184.432,51.696 5184.432,55.008 C5184.432,58.32 5185.584,61.128 5187.888,63.432 Z" id="text04" fill="#FFFFFF"></path>
    </g>
</svg>