<?xml version="1.0" encoding="UTF-8"?>
<svg width="950px" height="170px" viewBox="0 0 950 170" version="1.1" xmlns="http://www.w3.org/2000/svg" xmlns:xlink="http://www.w3.org/1999/xlink">
    <!-- Generator: Sketch 41.2 (35397) - http://www.bohemiancoding.com/sketch -->
    <title>text05</title>
    <desc>Created with Sketch.</desc>
    <defs></defs>
    <g id="Page-1" stroke="none" stroke-width="1" fill="none" fill-rule="evenodd">
        <g id="Desktop-HD" transform="translate(-222.000000, -2849.000000)" fill="#242C23">
            <path d="M230.934,2920.468 C255.882,2917.927 273.977,2909.072 285.219,2893.903 L278.058,2886.819 C272.36,2893.672 265.584,2898.985 257.499,2902.758 C249.491,2906.377 239.404,2908.764 227.084,2909.842 L230.934,2920.468 Z M270.82,2861.255 C275.748,2870.649 280.137,2880.428 283.987,2890.592 L294.69,2886.896 C290.84,2876.732 286.528,2866.799 281.446,2857.328 L270.82,2861.255 Z M234.168,2858.637 C231.396,2868.416 227.469,2877.81 222.464,2886.896 L232.782,2891.824 C238.326,2881.968 242.484,2871.804 245.256,2861.332 L234.168,2858.637 Z M250.03,2886.357 C248.259,2886.357 245.41,2886.203 241.483,2885.972 L242.022,2896.059 C246.565,2896.29 249.953,2896.444 252.34,2896.444 C256.806,2896.444 258.808,2896.444 260.964,2895.751 C262.119,2895.443 262.966,2894.981 263.428,2894.519 C264.352,2893.518 265.122,2890.9 265.199,2888.205 C265.276,2886.973 265.353,2885.048 265.353,2882.738 L265.353,2851.784 L253.033,2851.784 L253.033,2883.277 C253.033,2886.28 253.033,2886.357 250.03,2886.357 Z M340.351,2919.236 C351.208,2919.236 361.449,2913.384 367.455,2904.067 L356.983,2897.137 C352.979,2903.528 346.049,2907.378 339.042,2906.839 C332.343,2906.377 326.645,2901.757 324.489,2895.366 C320.331,2883.354 326.645,2867.338 329.879,2856.558 L312.092,2851.784 L309.705,2860.023 L315.095,2861.486 C311.014,2875.577 307.087,2893.826 316.404,2906.839 C322.102,2914.77 330.726,2919.236 340.351,2919.236 Z M423.203,2882.815 C424.127,2879.042 424.281,2875.885 424.281,2871.958 L443.685,2871.958 L443.685,2861.948 L446.842,2861.255 L444.763,2849.782 L437.448,2851.245 L439.065,2860.485 L436.37,2860.485 L434.522,2850.167 L427.13,2851.63 L428.67,2860.485 L423.819,2860.485 C423.434,2857.174 423.049,2853.863 422.279,2850.244 L410.344,2852.169 C410.96,2854.71 411.268,2858.098 411.576,2860.485 L379.698,2860.408 L379.698,2871.958 L412.269,2871.958 C412.269,2873.498 412.269,2874.499 412.115,2875.808 C408.188,2874.653 403.645,2874.422 399.179,2875.885 C394.482,2877.425 390.478,2881.121 388.938,2885.664 C387.475,2889.899 387.86,2894.827 390.324,2898.677 C394.559,2905.145 402.875,2907.455 410.344,2904.375 C413.347,2903.143 416.042,2900.525 417.659,2897.676 C417.505,2901.372 416.196,2904.991 413.732,2909.688 L409.651,2907.532 L405.801,2915.078 L420.2,2922.162 C423.511,2916.618 426.668,2911.151 428.362,2905.376 C430.133,2899.447 430.133,2893.287 426.36,2887.204 C425.436,2885.664 424.358,2884.201 423.203,2882.815 Z M410.113,2887.512 C409.112,2890.823 407.649,2892.825 405.647,2893.672 C403.876,2894.519 401.566,2894.288 400.488,2892.44 C399.102,2890.053 400.796,2887.743 402.798,2887.05 C405.262,2886.126 407.957,2886.588 410.113,2887.512 Z M486.112,2918.466 C492.426,2917.311 507.21,2913.615 515.834,2902.681 C522.841,2893.595 523.072,2880.274 516.45,2870.418 C511.214,2862.872 501.743,2858.714 489.577,2858.714 C480.414,2858.637 471.867,2860.331 464.167,2862.102 L463.089,2858.021 L454.85,2860.408 L459.085,2876.116 C468.556,2873.575 477.565,2871.342 486.882,2871.034 C493.581,2870.803 501.743,2871.496 505.747,2877.425 C509.751,2883.354 509.212,2891.67 504.284,2896.752 C499.048,2902.065 491.348,2904.683 483.648,2906.069 L486.112,2918.466 Z M560.34,2868.955 L566.577,2868.955 C566.5,2878.195 564.883,2885.895 561.803,2892.132 C558.723,2898.369 553.872,2903.913 547.173,2908.841 C549.098,2904.298 550.715,2899.832 551.947,2895.52 L542.168,2890.977 C539.55,2899.447 536.162,2907.378 531.85,2914.539 L541.244,2920.545 C542.784,2917.927 544.247,2915.232 545.402,2912.691 L551.562,2920.314 C561.264,2914.616 568.502,2905.992 573.43,2894.288 L573.43,2909.919 C573.43,2913.461 573.353,2914.539 574.046,2916.233 C574.354,2917.08 574.739,2917.619 575.124,2917.927 C575.894,2918.389 578.743,2919.005 581.053,2919.005 C582.208,2919.082 583.979,2919.082 586.443,2919.082 L590.216,2919.082 C591.063,2919.082 592.141,2919.005 593.296,2918.774 L595.76,2918.312 C596.684,2918.158 598.532,2916.387 598.917,2915.463 C599.148,2915.078 599.456,2914.231 599.841,2912.922 C600.226,2911.536 600.457,2910.381 600.534,2909.38 L600.919,2904.529 L601.227,2898.523 C601.304,2896.675 601.304,2894.134 601.381,2890.823 L590.216,2889.514 C590.216,2899.139 589.985,2904.837 589.677,2906.531 C589.292,2908.148 588.368,2908.995 586.751,2908.995 C584.441,2908.995 584.441,2908.841 584.441,2906.685 L584.441,2878.734 L577.742,2878.734 C578.281,2875.346 578.512,2872.112 578.589,2868.955 L588.984,2868.955 L588.984,2882.045 L600.38,2882.045 L600.38,2858.868 L578.589,2858.868 L578.589,2851.322 L566.577,2851.322 L566.577,2858.868 L549.56,2858.868 C546.018,2856.25 542.784,2853.863 539.858,2852.015 L533.621,2860.1 C538.241,2863.18 542.63,2866.491 546.634,2869.879 L549.483,2866.029 L549.483,2878.734 C545.633,2875.346 541.321,2871.958 536.701,2868.647 L530.079,2876.501 C535.392,2880.351 540.166,2884.278 544.324,2888.128 L549.483,2882.045 L560.34,2882.045 L560.34,2868.955 Z M666.215,2915.54 C674.685,2908.61 676.225,2896.598 676.918,2886.357 L664.675,2885.895 C664.213,2892.055 663.597,2904.991 656.667,2907.224 C653.51,2908.302 650.815,2905.915 649.66,2902.835 C647.966,2898.215 648.659,2893.21 648.967,2888.744 L631.642,2890.592 L644.424,2857.636 L627.253,2851.091 L624.173,2858.945 L629.948,2861.178 L608.927,2914.924 L620.169,2919.236 L626.637,2902.912 L637.032,2901.68 C638.11,2907.84 640.882,2914.154 646.657,2917.234 C652.663,2920.622 660.902,2919.852 666.215,2915.54 Z M740.905,2909.534 C731.742,2905.299 726.044,2899.986 724.581,2893.98 C722.733,2885.895 727.199,2876.655 732.127,2869.109 L751.916,2867.646 L751.069,2856.096 L697.785,2860.177 L697.323,2855.326 L688.776,2856.019 L690.162,2872.266 L717.035,2870.187 C712.184,2879.735 710.644,2888.744 712.492,2896.829 C714.802,2906.685 722.271,2914.539 734.668,2920.545 L740.905,2909.534 Z M742.907,2890.746 L740.751,2879.196 L733.359,2880.659 L735.515,2891.978 L742.907,2890.746 Z M753.302,2891.362 L751.223,2879.735 L743.908,2881.275 L745.987,2892.671 L753.302,2891.362 Z M803.737,2910.304 C819.676,2910.304 826.837,2900.294 829.455,2895.135 C832.15,2889.745 832.381,2883.816 830.225,2878.118 C827.915,2872.112 822.602,2867.107 816.519,2864.643 C812.13,2862.949 807.818,2862.102 803.891,2862.102 C803.352,2860.023 802.582,2857.867 799.117,2850.398 L788.029,2854.633 C791.263,2861.794 791.725,2863.103 792.187,2864.412 C786.643,2866.799 781.561,2870.495 777.48,2875.5 C778.327,2871.188 779.867,2867.03 781.484,2862.872 L764.929,2856.943 L762.157,2864.951 L767.393,2866.799 C763.235,2879.735 764.159,2893.441 766.469,2906.993 L778.25,2904.837 C777.095,2898.985 776.941,2897.83 776.71,2896.059 C780.406,2887.666 786.72,2879.966 794.882,2876.27 C795.729,2883.893 795.19,2891.131 794.189,2897.06 C792.11,2896.521 789.8,2895.674 786.874,2894.827 L783.409,2906.069 C790.031,2908.148 790.878,2908.379 791.417,2908.61 C790.724,2911.382 789.569,2914.231 788.183,2917.311 L799.425,2921.084 C801.812,2915.386 802.582,2913.384 803.429,2910.304 L803.737,2910.304 Z M806.663,2874.422 C810.436,2874.73 814.363,2876.039 816.904,2879.042 C819.522,2882.045 820.369,2886.126 818.675,2889.668 C816.134,2895.212 811.822,2897.753 806.278,2898.369 C807.433,2890.361 807.741,2882.199 806.663,2874.422 Z M895.213,2901.911 L889.746,2906.454 C881.507,2896.675 872.036,2889.36 865.953,2884.817 L896.676,2861.178 L888.668,2851.553 L844.239,2886.203 C860.486,2895.212 874.962,2905.607 885.126,2921.084 L900.603,2908.456 L895.213,2901.911 Z M945.34,2861.64 C945.34,2863.103 945.34,2864.258 945.263,2864.951 L918.544,2864.951 L918.544,2875.346 L943.877,2875.346 C940.643,2889.899 931.557,2901.526 916.696,2910.227 L922.933,2920.314 C929.324,2916.926 935.176,2912.075 940.489,2905.838 C944.801,2911.921 948.112,2916.849 950.345,2920.391 L959.739,2915.232 C957.429,2911.613 953.964,2906.454 949.267,2899.832 L942.183,2903.682 C946.187,2898.677 949.498,2893.21 952.039,2887.435 C955.042,2894.442 958.969,2900.91 963.897,2906.685 C968.748,2912.537 974.215,2917.08 980.067,2920.314 L986.304,2910.227 C971.366,2901.449 962.28,2889.822 959.046,2875.346 L984.456,2875.346 L984.456,2864.951 L957.737,2864.951 C957.66,2864.258 957.66,2863.103 957.66,2861.64 L957.66,2851.014 L945.34,2851.014 L945.34,2861.64 Z M1026.19,2890.207 C1023.88,2892.209 1021.339,2893.903 1018.875,2895.52 L1018.875,2894.442 C1018.875,2887.204 1017.566,2883.123 1014.024,2878.888 C1016.334,2874.114 1018.413,2868.416 1020.107,2862.025 L1020.107,2853.17 L995.467,2853.17 L995.467,2920.622 L1005.939,2920.622 L1005.939,2898.138 L1008.018,2906.531 L1009.173,2906.531 C1013.331,2906.531 1016.18,2904.991 1017.566,2901.911 L1019.645,2904.298 C1021.647,2903.297 1023.88,2901.911 1026.498,2900.063 L1029.27,2900.063 C1024.342,2904.606 1018.644,2908.456 1011.945,2911.536 L1017.335,2917.619 C1021.339,2915.771 1025.42,2913.153 1029.578,2909.919 C1033.736,2906.685 1037.201,2903.374 1039.819,2900.063 L1042.745,2900.063 C1038.202,2906.608 1032.504,2911.921 1025.882,2915.925 L1032.042,2921.777 C1035.43,2919.544 1038.741,2916.926 1041.898,2913.692 L1042.36,2920.391 C1047.673,2920.699 1050.83,2920.93 1051.831,2920.853 C1059.993,2920.545 1061.841,2918.312 1061.841,2899.755 L1061.841,2892.517 L1035.199,2892.517 L1037.355,2890.207 L1063.535,2890.207 L1063.535,2882.353 L1019.568,2882.353 L1019.568,2890.207 L1026.19,2890.207 Z M1060.378,2880.12 L1060.378,2853.17 L1022.186,2853.17 L1022.186,2880.12 L1060.378,2880.12 Z M1051.292,2901.834 C1051.292,2910.92 1050.753,2911.613 1048.443,2911.613 C1047.211,2911.613 1045.825,2911.536 1044.054,2911.382 C1046.98,2908.225 1049.444,2904.991 1051.292,2901.834 Z M1048.366,2865.028 L1033.582,2865.028 L1033.582,2862.179 L1048.366,2862.179 L1048.366,2865.028 Z M1033.582,2873.652 L1033.582,2870.649 L1048.366,2870.649 L1048.366,2873.652 L1033.582,2873.652 Z M1011.098,2862.025 C1009.866,2866.491 1008.172,2870.957 1005.939,2875.731 L1005.939,2862.025 L1011.098,2862.025 Z M1005.939,2881.506 C1009.173,2885.433 1010.097,2888.051 1010.097,2892.209 C1010.097,2896.444 1009.327,2897.368 1006.247,2897.368 L1005.939,2897.368 L1005.939,2881.506 Z M1126.521,2916.926 C1134.991,2910.997 1139.688,2901.526 1139.919,2891.131 C1140.073,2880.736 1135.53,2870.649 1127.445,2864.412 C1119.976,2858.483 1109.658,2856.173 1099.571,2857.713 C1089.638,2859.407 1080.937,2864.489 1075.778,2872.343 C1070.003,2881.121 1068.54,2892.748 1072.39,2901.449 C1075.239,2908.148 1080.706,2912.46 1087.944,2913.615 C1093.95,2914.462 1100.11,2912.46 1105.115,2908.148 C1112.43,2901.757 1116.357,2891.362 1115.972,2878.657 L1103.036,2879.119 C1103.267,2888.051 1101.034,2895.058 1096.799,2898.677 C1094.489,2900.679 1092.102,2901.526 1089.869,2901.218 C1087.097,2900.756 1085.249,2899.139 1084.094,2896.444 C1081.938,2891.593 1082.939,2884.586 1086.481,2879.273 C1089.638,2874.422 1095.182,2871.034 1101.573,2869.956 C1108.426,2868.878 1114.894,2870.418 1119.514,2874.268 C1124.288,2878.041 1127.214,2884.355 1127.06,2890.9 C1126.983,2895.135 1125.751,2898.831 1123.749,2901.988 L1120.207,2898.523 L1113.893,2904.76 L1126.521,2916.926 Z M1148.851,2903.143 C1155.088,2910.15 1159.862,2915.771 1163.019,2920.006 L1171.951,2913.538 C1168.024,2908.687 1163.25,2902.835 1157.475,2896.136 L1148.851,2903.143 Z M406.032,3018.392 L418.968,3018.392 L418.968,2986.976 L447.612,2986.976 L447.612,2975.888 L418.968,2975.888 L418.968,2948.168 L406.032,2948.168 L406.032,2975.888 L377.388,2975.888 L377.388,2986.976 L406.032,2986.976 L406.032,3018.392 Z M508.904,2997.448 L508.904,3005.918 L488.345,3005.918 L488.345,2997.448 L508.904,2997.448 Z M515.68,2974.271 C516.758,2971.191 517.836,2967.418 518.914,2963.106 L523.842,2963.106 L523.842,2953.712 L505.131,2953.712 L505.131,2947.552 L492.734,2947.552 L492.734,2953.712 L475.717,2953.712 C476.025,2952.403 476.256,2951.248 476.333,2950.478 L465.245,2948.476 C462.781,2960.95 458.469,2971.191 452.232,2979.276 L455.312,2993.213 C456.544,2991.904 458.007,2989.979 459.547,2987.592 L459.547,3017.776 L471.02,3017.776 L471.02,2970.113 C472.714,2965.955 474.1,2961.566 475.178,2956.792 L475.178,2963.106 L478.951,2963.106 C479.952,2966.109 481.107,2969.805 482.339,2974.271 L473.561,2974.271 L473.561,2984.127 L524.535,2984.127 L524.535,2974.271 L515.68,2974.271 Z M520.839,3017.622 L520.839,2987.977 L476.641,2987.977 L476.641,3017.622 L488.345,3017.622 L488.345,3015.081 L508.904,3015.081 L508.904,3017.622 L520.839,3017.622 Z M493.658,2974.271 C492.58,2970.267 491.425,2966.571 490.27,2963.106 L507.595,2963.106 C506.748,2966.648 505.593,2970.344 504.207,2974.271 L493.658,2974.271 Z M562.188,2978.352 C562.573,2976.119 562.958,2973.809 563.497,2971.422 L594.759,2971.422 L594.759,2959.949 L566.269,2959.949 C566.885,2957.408 567.578,2954.867 568.502,2951.71 L552.948,2947.629 L550.792,2955.791 L554.642,2956.792 C554.411,2957.87 554.257,2958.794 553.949,2959.949 L536.778,2959.949 L536.778,2971.422 L551.331,2971.422 C550.869,2973.732 550.484,2976.119 550.176,2978.352 L536.008,2978.352 L536.008,2989.825 L549.252,2989.825 C549.406,2998.68 551.793,3006.072 557.645,3011.154 C561.726,3014.85 567.039,3016.621 572.275,3016.621 C574.893,3016.621 577.434,3016.159 579.898,3015.235 C587.29,3012.463 592.141,3005.918 593.296,2996.678 L581.438,2995.215 C580.745,3000.143 578.743,3002.992 575.663,3004.224 C572.429,3005.61 568.348,3004.686 565.576,3002.299 C562.727,2999.835 561.572,2995.6 561.341,2989.825 L593.758,2989.825 L593.758,2978.352 L562.188,2978.352 Z M637.34,2989.517 L637.34,2994.83 L609.004,2994.83 L609.004,3004.994 L637.34,3004.994 L637.34,3017.853 L649.66,3017.853 L649.66,3004.994 L677.996,3004.994 L677.996,2994.83 L649.66,2994.83 L649.66,2989.517 L673.068,2989.517 L673.068,2950.632 L613.932,2950.632 L613.932,2989.517 L637.34,2989.517 Z M660.979,2965.878 L626.021,2965.878 L626.021,2960.026 L660.979,2960.026 L660.979,2965.878 Z M626.021,2980.354 L626.021,2974.425 L660.979,2974.425 L660.979,2980.354 L626.021,2980.354 Z M741.213,2998.911 L735.746,3003.454 C727.507,2993.675 718.036,2986.36 711.953,2981.817 L742.676,2958.178 L734.668,2948.553 L690.239,2983.203 C706.486,2992.212 720.962,3002.607 731.126,3018.084 L746.603,3005.456 L741.213,2998.911 Z M772.321,3018.238 C774.631,3013.464 776.556,3008.613 778.327,3003.685 C782.716,3008.69 788.414,3012.232 795.498,3014.157 C802.736,3016.082 813.054,3017.083 826.529,3017.083 L831.534,3017.083 L832.15,3006.919 L826.683,3006.919 C816.981,3006.919 809.435,3006.534 804.122,3005.764 L804.122,2996.293 L825.913,2996.293 L825.913,2986.899 L804.122,2986.899 L804.122,2980.123 L831.842,2980.123 L831.842,2970.267 L804.122,2970.267 L804.122,2964.261 L827.299,2964.261 L827.299,2954.79 L804.122,2954.79 L804.122,2947.937 L791.725,2947.937 L791.725,2954.79 L767.701,2954.79 L767.701,2964.261 L791.725,2964.261 L791.725,2970.267 L763.158,2970.267 L763.158,2980.123 L791.725,2980.123 L791.725,3002.376 C787.721,3000.297 784.41,2997.063 781.715,2992.52 C782.331,2990.056 782.87,2987.669 783.332,2985.205 L772.244,2982.972 C769.857,2993.752 766.392,3004.07 761.772,3014.003 L772.321,3018.238 Z M872.729,3015.389 C878.35,3014.388 890.67,3011.539 897.677,3002.299 C903.452,2994.676 903.683,2983.588 898.293,2975.426 C893.827,2969.035 885.742,2965.57 875.886,2965.57 C868.725,2965.57 861.949,2966.725 855.712,2968.342 L854.942,2965.724 L846.934,2968.419 L851.246,2981.278 C859.485,2979.199 867.647,2977.274 875.809,2977.274 C880.275,2977.351 885.742,2978.198 888.129,2981.971 C891.055,2986.206 890.978,2991.673 888.052,2995.215 C885.049,2999.219 878.504,3002.53 870.419,3003.916 L872.729,3015.389 Z M983.994,2981.355 C978.758,2978.275 968.055,2972.885 955.196,2977.043 L958.353,2988.285 C963.897,2986.668 968.055,2987.053 970.596,2987.9 L969.056,2991.134 L976.756,2994.984 L983.994,2981.355 Z M969.056,2971.884 L969.056,2960.103 L947.419,2960.103 C948.189,2957.177 948.882,2954.02 949.652,2950.863 L938.102,2948.091 C936.1,2955.868 935.561,2957.87 934.945,2960.103 L918.39,2960.103 L918.39,2971.884 L931.942,2971.884 L922.625,3007.227 L934.175,3010.307 L944.493,2971.884 L969.056,2971.884 Z M975.062,2999.912 C972.598,3002.299 967.439,3006.919 961.048,3004.532 C956.813,3002.915 955.196,2998.295 955.042,2993.752 L942.876,2994.137 C943.107,3004.532 948.574,3012.54 956.967,3015.62 C966.823,3019.162 976.756,3015.004 983.686,3007.997 L975.062,2999.912 Z M1003.244,3001.606 C1005.169,2999.681 1008.249,2999.681 1010.174,3001.606 C1012.099,3003.531 1012.099,3006.611 1010.174,3008.536 C1008.249,3010.384 1005.169,3010.461 1003.244,3008.536 C1001.319,3006.611 1001.396,3003.531 1003.244,3001.606 Z M997.623,3014.08 C1000.164,3016.621 1003.167,3017.853 1006.709,3017.853 C1010.251,3017.853 1013.254,3016.621 1015.795,3014.08 C1018.336,3011.616 1019.568,3008.613 1019.568,3005.071 C1019.568,3001.529 1018.336,2998.526 1015.795,2995.985 C1013.254,2993.444 1010.251,2992.212 1006.709,2992.212 C1003.167,2992.212 1000.164,2993.444 997.623,2995.985 C995.159,2998.526 993.927,3001.529 993.927,3005.071 C993.927,3008.613 995.159,3011.616 997.623,3014.08 Z" id="text05"></path>
        </g>
    </g>
</svg>