<?xml version="1.0" encoding="UTF-8"?>
<svg width="849px" height="136px" viewBox="0 0 849 136" version="1.1" xmlns="http://www.w3.org/2000/svg" xmlns:xlink="http://www.w3.org/1999/xlink">
    <!-- Generator: Sketch 41.2 (35397) - http://www.bohemiancoding.com/sketch -->
    <title>text14-02</title>
    <desc>Created with Sketch.</desc>
    <defs></defs>
    <g id="Page-1" stroke="none" stroke-width="1" fill="none" fill-rule="evenodd">
        <g id="Desktop-HD" transform="translate(-431.000000, -9889.000000)" fill="#FFFFFF">
            <g id="text14" transform="translate(430.000000, 9730.000000)">
                <path d="M20.912,292.536 C25.232,283.608 28.832,274.536 32.144,265.32 C40.352,274.68 51.008,281.304 64.256,284.904 C77.792,288.504 97.088,290.376 122.288,290.376 L131.648,290.376 L132.8,271.368 L122.576,271.368 C104.432,271.368 90.32,270.648 80.384,269.208 L80.384,251.496 L121.136,251.496 L121.136,233.928 L80.384,233.928 L80.384,221.256 L132.224,221.256 L132.224,202.824 L80.384,202.824 L80.384,191.592 L123.728,191.592 L123.728,173.88 L80.384,173.88 L80.384,161.064 L57.2,161.064 L57.2,173.88 L12.272,173.88 L12.272,191.592 L57.2,191.592 L57.2,202.824 L3.776,202.824 L3.776,221.256 L57.2,221.256 L57.2,262.872 C49.712,258.984 43.52,252.936 38.48,244.44 C39.632,239.832 40.64,235.368 41.504,230.76 L20.768,226.584 C16.304,246.744 9.824,266.04 1.184,284.616 L20.912,292.536 Z M262.4,186.984 L260.96,165.96 L175.712,171.864 L175.28,162.504 L159.008,163.224 L160.736,193.752 L213.296,190.008 L177.008,216.36 L189.104,232.056 L197.888,225.432 C209.12,225 221.36,224.28 231.584,230.472 C243.68,237.816 244.976,254.952 233.456,263.304 C233.024,257.688 231.872,250.2 226.4,243.864 C222.368,239.4 215.312,234.072 203.216,233.64 C189.536,233.352 177.872,244.872 176.432,259.56 C174.416,282.456 197.024,289.944 214.736,289.944 C232.304,289.944 247.424,283.896 256.64,271.08 C274.928,245.304 257.216,209.16 225.536,205.56 L250.016,187.848 L262.4,186.984 Z M199.76,265.464 C196.88,262.584 199.04,256.68 202.64,255.816 C208.976,254.232 212.432,261.144 211.28,268.488 L211.28,268.776 C207.824,268.632 202.352,268.488 199.76,265.464 Z M314.672,248.472 C315.68,247.464 332.528,231.336 340.16,205.272 L364.208,205.272 L364.208,184.248 L344.624,184.248 C344.768,181.224 344.768,178.344 344.336,164.088 L321.728,165.096 C322.016,171.864 322.304,178.056 321.872,184.248 L294.8,184.248 L294.8,205.272 L316.256,205.272 C310.064,219.96 301.568,230.04 291.056,240.264 L306.752,256.392 L314.672,248.472 Z M421.952,269.928 C414.32,258.408 404.384,247.752 393.296,240.696 C393.584,233.208 393.008,226.296 392,219.24 L401.072,217.656 L405.104,223.56 L423.68,210.888 L392.576,166.248 L373.712,178.632 L391.568,203.832 L366.944,209.16 C369.392,217.08 370.256,225.432 370.688,233.208 C362.624,232.056 353.552,233.496 345.056,238.68 C331.376,246.6 326.48,263.88 334.112,276.984 C339.008,285.192 348.224,289.512 356.864,289.512 C365.792,289.512 374.864,285.48 381.776,277.704 C384.944,274.392 387.68,270.504 389.264,265.32 C396.32,272.232 402.512,280.872 404.096,283.32 L421.952,269.928 Z M369.104,254.52 C367.664,261.144 357.872,273.096 353.552,265.896 C352.112,263.592 353.12,259.416 356.576,257.112 C360.896,254.664 365.504,253.8 369.104,254.52 Z M543.92,269.064 C537.44,251.928 530.816,238.536 520.016,226.152 L557.168,180.216 L530.528,159.48 L520.304,171.864 L529.088,178.92 L502.88,211.896 C490.64,203.256 476.096,198.504 461.408,194.904 L455.216,216.648 C467.312,219.816 478.4,222.552 488.048,229.032 C488.48,229.176 488.624,229.176 488.48,229.32 L447.584,280.296 L465.008,294.12 L505.76,243.72 C513.968,253.656 518.288,264.888 522.608,276.408 L543.92,269.064 Z M587.552,176.904 L595.76,286.632 L618.512,285.336 L611.744,198.792 L673.664,198.792 L673.664,253.944 L624.704,253.944 L624.704,275.976 L696.56,275.976 L696.56,176.904 L587.552,176.904 Z M849.344,265.032 C818.096,251.496 807.152,232.056 804.272,225.576 L845.456,175.176 L734.288,175.176 L734.288,197.064 L798.224,197.064 L747.104,261 L738.608,253.944 L728.384,266.184 L754.304,286.92 L789.152,243.864 C803.552,267.912 815.792,274.392 839.84,285.48 L849.344,265.032 Z" id="text14-02"></path>
            </g>
        </g>
    </g>
</svg>