<?xml version="1.0" encoding="UTF-8"?>
<svg width="414px" height="57px" viewBox="0 0 414 57" version="1.1" xmlns="http://www.w3.org/2000/svg" xmlns:xlink="http://www.w3.org/1999/xlink">
    <!-- Generator: Sketch 41.2 (35397) - http://www.bohemiancoding.com/sketch -->
    <title>text10-02</title>
    <desc>Created with Sketch.</desc>
    <defs></defs>
    <g id="Page-1" stroke="none" stroke-width="1" fill="none" fill-rule="evenodd">
        <g id="Desktop-HD" transform="translate(-712.000000, -6110.000000)" fill="#F8A934">
            <g id="text10" transform="translate(682.000000, 5595.000000)">
                <path d="M53.2,524.2 C53.2,525.34 53.2,526.24 53.14,526.78 L32.32,526.78 L32.32,534.88 L52.06,534.88 C49.54,546.22 42.46,555.28 30.88,562.06 L35.74,569.92 C40.72,567.28 45.28,563.5 49.42,558.64 C52.78,563.38 55.36,567.22 57.1,569.98 L64.42,565.96 C62.62,563.14 59.92,559.12 56.26,553.96 L50.74,556.96 C53.86,553.06 56.44,548.8 58.42,544.3 C60.76,549.76 63.82,554.8 67.66,559.3 C71.44,563.86 75.7,567.4 80.26,569.92 L85.12,562.06 C73.48,555.22 66.4,546.16 63.88,534.88 L83.68,534.88 L83.68,526.78 L62.86,526.78 C62.8,526.24 62.8,525.34 62.8,524.2 L62.8,515.92 L53.2,515.92 L53.2,524.2 Z M116.2,546.46 C114.4,548.02 112.42,549.34 110.5,550.6 L110.5,549.76 C110.5,544.12 109.48,540.94 106.72,537.64 C108.52,533.92 110.14,529.48 111.46,524.5 L111.46,517.6 L92.26,517.6 L92.26,570.16 L100.42,570.16 L100.42,552.64 L102.04,559.18 L102.94,559.18 C106.18,559.18 108.4,557.98 109.48,555.58 L111.1,557.44 C112.66,556.66 114.4,555.58 116.44,554.14 L118.6,554.14 C114.76,557.68 110.32,560.68 105.1,563.08 L109.3,567.82 C112.42,566.38 115.6,564.34 118.84,561.82 C122.08,559.3 124.78,556.72 126.82,554.14 L129.1,554.14 C125.56,559.24 121.12,563.38 115.96,566.5 L120.76,571.06 C123.4,569.32 125.98,567.28 128.44,564.76 L128.8,569.98 C132.94,570.22 135.4,570.4 136.18,570.34 C142.54,570.1 143.98,568.36 143.98,553.9 L143.98,548.26 L123.22,548.26 L124.9,546.46 L145.3,546.46 L145.3,540.34 L111.04,540.34 L111.04,546.46 L116.2,546.46 Z M142.84,538.6 L142.84,517.6 L113.08,517.6 L113.08,538.6 L142.84,538.6 Z M135.76,555.52 C135.76,562.6 135.34,563.14 133.54,563.14 C132.58,563.14 131.5,563.08 130.12,562.96 C132.4,560.5 134.32,557.98 135.76,555.52 Z M133.48,526.84 L121.96,526.84 L121.96,524.62 L133.48,524.62 L133.48,526.84 Z M121.96,533.56 L121.96,531.22 L133.48,531.22 L133.48,533.56 L121.96,533.56 Z M104.44,524.5 C103.48,527.98 102.16,531.46 100.42,535.18 L100.42,524.5 L104.44,524.5 Z M100.42,539.68 C102.94,542.74 103.66,544.78 103.66,548.02 C103.66,551.32 103.06,552.04 100.66,552.04 L100.42,552.04 L100.42,539.68 Z M194.38,567.28 C200.98,562.66 204.64,555.28 204.82,547.18 C204.94,539.08 201.4,531.22 195.1,526.36 C189.28,521.74 181.24,519.94 173.38,521.14 C165.64,522.46 158.86,526.42 154.84,532.54 C150.34,539.38 149.2,548.44 152.2,555.22 C154.42,560.44 158.68,563.8 164.32,564.7 C169,565.36 173.8,563.8 177.7,560.44 C183.4,555.46 186.46,547.36 186.16,537.46 L176.08,537.82 C176.26,544.78 174.52,550.24 171.22,553.06 C169.42,554.62 167.56,555.28 165.82,555.04 C163.66,554.68 162.22,553.42 161.32,551.32 C159.64,547.54 160.42,542.08 163.18,537.94 C165.64,534.16 169.96,531.52 174.94,530.68 C180.28,529.84 185.32,531.04 188.92,534.04 C192.64,536.98 194.92,541.9 194.8,547 C194.74,550.3 193.78,553.18 192.22,555.64 L189.46,552.94 L184.54,557.8 L194.38,567.28 Z M233.2,529.9 L238.06,529.9 C238,537.1 236.74,543.1 234.34,547.96 C231.94,552.82 228.16,557.14 222.94,560.98 C224.44,557.44 225.7,553.96 226.66,550.6 L219.04,547.06 C217,553.66 214.36,559.84 211,565.42 L218.32,570.1 C219.52,568.06 220.66,565.96 221.56,563.98 L226.36,569.92 C233.92,565.48 239.56,558.76 243.4,549.64 L243.4,561.82 C243.4,564.58 243.34,565.42 243.88,566.74 C244.12,567.4 244.42,567.82 244.72,568.06 C245.32,568.42 247.54,568.9 249.34,568.9 C250.24,568.96 251.62,568.96 253.54,568.96 L256.48,568.96 C257.14,568.96 257.98,568.9 258.88,568.72 L260.8,568.36 C261.52,568.24 262.96,566.86 263.26,566.14 C263.44,565.84 263.68,565.18 263.98,564.16 C264.28,563.08 264.46,562.18 264.52,561.4 L264.82,557.62 L265.06,552.94 C265.12,551.5 265.12,549.52 265.18,546.94 L256.48,545.92 C256.48,553.42 256.3,557.86 256.06,559.18 C255.76,560.44 255.04,561.1 253.78,561.1 C251.98,561.1 251.98,560.98 251.98,559.3 L251.98,537.52 L246.76,537.52 C247.18,534.88 247.36,532.36 247.42,529.9 L255.52,529.9 L255.52,540.1 L264.4,540.1 L264.4,522.04 L247.42,522.04 L247.42,516.16 L238.06,516.16 L238.06,522.04 L224.8,522.04 C222.04,520 219.52,518.14 217.24,516.7 L212.38,523 C215.98,525.4 219.4,527.98 222.52,530.62 L224.74,527.62 L224.74,537.52 C221.74,534.88 218.38,532.24 214.78,529.66 L209.62,535.78 C213.76,538.78 217.48,541.84 220.72,544.84 L224.74,540.1 L233.2,540.1 L233.2,529.9 Z M315.52,565 C321.1,560.14 321.88,552.34 317.68,544.24 L326.2,538.78 L317.5,524.68 L309.58,529.78 L314.86,538.3 L306.16,543.7 C308.5,547.24 312.04,551.44 310.84,555.64 C310,558.64 306.58,559.96 303.64,559.84 C300.22,559.72 298,557.2 295.9,554.38 C297.94,547.96 297.88,539.86 296.92,531.82 L307.9,531.82 L307.9,522.82 L295.48,522.82 C295.06,520.66 294.58,518.5 294.1,516.34 L284.86,518.32 C285.28,520.12 285.58,521.5 285.82,522.82 L273.64,522.82 L273.64,531.82 L287.44,531.82 C288.22,537.52 288.46,541.84 288.22,545.38 C283.42,542.74 277.36,543.76 273.94,547.6 C271.6,550.18 270.94,553.72 271.66,557.26 C272.44,560.98 274.96,563.62 278.5,565 C282.64,566.5 287.44,565.6 290.8,562.72 C291.7,563.86 292.84,565 294.16,566.02 C296.92,568.06 300.52,569.08 304,569.08 C308.14,569.08 312.46,567.7 315.52,565 Z M285.64,555.1 C285.4,555.46 285.04,555.7 284.74,555.94 C283.66,556.84 281.38,557.2 280.72,555.82 C279.94,554.26 280.96,552.82 282.58,552.82 C284.08,552.82 284.8,553.78 285.64,555.1 Z M336.88,558.7 C334.72,560.38 332.5,561.94 330.1,563.38 L334.36,570.64 C337.3,568.66 339.94,566.68 342.28,564.7 C344.32,566.5 347.5,567.82 351.76,568.54 C356.02,569.32 362.08,569.74 370.18,569.74 L384.52,569.74 L385,562.12 L370.24,562.12 C363.7,562.12 358.9,561.94 355.72,561.64 C352.6,561.34 350.32,560.86 349.06,560.2 C347.74,559.54 346.66,558.46 345.76,556.96 L345.76,538.18 L331.12,538.18 L331.12,545.8 L336.88,545.8 L336.88,558.7 Z M360.82,529.24 L348.16,529.24 L348.16,546.52 L358.12,546.52 C354.88,548.8 350.86,550.9 346.18,552.76 L350.74,560.08 C354.52,558.16 357.88,556 360.82,553.54 L360.82,560.56 L370.18,560.56 L370.18,552.94 C373.3,555.64 376.84,558.04 380.98,560.08 L384.88,552.82 C380.44,550.84 376.66,548.8 373.66,546.52 L382.72,546.52 L382.72,529.24 L370.18,529.24 L370.18,526.9 L384.28,526.9 L384.28,519.46 L370.18,519.46 L370.18,515.92 L360.82,515.92 L360.82,519.46 L345.34,519.46 L345.34,525.7 C342.04,522.34 339.28,519.64 337.06,517.6 L331.12,523.36 C334.96,526.72 338.56,530.08 342.1,533.68 L347.56,527.98 L346.54,526.9 L360.82,526.9 L360.82,529.24 Z M360.82,540.94 L356.32,540.94 L356.32,535.66 L360.82,535.66 L360.82,540.94 Z M374.32,540.94 L370.18,540.94 L370.18,535.66 L374.32,535.66 L374.32,540.94 Z M421.78,554.74 C419.98,556.66 418.3,558.64 415.96,559.6 C414.22,560.44 412.06,560.38 410.26,559.54 C405.4,557.38 405.82,552.28 405.82,547.96 L396.4,547.96 C396.4,553.72 396.7,559.06 400.3,563.44 C403.54,567.22 408.4,569.38 413.26,569.38 C416.08,569.38 419.14,568.6 421.6,567.22 C424.36,565.66 426.34,563.32 428.44,561.34 L421.78,554.74 Z M430.78,548.56 L427.12,534.46 L443.56,534.46 L443.5,525.22 L424.48,525.22 L421.9,516.52 L412.78,519.1 L414.64,525.22 L393.58,525.22 L393.64,534.46 L417.22,534.46 L419.92,544.42 L416.26,545.32 L417.64,551.68 L430.78,548.56 Z" id="text10-02"></path>
            </g>
        </g>
    </g>
</svg>