<?xml version="1.0" encoding="UTF-8"?>
<svg width="83px" height="79px" viewBox="0 0 83 79" version="1.1" xmlns="http://www.w3.org/2000/svg" xmlns:xlink="http://www.w3.org/1999/xlink">
    <!-- Generator: Sketch 41.2 (35397) - http://www.bohemiancoding.com/sketch -->
    <title>text07-02</title>
    <desc>Created with Sketch.</desc>
    <defs></defs>
    <g id="Page-1" stroke="none" stroke-width="1" fill="none" fill-rule="evenodd">
        <g id="Desktop-HD" transform="translate(-781.000000, -3497.000000)" fill="#FFFFFF">
            <g id="text07" transform="translate(676.000000, 3494.000000)">
                <path d="M108.317575,41.939 L108.317575,51.551 L135.373575,51.551 L135.373575,41.939 L108.317575,41.939 Z M108.317575,29.657 L108.317575,39.269 L135.373575,39.269 L135.373575,29.657 L108.317575,29.657 Z M105.202575,16.04 L105.202575,26.987 L136.886575,26.987 L136.886575,16.04 L105.202575,16.04 Z M107.516575,3.491 L107.516575,13.459 L135.462575,13.459 L135.462575,3.491 L107.516575,3.491 Z M159.403575,66.592 L154.330575,66.592 L154.330575,25.474 L142.493575,25.474 L142.493575,66.592 L137.687575,66.592 L137.687575,78.34 L187.438575,78.34 L187.438575,66.592 L173.020575,66.592 L173.020575,44.965 L185.302575,44.965 L185.302575,33.306 L173.020575,33.306 L173.020575,16.218 L186.904575,16.218 L186.904575,4.559 L139.022575,4.559 L139.022575,16.218 L159.403575,16.218 L159.403575,66.592 Z M125.939575,69.084 L118.641575,69.084 L118.641575,63.477 L125.939575,63.477 L125.939575,69.084 Z M107.516575,54.221 L107.516575,81.277 L118.641575,81.277 L118.641575,78.34 L135.729575,78.34 L135.729575,54.221 L107.516575,54.221 Z" id="text07-02"></path>
            </g>
        </g>
    </g>
</svg>