<?xml version="1.0" encoding="UTF-8"?>
<svg width="337px" height="133px" viewBox="0 0 337 133" version="1.1" xmlns="http://www.w3.org/2000/svg" xmlns:xlink="http://www.w3.org/1999/xlink">
    <!-- Generator: Sketch 41.2 (35397) - http://www.bohemiancoding.com/sketch -->
    <title>text14-01</title>
    <desc>Created with Sketch.</desc>
    <defs></defs>
    <g id="Page-1" stroke="none" stroke-width="1" fill="none" fill-rule="evenodd">
        <g id="Desktop-HD" transform="translate(-430.000000, -9730.000000)" fill="#FFFFFF">
            <g id="text14" transform="translate(430.000000, 9730.000000)">
                <path d="M56.192,119.144 C55.472,106.184 54.608,94.088 53.456,82.712 L41.648,84.008 C42.656,97.544 43.232,109.496 43.664,119.864 L56.192,119.144 Z M13.28,125.048 C15.296,111.368 16.592,97.976 17.312,84.728 L4.64,83.864 C3.92,96.248 2.48,109.208 0.608,122.888 L13.28,125.048 Z M15.728,55.64 C15.152,56.504 14,58.52 13.424,59.24 L2.192,59.96 L2.768,80.12 L19.184,78.968 L19.184,131.672 L39.92,131.672 L39.92,77.384 L46.976,76.952 L47.84,80.408 L57.776,78.392 L57.776,130.808 L79.088,130.808 L79.088,124.76 L107.456,124.76 L107.456,130.808 L129.92,130.808 L129.92,71.912 L59.504,71.912 L58.496,67.736 C57.92,65.288 57.632,63.56 57.344,62.408 L131.648,62.408 L131.648,45.128 L105.008,45.128 L105.008,32.312 L134.96,32.312 L134.96,13.88 L105.008,13.88 L105.008,1.208 L82.544,1.208 L82.544,13.88 L53.312,13.88 L53.312,21.224 L38.624,15.752 C35.744,21.8 31.424,29.288 26.24,38.36 C26.096,38.216 24.512,36.2 23.936,35.192 C28.688,26.12 33.152,16.184 37.472,5.96 L20.48,0.776 C18.32,6.968 15.728,13.448 12.848,20.216 C11.84,18.92 9.392,15.752 8.384,14.6 L0.752,36.056 L15.728,55.64 Z M107.456,89.912 L107.456,107.768 L79.088,107.768 L79.088,89.912 L107.456,89.912 Z M42.368,57.512 L34.16,58.088 L40.064,48.584 L42.368,57.512 Z M41.936,45.416 C46.256,37.928 50.144,31.304 53.312,25.256 L53.312,32.312 L82.544,32.312 L82.544,45.128 L56.768,45.128 L56.768,59.384 C55.472,54.056 53.888,48.584 52.304,42.68 L41.936,45.416 Z M149.36,68.744 L149.36,84.296 L188.384,84.296 L188.384,68.744 L149.36,68.744 Z M149.36,48.872 L149.36,64.28 L188.384,64.28 L188.384,48.872 L149.36,48.872 Z M194.576,48.152 C199.76,45.272 205.088,42.104 210.272,38.36 L210.272,48.584 L259.952,48.584 L259.952,38.36 C265.28,42.104 270.608,45.272 275.792,48.152 L280.832,29.432 C267.152,21.656 255.2,12.872 244.976,2.648 L225.536,2.648 C215.6,12.728 203.648,21.512 190.256,29 L190.256,26.84 L145.76,26.84 L145.76,44.408 L190.256,44.408 L190.256,32.168 L194.576,48.152 Z M148.064,6.536 L148.064,22.52 L188.528,22.52 L188.528,6.536 L148.064,6.536 Z M174.128,112.664 L165.2,112.664 L165.2,103.592 L174.128,103.592 L174.128,112.664 Z M148.064,88.616 L148.064,132.392 L165.2,132.392 L165.2,127.496 L189.104,127.496 L189.104,88.616 L148.064,88.616 Z M256.928,110.504 C256.928,112.952 256.928,112.952 255.632,112.952 C254.624,112.952 253.328,112.808 251.744,112.52 L251.744,101.432 L256.928,101.432 L256.928,110.504 Z M251.744,130.52 C258.8,130.952 263.696,131.384 266.432,131.24 C274.928,130.808 276.224,129.656 276.224,110.36 L276.224,54.2 L193.856,54.2 L193.856,131.384 L211.568,131.384 L211.568,101.432 L216.752,101.432 L216.752,127.784 L231.584,127.784 L231.584,101.432 L236.912,101.432 L236.912,127.784 L251.456,127.784 L251.744,130.52 Z M216.752,84.296 L211.568,84.296 L211.568,72.056 L216.752,72.056 L216.752,84.296 Z M231.584,84.296 L231.584,72.056 L236.912,72.056 L236.912,84.296 L231.584,84.296 Z M251.744,84.296 L251.744,72.056 L256.928,72.056 L256.928,84.296 L251.744,84.296 Z M220.784,30.584 C226.256,25.976 231.008,21.656 235.184,17.192 C239.216,21.656 244.112,25.976 249.584,30.584 L220.784,30.584 Z M293.072,98.696 C304.736,111.8 313.664,122.312 319.568,130.232 L336.272,118.136 C328.928,109.064 320,98.12 309.2,85.592 L293.072,98.696 Z" id="text14-01"></path>
            </g>
        </g>
    </g>
</svg>