<?xml version="1.0" encoding="UTF-8"?>
<svg width="434px" height="71px" viewBox="0 0 434 71" version="1.1" xmlns="http://www.w3.org/2000/svg" xmlns:xlink="http://www.w3.org/1999/xlink">
    <!-- Generator: Sketch 41.2 (35397) - http://www.bohemiancoding.com/sketch -->
    <title>text06-02</title>
    <desc>Created with Sketch.</desc>
    <defs></defs>
    <g id="Page-1" stroke="none" stroke-width="1" fill="none" fill-rule="evenodd">
        <g id="Desktop-HD" transform="translate(-745.000000, -3252.000000)" fill="#FFFFFF">
            <g id="text06" transform="translate(742.000000, 3173.000000)">
                <path d="M49.828,133.23475 C39.587,136.54575 30.578,137.54675 23.725,135.85275 C19.336,134.77475 15.255,131.07875 15.948,126.68975 C16.718,121.60775 21.877,117.37275 28.345,114.06175 C31.579,112.36775 35.121,110.98175 38.586,109.82675 C42.051,108.51775 46.055,107.28575 50.983,105.51475 L46.902,89.3447497 L38.663,91.6547497 L40.049,96.9677497 C35.814,98.2767497 29.5,100.27875 23.725,103.12775 C21.877,99.7397497 19.413,93.6567497 19.105,85.8027497 L18.874,79.8737497 L6.708,80.3357497 L6.939,86.1877497 C7.401,96.6597497 10.712,104.66775 13.484,109.59575 C8.633,113.52275 5.014,118.52775 4.013,124.91875 C2.396,135.08275 9.788,144.70775 21.03,147.32575 C24.264,148.01875 27.806,148.48075 31.348,148.48075 C37.816,148.48075 44.669,147.32575 52.831,144.78475 L49.828,133.23475 Z M58.529,96.9677497 L56.219,85.7257497 L48.827,87.1887497 L51.137,98.6617497 L58.529,96.9677497 Z M67.769,93.4257497 L65.459,81.7987497 L57.99,83.4927497 L60.377,94.8117497 L67.769,93.4257497 Z M129.215,144.01475 C137.685,137.08475 139.225,125.07275 139.918,114.83175 L127.675,114.36975 C127.213,120.52975 126.597,133.46575 119.667,135.69875 C116.51,136.77675 113.815,134.38975 112.66,131.30975 C110.966,126.68975 111.659,121.68475 111.967,117.21875 L94.642,119.06675 L107.424,86.1107497 L90.253,79.5657497 L87.173,87.4197497 L92.948,89.6527497 L71.927,143.39875 L83.169,147.71075 L89.637,131.38675 L100.032,130.15475 C101.11,136.31475 103.882,142.62875 109.657,145.70875 C115.663,149.09675 123.902,148.32675 129.215,144.01475 Z M161.401,126.15075 C161.94,125.61175 170.949,116.98775 175.03,103.05075 L187.889,103.05075 L187.889,91.8087497 L177.417,91.8087497 C177.494,90.1917497 177.494,88.6517497 177.263,81.0287497 L165.174,81.5677497 C165.328,85.1867497 165.482,88.4977497 165.251,91.8087497 L150.775,91.8087497 L150.775,103.05075 L162.248,103.05075 C158.937,110.90475 154.394,116.29475 148.773,121.76175 L157.166,130.38575 L161.401,126.15075 Z M218.766,137.62375 C214.685,131.46375 209.372,125.76575 203.443,121.99275 C203.597,117.98875 203.289,114.29275 202.75,110.51975 L207.601,109.67275 L209.757,112.82975 L219.69,106.05375 L203.058,82.1837497 L192.971,88.8057497 L202.519,102.28075 L189.352,105.12975 C190.661,109.36475 191.123,113.83075 191.354,117.98875 C187.042,117.37275 182.191,118.14275 177.648,120.91475 C170.333,125.14975 167.715,134.38975 171.796,141.39675 C174.414,145.78575 179.342,148.09575 183.962,148.09575 C188.736,148.09575 193.587,145.93975 197.283,141.78175 C198.977,140.01075 200.44,137.93175 201.287,135.15975 C205.06,138.85575 208.371,143.47575 209.218,144.78475 L218.766,137.62375 Z M190.507,129.38475 C189.737,132.92675 184.501,139.31775 182.191,135.46775 C181.421,134.23575 181.96,132.00275 183.808,130.77075 C186.118,129.46175 188.582,128.99975 190.507,129.38475 Z M233.396,134.38975 C230.624,136.54575 227.775,138.54775 224.695,140.39575 L230.162,149.71275 C233.935,147.17175 237.323,144.63075 240.326,142.08975 C242.944,144.39975 247.025,146.09375 252.492,147.01775 C257.959,148.01875 265.736,148.55775 276.131,148.55775 L294.534,148.55775 L295.15,138.77875 L276.208,138.77875 C267.815,138.77875 261.655,138.54775 257.574,138.16275 C253.57,137.77775 250.644,137.16175 249.027,136.31475 C247.333,135.46775 245.947,134.08175 244.792,132.15675 L244.792,108.05575 L226.004,108.05575 L226.004,117.83475 L233.396,117.83475 L233.396,134.38975 Z M264.119,96.5827497 L247.872,96.5827497 L247.872,118.75875 L260.654,118.75875 C256.496,121.68475 251.337,124.37975 245.331,126.76675 L251.183,136.16075 C256.034,133.69675 260.346,130.92475 264.119,127.76775 L264.119,136.77675 L276.131,136.77675 L276.131,126.99775 C280.135,130.46275 284.678,133.54275 289.991,136.16075 L294.996,126.84375 C289.298,124.30275 284.447,121.68475 280.597,118.75875 L292.224,118.75875 L292.224,96.5827497 L276.131,96.5827497 L276.131,93.5797497 L294.226,93.5797497 L294.226,84.0317497 L276.131,84.0317497 L276.131,79.4887497 L264.119,79.4887497 L264.119,84.0317497 L244.253,84.0317497 L244.253,92.0397497 C240.018,87.7277497 236.476,84.2627497 233.627,81.6447497 L226.004,89.0367497 C230.932,93.3487497 235.552,97.6607497 240.095,102.28075 L247.102,94.9657497 L245.793,93.5797497 L264.119,93.5797497 L264.119,96.5827497 Z M264.119,111.59775 L258.344,111.59775 L258.344,104.82175 L264.119,104.82175 L264.119,111.59775 Z M281.444,111.59775 L276.131,111.59775 L276.131,104.82175 L281.444,104.82175 L281.444,111.59775 Z M342.351,129.30775 C340.041,131.77175 337.885,134.31275 334.882,135.54475 C332.649,136.62275 329.877,136.54575 327.567,135.46775 C321.33,132.69575 321.869,126.15075 321.869,120.60675 L309.78,120.60675 C309.78,127.99875 310.165,134.85175 314.785,140.47275 C318.943,145.32375 325.18,148.09575 331.417,148.09575 C335.036,148.09575 338.963,147.09475 342.12,145.32375 C345.662,143.32175 348.203,140.31875 350.898,137.77775 L342.351,129.30775 Z M353.901,121.37675 L349.204,103.28175 L370.302,103.28175 L370.225,91.4237497 L345.816,91.4237497 L342.505,80.2587497 L330.801,83.5697497 L333.188,91.4237497 L306.161,91.4237497 L306.238,103.28175 L336.499,103.28175 L339.964,116.06375 L335.267,117.21875 L337.038,125.38075 L353.901,121.37675 Z M404.259,130.92475 L404.259,142.47475 L417.58,142.47475 L417.58,130.92475 L404.259,130.92475 Z M394.711,98.7387497 C401.41,96.8137497 407.416,95.8127497 412.729,95.8127497 C419.274,95.8127497 422.585,97.5067497 422.585,100.89475 C422.585,102.81975 420.891,104.89875 419.351,106.13075 C418.658,106.66975 417.503,107.51675 416.04,108.51775 C414.269,109.67275 412.96,110.67375 412.036,111.44375 C411.112,112.13675 409.957,113.21475 408.648,114.60075 C406.107,117.29575 404.875,120.60675 404.875,124.61075 L416.964,124.61075 C417.195,122.06975 417.965,119.91375 420.044,118.06575 C421.045,117.14175 421.969,116.44875 422.662,115.90975 C423.355,115.37075 424.433,114.60075 425.896,113.67675 C427.667,112.52175 428.976,111.67475 429.823,111.05875 C430.67,110.36575 431.748,109.44175 432.903,108.28675 C435.367,105.82275 436.291,102.89675 436.291,99.1237497 C436.291,91.0387497 428.283,85.4947497 414.654,85.4947497 C406.877,85.4947497 399.408,86.4957497 392.401,88.4207497 L394.711,98.7387497 Z" id="text06-02"></path>
            </g>
        </g>
    </g>
</svg>