<?xml version="1.0" encoding="UTF-8"?>
<svg width="182px" height="47px" viewBox="0 0 182 47" version="1.1" xmlns="http://www.w3.org/2000/svg" xmlns:xlink="http://www.w3.org/1999/xlink">
    <!-- Generator: Sketch 41.2 (35397) - http://www.bohemiancoding.com/sketch -->
    <title>text02</title>
    <desc>Created with Sketch.</desc>
    <defs></defs>
    <g id="Page-1" stroke="none" stroke-width="1" fill="none" fill-rule="evenodd">
        <g id="Desktop-HD" transform="translate(-1116.000000, -62.000000)" fill="#1A8F59">
            <g id="3rdday" transform="translate(1096.000000, 48.000000)">
                <path d="M44.36,21.536 L44.36,14.96 L20.984,14.96 L20.984,21.536 L34.568,21.536 L34.568,21.632 L25.688,29.312 L25.688,34.784 L28.088,34.784 C31.448,34.784 33.752,35.168 34.952,35.792 C36.2,36.464 36.824,37.52 36.824,39.104 C36.824,42.176 34.664,44 30.968,44 C28.04,44 24.776,43.232 21.224,41.744 L21.224,48.8 C24.536,49.904 27.992,50.48 31.64,50.48 C40.136,50.48 44.84,46.4 44.84,38.96 C44.84,33.056 41.192,29.36 35.624,29.36 L35,29.36 L35,29.264 L44.36,21.536 Z M59.72,39.44 C59.72,34.208 63.464,30.896 69.656,30.896 L70.616,30.896 L70.616,25.04 L69.656,25.04 C65.48,25.04 61.736,26.816 59.576,29.84 L59.48,29.84 L59.48,25.04 L51.752,25.04 L51.752,50 L59.72,50 L59.72,39.44 Z M82.136,37.52 C82.136,32.72 83.72,30.32 86.936,30.32 C88.232,30.32 89.336,30.752 90.296,31.616 C91.256,32.48 91.736,33.44 91.736,34.544 L91.736,40.496 C91.736,41.6 91.256,42.56 90.296,43.424 C89.336,44.288 88.232,44.72 86.936,44.72 C84.008,44.72 82.136,42.368 82.136,37.52 Z M91.496,27.536 C89.336,25.568 86.936,24.56 84.296,24.56 C78.344,24.56 74.552,29.216 74.552,37.52 C74.552,41.6 75.464,44.768 77.288,47.072 C79.112,49.328 81.464,50.48 84.296,50.48 C87.32,50.48 89.864,49.28 91.928,46.832 L92.024,46.832 L92.12,50 L99.32,50 L99.32,14 L91.592,14 L91.592,27.536 L91.496,27.536 Z M126.008,37.52 C126.008,32.72 127.592,30.32 130.808,30.32 C132.104,30.32 133.208,30.752 134.168,31.616 C135.128,32.48 135.608,33.44 135.608,34.544 L135.608,40.496 C135.608,41.6 135.128,42.56 134.168,43.424 C133.208,44.288 132.104,44.72 130.808,44.72 C127.88,44.72 126.008,42.368 126.008,37.52 Z M135.368,27.536 C133.208,25.568 130.808,24.56 128.168,24.56 C122.216,24.56 118.424,29.216 118.424,37.52 C118.424,41.6 119.336,44.768 121.16,47.072 C122.984,49.328 125.336,50.48 128.168,50.48 C131.192,50.48 133.736,49.28 135.8,46.832 L135.896,46.832 L135.992,50 L143.192,50 L143.192,14 L135.464,14 L135.464,27.536 L135.368,27.536 Z M163.688,39.584 C163.688,42.848 161.576,44.96 158.504,44.96 C156.776,44.96 155.672,43.904 155.672,42.176 C155.672,39.776 157.64,38.576 161.528,38.576 L163.688,38.576 L163.688,39.584 Z M159.944,24.56 C156.68,24.56 153.368,25.04 150.008,26 L150.008,31.568 C153.704,30.512 156.872,29.984 159.608,29.984 C162.536,29.984 163.688,30.992 163.688,33.44 L163.688,34.064 L161.528,34.064 C152.888,34.064 148.568,36.992 148.568,42.8 C148.568,45.056 149.24,46.928 150.68,48.368 C152.12,49.808 153.944,50.48 156.152,50.48 C159.416,50.48 162.056,49.232 164.024,46.688 L164.12,46.688 L164.216,50 L171.464,50 L171.464,34.304 C171.464,30.8 170.6,28.304 168.824,26.816 C167.096,25.328 164.12,24.56 159.944,24.56 Z M184.856,50 L180.44,60.56 L188.552,60.56 L201.752,25.04 L193.64,25.04 L188.504,42.656 L188.408,42.656 L184.136,25.04 L175.64,25.04 L184.856,50 Z" id="text02"></path>
            </g>
        </g>
    </g>
</svg>