<?xml version="1.0" encoding="UTF-8"?>
<svg width="396px" height="223px" viewBox="0 0 396 223" version="1.1" xmlns="http://www.w3.org/2000/svg" xmlns:xlink="http://www.w3.org/1999/xlink">
    <!-- Generator: Sketch 41.2 (35397) - http://www.bohemiancoding.com/sketch -->
    <title>trees</title>
    <desc>Created with Sketch.</desc>
    <defs>
        <rect id="path-1" x="0" y="0" width="396" height="223"></rect>
    </defs>
    <g id="Page-1" stroke="none" stroke-width="1" fill="none" fill-rule="evenodd">
        <g id="Desktop-HD" transform="translate(-54.000000, -1770.000000)">
            <g id="trees" transform="translate(54.000000, 1770.000000)">
                <mask id="mask-2" fill="white">
                    <use xlink:href="#path-1"></use>
                </mask>
                <g id="Mask"></g>
                <g id="Group-17" mask="url(#mask-2)">
                    <g id="Group-16" transform="translate(248.000000, 58.000000)">
                        <rect id="Rectangle-9" fill="#C28218" x="51.1413613" y="107.196429" width="46.4921466" height="66.8035714"></rect>
                        <g id="Group-15">
                            <path d="M147.592193,127.392857 C147.75197,119.817366 147.129107,111.923772 145.65381,103.812929 C135.225157,46.4786316 103.058823,0 73.8082916,0 C44.5577599,0 12.3914258,46.4786316 1.96277363,103.812929 C0.487475852,111.923772 -0.135386493,119.817366 0.0243902287,127.392857 L147.592193,127.392857 Z" id="Combined-Shape" fill="#206628"></path>
                            <g id="Group-14" transform="translate(14.949495, 25.111092)" fill="#1B5121">
                                <path d="M17.4358723,67.3712248 C17.439333,67.5097354 17.4410774,67.6488438 17.4410774,67.7885112 C17.4410774,74.3960115 13.5367593,79.7524488 8.72053872,79.7524488 C3.90431818,79.7524488 0,74.3960115 0,67.7885112 C0,67.6488438 0.00174445891,67.5097354 0.00520511521,67.3712248 C1.62739855,71.237584 4.92117861,73.8833473 8.72053872,73.8833473 C12.5198988,73.8833473 15.8136789,71.237584 17.4358724,67.3712225 Z" id="Combined-Shape"></path>
                                <path d="M42.4762764,67.3712248 C42.479737,67.5097354 42.4814815,67.6488438 42.4814815,67.7885112 C42.4814815,74.3960115 38.5771633,79.7524488 33.7609428,79.7524488 C28.9447222,79.7524488 25.040404,74.3960115 25.040404,67.7885112 C25.040404,67.6488438 25.0421485,67.5097354 25.0456092,67.3712248 C26.6678026,71.237584 29.9615827,73.8833473 33.7609428,73.8833473 C37.5603029,73.8833473 40.8540829,71.237584 42.4762764,67.3712225 Z" id="Combined-Shape"></path>
                                <path d="M67.5166804,67.3712248 C67.5201411,67.5097354 67.5218855,67.6488438 67.5218855,67.7885112 C67.5218855,74.3960115 63.6175673,79.7524488 58.8013468,79.7524488 C53.9851263,79.7524488 50.0808081,74.3960115 50.0808081,67.7885112 C50.0808081,67.6488438 50.0825525,67.5097354 50.0860132,67.3712248 C51.7082066,71.237584 55.0019867,73.8833473 58.8013468,73.8833473 C62.6007069,73.8833473 65.894487,71.237584 67.5166804,67.3712225 Z" id="Combined-Shape"></path>
                                <path d="M92.5570844,67.3712248 C92.5605451,67.5097354 92.5622896,67.6488438 92.5622896,67.7885112 C92.5622896,74.3960115 88.6579714,79.7524488 83.8417508,79.7524488 C79.0255303,79.7524488 75.1212121,74.3960115 75.1212121,67.7885112 C75.1212121,67.6488438 75.1229566,67.5097354 75.1264172,67.3712248 C76.7486107,71.237584 80.0423907,73.8833473 83.8417508,73.8833473 C87.6411109,73.8833473 90.934891,71.237584 92.5570845,67.3712225 Z" id="Combined-Shape"></path>
                                <path d="M117.597488,67.3712248 C117.600949,67.5097354 117.602694,67.6488438 117.602694,67.7885112 C117.602694,74.3960115 113.698375,79.7524488 108.882155,79.7524488 C104.065934,79.7524488 100.161616,74.3960115 100.161616,67.7885112 C100.161616,67.6488438 100.163361,67.5097354 100.166821,67.3712248 C101.789015,71.237584 105.082795,73.8833473 108.882155,73.8833473 C112.681515,73.8833473 115.975295,71.237584 117.597489,67.3712225 Z" id="Combined-Shape"></path>
                                <path d="M29.8937848,44.9141506 C29.8972454,45.0526612 29.8989899,45.1917696 29.8989899,45.331437 C29.8989899,51.9389373 25.9946717,57.2953746 21.1784512,57.2953746 C16.3622306,57.2953746 12.4579125,51.9389373 12.4579125,45.331437 C12.4579125,45.1917696 12.4596569,45.0526612 12.4631176,44.9141506 C14.085311,48.7805098 17.3790911,51.4262731 21.1784512,51.4262731 C24.9778113,51.4262731 28.2715914,48.7805098 29.8937848,44.9141484 Z" id="Combined-Shape"></path>
                                <path d="M54.9341888,44.9141506 C54.9376495,45.0526612 54.9393939,45.1917696 54.9393939,45.331437 C54.9393939,51.9389373 51.0350758,57.2953746 46.2188552,57.2953746 C41.4026347,57.2953746 37.4983165,51.9389373 37.4983165,45.331437 C37.4983165,45.1917696 37.500061,45.0526612 37.5035216,44.9141506 C39.125715,48.7805098 42.4194951,51.4262731 46.2188552,51.4262731 C50.0182153,51.4262731 53.3119954,48.7805098 54.9341888,44.9141484 Z" id="Combined-Shape"></path>
                                <path d="M79.9745929,44.9141506 C79.9780535,45.0526612 79.979798,45.1917696 79.979798,45.331437 C79.979798,51.9389373 76.0754798,57.2953746 71.2592593,57.2953746 C66.4430387,57.2953746 62.5387205,51.9389373 62.5387205,45.331437 C62.5387205,45.1917696 62.540465,45.0526612 62.5439257,44.9141506 C64.1661191,48.7805098 67.4598992,51.4262731 71.2592593,51.4262731 C75.0586194,51.4262731 78.3523994,48.7805098 79.9745929,44.9141484 Z" id="Combined-Shape"></path>
                                <path d="M105.014997,44.9141506 C105.018458,45.0526612 105.020202,45.1917696 105.020202,45.331437 C105.020202,51.9389373 101.115884,57.2953746 96.2996633,57.2953746 C91.4834428,57.2953746 87.5791246,51.9389373 87.5791246,45.331437 C87.5791246,45.1917696 87.580869,45.0526612 87.5843297,44.9141506 C89.2065231,48.7805098 92.5003032,51.4262731 96.2996633,51.4262731 C100.099023,51.4262731 103.392803,48.7805098 105.014997,44.9141484 Z" id="Combined-Shape"></path>
                                <path d="M42.3516972,22.4570764 C42.3551579,22.595587 42.3569024,22.7346954 42.3569024,22.8743628 C42.3569024,29.4818631 38.4525842,34.8383004 33.6363636,34.8383004 C28.8201431,34.8383004 24.9158249,29.4818631 24.9158249,22.8743628 C24.9158249,22.7346954 24.9175694,22.595587 24.92103,22.4570764 C26.5432235,26.3234356 29.8370035,28.969199 33.6363636,28.969199 C37.4357237,28.969199 40.7295038,26.3234356 42.3516973,22.4570742 Z" id="Combined-Shape"></path>
                                <path d="M67.3921013,22.4570764 C67.3955619,22.595587 67.3973064,22.7346954 67.3973064,22.8743628 C67.3973064,29.4818631 63.4929882,34.8383004 58.6767677,34.8383004 C53.8605471,34.8383004 49.956229,29.4818631 49.956229,22.8743628 C49.956229,22.7346954 49.9579734,22.595587 49.9614341,22.4570764 C51.5836275,26.3234356 54.8774076,28.969199 58.6767677,28.969199 C62.4761278,28.969199 65.7699079,26.3234356 67.3921013,22.4570742 Z" id="Combined-Shape"></path>
                                <path d="M92.4325053,22.4570764 C92.435966,22.595587 92.4377104,22.7346954 92.4377104,22.8743628 C92.4377104,29.4818631 88.5333923,34.8383004 83.7171717,34.8383004 C78.9009512,34.8383004 74.996633,29.4818631 74.996633,22.8743628 C74.996633,22.7346954 74.9983775,22.595587 75.0018381,22.4570764 C76.6240315,26.3234356 79.9178116,28.969199 83.7171717,28.969199 C87.5165318,28.969199 90.8103119,26.3234356 92.4325053,22.4570742 Z" id="Combined-Shape"></path>
                                <path d="M54.8096097,2.22854731e-06 C54.8130704,0.138512872 54.8148148,0.277621266 54.8148148,0.417288637 C54.8148148,7.02478893 50.9104966,12.3812262 46.0942761,12.3812262 C41.2780555,12.3812262 37.3737374,7.02478893 37.3737374,0.417288637 C37.3737374,0.277621266 37.3754818,0.138512872 37.3789425,2.22854754e-06 C39.0011359,3.86636145 42.294916,6.51212478 46.0942761,6.51212478 C49.8936362,6.51212478 53.1874163,3.86636145 54.8096097,-2.85105273e-13 Z" id="Combined-Shape"></path>
                                <path d="M79.8500137,2.22854733e-06 C79.8534744,0.138512872 79.8552189,0.277621266 79.8552189,0.417288637 C79.8552189,7.02478893 75.9509007,12.3812262 71.1346801,12.3812262 C66.3184596,12.3812262 62.4141414,7.02478893 62.4141414,0.417288637 C62.4141414,0.277621266 62.4158859,0.138512872 62.4193465,2.22854755e-06 C64.04154,3.86636145 67.33532,6.51212478 71.1346801,6.51212478 C74.9340402,6.51212478 78.2278203,3.86636145 79.8500138,-2.82440737e-13 Z" id="Combined-Shape"></path>
                            </g>
                        </g>
                    </g>
                    <g id="Group-16" transform="translate(0.000000, 58.000000)">
                        <rect id="Rectangle-9" fill="#C28218" x="51.1413613" y="107.196429" width="46.4921466" height="66.8035714"></rect>
                        <g id="Group-15">
                            <path d="M147.592193,127.392857 C147.75197,119.817366 147.129107,111.923772 145.65381,103.812929 C135.225157,46.4786316 103.058823,0 73.8082916,0 C44.5577599,0 12.3914258,46.4786316 1.96277363,103.812929 C0.487475852,111.923772 -0.135386493,119.817366 0.0243902287,127.392857 L147.592193,127.392857 Z" id="Combined-Shape" fill="#206628"></path>
                            <g id="Group-14" transform="translate(14.949495, 25.111092)" fill="#1B5121">
                                <path d="M17.4358723,67.3712248 C17.439333,67.5097354 17.4410774,67.6488438 17.4410774,67.7885112 C17.4410774,74.3960115 13.5367593,79.7524488 8.72053872,79.7524488 C3.90431818,79.7524488 0,74.3960115 0,67.7885112 C0,67.6488438 0.00174445891,67.5097354 0.00520511521,67.3712248 C1.62739855,71.237584 4.92117861,73.8833473 8.72053872,73.8833473 C12.5198988,73.8833473 15.8136789,71.237584 17.4358724,67.3712225 Z" id="Combined-Shape"></path>
                                <path d="M42.4762764,67.3712248 C42.479737,67.5097354 42.4814815,67.6488438 42.4814815,67.7885112 C42.4814815,74.3960115 38.5771633,79.7524488 33.7609428,79.7524488 C28.9447222,79.7524488 25.040404,74.3960115 25.040404,67.7885112 C25.040404,67.6488438 25.0421485,67.5097354 25.0456092,67.3712248 C26.6678026,71.237584 29.9615827,73.8833473 33.7609428,73.8833473 C37.5603029,73.8833473 40.8540829,71.237584 42.4762764,67.3712225 Z" id="Combined-Shape"></path>
                                <path d="M67.5166804,67.3712248 C67.5201411,67.5097354 67.5218855,67.6488438 67.5218855,67.7885112 C67.5218855,74.3960115 63.6175673,79.7524488 58.8013468,79.7524488 C53.9851263,79.7524488 50.0808081,74.3960115 50.0808081,67.7885112 C50.0808081,67.6488438 50.0825525,67.5097354 50.0860132,67.3712248 C51.7082066,71.237584 55.0019867,73.8833473 58.8013468,73.8833473 C62.6007069,73.8833473 65.894487,71.237584 67.5166804,67.3712225 Z" id="Combined-Shape"></path>
                                <path d="M92.5570844,67.3712248 C92.5605451,67.5097354 92.5622896,67.6488438 92.5622896,67.7885112 C92.5622896,74.3960115 88.6579714,79.7524488 83.8417508,79.7524488 C79.0255303,79.7524488 75.1212121,74.3960115 75.1212121,67.7885112 C75.1212121,67.6488438 75.1229566,67.5097354 75.1264172,67.3712248 C76.7486107,71.237584 80.0423907,73.8833473 83.8417508,73.8833473 C87.6411109,73.8833473 90.934891,71.237584 92.5570845,67.3712225 Z" id="Combined-Shape"></path>
                                <path d="M117.597488,67.3712248 C117.600949,67.5097354 117.602694,67.6488438 117.602694,67.7885112 C117.602694,74.3960115 113.698375,79.7524488 108.882155,79.7524488 C104.065934,79.7524488 100.161616,74.3960115 100.161616,67.7885112 C100.161616,67.6488438 100.163361,67.5097354 100.166821,67.3712248 C101.789015,71.237584 105.082795,73.8833473 108.882155,73.8833473 C112.681515,73.8833473 115.975295,71.237584 117.597489,67.3712225 Z" id="Combined-Shape"></path>
                                <path d="M29.8937848,44.9141506 C29.8972454,45.0526612 29.8989899,45.1917696 29.8989899,45.331437 C29.8989899,51.9389373 25.9946717,57.2953746 21.1784512,57.2953746 C16.3622306,57.2953746 12.4579125,51.9389373 12.4579125,45.331437 C12.4579125,45.1917696 12.4596569,45.0526612 12.4631176,44.9141506 C14.085311,48.7805098 17.3790911,51.4262731 21.1784512,51.4262731 C24.9778113,51.4262731 28.2715914,48.7805098 29.8937848,44.9141484 Z" id="Combined-Shape"></path>
                                <path d="M54.9341888,44.9141506 C54.9376495,45.0526612 54.9393939,45.1917696 54.9393939,45.331437 C54.9393939,51.9389373 51.0350758,57.2953746 46.2188552,57.2953746 C41.4026347,57.2953746 37.4983165,51.9389373 37.4983165,45.331437 C37.4983165,45.1917696 37.500061,45.0526612 37.5035216,44.9141506 C39.125715,48.7805098 42.4194951,51.4262731 46.2188552,51.4262731 C50.0182153,51.4262731 53.3119954,48.7805098 54.9341888,44.9141484 Z" id="Combined-Shape"></path>
                                <path d="M79.9745929,44.9141506 C79.9780535,45.0526612 79.979798,45.1917696 79.979798,45.331437 C79.979798,51.9389373 76.0754798,57.2953746 71.2592593,57.2953746 C66.4430387,57.2953746 62.5387205,51.9389373 62.5387205,45.331437 C62.5387205,45.1917696 62.540465,45.0526612 62.5439257,44.9141506 C64.1661191,48.7805098 67.4598992,51.4262731 71.2592593,51.4262731 C75.0586194,51.4262731 78.3523994,48.7805098 79.9745929,44.9141484 Z" id="Combined-Shape"></path>
                                <path d="M105.014997,44.9141506 C105.018458,45.0526612 105.020202,45.1917696 105.020202,45.331437 C105.020202,51.9389373 101.115884,57.2953746 96.2996633,57.2953746 C91.4834428,57.2953746 87.5791246,51.9389373 87.5791246,45.331437 C87.5791246,45.1917696 87.580869,45.0526612 87.5843297,44.9141506 C89.2065231,48.7805098 92.5003032,51.4262731 96.2996633,51.4262731 C100.099023,51.4262731 103.392803,48.7805098 105.014997,44.9141484 Z" id="Combined-Shape"></path>
                                <path d="M42.3516972,22.4570764 C42.3551579,22.595587 42.3569024,22.7346954 42.3569024,22.8743628 C42.3569024,29.4818631 38.4525842,34.8383004 33.6363636,34.8383004 C28.8201431,34.8383004 24.9158249,29.4818631 24.9158249,22.8743628 C24.9158249,22.7346954 24.9175694,22.595587 24.92103,22.4570764 C26.5432235,26.3234356 29.8370035,28.969199 33.6363636,28.969199 C37.4357237,28.969199 40.7295038,26.3234356 42.3516973,22.4570742 Z" id="Combined-Shape"></path>
                                <path d="M67.3921013,22.4570764 C67.3955619,22.595587 67.3973064,22.7346954 67.3973064,22.8743628 C67.3973064,29.4818631 63.4929882,34.8383004 58.6767677,34.8383004 C53.8605471,34.8383004 49.956229,29.4818631 49.956229,22.8743628 C49.956229,22.7346954 49.9579734,22.595587 49.9614341,22.4570764 C51.5836275,26.3234356 54.8774076,28.969199 58.6767677,28.969199 C62.4761278,28.969199 65.7699079,26.3234356 67.3921013,22.4570742 Z" id="Combined-Shape"></path>
                                <path d="M92.4325053,22.4570764 C92.435966,22.595587 92.4377104,22.7346954 92.4377104,22.8743628 C92.4377104,29.4818631 88.5333923,34.8383004 83.7171717,34.8383004 C78.9009512,34.8383004 74.996633,29.4818631 74.996633,22.8743628 C74.996633,22.7346954 74.9983775,22.595587 75.0018381,22.4570764 C76.6240315,26.3234356 79.9178116,28.969199 83.7171717,28.969199 C87.5165318,28.969199 90.8103119,26.3234356 92.4325053,22.4570742 Z" id="Combined-Shape"></path>
                                <path d="M54.8096097,2.22854731e-06 C54.8130704,0.138512872 54.8148148,0.277621266 54.8148148,0.417288637 C54.8148148,7.02478893 50.9104966,12.3812262 46.0942761,12.3812262 C41.2780555,12.3812262 37.3737374,7.02478893 37.3737374,0.417288637 C37.3737374,0.277621266 37.3754818,0.138512872 37.3789425,2.22854754e-06 C39.0011359,3.86636145 42.294916,6.51212478 46.0942761,6.51212478 C49.8936362,6.51212478 53.1874163,3.86636145 54.8096097,-2.85105273e-13 Z" id="Combined-Shape"></path>
                                <path d="M79.8500137,2.22854733e-06 C79.8534744,0.138512872 79.8552189,0.277621266 79.8552189,0.417288637 C79.8552189,7.02478893 75.9509007,12.3812262 71.1346801,12.3812262 C66.3184596,12.3812262 62.4141414,7.02478893 62.4141414,0.417288637 C62.4141414,0.277621266 62.4158859,0.138512872 62.4193465,2.22854755e-06 C64.04154,3.86636145 67.33532,6.51212478 71.1346801,6.51212478 C74.9340402,6.51212478 78.2278203,3.86636145 79.8500138,-2.82440737e-13 Z" id="Combined-Shape"></path>
                            </g>
                        </g>
                    </g>
                    <g id="Group-16" transform="translate(102.500000, 0.000000)">
                        <rect id="Rectangle-9" fill="#F6A623" x="66" y="138" width="60" height="86"></rect>
                        <g id="Group-15">
                            <path d="M190.473708,164 C190.679907,154.247643 189.876078,144.085776 187.972146,133.644231 C174.513548,59.8345602 133.00159,0 95.2525925,0 C57.5035955,0 15.9916374,59.8345602 2.53303894,133.644231 C0.629107349,144.085776 -0.174721758,154.247643 0.0314765789,164 L190.473708,164 Z" id="Combined-Shape" fill="#2B7F21"></path>
                            <g id="Group-14" transform="translate(19.292929, 32.326923)" fill="#206628">
                                <g id="Group-4" transform="translate(0.000000, 86.730769)">
                                    <path d="M22.5017001,2.86893519e-06 C22.5061662,0.178315421 22.5084175,0.357397491 22.5084175,0.537199166 C22.5084175,9.04340643 17.4697366,15.9390499 11.2542088,15.9390499 C5.03868089,15.9390499 0,9.04340643 0,0.537199166 C0,0.357397491 0.00225129494,0.178315421 0.0067174122,2.86893461e-06 C2.1002238,4.97738485 6.35098051,8.383425 11.2542088,8.383425 C16.157437,8.383425 20.4081937,4.97738485 22.5017001,2.81330514e-13 Z" id="Combined-Shape"></path>
                                    <path d="M54.8173567,2.86893469e-06 C54.8218228,0.178315421 54.8240741,0.357397491 54.8240741,0.537199166 C54.8240741,9.04340643 49.7853932,15.9390499 43.5698653,15.9390499 C37.3543375,15.9390499 32.3156566,9.04340643 32.3156566,0.537199166 C32.3156566,0.357397491 32.3179079,0.178315421 32.322374,2.86893512e-06 C34.4158804,4.97738485 38.6666371,8.383425 43.5698653,8.383425 C48.4730936,8.383425 52.7238503,4.97738485 54.8173567,-2.03836947e-13 Z" id="Combined-Shape"></path>
                                    <path d="M87.1330132,2.86893462e-06 C87.1374793,0.178315421 87.1397306,0.357397491 87.1397306,0.537199166 C87.1397306,9.04340643 82.1010498,15.9390499 75.8855219,15.9390499 C69.669994,15.9390499 64.6313131,9.04340643 64.6313131,0.537199166 C64.6313131,0.357397491 64.6335644,0.178315421 64.6380305,2.86893513e-06 C66.7315369,4.97738485 70.9822936,8.383425 75.8855219,8.383425 C80.7887501,8.383425 85.0395068,4.97738485 87.1330133,-2.24043006e-13 Z" id="Combined-Shape"></path>
                                    <path d="M119.44867,2.86893467e-06 C119.453136,0.178315421 119.455387,0.357397491 119.455387,0.537199166 C119.455387,9.04340643 114.416706,15.9390499 108.201178,15.9390499 C101.985651,15.9390499 96.9469697,9.04340643 96.9469697,0.537199166 C96.9469697,0.357397491 96.949221,0.178315421 96.9536871,2.86893513e-06 C99.0471935,4.97738485 103.29795,8.383425 108.201178,8.383425 C113.104407,8.383425 117.355163,4.97738485 119.44867,-2.02282635e-13 Z" id="Combined-Shape"></path>
                                    <path d="M151.764326,2.86893463e-06 C151.768792,0.178315421 151.771044,0.357397491 151.771044,0.537199166 C151.771044,9.04340643 146.732363,15.9390499 140.516835,15.9390499 C134.301307,15.9390499 129.262626,9.04340643 129.262626,0.537199166 C129.262626,0.357397491 129.264878,0.178315421 129.269344,2.86893507e-06 C131.36285,4.97738485 135.613607,8.383425 140.516835,8.383425 C145.420063,8.383425 149.67082,4.97738485 151.764326,-2.54907206e-13 Z" id="Combined-Shape"></path>
                                </g>
                                <g id="Group-4" transform="translate(16.077441, 57.820513)">
                                    <path d="M22.5017001,2.86893467e-06 C22.5061662,0.178315421 22.5084175,0.357397491 22.5084175,0.537199166 C22.5084175,9.04340643 17.4697366,15.9390499 11.2542088,15.9390499 C5.03868089,15.9390499 0,9.04340643 0,0.537199166 C0,0.357397491 0.00225129494,0.178315421 0.0067174122,2.86893515e-06 C2.1002238,4.97738485 6.35098051,8.383425 11.2542088,8.383425 C16.157437,8.383425 20.4081937,4.97738485 22.5017001,-1.92734717e-13 Z" id="Combined-Shape"></path>
                                    <path d="M54.8173567,2.86893465e-06 C54.8218228,0.178315421 54.8240741,0.357397491 54.8240741,0.537199166 C54.8240741,9.04340643 49.7853932,15.9390499 43.5698653,15.9390499 C37.3543375,15.9390499 32.3156566,9.04340643 32.3156566,0.537199166 C32.3156566,0.357397491 32.3179079,0.178315421 32.322374,2.8689351e-06 C34.4158804,4.97738485 38.6666371,8.383425 43.5698653,8.383425 C48.4730936,8.383425 52.7238503,4.97738485 54.8173567,-2.08055795e-13 Z" id="Combined-Shape"></path>
                                    <path d="M87.1330132,2.86893462e-06 C87.1374793,0.178315421 87.1397306,0.357397491 87.1397306,0.537199166 C87.1397306,9.04340643 82.1010498,15.9390499 75.8855219,15.9390499 C69.669994,15.9390499 64.6313131,9.04340643 64.6313131,0.537199166 C64.6313131,0.357397491 64.6335644,0.178315421 64.6380305,2.86893508e-06 C66.7315369,4.97738485 70.9822936,8.383425 75.8855219,8.383425 C80.7887501,8.383425 85.0395068,4.97738485 87.1330133,-2.34701147e-13 Z" id="Combined-Shape"></path>
                                    <path d="M119.44867,2.86893462e-06 C119.453136,0.178315421 119.455387,0.357397491 119.455387,0.537199166 C119.455387,9.04340643 114.416706,15.9390499 108.201178,15.9390499 C101.985651,15.9390499 96.9469697,9.04340643 96.9469697,0.537199166 C96.9469697,0.357397491 96.949221,0.178315421 96.9536871,2.8689351e-06 C99.0471935,4.97738485 103.29795,8.383425 108.201178,8.383425 C113.104407,8.383425 117.355163,4.97738485 119.44867,-2.28039809e-13 Z" id="Combined-Shape"></path>
                                </g>
                                <g id="Group-11" transform="translate(32.154882, 28.910256)">
                                    <path d="M22.5017001,2.86893468e-06 C22.5061662,0.178315421 22.5084175,0.357397491 22.5084175,0.537199166 C22.5084175,9.04340643 17.4697366,15.9390499 11.2542088,15.9390499 C5.03868089,15.9390499 0,9.04340643 0,0.537199166 C0,0.357397491 0.00225129494,0.178315421 0.0067174122,2.86893512e-06 C2.1002238,4.97738485 6.35098051,8.383425 11.2542088,8.383425 C16.157437,8.383425 20.4081937,4.97738485 22.5017001,-1.98507877e-13 Z" id="Combined-Shape"></path>
                                    <path d="M54.8173567,2.86893465e-06 C54.8218228,0.178315421 54.8240741,0.357397491 54.8240741,0.537199166 C54.8240741,9.04340643 49.7853932,15.9390499 43.5698653,15.9390499 C37.3543375,15.9390499 32.3156566,9.04340643 32.3156566,0.537199166 C32.3156566,0.357397491 32.3179079,0.178315421 32.322374,2.86893511e-06 C34.4158804,4.97738485 38.6666371,8.383425 43.5698653,8.383425 C48.4730936,8.383425 52.7238503,4.97738485 54.8173567,-2.16049401e-13 Z" id="Combined-Shape"></path>
                                    <path d="M87.1330132,2.8689351e-06 C87.1374793,0.178315421 87.1397306,0.357397491 87.1397306,0.537199166 C87.1397306,9.04340643 82.1010498,15.9390499 75.8855219,15.9390499 C69.669994,15.9390499 64.6313131,9.04340643 64.6313131,0.537199166 C64.6313131,0.357397491 64.6335644,0.178315421 64.6380305,2.86893454e-06 C66.7315369,4.97738485 70.9822936,8.383425 75.8855219,8.383425 C80.7887501,8.383425 85.0395068,4.97738485 87.1330133,2.49578136e-13 Z" id="Combined-Shape"></path>
                                </g>
                                <g id="Group-12" transform="translate(48.232323, 0.000000)">
                                    <path d="M22.5017001,2.86893469e-06 C22.5061662,0.178315421 22.5084175,0.357397491 22.5084175,0.537199166 C22.5084175,9.04340643 17.4697366,15.9390499 11.2542088,15.9390499 C5.03868089,15.9390499 0,9.04340643 0,0.537199166 C0,0.357397491 0.00225129494,0.178315421 0.0067174122,2.86893514e-06 C2.1002238,4.97738485 6.35098051,8.383425 11.2542088,8.383425 C16.157437,8.383425 20.4081937,4.97738485 22.5017001,-1.81854531e-13 Z" id="Combined-Shape"></path>
                                    <path d="M54.8173567,2.86893467e-06 C54.8218228,0.178315421 54.8240741,0.357397491 54.8240741,0.537199166 C54.8240741,9.04340643 49.7853932,15.9390499 43.5698653,15.9390499 C37.3543375,15.9390499 32.3156566,9.04340643 32.3156566,0.537199166 C32.3156566,0.357397491 32.3179079,0.178315421 32.322374,2.86893513e-06 C34.4158804,4.97738485 38.6666371,8.383425 43.5698653,8.383425 C48.4730936,8.383425 52.7238503,4.97738485 54.8173567,-1.91180405e-13 Z" id="Combined-Shape"></path>
                                </g>
                            </g>
                        </g>
                    </g>
                </g>
            </g>
        </g>
    </g>
</svg>